  0
SECTION
  2
HEADER
  9
$ACADVER
  1
AC1015
  9
$ACADMAINTVER
 70
     6
  9
$DWGCODEPAGE
  3
ANSI_1252
  9
$INSBASE
 10
0.0
 20
0.0
 30
0.0
  9
$EXTMIN
 10
-1.745855854
 20
-2.73747541
 30
0.0
  9
$EXTMAX
 10
7.4889204542
 20
2.7338706533
 30
0.0
  9
$LIMMIN
 10
0.0
 20
0.0
  9
$LIMMAX
 10
12.0
 20
9.0
  9
$ORTHOMODE
 70
     0
  9
$REGENMODE
 70
     1
  9
$FILLMODE
 70
     1
  9
$QTEXTMODE
 70
     0
  9
$MIRRTEXT
 70
     1
  9
$LTSCALE
 40
1.0
  9
$ATTMODE
 70
     1
  9
$TEXTSIZE
 40
0.25
  9
$TRACEWID
 40
0.05
  9
$TEXTSTYLE
  7
Standard
  9
$CLAYER
  8
0
  9
$CELTYPE
  6
ByLayer
  9
$CECOLOR
 62
   256
  9
$CELTSCALE
 40
1.0
  9
$DISPSILH
 70
     0
  9
$DIMSCALE
 40
1.0
  9
$DIMASZ
 40
0.236
  9
$DIMEXO
 40
0.039
  9
$DIMDLI
 40
0.38
  9
$DIMRND
 40
0.0
  9
$DIMDLE
 40
0.0
  9
$DIMEXE
 40
0.039
  9
$DIMTP
 40
0.0
  9
$DIMTM
 40
0.0
  9
$DIMTXT
 40
0.25
  9
$DIMCEN
 40
0.09
  9
$DIMTSZ
 40
0.0
  9
$DIMTOL
 70
     0
  9
$DIMLIM
 70
     0
  9
$DIMTIH
 70
     1
  9
$DIMTOH
 70
     1
  9
$DIMSE1
 70
     0
  9
$DIMSE2
 70
     0
  9
$DIMTAD
 70
     1
  9
$DIMZIN
 70
     0
  9
$DIMBLK
  1

  9
$DIMASO
 70
     1
  9
$DIMSHO
 70
     1
  9
$DIMPOST
  1

  9
$DIMAPOST
  1

  9
$DIMALT
 70
     0
  9
$DIMALTD
 70
     2
  9
$DIMALTF
 40
25.4
  9
$DIMLFAC
 40
1.0
  9
$DIMTOFL
 70
     0
  9
$DIMTVP
 40
0.0
  9
$DIMTIX
 70
     0
  9
$DIMSOXD
 70
     0
  9
$DIMSAH
 70
     0
  9
$DIMBLK1
  1

  9
$DIMBLK2
  1

  9
$DIMSTYLE
  2
Standard
  9
$DIMCLRD
 70
     0
  9
$DIMCLRE
 70
     0
  9
$DIMCLRT
 70
     0
  9
$DIMTFAC
 40
1.0
  9
$DIMGAP
 40
0.06
  9
$DIMJUST
 70
     0
  9
$DIMSD1
 70
     0
  9
$DIMSD2
 70
     0
  9
$DIMTOLJ
 70
     1
  9
$DIMTZIN
 70
     0
  9
$DIMALTZ
 70
     0
  9
$DIMALTTZ
 70
     0
  9
$DIMUPT
 70
     0
  9
$DIMDEC
 70
     2
  9
$DIMTDEC
 70
     2
  9
$DIMALTU
 70
     2
  9
$DIMALTTD
 70
     2
  9
$DIMTXSTY
  7
Standard
  9
$DIMAUNIT
 70
     0
  9
$DIMADEC
 70
     2
  9
$DIMALTRND
 40
0.0
  9
$DIMAZIN
 70
     0
  9
$DIMDSEP
 70
    46
  9
$DIMATFIT
 70
     3
  9
$DIMFRAC
 70
     0
  9
$DIMLDRBLK
  1

  9
$DIMLUNIT
 70
     2
  9
$DIMLWD
 70
    -2
  9
$DIMLWE
 70
    -2
  9
$DIMTMOVE
 70
     0
  9
$LUNITS
 70
     2
  9
$LUPREC
 70
     2
  9
$SKETCHINC
 40
0.1
  9
$FILLETRAD
 40
0.5
  9
$AUNITS
 70
     0
  9
$AUPREC
 70
     2
  9
$MENU
  1
.
  9
$ELEVATION
 40
0.0
  9
$PELEVATION
 40
0.0
  9
$THICKNESS
 40
0.0
  9
$LIMCHECK
 70
     0
  9
$CHAMFERA
 40
0.0
  9
$CHAMFERB
 40
0.0
  9
$CHAMFERC
 40
0.0
  9
$CHAMFERD
 40
0.0
  9
$SKPOLY
 70
     0
  9
$TDCREATE
 40
2458242.527520532
  9
$TDUCREATE
 40
2458242.735853866
  9
$TDUPDATE
 40
2458242.527753843
  9
$TDUUPDATE
 40
2458242.736087176
  9
$TDINDWG
 40
0.0000000116
  9
$TDUSRTIMER
 40
0.0000000116
  9
$USRTIMER
 70
     1
  9
$ANGBASE
 50
0.0
  9
$ANGDIR
 70
     0
  9
$PDMODE
 70
     0
  9
$PDSIZE
 40
-1.0
  9
$PLINEWID
 40
0.0
  9
$SPLFRAME
 70
     0
  9
$SPLINETYPE
 70
     6
  9
$SPLINESEGS
 70
     8
  9
$HANDSEED
  5
86
  9
$SURFTAB1
 70
     6
  9
$SURFTAB2
 70
     6
  9
$SURFTYPE
 70
     6
  9
$SURFU
 70
     6
  9
$SURFV
 70
     6
  9
$UCSBASE
  2

  9
$UCSNAME
  2

  9
$UCSORG
 10
0.0
 20
0.0
 30
0.0
  9
$UCSXDIR
 10
1.0
 20
0.0
 30
0.0
  9
$UCSYDIR
 10
0.0
 20
1.0
 30
0.0
  9
$UCSORTHOREF
  2

  9
$UCSORTHOVIEW
 70
     0
  9
$UCSORGTOP
 10
0.0
 20
0.0
 30
0.0
  9
$UCSORGBOTTOM
 10
0.0
 20
0.0
 30
0.0
  9
$UCSORGLEFT
 10
0.0
 20
0.0
 30
0.0
  9
$UCSORGRIGHT
 10
0.0
 20
0.0
 30
0.0
  9
$UCSORGFRONT
 10
0.0
 20
0.0
 30
0.0
  9
$UCSORGBACK
 10
0.0
 20
0.0
 30
0.0
  9
$PUCSBASE
  2

  9
$PUCSNAME
  2

  9
$PUCSORG
 10
0.0
 20
0.0
 30
0.0
  9
$PUCSXDIR
 10
1.0
 20
0.0
 30
0.0
  9
$PUCSYDIR
 10
0.0
 20
1.0
 30
0.0
  9
$PUCSORTHOREF
  2

  9
$PUCSORTHOVIEW
 70
     0
  9
$PUCSORGTOP
 10
0.0
 20
0.0
 30
0.0
  9
$PUCSORGBOTTOM
 10
0.0
 20
0.0
 30
0.0
  9
$PUCSORGLEFT
 10
0.0
 20
0.0
 30
0.0
  9
$PUCSORGRIGHT
 10
0.0
 20
0.0
 30
0.0
  9
$PUCSORGFRONT
 10
0.0
 20
0.0
 30
0.0
  9
$PUCSORGBACK
 10
0.0
 20
0.0
 30
0.0
  9
$USERI1
 70
     0
  9
$USERI2
 70
     0
  9
$USERI3
 70
     0
  9
$USERI4
 70
     0
  9
$USERI5
 70
     0
  9
$USERR1
 40
0.0
  9
$USERR2
 40
0.0
  9
$USERR3
 40
0.0
  9
$USERR4
 40
0.0
  9
$USERR5
 40
0.0
  9
$WORLDVIEW
 70
     1
  9
$SHADEDGE
 70
     3
  9
$SHADEDIF
 70
    70
  9
$TILEMODE
 70
     1
  9
$MAXACTVP
 70
    64
  9
$PINSBASE
 10
0.0
 20
0.0
 30
0.0
  9
$PLIMCHECK
 70
     0
  9
$PEXTMIN
 10
1.0000000000E+20
 20
1.0000000000E+20
 30
1.0000000000E+20
  9
$PEXTMAX
 10
-1.0000000000E+20
 20
-1.0000000000E+20
 30
-1.0000000000E+20
  9
$PLIMMIN
 10
0.0
 20
0.0
  9
$PLIMMAX
 10
12.0
 20
9.0
  9
$UNITMODE
 70
     0
  9
$VISRETAIN
 70
     1
  9
$PLINEGEN
 70
     0
  9
$PSLTSCALE
 70
     1
  9
$TREEDEPTH
 70
  3020
  9
$CMLSTYLE
  2
Standard
  9
$CMLJUST
 70
     0
  9
$CMLSCALE
 40
1.0
  9
$PROXYGRAPHICS
 70
     1
  9
$MEASUREMENT
 70
     0
  9
$CELWEIGHT
370
    -1
  9
$ENDCAPS
280
     0
  9
$JOINSTYLE
280
     0
  9
$LWDISPLAY
290
     1
  9
$INSUNITS
 70
     1
  9
$HYPERLINKBASE
  1

  9
$STYLESHEET
  1

  9
$XEDIT
290
     1
  9
$CEPSNTYPE
380
     0
  9
$PSTYLEMODE
290
     1
  9
$FINGERPRINTGUID
  2
{7CEF5D82-0843-426C-A082-A6810BAB9864}
  9
$VERSIONGUID
  2
{FAEB1C32-E019-11D5-929B-00C0DF256EC4}
  9
$EXTNAMES
290
     1
  9
$PSVPSCALE
 40
0.0
  9
$OLESTARTUP
290
     0
  0
ENDSEC
  0
SECTION
  2
CLASSES
  0
CLASS
  1
ACDBDICTIONARYWDFLT
  2
AcDbDictionaryWithDefault
  3
ObjectDBX Classes
 90
        0
280
     0
281
     0
  0
CLASS
  1
VISUALSTYLE
  2
AcDbVisualStyle
  3
ObjectDBX Classes
 90
     4095
280
     0
281
     0
  0
CLASS
  1
MATERIAL
  2
AcDbMaterial
  3
ObjectDBX Classes
 90
     1153
280
     0
281
     0
  0
CLASS
  1
SCALE
  2
AcDbScale
  3
ObjectDBX Classes
 90
     1153
280
     0
281
     0
  0
CLASS
  1
TABLESTYLE
  2
AcDbTableStyle
  3
ObjectDBX Classes
 90
     4095
280
     0
281
     0
  0
CLASS
  1
MLEADERSTYLE
  2
AcDbMLeaderStyle
  3
ACDB_MLEADERSTYLE_CLASS
 90
     4095
280
     0
281
     0
  0
CLASS
  1
SUN
  2
AcDbSun
  3
SCENEOE
 90
     1153
280
     0
281
     0
  0
CLASS
  1
ACDBPLACEHOLDER
  2
AcDbPlaceHolder
  3
ObjectDBX Classes
 90
        0
280
     0
281
     0
  0
CLASS
  1
LAYOUT
  2
AcDbLayout
  3
ObjectDBX Classes
 90
        0
280
     0
281
     0
  0
ENDSEC
  0
SECTION
  2
TABLES
  0
TABLE
  2
VPORT
  5
8
330
0
100
AcDbSymbolTable
 70
     1
  0
VPORT
  5
29
330
8
100
AcDbSymbolTableRecord
100
AcDbViewportTableRecord
  2
*Active
 70
     0
 10
0.0
 20
0.0
 11
1.0
 21
1.0
 12
2.8715323001
 22
-0.0018023783
 13
0.0
 23
0.0
 14
0.5
 24
0.5
 15
0.5
 25
0.5
 16
0.0
 26
0.0
 36
1.0
 17
0.0
 27
0.0
 37
0.0
 40
5.5807729846
 41
1.6878435766
 42
50.0
 43
0.0
 44
0.0
 50
0.0
 51
0.0
 71
     0
 72
   100
 73
     1
 74
     3
 75
     0
 76
     0
 77
     0
 78
     0
281
     0
 65
     1
110
0.0
120
0.0
130
0.0
111
1.0
121
0.0
131
0.0
112
0.0
122
1.0
132
0.0
 79
     0
146
0.0
  0
ENDTAB
  0
TABLE
  2
LTYPE
  5
5
330
0
100
AcDbSymbolTable
 70
     6
  0
LTYPE
  5
14
330
5
100
AcDbSymbolTableRecord
100
AcDbLinetypeTableRecord
  2
ByBlock
 70
     0
  3

 72
    65
 73
     0
 40
0.0
  0
LTYPE
  5
15
330
5
100
AcDbSymbolTableRecord
100
AcDbLinetypeTableRecord
  2
ByLayer
 70
     0
  3

 72
    65
 73
     0
 40
0.0
  0
LTYPE
  5
16
330
5
100
AcDbSymbolTableRecord
100
AcDbLinetypeTableRecord
  2
Continuous
 70
     0
  3
Solid line
 72
    65
 73
     0
 40
0.0
  0
LTYPE
  5
6E
330
5
100
AcDbSymbolTableRecord
100
AcDbLinetypeTableRecord
  2
HIDDEN
 70
     0
  3
Hidden __ __ __ __ __ __ __ __ __ __ __ __ __ __
 72
    65
 73
     2
 40
0.075
 49
0.05
 74
     0
 49
-0.025
 74
     0
  0
LTYPE
  5
6F
330
5
100
AcDbSymbolTableRecord
100
AcDbLinetypeTableRecord
  2
PHANTOM
 70
     0
  3
Phantom ______  __  __  ______  __  __  ______
 72
    65
 73
     6
 40
0.5
 49
0.25
 74
     0
 49
-0.05
 74
     0
 49
0.05
 74
     0
 49
-0.05
 74
     0
 49
0.05
 74
     0
 49
-0.05
 74
     0
  0
LTYPE
  5
70
330
5
100
AcDbSymbolTableRecord
100
AcDbLinetypeTableRecord
  2
CENTER
 70
     0
  3
Center ____ _ ____ _ ____ _ ____ _ ____ _ ____
 72
    65
 73
     4
 40
0.4
 49
0.25
 74
     0
 49
-0.05
 74
     0
 49
0.05
 74
     0
 49
-0.05
 74
     0
  0
LTYPE
  5
71
330
5
100
AcDbSymbolTableRecord
100
AcDbLinetypeTableRecord
  2
CENTERX2
 70
     0
  3
Center (2x) ________  __  ________  __  _____
 72
    65
 73
     4
 40
0.8
 49
0.5
 74
     0
 49
-0.1
 74
     0
 49
0.1
 74
     0
 49
-0.1
 74
     0
  0
LTYPE
  5
72
330
5
100
AcDbSymbolTableRecord
100
AcDbLinetypeTableRecord
  2
DOT2
 70
     0
  3
Dot (.5x) ........................................
 72
    65
 73
     2
 40
0.025
 49
0.0
 74
     0
 49
-0.025
 74
     0
  0
ENDTAB
  0
TABLE
  2
LAYER
  5
2
330
0
100
AcDbSymbolTable
 70
     1
  0
LAYER
  5
10
330
2
100
AcDbSymbolTableRecord
100
AcDbLayerTableRecord
  2
0
 70
     0
 62
     7
  6
Continuous
370
    -3
390
F
  0
ENDTAB
  0
TABLE
  2
STYLE
  5
3
330
0
100
AcDbSymbolTable
 70
     2
  0
STYLE
  5
11
330
3
100
AcDbSymbolTableRecord
100
AcDbTextStyleTableRecord
  2
Standard
 70
     0
 40
0.0
 41
1.0
 50
0.0
 71
     0
 42
0.25
  3
txt
  4

  0
STYLE
  5
83
330
3
100
AcDbSymbolTableRecord
100
AcDbTextStyleTableRecord
  2
SLDTEXTSTYLE0
 70
     0
 40
0.0
 41
0.7
 50
0.0
 71
     0
 42
0.25
  3
TXT
  4

  0
ENDTAB
  0
TABLE
  2
VIEW
  5
6
330
0
100
AcDbSymbolTable
 70
     0
  0
ENDTAB
  0
TABLE
  2
UCS
  5
7
330
0
100
AcDbSymbolTable
 70
     0
  0
ENDTAB
  0
TABLE
  2
APPID
  5
9
330
0
100
AcDbSymbolTable
 70
     1
  0
APPID
  5
12
330
9
100
AcDbSymbolTableRecord
100
AcDbRegAppTableRecord
  2
ACAD
 70
     0
  0
ENDTAB
  0
TABLE
  2
DIMSTYLE
  5
A
330
0
100
AcDbSymbolTable
 70
     1
100
AcDbDimStyleTable
  0
DIMSTYLE
105
27
330
A
100
AcDbSymbolTableRecord
100
AcDbDimStyleTableRecord
  2
Standard
 70
     0
178
     0
340
11
  0
ENDTAB
  0
TABLE
  2
BLOCK_RECORD
  5
1
330
0
100
AcDbSymbolTable
 70
     1
  0
BLOCK_RECORD
  5
1F
330
1
100
AcDbSymbolTableRecord
100
AcDbBlockTableRecord
  2
*Model_Space
340
22
  0
BLOCK_RECORD
  5
1B
330
1
100
AcDbSymbolTableRecord
100
AcDbBlockTableRecord
  2
*Paper_Space
340
1E
  0
BLOCK_RECORD
  5
23
330
1
100
AcDbSymbolTableRecord
100
AcDbBlockTableRecord
  2
*Paper_Space0
340
26
  0
ENDTAB
  0
ENDSEC
  0
SECTION
  2
BLOCKS
  0
BLOCK
  5
20
330
1F
100
AcDbEntity
  8
0
100
AcDbBlockBegin
  2
*Model_Space
 70
     0
 10
0.0
 20
0.0
 30
0.0
  3
*Model_Space
  1

  0
ENDBLK
  5
21
330
1F
100
AcDbEntity
  8
0
100
AcDbBlockEnd
  0
BLOCK
  5
1C
330
1B
100
AcDbEntity
 67
     1
  8
0
100
AcDbBlockBegin
  2
*Paper_Space
 70
     0
 10
0.0
 20
0.0
 30
0.0
  3
*Paper_Space
  1

  0
ENDBLK
  5
1D
330
1B
100
AcDbEntity
 67
     1
  8
0
100
AcDbBlockEnd
  0
BLOCK
  5
24
330
23
100
AcDbEntity
  8
0
100
AcDbBlockBegin
  2
*Paper_Space0
 70
     0
 10
0.0
 20
0.0
 30
0.0
  3
*Paper_Space0
  1

  0
ENDBLK
  5
25
330
23
100
AcDbEntity
  8
0
100
AcDbBlockEnd
  0
ENDSEC
  0
SECTION
  2
ENTITIES
  0
CIRCLE
  5
73
330
1F
100
AcDbEntity
  8
0
  6
Continuous
 62
     7
100
AcDbCircle
 10
0.0
 20
0.0
 30
0.0
 40
0.25
  0
CIRCLE
  5
74
330
1F
100
AcDbEntity
  8
0
  6
Continuous
 62
     7
100
AcDbCircle
 10
0.76
 20
0.0
 30
0.0
 40
0.1000000000000001
  0
CIRCLE
  5
75
330
1F
100
AcDbEntity
  8
0
  6
Continuous
 62
     7
100
AcDbCircle
 10
-0.38
 20
0.6581793069
 30
0.0
 40
0.1
  0
CIRCLE
  5
76
330
1F
100
AcDbEntity
  8
0
  6
Continuous
 62
     7
100
AcDbCircle
 10
-0.38
 20
-0.6581793069
 30
0.0
 40
0.1
  0
CIRCLE
  5
77
330
1F
100
AcDbEntity
  8
0
  6
Continuous
 62
     7
100
AcDbCircle
 10
0.51
 20
0.0
 30
0.0
 40
0.05
  0
CIRCLE
  5
78
330
1F
100
AcDbEntity
  8
0
  6
Continuous
 62
     7
100
AcDbCircle
 10
5.1370413366
 20
-0.6581793069
 30
0.0
 40
0.1000000000000009
  0
CIRCLE
  5
79
330
1F
100
AcDbEntity
  8
0
  6
Continuous
 62
     7
100
AcDbCircle
 10
5.1370413366
 20
0.6581793069
 30
0.0
 40
0.0999999999999991
  0
CIRCLE
  5
7A
330
1F
100
AcDbEntity
  8
0
  6
Continuous
 62
     7
100
AcDbCircle
 10
3.9970413366
 20
0.0
 30
0.0
 40
0.0999999999999991
  0
CIRCLE
  5
7B
330
1F
100
AcDbEntity
  8
0
  6
Continuous
 62
     7
100
AcDbCircle
 10
4.2470413366
 20
0.0
 30
0.0
 40
0.05
  0
CIRCLE
  5
7C
330
1F
100
AcDbEntity
  8
0
  6
Continuous
 62
     7
100
AcDbCircle
 10
4.7570413366
 20
0.0
 30
0.0
 40
0.2500000000000019
  0
LWPOLYLINE
  5
81
330
1F
100
AcDbEntity
  8
0
  6
Continuous
 62
     7
100
AcDbPolyline
 90
      161
 70
   128
 43
0.0
 10
0.0
 20
1.6179054054
 10
-0.012599312
 20
1.6126927634
 10
-0.0261850241
 20
1.6122291477
 10
-0.051012598
 20
1.600644236
 10
-0.1002306486
 20
1.5769897274
 10
-0.1986043832
 20
1.5330531221
 10
-0.214821978
 20
1.5226410805
 10
-0.2294237305
 20
1.5195897489
 10
-0.2522627305
 20
1.5055658432
 10
-0.2758495852
 20
1.4937342402
 10
-0.2953784378
 20
1.4867955943
 10
-0.3221780972
 20
1.4734042933
 10
-0.3428228633
 20
1.4619937371
 10
-0.3538914656
 20
1.4542239964
 10
-0.3668662547
 20
1.4503620576
 10
-0.3777933471
 20
1.4423485908
 10
-0.3901932017
 20
1.4373260095
 10
-0.4131199714
 20
1.4235885189
 10
-0.4271345988
 20
1.4180415395
 10
-0.4359809259
 20
1.4098063694
 10
-0.4598747217
 20
1.3977627785
 10
-0.470765197
 20
1.390012123
 10
-0.4829143364
 20
1.3842841043
 10
-0.4929754206
 20
1.3752233911
 10
-0.505401477
 20
1.3699232939
 10
-0.5288351688
 20
1.3569546026
 10
-0.5387117054
 20
1.3477741709
 10
-0.5509045288
 20
1.3419616775
 10
-0.5617210483
 20
1.3313771867
 10
-0.5734381374
 20
1.3275883308
 10
-0.5874442914
 20
1.3150345171
 10
-0.6016792539
 20
1.3094795021
 10
-0.6224215522
 20
1.2933429978
 10
-0.6431208718
 20
1.2771966824
 10
-0.6623650724
 20
1.2680566955
 10
-0.6858162851
 20
1.2495433024
 10
-0.7088301832
 20
1.2305128569
 10
-0.7323884645
 20
1.2172374557
 10
-0.7463023563
 20
1.2019708183
 10
-0.7628054071
 20
1.1920195341
 10
-0.7757700303
 20
1.1841225789
 10
-0.793996125
 20
1.1652212594
 10
-0.8319111253
 20
1.1363278873
 10
-0.8779597188
 20
1.096958436
 10
-0.9109582094
 20
1.0632213329
 10
-1.0651246945
 20
0.9087409416
 10
-1.1069277578
 20
0.8653994482
 10
-1.1381632022
 20
0.8296551919
 10
-1.1570497368
 20
0.8060498955
 10
-1.1754515808
 20
0.782009041
 10
-1.1925075651
 20
0.761929378
 10
-1.2035497952
 20
0.7438180601
 10
-1.2178423123
 20
0.7316225633
 10
-1.2251952818
 20
0.718329321
 10
-1.2401680906
 20
0.6964030679
 10
-1.2552129755
 20
0.6746920341
 10
-1.2694132749
 20
0.6597040255
 10
-1.2882909144
 20
0.6318899687
 10
-1.3015546989
 20
0.6088897388
 10
-1.3152655876
 20
0.5863592575
 10
-1.3287628766
 20
0.5706622888
 10
-1.3343147493
 20
0.5562809958
 10
-1.3431522619
 20
0.5481448867
 10
-1.3489951632
 20
0.535976358
 10
-1.3580540038
 20
0.5260135658
 10
-1.3625990797
 20
0.5111264107
 10
-1.3710647645
 20
0.5026124576
 10
-1.3763163314
 20
0.4901588273
 10
-1.3852729836
 20
0.4800303794
 10
-1.3912483964
 20
0.468028979
 10
-1.3981622515
 20
0.4566510784
 10
-1.4060589646
 20
0.4457851575
 10
-1.4109389217
 20
0.433224679
 10
-1.4196211686
 20
0.4227912639
 10
-1.4245001908
 20
0.4102348246
 10
-1.4382412915
 20
0.3873077819
 10
-1.4431222735
 20
0.3748373371
 10
-1.4511786436
 20
0.3639282539
 10
-1.4550274599
 20
0.3509501104
 10
-1.462691848
 20
0.3398277027
 10
-1.4780545874
 20
0.3139257246
 10
-1.4870158418
 20
0.2921764253
 10
-1.4982516537
 20
0.2679408637
 10
-1.5052754467
 20
0.2563764183
 10
-1.5085789779
 20
0.2433073481
 10
-1.5259256985
 20
0.2178477419
 10
-1.5334095898
 20
0.1955284478
 10
-1.5829132702
 20
0.0853581395
 10
-1.6324685086
 20
-0.0264846938
 10
-1.6920544507
 20
-0.2091704871
 10
-1.745855854
 20
-0.641617729
 10
-1.6922633306
 20
-1.0742838154
 10
-1.4730399191
 20
-1.6119279373
 10
-1.1146427514
 20
-2.0691335079
 10
-0.651691337
 20
-2.4204616232
 10
-0.2070700065
 20
-2.6231623702
 10
-0.0007487898
 20
-2.6849453612
 10
0.1651631417
 20
-2.7154977319
 10
0.25013656
 20
-2.7250990791
 10
0.3170679601
 20
-2.729529836
 10
0.3841590405
 20
-2.7365021594
 10
0.4369276674
 20
-2.73747541
 10
0.5040791358
 20
-2.7369687783
 10
0.5567614061
 20
-2.7345767978
 10
0.6093381231
 20
-2.7308204757
 10
0.6504997746
 20
-2.7262571247
 10
0.7174346501
 20
-2.7207276593
 10
0.7694073858
 20
-2.7119780558
 10
0.8211295702
 20
-2.7018117275
 10
0.861937645
 20
-2.6948479273
 10
0.9538404357
 20
-2.674436259
 10
1.024611224
 20
-2.6526306562
 10
1.0707954048
 20
-2.6403552568
 10
1.107286556
 20
-2.6313968213
 10
1.1706577032
 20
-2.6091578463
 10
1.2270941954
 20
-2.5889900481
 10
1.2830520088
 20
-2.5674782092
 10
1.3448630751
 20
-2.5411792183
 10
1.3913315761
 20
-2.5154111697
 10
1.4395168719
 20
-2.4940850419
 10
1.4760940934
 20
-2.4743681514
 10
1.535241442
 20
-2.442537795
 10
1.5818694052
 20
-2.417836661
 10
1.6604160651
 20
-2.3649353349
 10
1.7985807162
 20
-2.2684037407
 10
1.9864688249
 20
-2.1128042001
 10
2.122085086
 20
-1.9765510386
 10
2.2606154588
 20
-1.8083960253
 10
2.3863156672
 20
-1.6303623243
 10
2.4697270506
 20
-1.4810698325
 10
2.4986509171
 20
-1.420538516
 10
2.5301945638
 20
-1.3610067621
 10
2.5622631857
 20
-1.2927799526
 10
2.5839777065
 20
-1.2378102487
 10
2.6010981857
 20
-1.1879436726
 10
2.6177525722
 20
-1.1379330227
 10
2.64207062
 20
-1.0667385937
 10
2.6593981287
 20
-1.01022015
 10
2.6811321002
 20
-0.9070760572
 10
2.6911075511
 20
-0.8553315928
 10
2.7020647153
 20
-0.8037673073
 10
2.7144828662
 20
-0.7218908632
 10
2.7225871968
 20
-0.6472317805
 10
2.7260499503
 20
-0.5883034971
 10
2.7285143468
 20
-0.5293405911
 10
2.7313487937
 20
-0.4830837946
 10
2.7320883786
 20
-0.4240801544
 10
2.7322287463
 20
-0.3776902409
 10
2.7278095141
 20
-0.2948891057
 10
2.6661427302
 20
0.0368899105
 10
2.4521934312
 20
0.5774483441
 10
2.1166384243
 20
1.051977163
 10
1.6723150715
 20
1.4262601528
 10
1.2815876676
 20
1.6200946026
 10
0.8580182634
 20
1.7236321035
 10
0.3702187132
 20
1.7170782518
 10
0.1602597111
 20
1.6699073879
 10
0.0702649877
 20
1.6403004891
 10
0.0312433421
 20
1.6256898619
 10
0.0143312063
 20
1.6182815191
 10
0.0
 20
1.6179054054
  0
LWPOLYLINE
  5
82
330
1F
100
AcDbEntity
  8
0
  6
Continuous
 62
     7
100
AcDbPolyline
 90
      173
 70
   128
 43
0.0
 10
3.1391349364
 20
0.0
 10
3.1289663681
 20
0.0249589663
 10
3.1212560716
 20
0.0446868127
 10
3.1082052295
 20
0.0801787927
 10
3.0870338117
 20
0.1443003784
 10
3.0560603031
 20
0.2608175489
 10
3.0223035785
 20
0.4733470437
 10
3.0284756294
 20
0.8570875566
 10
3.1315148528
 20
1.2807679366
 10
3.3247169323
 20
1.6717959699
 10
3.6980938561
 20
2.1168634526
 10
4.1718023823
 20
2.4535499998
 10
4.7117616336
 20
2.6689647284
 10
4.8609730774
 20
2.7048138441
 10
5.0122904971
 20
2.727235995
 10
5.1319419466
 20
2.7324521001
 10
5.2517465102
 20
2.7338706533
 10
5.326785667
 20
2.7305762202
 10
5.3857370025
 20
2.7271516829
 10
5.4446121098
 20
2.7224773616
 10
5.4906017003
 20
2.7164642626
 10
5.5485744184
 20
2.7052699171
 10
5.5941765249
 20
2.6969265893
 10
5.6397091373
 20
2.6882188228
 10
5.6753996761
 20
2.6810037073
 10
5.7481819445
 20
2.662395115
 10
5.8058200825
 20
2.6495562741
 10
5.8620400208
 20
2.63126583
 10
5.9065552195
 20
2.6182012162
 10
5.9619750371
 20
2.5975910888
 10
6.0045230452
 20
2.578666756
 10
6.080579319
 20
2.5455515833
 10
6.1772041465
 20
2.5033478125
 10
6.2508084229
 20
2.4649598866
 10
6.315067947
 20
2.4279456325
 10
6.3794115221
 20
2.3913204154
 10
6.5580298603
 20
2.2665253298
 10
6.7266423776
 20
2.1285365014
 10
6.8812700195
 20
1.9742475936
 10
7.0195640001
 20
1.8059428789
 10
7.1073166404
 20
1.6808166452
 10
7.1462005349
 20
1.6255784441
 10
7.1708941606
 20
1.5790308596
 10
7.2077881065
 20
1.5223758958
 10
7.2302166766
 20
1.4746756411
 10
7.2729863908
 20
1.3906515926
 10
7.3183408704
 20
1.2935394424
 10
7.3556637938
 20
1.1932510896
 10
7.4067501752
 20
1.0331605433
 10
7.4190103845
 20
0.986975105
 10
7.4276332674
 20
0.9504435111
 10
7.44398457
 20
0.8853557129
 10
7.4588073016
 20
0.8199179005
 10
7.4667064051
 20
0.7677992026
 10
7.4726452056
 20
0.7008796987
 10
7.4791613057
 20
0.6486002874
 10
7.4858771363
 20
0.5547618677
 10
7.4873533745
 20
0.4876860964
 10
7.4881763195
 20
0.4350208932
 10
7.4889204542
 20
0.3823543845
 10
7.4840464943
 20
0.3409116244
 10
7.4823889293
 20
0.2882745537
 10
7.4761110072
 20
0.2470351626
 10
7.4691957498
 20
0.1734048992
 10
7.3603684376
 20
-0.2485095814
 10
7.1762110265
 20
-0.6441662985
 10
6.8259532882
 20
-1.107899139
 10
6.3694471897
 20
-1.4671473244
 10
5.8321381037
 20
-1.6871205611
 10
5.399537833
 20
-1.741091091
 10
4.9670952112
 20
-1.687418101
 10
4.7360170919
 20
-1.6076522311
 10
4.6812611074
 20
-1.5823995678
 10
4.6576317982
 20
-1.5701185154
 10
4.6375214275
 20
-1.5662317421
 10
4.6142409258
 20
-1.5533121461
 10
4.5959238595
 20
-1.5434929819
 10
4.5622407976
 20
-1.5294155982
 10
4.5348102314
 20
-1.5172979285
 10
4.5134724354
 20
-1.50719533
 10
4.4903065155
 20
-1.4931982095
 10
4.4770378897
 20
-1.4903387379
 10
4.4656833237
 20
-1.4828847337
 10
4.4498224518
 20
-1.4773845537
 10
4.439502232
 20
-1.4682255538
 10
4.4181532111
 20
-1.4584606772
 10
4.4052565504
 20
-1.4544633256
 10
4.3943723443
 20
-1.4463331349
 10
4.3815878726
 20
-1.4420884818
 10
4.3702791064
 20
-1.4348403715
 10
4.3585302477
 20
-1.4285666937
 10
4.3462480301
 20
-1.4231910331
 10
4.3356096804
 20
-1.4148600063
 10
4.3228857621
 20
-1.4102861814
 10
4.3122969429
 20
-1.4018938108
 10
4.3004198546
 20
-1.3958306328
 10
4.288791282
 20
-1.3892395871
 10
4.2783026072
 20
-1.3808539264
 10
4.2658385912
 20
-1.3756369414
 10
4.2559647037
 20
-1.3662961923
 10
4.2321620792
 20
-1.3540432198
 10
4.2202199523
 20
-1.347883841
 10
4.2106212101
 20
-1.3383213914
 10
4.1961591348
 20
-1.3329344697
 10
4.1868791714
 20
-1.3257595428
 10
4.1588862326
 20
-1.3073810017
 10
4.1466914295
 20
-1.2990927896
 10
4.1359105287
 20
-1.2941184382
 10
4.1258497993
 20
-1.2831317253
 10
4.1149584799
 20
-1.2782244393
 10
4.0971921186
 20
-1.2673307042
 10
4.0728597357
 20
-1.2498125921
 10
4.0492557956
 20
-1.2313848941
 10
4.0115002942
 20
-1.2030727992
 10
3.9640384843
 20
-1.1660307679
 10
3.9290068094
 20
-1.1345803458
 10
3.9012317086
 20
-1.114358859
 10
3.8798404647
 20
-1.0979163952
 10
3.8471001576
 20
-1.0639339191
 10
3.7576924295
 20
-0.9804599785
 10
3.7207393022
 20
-0.941313698
 10
3.6930618094
 20
-0.9091986572
 10
3.6677366639
 20
-0.8873728643
 10
3.6509035175
 20
-0.8663876534
 10
3.6347235451
 20
-0.8447875051
 10
3.6183535288
 20
-0.8322182398
 10
3.5986340723
 20
-0.8041304326
 10
3.5796153717
 20
-0.7860184952
 10
3.5651955267
 20
-0.7631559956
 10
3.550676546
 20
-0.748475582
 10
3.539106525
 20
-0.730509191
 10
3.5307756587
 20
-0.7157359366
 10
3.5184088153
 20
-0.7047225896
 10
3.5118893807
 20
-0.6931791455
 10
3.4933345496
 20
-0.6703366498
 10
3.482258292
 20
-0.6494389358
 10
3.4704552349
 20
-0.6378248629
 10
3.4654004689
 20
-0.6252848675
 10
3.4506644074
 20
-0.6074793636
 10
3.436905338
 20
-0.5888694365
 10
3.4298379193
 20
-0.5715358048
 10
3.4201487518
 20
-0.5620658287
 10
3.4143282085
 20
-0.5498664345
 10
3.4040252584
 20
-0.5388376605
 10
3.4006735225
 20
-0.5269501409
 10
3.3919882142
 20
-0.5166900826
 10
3.3862865962
 20
-0.5045114023
 10
3.3770236098
 20
-0.4945910299
 10
3.3715889433
 20
-0.4822504057
 10
3.3636352569
 20
-0.4715030034
 10
3.3565296202
 20
-0.4601779167
 10
3.3508929988
 20
-0.4480456308
 10
3.3422446623
 20
-0.4376085134
 10
3.3376390998
 20
-0.4248914724
 10
3.3295637244
 20
-0.4141180221
 10
3.3179067901
 20
-0.3900872755
 10
3.3103452282
 20
-0.3789412223
 10
3.3062410214
 20
-0.3660779741
 10
3.2980963937
 20
-0.3552046636
 10
3.2943470381
 20
-0.3421903554
 10
3.2799138813
 20
-0.3194770644
 10
3.2695139291
 20
-0.2948793926
 10
3.253680075
 20
-0.2651965031
 10
3.2397686713
 20
-0.2423477836
 10
3.2301531388
 20
-0.2177989751
 10
3.2187085866
 20
-0.1998884627
 10
3.2062012019
 20
-0.1686801297
 10
3.1927100283
 20
-0.1452776661
 10
3.1755143836
 20
-0.101188778
 10
3.1519122361
 20
-0.0519660732
 10
3.144666581
 20
-0.0261835985
 10
3.139593685
 20
-0.0135689661
 10
3.1391359312
 20
0.0
  0
MTEXT
  5
84
330
1F
100
AcDbEntity
  8
0
  6
Continuous
 62
     7
100
AcDbMText
 10
-1.745855854
 20
-2.7776158191
 30
0.0
 40
0.1903
 41
0.0
 71
     1
 72
     1
  1
SOLIDWORKS Educational Product.
  7
SLDTEXTSTYLE0
 73
     1
 44
1.0
  0
MTEXT
  5
85
330
1F
100
AcDbEntity
  8
0
  6
Continuous
 62
     7
100
AcDbMText
 10
-1.745855854
 20
-3.0630658191
 30
0.0
 40
0.1903
 41
0.0
 71
     1
 72
     1
  1
For Instructional Use Only.
  7
SLDTEXTSTYLE0
 73
     1
 44
1.0
  0
ENDSEC
  0
SECTION
  2
OBJECTS
  0
DICTIONARY
  5
C
330
0
100
AcDbDictionary
281
     1
  3
ACAD_GROUP
350
D
  3
ACAD_LAYOUT
350
1A
  3
ACAD_MLINESTYLE
350
17
  3
ACAD_PLOTSETTINGS
350
19
  3
ACAD_PLOTSTYLENAME
350
E
  3
ACAD_SCALELIST
350
47
  0
DICTIONARY
  5
D
102
{ACAD_REACTORS
330
C
102
}
330
C
100
AcDbDictionary
281
     1
  0
DICTIONARY
  5
1A
102
{ACAD_REACTORS
330
C
102
}
330
C
100
AcDbDictionary
281
     1
  3
Layout1
350
1E
  3
Layout2
350
26
  3
Model
350
22
  0
DICTIONARY
  5
17
102
{ACAD_REACTORS
330
C
102
}
330
C
100
AcDbDictionary
281
     1
  3
Standard
350
18
  0
DICTIONARY
  5
19
102
{ACAD_REACTORS
330
C
102
}
330
C
100
AcDbDictionary
281
     1
  0
ACDBDICTIONARYWDFLT
  5
E
102
{ACAD_REACTORS
330
C
102
}
330
C
100
AcDbDictionary
281
     1
  3
Normal
350
F
100
AcDbDictionaryWithDefault
340
F
  0
DICTIONARY
  5
47
102
{ACAD_REACTORS
330
C
102
}
330
C
100
AcDbDictionary
281
     1
  3
A0
350
48
  3
A1
350
49
  3
A2
350
4A
  3
A3
350
4B
  3
A4
350
4C
  3
A5
350
4D
  3
A6
350
4E
  3
A7
350
4F
  3
A8
350
50
  3
A9
350
51
  3
B0
350
52
  3
B1
350
53
  3
B2
350
54
  3
B3
350
55
  3
B4
350
56
  3
B5
350
57
  3
B6
350
58
  3
B7
350
59
  3
B8
350
5A
  3
B9
350
5B
  3
C0
350
5C
  3
C1
350
5D
  3
C2
350
5E
  3
C3
350
5F
  3
C4
350
60
  3
C5
350
61
  3
C6
350
62
  3
C7
350
63
  3
C8
350
64
  3
C9
350
65
  3
D0
350
66
  3
D1
350
67
  3
D2
350
68
  0
LAYOUT
  5
1E
102
{ACAD_REACTORS
330
1A
102
}
330
1A
100
AcDbPlotSettings
  1

  2
none_device
  4

  6

 40
0.0
 41
0.0
 42
0.0
 43
0.0
 44
0.0
 45
0.0
 46
0.0
 47
0.0
 48
0.0
 49
0.0
140
0.0
141
0.0
142
1.0
143
1.0
 70
   688
 72
     0
 73
     0
 74
     5
  7

 75
    16
147
1.0
148
0.0
149
0.0
100
AcDbLayout
  1
Layout1
 70
     1
 71
     1
 10
0.0
 20
0.0
 11
12.0
 21
9.0
 12
0.0
 22
0.0
 32
0.0
 14
1.0000000000E+20
 24
1.0000000000E+20
 34
1.0000000000E+20
 15
-1.0000000000E+20
 25
-1.0000000000E+20
 35
-1.0000000000E+20
146
0.0
 13
0.0
 23
0.0
 33
0.0
 16
1.0
 26
0.0
 36
0.0
 17
0.0
 27
1.0
 37
0.0
 76
     0
330
1B
  0
LAYOUT
  5
26
102
{ACAD_REACTORS
330
1A
102
}
330
1A
100
AcDbPlotSettings
  1

  2
none_device
  4

  6

 40
0.0
 41
0.0
 42
0.0
 43
0.0
 44
0.0
 45
0.0
 46
0.0
 47
0.0
 48
0.0
 49
0.0
140
0.0
141
0.0
142
1.0
143
1.0
 70
   688
 72
     0
 73
     0
 74
     5
  7

 75
    16
147
1.0
148
0.0
149
0.0
100
AcDbLayout
  1
Layout2
 70
     1
 71
     2
 10
0.0
 20
0.0
 11
0.0
 21
0.0
 12
0.0
 22
0.0
 32
0.0
 14
0.0
 24
0.0
 34
0.0
 15
0.0
 25
0.0
 35
0.0
146
0.0
 13
0.0
 23
0.0
 33
0.0
 16
1.0
 26
0.0
 36
0.0
 17
0.0
 27
1.0
 37
0.0
 76
     0
330
23
  0
LAYOUT
  5
22
102
{ACAD_REACTORS
330
1A
102
}
330
1A
100
AcDbPlotSettings
  1

  2
none_device
  4
ANSI_A_(11.00_x_8.50_Inches)
  6

 40
6.35
 41
19.05
 42
6.35000508
 43
19.05000254
 44
279.4
 45
215.9
 46
47.3400025349
 47
88.9539847331
 48
0.0
 49
0.0
140
0.0
141
0.0
142
1.1792380927
143
1.0
 70
  1696
 72
     0
 73
     0
 74
     0
  7

 75
     0
147
0.5913241897
148
-39.4088153714
149
0.0
100
AcDbLayout
  1
Model
 70
     1
 71
     0
 10
0.0
 20
0.0
 11
12.0
 21
9.0
 12
0.0
 22
0.0
 32
0.0
 14
-1.745855854
 24
-2.73747541
 34
0.0
 15
7.4889204542
 25
2.7338706533
 35
0.0
146
0.0
 13
0.0
 23
0.0
 33
0.0
 16
1.0
 26
0.0
 36
0.0
 17
0.0
 27
1.0
 37
0.0
 76
     0
330
1F
331
29
  0
MLINESTYLE
  5
18
102
{ACAD_REACTORS
330
17
102
}
330
17
100
AcDbMlineStyle
  2
Standard
 70
     0
  3

 62
   256
 51
90.0
 52
90.0
 71
     2
 49
0.5
 62
   256
  6
BYLAYER
 49
-0.5
 62
   256
  6
BYLAYER
  0
ACDBPLACEHOLDER
  5
F
102
{ACAD_REACTORS
330
E
102
}
330
E
  0
SCALE
  5
48
102
{ACAD_REACTORS
330
47
102
}
330
47
100
AcDbScale
 70
     0
300
1:1
140
1.0
141
1.0
290
     1
  0
SCALE
  5
49
102
{ACAD_REACTORS
330
47
102
}
330
47
100
AcDbScale
 70
     0
300
1:2
140
1.0
141
2.0
290
     0
  0
SCALE
  5
4A
102
{ACAD_REACTORS
330
47
102
}
330
47
100
AcDbScale
 70
     0
300
1:4
140
1.0
141
4.0
290
     0
  0
SCALE
  5
4B
102
{ACAD_REACTORS
330
47
102
}
330
47
100
AcDbScale
 70
     0
300
1:5
140
1.0
141
5.0
290
     0
  0
SCALE
  5
4C
102
{ACAD_REACTORS
330
47
102
}
330
47
100
AcDbScale
 70
     0
300
1:8
140
1.0
141
8.0
290
     0
  0
SCALE
  5
4D
102
{ACAD_REACTORS
330
47
102
}
330
47
100
AcDbScale
 70
     0
300
1:10
140
1.0
141
10.0
290
     0
  0
SCALE
  5
4E
102
{ACAD_REACTORS
330
47
102
}
330
47
100
AcDbScale
 70
     0
300
1:16
140
1.0
141
16.0
290
     0
  0
SCALE
  5
4F
102
{ACAD_REACTORS
330
47
102
}
330
47
100
AcDbScale
 70
     0
300
1:20
140
1.0
141
20.0
290
     0
  0
SCALE
  5
50
102
{ACAD_REACTORS
330
47
102
}
330
47
100
AcDbScale
 70
     0
300
1:30
140
1.0
141
30.0
290
     0
  0
SCALE
  5
51
102
{ACAD_REACTORS
330
47
102
}
330
47
100
AcDbScale
 70
     0
300
1:40
140
1.0
141
40.0
290
     0
  0
SCALE
  5
52
102
{ACAD_REACTORS
330
47
102
}
330
47
100
AcDbScale
 70
     0
300
1:50
140
1.0
141
50.0
290
     0
  0
SCALE
  5
53
102
{ACAD_REACTORS
330
47
102
}
330
47
100
AcDbScale
 70
     0
300
1:100
140
1.0
141
100.0
290
     0
  0
SCALE
  5
54
102
{ACAD_REACTORS
330
47
102
}
330
47
100
AcDbScale
 70
     0
300
2:1
140
2.0
141
1.0
290
     0
  0
SCALE
  5
55
102
{ACAD_REACTORS
330
47
102
}
330
47
100
AcDbScale
 70
     0
300
4:1
140
4.0
141
1.0
290
     0
  0
SCALE
  5
56
102
{ACAD_REACTORS
330
47
102
}
330
47
100
AcDbScale
 70
     0
300
8:1
140
8.0
141
1.0
290
     0
  0
SCALE
  5
57
102
{ACAD_REACTORS
330
47
102
}
330
47
100
AcDbScale
 70
     0
300
10:1
140
10.0
141
1.0
290
     0
  0
SCALE
  5
58
102
{ACAD_REACTORS
330
47
102
}
330
47
100
AcDbScale
 70
     0
300
100:1
140
100.0
141
1.0
290
     0
  0
SCALE
  5
59
102
{ACAD_REACTORS
330
47
102
}
330
47
100
AcDbScale
 70
     0
300
1/128" = 1'-0"
140
0.0078125
141
12.0
290
     0
  0
SCALE
  5
5A
102
{ACAD_REACTORS
330
47
102
}
330
47
100
AcDbScale
 70
     0
300
1/64" = 1'-0"
140
0.015625
141
12.0
290
     0
  0
SCALE
  5
5B
102
{ACAD_REACTORS
330
47
102
}
330
47
100
AcDbScale
 70
     0
300
1/32" = 1'-0"
140
0.03125
141
12.0
290
     0
  0
SCALE
  5
5C
102
{ACAD_REACTORS
330
47
102
}
330
47
100
AcDbScale
 70
     0
300
1/16" = 1'-0"
140
0.0625
141
12.0
290
     0
  0
SCALE
  5
5D
102
{ACAD_REACTORS
330
47
102
}
330
47
100
AcDbScale
 70
     0
300
3/32" = 1'-0"
140
0.09375
141
12.0
290
     0
  0
SCALE
  5
5E
102
{ACAD_REACTORS
330
47
102
}
330
47
100
AcDbScale
 70
     0
300
1/8" = 1'-0"
140
0.125
141
12.0
290
     0
  0
SCALE
  5
5F
102
{ACAD_REACTORS
330
47
102
}
330
47
100
AcDbScale
 70
     0
300
3/16" = 1'-0"
140
0.1875
141
12.0
290
     0
  0
SCALE
  5
60
102
{ACAD_REACTORS
330
47
102
}
330
47
100
AcDbScale
 70
     0
300
1/4" = 1'-0"
140
0.25
141
12.0
290
     0
  0
SCALE
  5
61
102
{ACAD_REACTORS
330
47
102
}
330
47
100
AcDbScale
 70
     0
300
3/8" = 1'-0"
140
0.375
141
12.0
290
     0
  0
SCALE
  5
62
102
{ACAD_REACTORS
330
47
102
}
330
47
100
AcDbScale
 70
     0
300
1/2" = 1'-0"
140
0.5
141
12.0
290
     0
  0
SCALE
  5
63
102
{ACAD_REACTORS
330
47
102
}
330
47
100
AcDbScale
 70
     0
300
3/4" = 1'-0"
140
0.75
141
12.0
290
     0
  0
SCALE
  5
64
102
{ACAD_REACTORS
330
47
102
}
330
47
100
AcDbScale
 70
     0
300
1" = 1'-0"
140
1.0
141
12.0
290
     0
  0
SCALE
  5
65
102
{ACAD_REACTORS
330
47
102
}
330
47
100
AcDbScale
 70
     0
300
1-1/2" = 1'-0"
140
1.5
141
12.0
290
     0
  0
SCALE
  5
66
102
{ACAD_REACTORS
330
47
102
}
330
47
100
AcDbScale
 70
     0
300
3" = 1'-0"
140
3.0
141
12.0
290
     0
  0
SCALE
  5
67
102
{ACAD_REACTORS
330
47
102
}
330
47
100
AcDbScale
 70
     0
300
6" = 1'-0"
140
6.0
141
12.0
290
     0
  0
SCALE
  5
68
102
{ACAD_REACTORS
330
47
102
}
330
47
100
AcDbScale
 70
     0
300
1'-0" = 1'-0"
140
12.0
141
12.0
290
     0
  0
ENDSEC
  0
EOF
