  0
SECTION
  2
HEADER
  9
$ACADVER
  1
AC1015
  9
$ACADMAINTVER
 70
     6
  9
$DWGCODEPAGE
  3
ANSI_1252
  9
$INSBASE
 10
0.0
 20
0.0
 30
0.0
  9
$EXTMIN
 10
-1.9516506528
 20
-2.0819966495
 30
0.0
  9
$EXTMAX
 10
6.8168339222
 20
2.4845232829
 30
0.0
  9
$LIMMIN
 10
0.0
 20
0.0
  9
$LIMMAX
 10
12.0
 20
9.0
  9
$ORTHOMODE
 70
     0
  9
$REGENMODE
 70
     1
  9
$FILLMODE
 70
     1
  9
$QTEXTMODE
 70
     0
  9
$MIRRTEXT
 70
     1
  9
$LTSCALE
 40
1.0
  9
$ATTMODE
 70
     1
  9
$TEXTSIZE
 40
0.25
  9
$TRACEWID
 40
0.05
  9
$TEXTSTYLE
  7
Standard
  9
$CLAYER
  8
0
  9
$CELTYPE
  6
ByLayer
  9
$CECOLOR
 62
   256
  9
$CELTSCALE
 40
1.0
  9
$DISPSILH
 70
     0
  9
$DIMSCALE
 40
1.0
  9
$DIMASZ
 40
0.236
  9
$DIMEXO
 40
0.039
  9
$DIMDLI
 40
0.38
  9
$DIMRND
 40
0.0
  9
$DIMDLE
 40
0.0
  9
$DIMEXE
 40
0.039
  9
$DIMTP
 40
0.0
  9
$DIMTM
 40
0.0
  9
$DIMTXT
 40
0.25
  9
$DIMCEN
 40
0.09
  9
$DIMTSZ
 40
0.0
  9
$DIMTOL
 70
     0
  9
$DIMLIM
 70
     0
  9
$DIMTIH
 70
     1
  9
$DIMTOH
 70
     1
  9
$DIMSE1
 70
     0
  9
$DIMSE2
 70
     0
  9
$DIMTAD
 70
     1
  9
$DIMZIN
 70
     0
  9
$DIMBLK
  1

  9
$DIMASO
 70
     1
  9
$DIMSHO
 70
     1
  9
$DIMPOST
  1

  9
$DIMAPOST
  1

  9
$DIMALT
 70
     0
  9
$DIMALTD
 70
     2
  9
$DIMALTF
 40
25.4
  9
$DIMLFAC
 40
1.0
  9
$DIMTOFL
 70
     0
  9
$DIMTVP
 40
0.0
  9
$DIMTIX
 70
     0
  9
$DIMSOXD
 70
     0
  9
$DIMSAH
 70
     0
  9
$DIMBLK1
  1

  9
$DIMBLK2
  1

  9
$DIMSTYLE
  2
Standard
  9
$DIMCLRD
 70
     0
  9
$DIMCLRE
 70
     0
  9
$DIMCLRT
 70
     0
  9
$DIMTFAC
 40
1.0
  9
$DIMGAP
 40
0.06
  9
$DIMJUST
 70
     0
  9
$DIMSD1
 70
     0
  9
$DIMSD2
 70
     0
  9
$DIMTOLJ
 70
     1
  9
$DIMTZIN
 70
     0
  9
$DIMALTZ
 70
     0
  9
$DIMALTTZ
 70
     0
  9
$DIMUPT
 70
     0
  9
$DIMDEC
 70
     2
  9
$DIMTDEC
 70
     2
  9
$DIMALTU
 70
     2
  9
$DIMALTTD
 70
     2
  9
$DIMTXSTY
  7
Standard
  9
$DIMAUNIT
 70
     0
  9
$DIMADEC
 70
     2
  9
$DIMALTRND
 40
0.0
  9
$DIMAZIN
 70
     0
  9
$DIMDSEP
 70
    46
  9
$DIMATFIT
 70
     3
  9
$DIMFRAC
 70
     0
  9
$DIMLDRBLK
  1

  9
$DIMLUNIT
 70
     2
  9
$DIMLWD
 70
    -2
  9
$DIMLWE
 70
    -2
  9
$DIMTMOVE
 70
     0
  9
$LUNITS
 70
     2
  9
$LUPREC
 70
     2
  9
$SKETCHINC
 40
0.1
  9
$FILLETRAD
 40
0.5
  9
$AUNITS
 70
     0
  9
$AUPREC
 70
     2
  9
$MENU
  1
.
  9
$ELEVATION
 40
0.0
  9
$PELEVATION
 40
0.0
  9
$THICKNESS
 40
0.0
  9
$LIMCHECK
 70
     0
  9
$CHAMFERA
 40
0.0
  9
$CHAMFERB
 40
0.0
  9
$CHAMFERC
 40
0.0
  9
$CHAMFERD
 40
0.0
  9
$SKPOLY
 70
     0
  9
$TDCREATE
 40
2458240.666379097
  9
$TDUCREATE
 40
2458240.87471243
  9
$TDUPDATE
 40
2458240.666828102
  9
$TDUUPDATE
 40
2458240.875161435
  9
$TDINDWG
 40
0.0000000116
  9
$TDUSRTIMER
 40
0.0000000116
  9
$USRTIMER
 70
     1
  9
$ANGBASE
 50
0.0
  9
$ANGDIR
 70
     0
  9
$PDMODE
 70
     0
  9
$PDSIZE
 40
-1.0
  9
$PLINEWID
 40
0.0
  9
$SPLFRAME
 70
     0
  9
$SPLINETYPE
 70
     6
  9
$SPLINESEGS
 70
     8
  9
$HANDSEED
  5
86
  9
$SURFTAB1
 70
     6
  9
$SURFTAB2
 70
     6
  9
$SURFTYPE
 70
     6
  9
$SURFU
 70
     6
  9
$SURFV
 70
     6
  9
$UCSBASE
  2

  9
$UCSNAME
  2

  9
$UCSORG
 10
0.0
 20
0.0
 30
0.0
  9
$UCSXDIR
 10
1.0
 20
0.0
 30
0.0
  9
$UCSYDIR
 10
0.0
 20
1.0
 30
0.0
  9
$UCSORTHOREF
  2

  9
$UCSORTHOVIEW
 70
     0
  9
$UCSORGTOP
 10
0.0
 20
0.0
 30
0.0
  9
$UCSORGBOTTOM
 10
0.0
 20
0.0
 30
0.0
  9
$UCSORGLEFT
 10
0.0
 20
0.0
 30
0.0
  9
$UCSORGRIGHT
 10
0.0
 20
0.0
 30
0.0
  9
$UCSORGFRONT
 10
0.0
 20
0.0
 30
0.0
  9
$UCSORGBACK
 10
0.0
 20
0.0
 30
0.0
  9
$PUCSBASE
  2

  9
$PUCSNAME
  2

  9
$PUCSORG
 10
0.0
 20
0.0
 30
0.0
  9
$PUCSXDIR
 10
1.0
 20
0.0
 30
0.0
  9
$PUCSYDIR
 10
0.0
 20
1.0
 30
0.0
  9
$PUCSORTHOREF
  2

  9
$PUCSORTHOVIEW
 70
     0
  9
$PUCSORGTOP
 10
0.0
 20
0.0
 30
0.0
  9
$PUCSORGBOTTOM
 10
0.0
 20
0.0
 30
0.0
  9
$PUCSORGLEFT
 10
0.0
 20
0.0
 30
0.0
  9
$PUCSORGRIGHT
 10
0.0
 20
0.0
 30
0.0
  9
$PUCSORGFRONT
 10
0.0
 20
0.0
 30
0.0
  9
$PUCSORGBACK
 10
0.0
 20
0.0
 30
0.0
  9
$USERI1
 70
     0
  9
$USERI2
 70
     0
  9
$USERI3
 70
     0
  9
$USERI4
 70
     0
  9
$USERI5
 70
     0
  9
$USERR1
 40
0.0
  9
$USERR2
 40
0.0
  9
$USERR3
 40
0.0
  9
$USERR4
 40
0.0
  9
$USERR5
 40
0.0
  9
$WORLDVIEW
 70
     1
  9
$SHADEDGE
 70
     3
  9
$SHADEDIF
 70
    70
  9
$TILEMODE
 70
     1
  9
$MAXACTVP
 70
    64
  9
$PINSBASE
 10
0.0
 20
0.0
 30
0.0
  9
$PLIMCHECK
 70
     0
  9
$PEXTMIN
 10
1.0000000000E+20
 20
1.0000000000E+20
 30
1.0000000000E+20
  9
$PEXTMAX
 10
-1.0000000000E+20
 20
-1.0000000000E+20
 30
-1.0000000000E+20
  9
$PLIMMIN
 10
0.0
 20
0.0
  9
$PLIMMAX
 10
12.0
 20
9.0
  9
$UNITMODE
 70
     0
  9
$VISRETAIN
 70
     1
  9
$PLINEGEN
 70
     0
  9
$PSLTSCALE
 70
     1
  9
$TREEDEPTH
 70
  3020
  9
$CMLSTYLE
  2
Standard
  9
$CMLJUST
 70
     0
  9
$CMLSCALE
 40
1.0
  9
$PROXYGRAPHICS
 70
     1
  9
$MEASUREMENT
 70
     0
  9
$CELWEIGHT
370
    -1
  9
$ENDCAPS
280
     0
  9
$JOINSTYLE
280
     0
  9
$LWDISPLAY
290
     1
  9
$INSUNITS
 70
     1
  9
$HYPERLINKBASE
  1

  9
$STYLESHEET
  1

  9
$XEDIT
290
     1
  9
$CEPSNTYPE
380
     0
  9
$PSTYLEMODE
290
     1
  9
$FINGERPRINTGUID
  2
{F9B7290A-B2B1-4D53-A8C0-4DAC309F863D}
  9
$VERSIONGUID
  2
{FAEB1C32-E019-11D5-929B-00C0DF256EC4}
  9
$EXTNAMES
290
     1
  9
$PSVPSCALE
 40
0.0
  9
$OLESTARTUP
290
     0
  0
ENDSEC
  0
SECTION
  2
CLASSES
  0
CLASS
  1
ACDBDICTIONARYWDFLT
  2
AcDbDictionaryWithDefault
  3
ObjectDBX Classes
 90
        0
280
     0
281
     0
  0
CLASS
  1
VISUALSTYLE
  2
AcDbVisualStyle
  3
ObjectDBX Classes
 90
     4095
280
     0
281
     0
  0
CLASS
  1
MATERIAL
  2
AcDbMaterial
  3
ObjectDBX Classes
 90
     1153
280
     0
281
     0
  0
CLASS
  1
SCALE
  2
AcDbScale
  3
ObjectDBX Classes
 90
     1153
280
     0
281
     0
  0
CLASS
  1
TABLESTYLE
  2
AcDbTableStyle
  3
ObjectDBX Classes
 90
     4095
280
     0
281
     0
  0
CLASS
  1
MLEADERSTYLE
  2
AcDbMLeaderStyle
  3
ACDB_MLEADERSTYLE_CLASS
 90
     4095
280
     0
281
     0
  0
CLASS
  1
SUN
  2
AcDbSun
  3
SCENEOE
 90
     1153
280
     0
281
     0
  0
CLASS
  1
ACDBPLACEHOLDER
  2
AcDbPlaceHolder
  3
ObjectDBX Classes
 90
        0
280
     0
281
     0
  0
CLASS
  1
LAYOUT
  2
AcDbLayout
  3
ObjectDBX Classes
 90
        0
280
     0
281
     0
  0
ENDSEC
  0
SECTION
  2
TABLES
  0
TABLE
  2
VPORT
  5
8
330
0
100
AcDbSymbolTable
 70
     1
  0
VPORT
  5
29
330
8
100
AcDbSymbolTableRecord
100
AcDbViewportTableRecord
  2
*Active
 70
     0
 10
0.0
 20
0.0
 11
1.0
 21
1.0
 12
2.4325916347
 22
0.2012633167
 13
0.0
 23
0.0
 14
0.5
 24
0.5
 15
0.5
 25
0.5
 16
0.0
 26
0.0
 36
1.0
 17
0.0
 27
0.0
 37
0.0
 40
4.6578503311
 41
1.9201678093
 42
50.0
 43
0.0
 44
0.0
 50
0.0
 51
0.0
 71
     0
 72
   100
 73
     1
 74
     3
 75
     0
 76
     0
 77
     0
 78
     0
281
     0
 65
     1
110
0.0
120
0.0
130
0.0
111
1.0
121
0.0
131
0.0
112
0.0
122
1.0
132
0.0
 79
     0
146
0.0
  0
ENDTAB
  0
TABLE
  2
LTYPE
  5
5
330
0
100
AcDbSymbolTable
 70
     6
  0
LTYPE
  5
14
330
5
100
AcDbSymbolTableRecord
100
AcDbLinetypeTableRecord
  2
ByBlock
 70
     0
  3

 72
    65
 73
     0
 40
0.0
  0
LTYPE
  5
15
330
5
100
AcDbSymbolTableRecord
100
AcDbLinetypeTableRecord
  2
ByLayer
 70
     0
  3

 72
    65
 73
     0
 40
0.0
  0
LTYPE
  5
16
330
5
100
AcDbSymbolTableRecord
100
AcDbLinetypeTableRecord
  2
Continuous
 70
     0
  3
Solid line
 72
    65
 73
     0
 40
0.0
  0
LTYPE
  5
6E
330
5
100
AcDbSymbolTableRecord
100
AcDbLinetypeTableRecord
  2
HIDDEN
 70
     0
  3
Hidden __ __ __ __ __ __ __ __ __ __ __ __ __ __
 72
    65
 73
     2
 40
0.075
 49
0.05
 74
     0
 49
-0.025
 74
     0
  0
LTYPE
  5
6F
330
5
100
AcDbSymbolTableRecord
100
AcDbLinetypeTableRecord
  2
PHANTOM
 70
     0
  3
Phantom ______  __  __  ______  __  __  ______
 72
    65
 73
     6
 40
0.5
 49
0.25
 74
     0
 49
-0.05
 74
     0
 49
0.05
 74
     0
 49
-0.05
 74
     0
 49
0.05
 74
     0
 49
-0.05
 74
     0
  0
LTYPE
  5
70
330
5
100
AcDbSymbolTableRecord
100
AcDbLinetypeTableRecord
  2
CENTER
 70
     0
  3
Center ____ _ ____ _ ____ _ ____ _ ____ _ ____
 72
    65
 73
     4
 40
0.4
 49
0.25
 74
     0
 49
-0.05
 74
     0
 49
0.05
 74
     0
 49
-0.05
 74
     0
  0
LTYPE
  5
71
330
5
100
AcDbSymbolTableRecord
100
AcDbLinetypeTableRecord
  2
CENTERX2
 70
     0
  3
Center (2x) ________  __  ________  __  _____
 72
    65
 73
     4
 40
0.8
 49
0.5
 74
     0
 49
-0.1
 74
     0
 49
0.1
 74
     0
 49
-0.1
 74
     0
  0
LTYPE
  5
72
330
5
100
AcDbSymbolTableRecord
100
AcDbLinetypeTableRecord
  2
DOT2
 70
     0
  3
Dot (.5x) ........................................
 72
    65
 73
     2
 40
0.025
 49
0.0
 74
     0
 49
-0.025
 74
     0
  0
ENDTAB
  0
TABLE
  2
LAYER
  5
2
330
0
100
AcDbSymbolTable
 70
     1
  0
LAYER
  5
10
330
2
100
AcDbSymbolTableRecord
100
AcDbLayerTableRecord
  2
0
 70
     0
 62
     7
  6
Continuous
370
    -3
390
F
  0
ENDTAB
  0
TABLE
  2
STYLE
  5
3
330
0
100
AcDbSymbolTable
 70
     2
  0
STYLE
  5
11
330
3
100
AcDbSymbolTableRecord
100
AcDbTextStyleTableRecord
  2
Standard
 70
     0
 40
0.0
 41
1.0
 50
0.0
 71
     0
 42
0.25
  3
txt
  4

  0
STYLE
  5
83
330
3
100
AcDbSymbolTableRecord
100
AcDbTextStyleTableRecord
  2
SLDTEXTSTYLE0
 70
     0
 40
0.0
 41
0.7
 50
0.0
 71
     0
 42
0.25
  3
TXT
  4

  0
ENDTAB
  0
TABLE
  2
VIEW
  5
6
330
0
100
AcDbSymbolTable
 70
     0
  0
ENDTAB
  0
TABLE
  2
UCS
  5
7
330
0
100
AcDbSymbolTable
 70
     0
  0
ENDTAB
  0
TABLE
  2
APPID
  5
9
330
0
100
AcDbSymbolTable
 70
     1
  0
APPID
  5
12
330
9
100
AcDbSymbolTableRecord
100
AcDbRegAppTableRecord
  2
ACAD
 70
     0
  0
ENDTAB
  0
TABLE
  2
DIMSTYLE
  5
A
330
0
100
AcDbSymbolTable
 70
     1
100
AcDbDimStyleTable
  0
DIMSTYLE
105
27
330
A
100
AcDbSymbolTableRecord
100
AcDbDimStyleTableRecord
  2
Standard
 70
     0
178
     0
340
11
  0
ENDTAB
  0
TABLE
  2
BLOCK_RECORD
  5
1
330
0
100
AcDbSymbolTable
 70
     1
  0
BLOCK_RECORD
  5
1F
330
1
100
AcDbSymbolTableRecord
100
AcDbBlockTableRecord
  2
*Model_Space
340
22
  0
BLOCK_RECORD
  5
1B
330
1
100
AcDbSymbolTableRecord
100
AcDbBlockTableRecord
  2
*Paper_Space
340
1E
  0
BLOCK_RECORD
  5
23
330
1
100
AcDbSymbolTableRecord
100
AcDbBlockTableRecord
  2
*Paper_Space0
340
26
  0
ENDTAB
  0
ENDSEC
  0
SECTION
  2
BLOCKS
  0
BLOCK
  5
20
330
1F
100
AcDbEntity
  8
0
100
AcDbBlockBegin
  2
*Model_Space
 70
     0
 10
0.0
 20
0.0
 30
0.0
  3
*Model_Space
  1

  0
ENDBLK
  5
21
330
1F
100
AcDbEntity
  8
0
100
AcDbBlockEnd
  0
BLOCK
  5
1C
330
1B
100
AcDbEntity
 67
     1
  8
0
100
AcDbBlockBegin
  2
*Paper_Space
 70
     0
 10
0.0
 20
0.0
 30
0.0
  3
*Paper_Space
  1

  0
ENDBLK
  5
1D
330
1B
100
AcDbEntity
 67
     1
  8
0
100
AcDbBlockEnd
  0
BLOCK
  5
24
330
23
100
AcDbEntity
  8
0
100
AcDbBlockBegin
  2
*Paper_Space0
 70
     0
 10
0.0
 20
0.0
 30
0.0
  3
*Paper_Space0
  1

  0
ENDBLK
  5
25
330
23
100
AcDbEntity
  8
0
100
AcDbBlockEnd
  0
ENDSEC
  0
SECTION
  2
ENTITIES
  0
CIRCLE
  5
73
330
1F
100
AcDbEntity
  8
0
  6
Continuous
 62
     7
100
AcDbCircle
 10
0.0
 20
0.0
 30
0.0
 40
0.25
  0
CIRCLE
  5
74
330
1F
100
AcDbEntity
  8
0
  6
Continuous
 62
     7
100
AcDbCircle
 10
0.76
 20
0.0
 30
0.0
 40
0.1000000000000001
  0
CIRCLE
  5
75
330
1F
100
AcDbEntity
  8
0
  6
Continuous
 62
     7
100
AcDbCircle
 10
-0.38
 20
0.6581793069
 30
0.0
 40
0.1
  0
CIRCLE
  5
76
330
1F
100
AcDbEntity
  8
0
  6
Continuous
 62
     7
100
AcDbCircle
 10
-0.38
 20
-0.6581793069
 30
0.0
 40
0.1
  0
CIRCLE
  5
77
330
1F
100
AcDbEntity
  8
0
  6
Continuous
 62
     7
100
AcDbCircle
 10
0.51
 20
0.0
 30
0.0
 40
0.05
  0
CIRCLE
  5
78
330
1F
100
AcDbEntity
  8
0
  6
Continuous
 62
     7
100
AcDbCircle
 10
4.7185513014
 20
-0.6581793069
 30
0.0
 40
0.0999999999999982
  0
CIRCLE
  5
79
330
1F
100
AcDbEntity
  8
0
  6
Continuous
 62
     7
100
AcDbCircle
 10
4.7185513014
 20
0.6581793069
 30
0.0
 40
0.0999999999999981
  0
CIRCLE
  5
7A
330
1F
100
AcDbEntity
  8
0
  6
Continuous
 62
     7
100
AcDbCircle
 10
3.5785513014
 20
0.0
 30
0.0
 40
0.0999999999999977
  0
CIRCLE
  5
7B
330
1F
100
AcDbEntity
  8
0
  6
Continuous
 62
     7
100
AcDbCircle
 10
3.8285513014
 20
0.0
 30
0.0
 40
0.0499999999999982
  0
CIRCLE
  5
7C
330
1F
100
AcDbEntity
  8
0
  6
Continuous
 62
     7
100
AcDbCircle
 10
4.3385513014
 20
0.0
 30
0.0
 40
0.2499999999999983
  0
LWPOLYLINE
  5
81
330
1F
100
AcDbEntity
  8
0
  6
Continuous
 62
     7
100
AcDbPolyline
 90
     1333
 70
   128
 43
0.0
 10
0.0
 20
1.7787802419
 10
-0.0033816454
 20
1.7780382693
 10
-0.006016649
 20
1.7773366477
 10
-0.0107846933
 20
1.7764371815
 10
-0.0157277846
 20
1.7765017306
 10
-0.0194360238
 20
1.7755888457
 10
-0.0243844949
 20
1.7756569422
 10
-0.0280839221
 20
1.774702953
 10
-0.0350214628
 20
1.7747303702
 10
-0.0436471654
 20
1.7736845065
 10
-0.0504052386
 20
1.7727609688
 10
-0.0625738248
 20
1.7715837029
 10
-0.0781132464
 20
1.7702634442
 10
-0.0850143253
 20
1.7699390028
 10
-0.090439305
 20
1.7696814028
 10
-0.0941208045
 20
1.7686781745
 10
-0.0971645335
 20
1.7685485389
 10
-0.1025858796
 20
1.7682463094
 10
-0.1122593241
 20
1.7676438893
 10
-0.2011437217
 20
1.759000637
 10
-0.2073700002
 20
1.758272856
 10
-0.2122563725
 20
1.7577604689
 10
-0.2171095936
 20
1.7578429522
 10
-0.2209483704
 20
1.7573834897
 10
-0.2365200338
 20
1.7553763947
 10
-0.2642350343
 20
1.7529432945
 10
-0.2729280725
 20
1.7515983007
 10
-0.2767513197
 20
1.7509597238
 10
-0.2797410043
 20
1.751358451
 10
-0.2865632405
 20
1.750176478
 10
-0.2919191104
 20
1.7493728386
 10
-0.2987280058
 20
1.7489213315
 10
-0.3040782365
 20
1.7480002638
 10
-0.3136265857
 20
1.7470732407
 10
-0.3290784669
 20
1.7450113609
 10
-0.3358783222
 20
1.744465179
 10
-0.3412063095
 20
1.7433598181
 10
-0.3480035512
 20
1.742853819
 10
-0.3533340261
 20
1.742069285
 10
-0.358666948
 20
1.7414673411
 10
-0.3628431699
 20
1.740580051
 10
-0.3666593664
 20
1.7406279532
 10
-0.3696325299
 20
1.7399602165
 10
-0.3749626302
 20
1.7393483062
 10
-0.380276279
 20
1.7384029356
 10
-0.3844808419
 20
1.7383351818
 10
-0.389778629
 20
1.7371213223
 10
-0.3939677046
 20
1.7367270346
 10
-0.4014130105
 20
1.7354045291
 10
-0.4123938463
 20
1.7342720278
 10
-0.4171750061
 20
1.732992669
 10
-0.4209947361
 20
1.7329748095
 10
-0.4257712719
 20
1.7316958844
 10
-0.429588936
 20
1.7316326088
 10
-0.4363381855
 20
1.730561808
 10
-0.4411264284
 20
1.729540301
 10
-0.4449297419
 20
1.7292733169
 10
-0.4486695613
 20
1.7282266299
 10
-0.4516846897
 20
1.7283291356
 10
-0.455424799
 20
1.7273157571
 10
-0.4583837062
 20
1.7267604714
 10
-0.4636715504
 20
1.725840519
 10
-0.4684994743
 20
1.7253516406
 10
-0.4723016145
 20
1.7250510932
 10
-0.4789753703
 20
1.7233436816
 10
-0.4857208911
 20
1.7223804085
 10
-0.4909960881
 20
1.7213981859
 10
-0.4948153571
 20
1.7212486591
 10
-0.4977263736
 20
1.7203129151
 10
-0.5030159873
 20
1.719482171
 10
-0.5083237252
 20
1.7188082125
 10
-0.5124961434
 20
1.7182906821
 10
-0.5172353922
 20
1.7170558125
 10
-0.5210188167
 20
1.7165817479
 10
-0.5247962322
 20
1.7160524246
 10
-0.527730484
 20
1.715377492
 10
-0.5315212465
 20
1.7149592161
 10
-0.5344487504
 20
1.7142388963
 10
-0.5396931232
 20
1.7130960201
 10
-0.5464926328
 20
1.7125523951
 10
-0.5517144153
 20
1.7112605281
 10
-0.5569378787
 20
1.709998504
 10
-0.5611039186
 20
1.7094344091
 10
-0.5649086203
 20
1.7090914834
 10
-0.5677855551
 20
1.7080748363
 10
-0.5731006951
 20
1.7074334863
 10
-0.5783089712
 20
1.7061101963
 10
-0.582465302
 20
1.7054783243
 10
-0.5877117214
 20
1.704406295
 10
-0.5918850382
 20
1.7038729011
 10
-0.5993010231
 20
1.7026930095
 10
-0.6089172765
 20
1.7004911847
 10
-0.6165372174
 20
1.6991384882
 10
-0.6207929964
 20
1.6983124189
 10
-0.6241091032
 20
1.6975138069
 10
-0.627429543
 20
1.6967445534
 10
-0.6301200989
 20
1.6965747465
 10
-0.637728074
 20
1.6951455299
 10
-0.6436249263
 20
1.69360785
 10
-0.6542619055
 20
1.6914176678
 10
-0.6585152196
 20
1.6905812807
 10
-0.6618953249
 20
1.6901066287
 10
-0.6652146834
 20
1.689337327
 10
-0.667782996
 20
1.688548575
 10
-0.67116159
 20
1.6880636325
 10
-0.6737907571
 20
1.6875581062
 10
-0.6784784906
 20
1.6866252725
 10
-0.684338223
 20
1.6849485943
 10
-0.6890208746
 20
1.6839891203
 10
-0.6915610084
 20
1.6830869267
 10
-0.6936960643
 20
1.6829951532
 10
-0.6973438535
 20
1.6820998747
 10
-0.7027354765
 20
1.6809261648
 10
-0.7069647459
 20
1.6799712323
 10
-0.71119167
 20
1.679005653
 10
-0.7144945204
 20
1.6781686095
 10
-0.7221242213
 20
1.6767812654
 10
-0.7254366817
 20
1.6759841895
 10
-0.7279638929
 20
1.6750545705
 10
-0.7321770834
 20
1.6740335062
 10
-0.7355335508
 20
1.6734147214
 10
-0.7388815644
 20
1.672757291
 10
-0.7413988627
 20
1.6717952463
 10
-0.7447026675
 20
1.6709670538
 10
-0.7473781946
 20
1.6706218021
 10
-0.7498872977
 20
1.6696341449
 10
-0.7520068065
 20
1.6694278133
 10
-0.7562242985
 20
1.6684150317
 10
-0.7595306509
 20
1.6675939516
 10
-0.7654195079
 20
1.6660655928
 10
-0.7686826155
 20
1.6650839341
 10
-0.7713608403
 20
1.6647306922
 10
-0.7759652703
 20
1.6634454303
 10
-0.7819504248
 20
1.6622570452
 10
-0.7865508907
 20
1.6609572251
 10
-0.791139017
 20
1.6596141168
 10
-0.7947783884
 20
1.6586776956
 10
-0.798035971
 20
1.657481206
 10
-0.8008288751
 20
1.6573453249
 10
-0.8033377615
 20
1.6562348995
 10
-0.8054953634
 20
1.6559973976
 10
-0.8101565129
 20
1.6546313822
 10
-0.8137938619
 20
1.653473673
 10
-0.8184795452
 20
1.652191475
 10
-0.822154637
 20
1.6511618651
 10
-0.8287280521
 20
1.6493528644
 10
-0.8334142981
 20
1.6480679826
 10
-0.8370910557
 20
1.6470401727
 10
-0.8436255798
 20
1.6451007082
 10
-0.8502774036
 20
1.6435264631
 10
-0.8553932566
 20
1.6419423893
 10
-0.8600802041
 20
1.6406442765
 10
-0.8636515441
 20
1.6392880677
 10
-0.8673109511
 20
1.6381986249
 10
-0.8702528954
 20
1.6375398358
 10
-0.8738856854
 20
1.6363695952
 10
-0.8768327392
 20
1.6357223409
 10
-0.8819959418
 20
1.6342686155
 10
-0.8884377342
 20
1.6320416987
 10
-0.8936790863
 20
1.6308060252
 10
-0.8987245514
 20
1.6290091097
 10
-0.9027292032
 20
1.6277101333
 10
-0.9073121565
 20
1.6260985791
 10
-0.910893258
 20
1.6247780919
 10
-0.9147260386
 20
1.6241505429
 10
-0.9174342981
 20
1.622822828
 10
-0.9210702062
 20
1.6216515948
 10
-0.9239639552
 20
1.6208293456
 10
-0.9290361224
 20
1.6191033719
 10
-0.940647904
 20
1.6153970961
 10
-0.9457056764
 20
1.6136267554
 10
-0.9496245342
 20
1.6120933103
 10
-0.9532431928
 20
1.6108670523
 10
-0.9561089526
 20
1.6099591763
 10
-0.9611495878
 20
1.6081417891
 10
-0.9702338489
 20
1.6051019118
 10
-0.9754257522
 20
1.6036547697
 10
-0.9792999626
 20
1.602007065
 10
-0.9831371682
 20
1.6002700991
 10
-0.9864468437
 20
1.5996261863
 10
-0.9920679917
 20
1.5970344967
 10
-0.996817066
 20
1.5957979983
 10
-1.0013036722
 20
1.5939299921
 10
-1.0047476154
 20
1.5922696601
 10
-1.0193476488
 20
1.5870031086
 10
-1.0273902911
 20
1.5837359256
 10
-1.0338243612
 20
1.5814271662
 10
-1.0372741866
 20
1.5797878969
 10
-1.0401570201
 20
1.5788858721
 10
-1.045183957
 20
1.5769995492
 10
-1.0532531676
 20
1.5737782963
 10
-1.0567730816
 20
1.5722919616
 10
-1.0593536387
 20
1.570721412
 10
-1.0657320331
 20
1.5682693037
 10
-1.0706229443
 20
1.5660801604
 10
-1.0818880294
 20
1.561418723
 10
-1.0867872032
 20
1.5592441762
 10
-1.0905694053
 20
1.5573955121
 10
-1.0952688003
 20
1.5559480059
 10
-1.0987016772
 20
1.5542729833
 10
-1.1050223925
 20
1.5516704252
 10
-1.1110312776
 20
1.5484357353
 10
-1.1161237497
 20
1.5466385237
 10
-1.119501077
 20
1.5448518538
 10
-1.1220632887
 20
1.5432683964
 10
-1.1271459935
 20
1.5414433131
 10
-1.1358434771
 20
1.5374290816
 10
-1.1466102358
 20
1.5317340398
 10
-1.1516642318
 20
1.5298301701
 10
-1.1553785545
 20
1.52784503
 10
-1.1601779163
 20
1.5254544175
 10
-1.163860543
 20
1.5234117608
 10
-1.1676124776
 20
1.5214982821
 10
-1.1707274171
 20
1.5203023996
 10
-1.1762890886
 20
1.5175770075
 10
-1.1805732168
 20
1.515277125
 10
-1.184843997
 20
1.5129526142
 10
-1.1881012014
 20
1.510948272
 10
-1.1959062906
 20
1.5071198963
 10
-1.1993139476
 20
1.5053848787
 10
-1.2017660444
 20
1.5036222619
 10
-1.2062703767
 20
1.5017097104
 10
-1.2096822193
 20
1.4999799522
 10
-1.2129710403
 20
1.4980341717
 10
-1.2154283029
 20
1.4962863405
 10
-1.2191065166
 20
1.4950156866
 10
-1.2215368494
 20
1.4932232113
 10
-1.2262054473
 20
1.4905884827
 10
-1.2304300279
 20
1.4881804798
 10
-1.233681072
 20
1.4861730982
 10
-1.2370534419
 20
1.4843704741
 10
-1.2397168013
 20
1.4829754344
 10
-1.2457963576
 20
1.4798482677
 10
-1.2504114563
 20
1.4771201199
 10
-1.2536623527
 20
1.4751111913
 10
-1.2560719023
 20
1.4732961733
 10
-1.2607070215
 20
1.4706005116
 10
-1.2689029986
 20
1.4656534673
 10
-1.2761563869
 20
1.4608752782
 10
-1.2794441705
 20
1.4589251774
 10
-1.2818083813
 20
1.4570457947
 10
-1.2851282156
 20
1.4551469786
 10
-1.2873886581
 20
1.4531059855
 10
-1.2919568126
 20
1.4502987664
 10
-1.3018077966
 20
1.443094301
 10
-1.3097651447
 20
1.4377697412
 10
-1.3193968477
 20
1.4302443044
 10
-1.323852333
 20
1.4272612229
 10
-1.3269654786
 20
1.4243398869
 10
-1.3313233039
 20
1.4212135789
 10
-1.3345191727
 20
1.4184203527
 10
-1.3406050547
 20
1.413993303
 10
-1.3483955902
 20
1.4079050713
 10
-1.3541602148
 20
1.4026140228
 10
-1.357747679
 20
1.4001656413
 10
-1.3602433408
 20
1.3977831995
 10
-1.3651105641
 20
1.3941122327
 10
-1.3682381349
 20
1.3910172414
 10
-1.3706639969
 20
1.3885435415
 10
-1.3755303854
 20
1.3848747491
 10
-1.3836747472
 20
1.3775691793
 10
-1.3939816261
 20
1.3682073587
 10
-1.4017960711
 20
1.3604845656
 10
-1.4158740307
 20
1.3468932973
 10
-1.451359308
 20
1.3108403375
 10
-1.4842657221
 20
1.2722904535
 10
-1.5008862635
 20
1.2514529405
 10
-1.5136079071
 20
1.2348418018
 10
-1.5177617536
 20
1.2297202034
 10
-1.5203901281
 20
1.2253281684
 10
-1.5236145773
 20
1.2212761169
 10
-1.5261543549
 20
1.218094343
 10
-1.5286821307
 20
1.2136444445
 10
-1.5312561957
 20
1.210478537
 10
-1.5338396556
 20
1.2073159442
 10
-1.5350956626
 20
1.2043989166
 10
-1.5391935478
 20
1.1992222342
 10
-1.5416499715
 20
1.1947317316
 10
-1.5466234317
 20
1.1870345196
 10
-1.5552785201
 20
1.1731591475
 10
-1.5576766769
 20
1.1686384272
 10
-1.5602000036
 20
1.1654226041
 10
-1.5638298479
 20
1.159216558
 10
-1.5674225613
 20
1.15298997
 10
-1.5698631797
 20
1.1479008385
 10
-1.5734001188
 20
1.1413962121
 10
-1.575954912
 20
1.1361715109
 10
-1.5787558629
 20
1.1310704714
 10
-1.5807548938
 20
1.1269613445
 10
-1.5819750646
 20
1.1239319188
 10
-1.5834259415
 20
1.1217947481
 10
-1.5854299923
 20
1.1176880396
 10
-1.5874206732
 20
1.1135748544
 10
-1.5888232102
 20
1.1102645284
 10
-1.5914890957
 20
1.1050942368
 10
-1.5927623317
 20
1.1006377289
 10
-1.5947272644
 20
1.0965134939
 10
-1.5965167184
 20
1.0933891708
 10
-1.5979025099
 20
1.088991052
 10
-1.6000243928
 20
1.0860211643
 10
-1.6024514687
 20
1.0800802917
 10
-1.6081922846
 20
1.0697336152
 10
-1.6133942936
 20
1.0619127634
 10
-1.622551514
 20
1.0478676307
 10
-1.6345894917
 20
1.0303731149
 10
-1.6399061762
 20
1.0227055772
 10
-1.644132009
 20
1.0166968547
 10
-1.6465583139
 20
1.0105485156
 10
-1.6482293009
 20
1.0056214081
 10
-1.6517806648
 20
0.9970578372
 10
-1.654328122
 20
0.9924866291
 10
-1.6557397334
 20
0.9886577006
 10
-1.659536157
 20
0.982326958
 10
-1.6655893988
 20
0.9720229846
 10
-1.6709526314
 20
0.9644320144
 10
-1.676408842
 20
0.9569189668
 10
-1.6788348075
 20
0.9536358308
 10
-1.6810148731
 20
0.9512760426
 10
-1.6938701941
 20
0.9345801768
 10
-1.7024608905
 20
0.9202942493
 10
-1.719522683
 20
0.8863549816
 10
-1.7357622493
 20
0.8472947851
 10
-1.7487233422
 20
0.8165946286
 10
-1.7579064425
 20
0.7973828435
 10
-1.7620829787
 20
0.789034146
 10
-1.7657100779
 20
0.7827040469
 10
-1.7688009907
 20
0.7776777268
 10
-1.7713941766
 20
0.7738341809
 10
-1.7739330068
 20
0.7699576451
 10
-1.7754130092
 20
0.7665530287
 10
-1.7767854999
 20
0.7608178165
 10
-1.7781406336
 20
0.7563774914
 10
-1.7790769483
 20
0.7518342398
 10
-1.7806264149
 20
0.7484637736
 10
-1.7824451547
 20
0.7421047443
 10
-1.784408691
 20
0.7372358018
 10
-1.7857224657
 20
0.732211031
 10
-1.7872669634
 20
0.728382468
 10
-1.7935224563
 20
0.7128258571
 10
-1.7985502986
 20
0.7020904369
 10
-1.8018928924
 20
0.6933065198
 10
-1.8059914019
 20
0.6849688231
 10
-1.8092522222
 20
0.6784420799
 10
-1.8188386753
 20
0.6567604674
 10
-1.8230293094
 20
0.647214895
 10
-1.8265253156
 20
0.6398281242
 10
-1.8284064601
 20
0.634236257
 10
-1.8299158244
 20
0.6298619356
 10
-1.8325881865
 20
0.6220433836
 10
-1.8372815604
 20
0.6080543626
 10
-1.8443286463
 20
0.5710788685
 10
-1.8529907339
 20
0.5342583312
 10
-1.8551336272
 20
0.5279650334
 10
-1.8568882112
 20
0.5230564096
 10
-1.8607178477
 20
0.5146136441
 10
-1.8647198898
 20
0.5062492111
 10
-1.8673537151
 20
0.4994527158
 10
-1.871253999
 20
0.4786647192
 10
-1.8753355843
 20
0.4624029375
 10
-1.8829908674
 20
0.4335271456
 10
-1.887338862
 20
0.4212366236
 10
-1.8912226562
 20
0.4117665749
 10
-1.8943975649
 20
0.405174578
 10
-1.8965665172
 20
0.3998678526
 10
-1.8985337468
 20
0.3944839542
 10
-1.9001803568
 20
0.3902918903
 10
-1.901996537
 20
0.3848515331
 10
-1.9036184939
 20
0.3806503858
 10
-1.9052350903
 20
0.3764469638
 10
-1.9066864014
 20
0.3732102861
 10
-1.9080958537
 20
0.3693753668
 10
-1.9089096621
 20
0.3662559118
 10
-1.9105055377
 20
0.3607392947
 10
-1.9124565753
 20
0.355350001
 10
-1.9139098467
 20
0.351087547
 10
-1.9168518445
 20
0.3412725933
 10
-1.9193216585
 20
0.3336168148
 10
-1.9206334457
 20
0.3280076742
 10
-1.9217561532
 20
0.323633701
 10
-1.923897914
 20
0.3158703009
 10
-1.9259121947
 20
0.308066039
 10
-1.9276444002
 20
0.3019835842
 10
-1.9282922059
 20
0.2978997095
 10
-1.9288735619
 20
0.2947150955
 10
-1.9303554659
 20
0.2891719788
 10
-1.9312945532
 20
0.2834580661
 10
-1.9326101507
 20
0.2791509136
 10
-1.935905856
 20
0.2610447566
 10
-1.9415205967
 20
0.2286836341
 10
-1.9482778064
 20
0.170172668
 10
-1.9498964377
 20
0.1403490041
 10
-1.9511478211
 20
0.1168733517
 10
-1.951428049
 20
0.1037485458
 10
-1.9511156234
 20
0.0934880077
 10
-1.9516506528
 20
0.0831268041
 10
-1.9512468426
 20
0.0750759014
 10
-1.9500977917
 20
0.0333332042
 10
-1.9488415345
 20
0.0150442872
 10
-1.9473098098
 20
0.0007500028
 10
-1.9469148564
 20
-0.0065744051
 10
-1.9465412742
 20
-0.0123221985
 10
-1.9457820186
 20
-0.0180073534
 10
-1.945379694
 20
-0.0225068815
 10
-1.9432467856
 20
-0.0406911627
 10
-1.9422484622
 20
-0.0463354701
 10
-1.9415561389
 20
-0.0507866828
 10
-1.9404922624
 20
-0.0587701344
 10
-1.9395163942
 20
-0.0667727362
 10
-1.9381575243
 20
-0.0729449001
 10
-1.9367968267
 20
-0.0785176096
 10
-1.9359060629
 20
-0.082931433
 10
-1.9345189904
 20
-0.0908559714
 10
-1.9336001933
 20
-0.0952647579
 10
-1.9327892174
 20
-0.0987102133
 10
-1.9314898933
 20
-0.1048933134
 10
-1.92992664
 20
-0.109161978
 10
-1.9290774386
 20
-0.1125972557
 10
-1.927851571
 20
-0.1187970166
 10
-1.9268615448
 20
-0.122200201
 10
-1.9265382569
 20
-0.1249770276
 10
-1.9253521312
 20
-0.129797985
 10
-1.9243662096
 20
-0.1343343479
 10
-1.922817851
 20
-0.1377173993
 10
-1.9216001716
 20
-0.1441213166
 10
-1.9200200579
 20
-0.1504390105
 10
-1.9184669381
 20
-0.1553275995
 10
-1.9167351311
 20
-0.1616070788
 10
-1.9153771986
 20
-0.1665412937
 10
-1.9129421098
 20
-0.1753492437
 10
-1.9098792367
 20
-0.1865671517
 10
-1.9083457934
 20
-0.1914542663
 10
-1.907156332
 20
-0.1952974769
 10
-1.9024534141
 20
-0.2109252146
 10
-1.8958699856
 20
-0.2306384476
 10
-1.890913727
 20
-0.2461838103
 10
-1.8892227062
 20
-0.2510176862
 10
-1.8879167834
 20
-0.2548218623
 10
-1.8855134665
 20
-0.2615921067
 10
-1.8831322796
 20
-0.2683673422
 10
-1.8812497699
 20
-0.2736867312
 10
-1.8798914105
 20
-0.2781238563
 10
-1.8780643362
 20
-0.2813671109
 10
-1.8763237265
 20
-0.2876456366
 10
-1.8723237339
 20
-0.298568455
 10
-1.8698475136
 20
-0.3046051309
 10
-1.8682552499
 20
-0.3094658116
 10
-1.8659263932
 20
-0.3140759495
 10
-1.8646940471
 20
-0.3179010646
 10
-1.8604389281
 20
-0.3287279621
 10
-1.8586397096
 20
-0.3335167361
 10
-1.8572819648
 20
-0.3372991167
 10
-1.8548846531
 20
-0.3418729006
 10
-1.8534899926
 20
-0.3456407902
 10
-1.852288171
 20
-0.3494789086
 10
-1.8506452058
 20
-0.3522400005
 10
-1.8486951225
 20
-0.3584574929
 10
-1.8462379859
 20
-0.3629997213
 10
-1.8441971809
 20
-0.3676949899
 10
-1.8429467802
 20
-0.3715176449
 10
-1.8410932738
 20
-0.3762839558
 10
-1.839003534
 20
-0.3797860499
 10
-1.837525072
 20
-0.383521389
 10
-1.8366950381
 20
-0.3865852249
 10
-1.8327065008
 20
-0.3948301992
 10
-1.829774107
 20
-0.4013843679
 10
-1.8268207383
 20
-0.4079293284
 10
-1.8253776079
 20
-0.4107501827
 10
-1.8247896862
 20
-0.4131881845
 10
-1.8223472532
 20
-0.4172006323
 10
-1.8209713925
 20
-0.4205743934
 10
-1.8180862993
 20
-0.4264216442
 10
-1.8156658529
 20
-0.43246248
 10
-1.8131622452
 20
-0.4369541981
 10
-1.8108044709
 20
-0.4430223457
 10
-1.8081925005
 20
-0.4474638455
 10
-1.8061694702
 20
-0.4521584552
 10
-1.8045609764
 20
-0.4558385989
 10
-1.8015735743
 20
-0.4616327518
 10
-1.7993946864
 20
-0.4662582918
 10
-1.7972407747
 20
-0.4708950952
 10
-1.795692861
 20
-0.4746034089
 10
-1.793027848
 20
-0.4790091412
 10
-1.7912244651
 20
-0.4826009178
 10
-1.7879750743
 20
-0.4890005093
 10
-1.7831131681
 20
-0.4995513576
 10
-1.7806741902
 20
-0.5040536698
 10
-1.7788336787
 20
-0.5076260863
 10
-1.7760460109
 20
-0.511958954
 10
-1.7743629809
 20
-0.5156052297
 10
-1.7727023146
 20
-0.519262775
 10
-1.7714742192
 20
-0.5221745553
 10
-1.7686081067
 20
-0.5264634187
 10
-1.7667647445
 20
-0.5300316272
 10
-1.7650059474
 20
-0.5336412864
 10
-1.7638897231
 20
-0.5366098271
 10
-1.7614126241
 20
-0.5398620944
 10
-1.7601773389
 20
-0.5427717988
 10
-1.7588682889
 20
-0.545645772
 10
-1.7574285301
 20
-0.5476956674
 10
-1.7556353112
 20
-0.5514270855
 10
-1.7537962083
 20
-0.5541402352
 10
-1.7522680347
 20
-0.5570109117
 10
-1.7513581159
 20
-0.5594167382
 10
-1.749627931
 20
-0.5621837764
 10
-1.7485035092
 20
-0.5644784101
 10
-1.746354202
 20
-0.5685036906
 10
-1.743394511
 20
-0.5735086733
 10
-1.7412943539
 20
-0.5775596964
 10
-1.7391162676
 20
-0.5815694935
 10
-1.7374736029
 20
-0.5847570824
 10
-1.7357060048
 20
-0.587499425
 10
-1.7345297673
 20
-0.589767373
 10
-1.7324017016
 20
-0.5938038283
 10
-1.7279801255
 20
-0.600673282
 10
-1.7257875509
 20
-0.6046740752
 10
-1.7239546311
 20
-0.6077561375
 10
-1.7223179479
 20
-0.6109471161
 10
-1.721120732
 20
-0.6135050069
 10
-1.7190414071
 20
-0.6170842149
 10
-1.717197764
 20
-0.6197776056
 10
-1.7145645771
 20
-0.6249592508
 10
-1.7111338243
 20
-0.6296865891
 10
-1.709191753
 20
-0.633831551
 10
-1.703955268
 20
-0.6427811573
 10
-1.701328562
 20
-0.646528724
 10
-1.6996677158
 20
-0.6497106223
 10
-1.6977371942
 20
-0.6523463591
 10
-1.6969740527
 20
-0.6548641947
 10
-1.6945909792
 20
-0.6587548189
 10
-1.6922497695
 20
-0.6626702141
 10
-1.6902251277
 20
-0.665634937
 10
-1.687880907
 20
-0.6695480957
 10
-1.6858536627
 20
-0.6725094912
 10
-1.6839866136
 20
-0.675568075
 10
-1.6827750692
 20
-0.6781288849
 10
-1.6802953398
 20
-0.6820445816
 10
-1.6783748643
 20
-0.6851387612
 10
-1.6762971
 20
-0.6881345272
 10
-1.6746490215
 20
-0.6904774774
 10
-1.6714451344
 20
-0.6961425677
 10
-1.6686981779
 20
-0.7004494498
 10
-1.6667235724
 20
-0.7035077834
 10
-1.6654415364
 20
-0.7060837064
 10
-1.6625465839
 20
-0.7102957426
 10
-1.6601974237
 20
-0.7148610448
 10
-1.657924253
 20
-0.7181710041
 10
-1.6541819724
 20
-0.723491293
 10
-1.651858772
 20
-0.7280785848
 10
-1.6489125013
 20
-0.7322540042
 10
-1.646743725
 20
-0.7356321373
 10
-1.6441891782
 20
-0.7400705337
 10
-1.6417932248
 20
-0.7432956998
 10
-1.6394012419
 20
-0.7465223328
 10
-1.6382098298
 20
-0.7495260752
 10
-1.6342566473
 20
-0.754697788
 10
-1.631849276
 20
-0.7592423406
 10
-1.6268322447
 20
-0.7668646362
 10
-1.6217401591
 20
-0.7744336367
 10
-1.6177638726
 20
-0.7803995752
 10
-1.6129944855
 20
-0.7882026728
 10
-1.6089168744
 20
-0.7940974645
 10
-1.6015636572
 20
-0.8045728907
 10
-1.5972937857
 20
-0.811705849
 10
-1.5949282737
 20
-0.8144818508
 10
-1.5936845576
 20
-0.8171241691
 10
-1.5869563432
 20
-0.8265884864
 10
-1.5807599158
 20
-0.8364633996
 10
-1.575275695
 20
-0.8437507294
 10
-1.5715709923
 20
-0.8491041094
 10
-1.5691401473
 20
-0.8536905754
 10
-1.5660650647
 20
-0.857770203
 10
-1.5639467914
 20
-0.8612127886
 10
-1.5610634843
 20
-0.8654474302
 10
-1.5583743582
 20
-0.8684334964
 10
-1.5564837794
 20
-0.8720655028
 10
-1.5543028986
 20
-0.8743548262
 10
-1.5524536643
 20
-0.8775435235
 10
-1.551015943
 20
-0.8800626238
 10
-1.5478747411
 20
-0.8840915717
 10
-1.5447921914
 20
-0.8881681061
 10
-1.5426652939
 20
-0.8916181621
 10
-1.5331821709
 20
-0.9049201632
 10
-1.5305599216
 20
-0.90939516
 10
-1.5278280983
 20
-0.9123380693
 10
-1.5258189704
 20
-0.9159027485
 10
-1.5235070693
 20
-0.9180706534
 10
-1.5214286239
 20
-0.9215792832
 10
-1.5198262383
 20
-0.9243646612
 10
-1.5162293067
 20
-0.9286975663
 10
-1.513802292
 20
-0.9327329737
 10
-1.5112148234
 20
-0.9353022252
 10
-1.5093012024
 20
-0.9384706182
 10
-1.5077839193
 20
-0.9409493147
 10
-1.5037025378
 20
-0.9460186257
 10
-1.5009731868
 20
-0.9504344906
 10
-1.4968187597
 20
-0.9554412116
 10
-1.4940461957
 20
-0.959825871
 10
-1.4884333482
 20
-0.9670543204
 10
-1.4760617816
 20
-0.9838623775
 10
-1.4706050515
 20
-0.9912602034
 10
-1.4659297412
 20
-0.9967020969
 10
-1.4622552986
 20
-1.0021922616
 10
-1.4593069833
 20
-1.0064505434
 10
-1.4557820506
 20
-1.0101441992
 10
-1.4534966176
 20
-1.0135260033
 10
-1.4481895194
 20
-1.0211088925
 10
-1.4458822176
 20
-1.0244772977
 10
-1.443477686
 20
-1.026528301
 10
-1.4404302761
 20
-1.0307089715
 10
-1.4380605598
 20
-1.0340212366
 10
-1.4338041628
 20
-1.0399164793
 10
-1.4255973569
 20
-1.0498314664
 10
-1.3967501895
 20
-1.0879479102
 10
-1.3733584022
 20
-1.1173304314
 10
-1.3692041464
 20
-1.1224490602
 10
-1.3665488663
 20
-1.126813276
 10
-1.363264641
 20
-1.1308173229
 10
-1.3606571364
 20
-1.1339458633
 10
-1.350668825
 20
-1.1469718918
 10
-1.3405915452
 20
-1.1599236908
 10
-1.3358289235
 20
-1.1654163848
 10
-1.3327202563
 20
-1.170114183
 10
-1.3296033776
 20
-1.173636114
 10
-1.3271525354
 20
-1.1764004462
 10
-1.3234145008
 20
-1.1817286093
 10
-1.3191265212
 20
-1.1867118705
 10
-1.3161807121
 20
-1.190889806
 10
-1.3089029583
 20
-1.2000129263
 10
-1.3032345749
 20
-1.2072055675
 10
-1.2970647763
 20
-1.2170367426
 10
-1.2933742084
 20
-1.2255279374
 10
-1.2866300794
 20
-1.2406143095
 10
-1.2577737763
 20
-1.3011509987
 10
-1.2530382042
 20
-1.3107298058
 10
-1.2479508674
 20
-1.3172452277
 10
-1.2444520911
 20
-1.3211926636
 10
-1.2420983184
 20
-1.3245852786
 10
-1.2377335388
 20
-1.3275495826
 10
-1.2346808945
 20
-1.3304292014
 10
-1.2056535874
 20
-1.3547609971
 10
-1.1472791547
 20
-1.4035680079
 10
-1.1342312798
 20
-1.4141330863
 10
-1.1284621617
 20
-1.4187458992
 10
-1.1243619302
 20
-1.4227551018
 10
-1.1186750921
 20
-1.4274300554
 10
-1.1141017101
 20
-1.4310036806
 10
-1.1059200637
 20
-1.4373612138
 10
-1.0879879509
 20
-1.4523810411
 10
-1.0739454939
 20
-1.4641956125
 10
-1.0638244052
 20
-1.4724914853
 10
-1.0591307573
 20
-1.4758994329
 10
-1.055865595
 20
-1.4789939924
 10
-1.0512411582
 20
-1.4824632078
 10
-1.047807577
 20
-1.4853878571
 10
-1.0413436377
 20
-1.4902690054
 10
-1.0371571026
 20
-1.4941725585
 10
-1.0334134808
 20
-1.4967745537
 10
-1.0301768909
 20
-1.4998947068
 10
-1.0271789397
 20
-1.501876461
 10
-1.0210413778
 20
-1.5070757519
 10
-1.0163132092
 20
-1.5112596127
 10
-1.0106671689
 20
-1.5158904754
 10
-1.0059797887
 20
-1.519259837
 10
-1.0014850674
 20
-1.5228301263
 10
-0.9982072906
 20
-1.5259087177
 10
-0.9937005897
 20
-1.5294646287
 10
-0.9899729139
 20
-1.5320523445
 10
-0.9839120733
 20
-1.5373216584
 10
-0.9793416232
 20
-1.5407991693
 10
-0.9759550521
 20
-1.5437571051
 10
-0.972667783
 20
-1.5468271319
 10
-0.9695496666
 20
-1.5486385073
 10
-0.9662554082
 20
-1.551700448
 10
-0.9634301809
 20
-1.5538392912
 10
-0.9584287763
 20
-1.5577052295
 10
-0.9538105694
 20
-1.5611163066
 10
-0.9504276382
 20
-1.5640782797
 10
-0.9470063042
 20
-1.5669957831
 10
-0.9443240394
 20
-1.5692963
 10
-0.937910086
 20
-1.5741498897
 10
-0.9353607503
 20
-1.5766070898
 10
-0.9330289261
 20
-1.578149106
 10
-0.9294799825
 20
-1.5809150674
 10
-0.9268768784
 20
-1.5833105155
 10
-0.9219275006
 20
-1.5872275109
 10
-0.916821116
 20
-1.5909542573
 10
-0.9129428476
 20
-1.594043324
 10
-0.908934689
 20
-1.597343418
 10
-0.9057579437
 20
-1.5999021239
 10
-0.9026057939
 20
-1.6024928143
 10
-0.8999515634
 20
-1.604308057
 10
-0.8967403382
 20
-1.6068241723
 10
-0.8943075257
 20
-1.6089134529
 10
-0.8919623161
 20
-1.6111145311
 10
-0.889789151
 20
-1.6124283544
 10
-0.8865808786
 20
-1.6149477767
 10
-0.8841995
 20
-1.6171041552
 10
-0.8817846793
 20
-1.6192202231
 10
-0.8795861592
 20
-1.6204976882
 10
-0.8771877994
 20
-1.6226341863
 10
-0.8752384573
 20
-1.6242314258
 10
-0.8717021649
 20
-1.6270111577
 10
-0.868426896
 20
-1.629445241
 10
-0.865795782
 20
-1.6312814657
 10
-0.8634179009
 20
-1.633448871
 10
-0.8613627704
 20
-1.6349086944
 10
-0.8587195317
 20
-1.63672799
 10
-0.8569390199
 20
-1.6385491245
 10
-0.8533794038
 20
-1.6413002142
 10
-0.8453528704
 20
-1.6476369522
 10
-0.8387951403
 20
-1.6522783011
 10
-0.8354909151
 20
-1.6546717029
 10
-0.8332956785
 20
-1.6571006801
 10
-0.8305619663
 20
-1.6587929342
 10
-0.8287454078
 20
-1.6605783081
 10
-0.8260236253
 20
-1.6622869218
 10
-0.8240099097
 20
-1.663800475
 10
-0.8206634569
 20
-1.6668529272
 10
-0.8178849701
 20
-1.6684796303
 10
-0.8160547668
 20
-1.6702516094
 10
-0.8124366598
 20
-1.6729272171
 10
-0.8087488114
 20
-1.6755031981
 10
-0.8059357216
 20
-1.6776468625
 10
-0.8015857968
 20
-1.681417301
 10
-0.7979207592
 20
-1.6840273798
 10
-0.7943078718
 20
-1.686713552
 10
-0.7913896964
 20
-1.6887079892
 10
-0.7849572839
 20
-1.6935327216
 10
-0.7824593011
 20
-1.6961456467
 10
-0.7799566926
 20
-1.6974037846
 10
-0.7766009632
 20
-1.6997262864
 10
-0.77422838
 20
-1.7019451624
 10
-0.7695257187
 20
-1.705214364
 10
-0.7614657585
 20
-1.7115635108
 10
-0.7569376402
 20
-1.7151026124
 10
-0.7531029432
 20
-1.7174601792
 10
-0.7467514662
 20
-1.7224347025
 10
-0.7383077482
 20
-1.7282122946
 10
-0.7317138531
 20
-1.732817634
 10
-0.7252577197
 20
-1.7376460218
 10
-0.720261778
 20
-1.7415667932
 10
-0.6723803327
 20
-1.7749740899
 10
-0.6683100765
 20
-1.7783187901
 10
-0.6647257163
 20
-1.7802765367
 10
-0.6586425078
 20
-1.7843266465
 10
-0.6524839856
 20
-1.788248022
 10
-0.6479944536
 20
-1.7919583248
 10
-0.6417981004
 20
-1.7958207934
 10
-0.6368521688
 20
-1.7987155381
 10
-0.6323341281
 20
-1.8023965422
 10
-0.6283081508
 20
-1.8044159365
 10
-0.6175251917
 20
-1.8118604761
 10
-0.6089387683
 20
-1.817513098
 10
-0.5933810012
 20
-1.8272031444
 10
-0.5900407367
 20
-1.8296413767
 10
-0.5870496685
 20
-1.8308396743
 10
-0.5824182998
 20
-1.8343783455
 10
-0.5773606118
 20
-1.8370769999
 10
-0.5736064342
 20
-1.839637584
 10
-0.5685998927
 20
-1.8424420295
 10
-0.5647080674
 20
-1.8447302909
 10
-0.56083637
 20
-1.8470631732
 10
-0.5579154936
 20
-1.8491464716
 10
-0.5528294116
 20
-1.8517940203
 10
-0.5490021807
 20
-1.8542255817
 10
-0.5420955025
 20
-1.8584271821
 10
-0.5350308469
 20
-1.8623015165
 10
-0.52940476
 20
-1.8651862899
 10
-0.5233141653
 20
-1.8693949335
 10
-0.5181836989
 20
-1.8719590301
 10
-0.5092395832
 20
-1.8770218597
 10
-0.5040535528
 20
-1.8794660842
 10
-0.5002473433
 20
-1.8819902103
 10
-0.4960964864
 20
-1.8837404895
 10
-0.4931115152
 20
-1.8857432659
 10
-0.4841000164
 20
-1.8906900212
 10
-0.4768956344
 20
-1.894297673
 10
-0.4697117174
 20
-1.8979573834
 10
-0.4639860708
 20
-1.9006428554
 10
-0.4589343359
 20
-1.9034218562
 10
-0.4548843281
 20
-1.9054157044
 10
-0.4476286014
 20
-1.9089210029
 10
-0.4437699803
 20
-1.9113905981
 10
-0.440387324
 20
-1.9124655867
 10
-0.434707316
 20
-1.9152799541
 10
-0.4307477444
 20
-1.9175142936
 10
-0.4273447709
 20
-1.9185333849
 10
-0.4218653873
 20
-1.9218724496
 10
-0.4113929097
 20
-1.9260841761
 10
-0.4030151884
 20
-1.9301794401
 10
-0.3994195946
 20
-1.9322262309
 10
-0.3962961484
 20
-1.9330422215
 10
-0.3896035017
 20
-1.9359789328
 10
-0.3843653902
 20
-1.9383450174
 10
-0.3776417854
 20
-1.941207069
 10
-0.3724774838
 20
-1.9437890476
 10
-0.3628861524
 20
-1.9473786377
 10
-0.3508007952
 20
-1.952297684
 10
-0.3413805133
 20
-1.956396188
 10
-0.3317148491
 20
-1.9597811058
 10
-0.3242868603
 20
-1.9629428251
 10
-0.3174957266
 20
-1.9656606024
 10
-0.3120408758
 20
-1.9674321159
 10
-0.3066833539
 20
-1.9695092998
 10
-0.3023430116
 20
-1.9707304801
 10
-0.292681647
 20
-1.9741461284
 10
-0.2850817569
 20
-1.9768092627
 10
-0.2796394367
 20
-1.9786248332
 10
-0.2753107773
 20
-1.9798780555
 10
-0.2709823767
 20
-1.9811311259
 10
-0.267791265
 20
-1.9828226634
 10
-0.2634275733
 20
-1.9839586427
 10
-0.2599945298
 20
-1.9848328387
 10
-0.2539795667
 20
-1.9867936952
 10
-0.2469689628
 20
-1.9888273663
 10
-0.2416096023
 20
-1.9909560347
 10
-0.2360697139
 20
-1.9924446609
 10
-0.2317440553
 20
-1.9937128101
 10
-0.2261715026
 20
-1.9950813528
 10
-0.2218460233
 20
-1.9963507817
 10
-0.2140904611
 20
-1.9985053347
 10
-0.2085684502
 20
-2.0000612956
 10
-0.2042125194
 20
-2.0012207806
 10
-0.1998448379
 20
-2.0023351131
 10
-0.1963510565
 20
-2.0029681692
 10
-0.1919745027
 20
-2.0040440062
 10
-0.1886014924
 20
-2.0051492908
 10
-0.1824002379
 20
-2.0064211376
 10
-0.1724364252
 20
-2.0088017199
 10
-0.1646359242
 20
-2.0107910169
 10
-0.1601081164
 20
-2.0112312761
 10
-0.1567387494
 20
-2.0123738898
 10
-0.1505219191
 20
-2.0135614871
 10
-0.1425838612
 20
-2.0149533286
 10
-0.1364690236
 20
-2.0165864293
 10
-0.1253331076
 20
-2.0185332457
 10
-0.1201801445
 20
-2.019322169
 10
-0.1162407338
 20
-2.0204541469
 10
-0.1090167761
 20
-2.0215885275
 10
-0.10177956
 20
-2.022647894
 10
-0.0961610316
 20
-2.0238092586
 10
-0.0889308103
 20
-2.0248947702
 10
-0.0832561889
 20
-2.0257763645
 10
-0.0775067459
 20
-2.0262665843
 10
-0.0730421649
 20
-2.0269175857
 10
-0.0504190073
 20
-2.0326718754
 10
-0.0449260726
 20
-2.0345597156
 10
-0.0404648643
 20
-2.0352212488
 10
-0.0361404937
 20
-2.0366748465
 10
-0.0327447646
 20
-2.037836448
 10
-0.0256017264
 20
-2.0394038716
 10
-0.0199490481
 20
-2.0403891511
 10
-0.0099900968
 20
-2.0430028552
 10
0.0001510102
 20
-2.0444737894
 10
0.0080189479
 20
-2.046294615
 10
0.0136918647
 20
-2.0471611559
 10
0.0181506312
 20
-2.0478353729
 10
0.0226219433
 20
-2.0484209696
 10
0.0261931823
 20
-2.0484603135
 10
0.03063799
 20
-2.0492365044
 10
0.0341725663
 20
-2.0495384165
 10
0.0405093099
 20
-2.0498749829
 10
0.0477970736
 20
-2.0504637888
 10
0.0535218325
 20
-2.0509289642
 10
0.0637860648
 20
-2.0514074673
 10
0.0739716224
 20
-2.0525390457
 10
0.0820880817
 20
-2.0524181638
 10
0.0878123916
 20
-2.0528589444
 10
0.092345112
 20
-2.0528795637
 10
0.1003744834
 20
-2.0535141151
 10
0.1084816958
 20
-2.0533540313
 10
0.1148023604
 20
-2.0537115851
 10
0.1250246045
 20
-2.0544653479
 10
0.1295619085
 20
-2.054341447
 10
0.1330671938
 20
-2.0549348795
 10
0.1375647099
 20
-2.0552709209
 10
0.1411179321
 20
-2.0552923298
 10
0.1474013575
 20
-2.0560904107
 10
0.1519036083
 20
-2.0563604766
 10
0.1554513457
 20
-2.0564268937
 10
0.1589650301
 20
-2.0569544718
 10
0.1617513405
 20
-2.0570273637
 10
0.1679922014
 20
-2.0584838649
 10
0.172951099
 20
-2.0588446826
 10
0.2022890407
 20
-2.0650146576
 10
0.225403139
 20
-2.0695552386
 10
0.2668048073
 20
-2.0769876354
 10
0.2900622004
 20
-2.0800516832
 10
0.2957974447
 20
-2.080985082
 10
0.3003091598
 20
-2.0808424164
 10
0.3083635689
 20
-2.0813297969
 10
0.3186183586
 20
-2.0819133215
 10
0.3231308349
 20
-2.0819966495
 10
0.3266744395
 20
-2.0817827829
 10
0.3347291035
 20
-2.0816520589
 10
0.3382777205
 20
-2.0818823854
 10
0.3410576298
 20
-2.0815005674
 10
0.3451496832
 20
-2.0814737828
 10
0.348371086
 20
-2.0817447959
 10
0.3541124624
 20
-2.0816286717
 10
0.3643499127
 20
-2.0807867806
 10
0.3826455544
 20
-2.0800200224
 10
0.3928703195
 20
-2.0790860717
 10
0.4009343619
 20
-2.079072604
 10
0.4054377792
 20
-2.0787751975
 10
0.4089680103
 20
-2.0783863707
 10
0.4125218811
 20
-2.0784825827
 10
0.4152999721
 20
-2.078254851
 10
0.4255406245
 20
-2.0777217124
 10
0.433572568
 20
-2.0770483619
 10
0.4479097817
 20
-2.0757867359
 10
0.4559177556
 20
-2.074791557
 10
0.4622210357
 20
-2.0741721435
 10
0.4684949227
 20
-2.0731687959
 10
0.4734255281
 20
-2.0724186325
 10
0.5721195372
 20
-2.0497325193
 10
0.6021173429
 20
-2.0395457714
 10
0.6151966519
 20
-2.0347725273
 10
0.6211283453
 20
-2.0330401732
 10
0.6254637094
 20
-2.0309897549
 10
0.6329376557
 20
-2.0286101683
 10
0.6384921147
 20
-2.0260738438
 10
0.6486510461
 20
-2.0220377505
 10
0.6541687486
 20
-2.0194265104
 10
0.6587918944
 20
-2.0179545926
 10
0.6667063491
 20
-2.0146304929
 10
0.6827802335
 20
-2.0072875033
 10
0.689820089
 20
-2.0039892746
 10
0.6951631488
 20
-2.0010338362
 10
0.7021948489
 20
-1.9977174455
 10
0.7078737911
 20
-1.9954013783
 10
0.7134829912
 20
-1.9929480119
 10
0.7176613292
 20
-1.9905905533
 10
0.7244077819
 20
-1.986734898
 10
0.730051802
 20
-1.9843379932
 10
0.739738623
 20
-1.9793316194
 10
0.7451153298
 20
-1.9764412454
 10
0.7492781714
 20
-1.974058814
 10
0.7534294337
 20
-1.9716562949
 10
0.7565864123
 20
-1.9695835929
 10
0.7608728034
 20
-1.9671221315
 10
0.764596527
 20
-1.9658138548
 10
0.7705719415
 20
-1.9622916582
 10
0.776445305
 20
-1.9585925877
 10
0.7811746153
 20
-1.9558858813
 10
0.7845181822
 20
-1.9539109472
 10
0.7873128694
 20
-1.9526443996
 10
0.7919927256
 20
-1.9498519534
 10
0.7966788777
 20
-1.9470701448
 10
0.7999728089
 20
-1.9442320789
 10
0.8061644766
 20
-1.9408757636
 10
0.8109102984
 20
-1.9380392191
 10
0.8174753819
 20
-1.935304539
 10
0.8228085386
 20
-1.9338442895
 10
0.8303359655
 20
-1.931478333
 10
0.8362744566
 20
-1.9297153281
 10
0.8472976857
 20
-1.9281131131
 10
1.243437953
 20
-1.8399867624
 10
1.6159578282
 20
-1.6788196368
 10
1.9536383039
 20
-1.4535178142
 10
2.1242020761
 20
-1.3029186584
 10
2.1639863425
 20
-1.2633879579
 10
2.1806225486
 20
-1.245270687
 10
2.1880436967
 20
-1.2373641557
 10
2.1934165509
 20
-1.2308070311
 10
2.2020109773
 20
-1.2201038104
 10
2.2059468426
 20
-1.2155042297
 10
2.2085086779
 20
-1.2115060449
 10
2.2120340496
 20
-1.2066094077
 10
2.2153861433
 20
-1.2031788562
 10
2.2203049881
 20
-1.1962876472
 10
2.2306380427
 20
-1.1800280675
 10
2.2352464801
 20
-1.1729197378
 10
2.2382718209
 20
-1.1669234633
 10
2.2421410383
 20
-1.1611299558
 10
2.2453259164
 20
-1.1566762374
 10
2.2497936995
 20
-1.1478941312
 10
2.2549199664
 20
-1.1395618505
 10
2.2590520951
 20
-1.1330851879
 10
2.2634275283
 20
-1.1242569056
 10
2.2668343151
 20
-1.1173040666
 10
2.270894939
 20
-1.1107835113
 10
2.2735771642
 20
-1.105329299
 10
2.2988296352
 20
-1.0554371737
 10
2.3388037877
 20
-0.9636141772
 10
2.342517791
 20
-0.9544945693
 10
2.3446476592
 20
-0.9471146839
 10
2.3498521048
 20
-0.9343040056
 10
2.3581186321
 20
-0.9111417643
 10
2.3661763025
 20
-0.8879041614
 10
2.372106662
 20
-0.8695348983
 10
2.3761567812
 20
-0.8563938474
 10
2.3792065964
 20
-0.8460354018
 10
2.3818562567
 20
-0.8355854595
 10
2.384628881
 20
-0.8275225453
 10
2.3869419354
 20
-0.8169978017
 10
2.3890922032
 20
-0.8087976011
 10
2.3921732083
 20
-0.7939966153
 10
2.3937621857
 20
-0.7863573124
 10
2.394954705
 20
-0.7803434523
 10
2.3963450318
 20
-0.7694630543
 10
2.3983570849
 20
-0.749955082
 10
2.400721627
 20
-0.7305223202
 10
2.401350591
 20
-0.7150505673
 10
2.4030993722
 20
-0.6522606923
 10
2.4021628914
 20
-0.5401033521
 10
2.3873894963
 20
-0.3404027318
 10
2.3186014499
 20
0.0102409817
 10
2.1740346554
 20
0.3895049851
 10
2.0756119324
 20
0.567225038
 10
2.0200298579
 20
0.6522804171
 10
1.9906767478
 20
0.6937500482
 10
1.9822867278
 20
0.7052362617
 10
1.9792200766
 20
0.7106187748
 10
1.9769484586
 20
0.7149216815
 10
1.9734255073
 20
0.721976488
 10
1.9708374274
 20
0.727618404
 10
1.9677208844
 20
0.7382599169
 10
1.9657209568
 20
0.7491568098
 10
1.9646371187
 20
0.7539067817
 10
1.9635995439
 20
0.7575967074
 10
1.9625320734
 20
0.7623496736
 10
1.9618627653
 20
0.7661228322
 10
1.9612068888
 20
0.7699003815
 10
1.9602180513
 20
0.7727587058
 10
1.9590975951
 20
0.7774996585
 10
1.9583091985
 20
0.7812461672
 10
1.9567224516
 20
0.7878953462
 10
1.9547035998
 20
0.7944389262
 10
1.9534573331
 20
0.7996631873
 10
1.9522750445
 20
0.8043892563
 10
1.951473096
 20
0.8081342231
 10
1.9494980221
 20
0.8146854213
 10
1.9487326863
 20
0.818441451
 10
1.9476480257
 20
0.8212679843
 10
1.9462250723
 20
0.826447223
 10
1.9442573774
 20
0.8329981576
 10
1.9428750715
 20
0.8381881715
 10
1.9414459605
 20
0.8433655212
 10
1.9403337388
 20
0.8474370624
 10
1.9377294589
 20
0.8557453727
 10
1.9356623498
 20
0.8622663906
 10
1.9318568105
 20
0.8738774601
 10
1.9275770844
 20
0.8853470742
 10
1.9242888108
 20
0.8943764074
 10
1.9221341746
 20
0.900867566
 10
1.9206117366
 20
0.9060194911
 10
1.918202396
 20
0.9109001524
 10
1.9171135855
 20
0.9149814853
 10
1.9147836607
 20
0.9198826464
 10
1.9135187715
 20
0.9239097777
 10
1.9102849903
 20
0.9307915176
 10
1.9067008213
 20
0.9400249771
 10
1.9039580978
 20
0.947302986
 10
1.9004219358
 20
0.9543182519
 10
1.8984220458
 20
0.9600867017
 10
1.8948000379
 20
0.9670652122
 10
1.8920043389
 20
0.9725620258
 10
1.889937624
 20
0.9783071531
 10
1.8876512844
 20
0.982591187
 10
1.8665892737
 20
1.0220303225
 10
1.8504754925
 20
1.0494029894
 10
1.8367997606
 20
1.0701654521
 10
1.8222682651
 20
1.0902711071
 10
1.8158688912
 20
1.0991204082
 10
1.8128510082
 20
1.1028487808
 10
1.8103422537
 20
1.1056644036
 10
1.8025809543
 20
1.1153422871
 10
1.796085265
 20
1.1226115038
 10
1.7927893229
 20
1.1269737047
 10
1.7898062949
 20
1.1300641346
 10
1.7850420788
 20
1.1360654961
 10
1.7816159621
 20
1.1403184592
 10
1.7786416327
 20
1.1434134983
 10
1.7758907055
 20
1.146703059
 10
1.7738787878
 20
1.1494198915
 10
1.7710522412
 20
1.1526432224
 10
1.7690522682
 20
1.1553718259
 10
1.764936194
 20
1.1597619988
 10
1.7586585287
 20
1.1672220354
 10
1.7556447768
 20
1.1702772933
 10
1.7535882463
 20
1.1729589847
 10
1.7443551791
 20
1.18304315
 10
1.7347813184
 20
1.1928098459
 10
1.7274364599
 20
1.2006483946
 10
1.7229971456
 20
1.2039626045
 10
1.7202094445
 20
1.207227246
 10
1.7141205391
 20
1.2120008994
 10
1.7084837207
 20
1.2172005182
 10
1.7036621474
 20
1.2209061905
 10
1.6839894259
 20
1.2358048121
 10
1.6484109487
 20
1.2618052705
 10
1.6227136478
 20
1.2798612359
 10
1.6168789477
 20
1.2848271249
 10
1.611749629
 20
1.2881397254
 10
1.6094837309
 20
1.2906492275
 10
1.6072803246
 20
1.2921622487
 10
1.6037911426
 20
1.2953464773
 10
1.600679161
 20
1.2982928616
 10
1.5983703086
 20
1.3007586131
 10
1.5937929744
 20
1.3046615454
 10
1.5891926567
 20
1.3085380457
 10
1.586142727
 20
1.3122132584
 10
1.5817486073
 20
1.3163203825
 10
1.5780992617
 20
1.3193247881
 10
1.5721163217
 20
1.3252934294
 10
1.5626108104
 20
1.3351823776
 10
1.554822427
 20
1.3425911682
 10
1.5506571856
 20
1.3469723858
 10
1.5470256818
 20
1.3499931359
 10
1.5438918116
 20
1.3536029699
 10
1.5408598076
 20
1.355764807
 10
1.536899635
 20
1.3603992107
 10
1.5331966314
 20
1.3633348229
 10
1.5270917651
 20
1.3691883159
 10
1.520911633
 20
1.37495525
 10
1.5156867147
 20
1.3790350025
 10
1.5111709683
 20
1.383306935
 10
1.5073637204
 20
1.3863429822
 10
1.5035503602
 20
1.3893712488
 10
1.500428121
 20
1.3915924962
 10
1.4934911326
 20
1.3968365323
 10
1.4879091608
 20
1.4007893519
 10
1.4808211599
 20
1.4058376805
 10
1.4751289903
 20
1.4096427242
 10
1.469468698
 20
1.4134861033
 10
1.4651993987
 20
1.4167379709
 10
1.4409286675
 20
1.4305808655
 10
1.4351677945
 20
1.4342782595
 10
1.4308719021
 20
1.43749421
 10
1.4269112575
 20
1.4411707214
 10
1.4235590331
 20
1.4437312498
 10
1.3841874055
 20
1.4737811534
 10
1.3742713449
 20
1.4808856572
 10
1.3665790976
 20
1.4866195953
 10
1.3585137218
 20
1.4917964266
 10
1.3525144626
 20
1.4963744225
 10
1.349435
 20
1.4980048796
 10
1.3473442955
 20
1.4997874597
 10
1.3432568798
 20
1.5024309926
 10
1.3391625587
 20
1.5050637585
 10
1.3359098354
 20
1.5070773523
 10
1.3287516308
 20
1.5120161915
 10
1.3255815904
 20
1.5141586235
 10
1.3228539176
 20
1.5154680935
 10
1.3187310375
 20
1.5180540455
 10
1.3155059028
 20
1.5201078944
 10
1.3097864959
 20
1.5238419821
 10
1.2993392508
 20
1.5301311594
 10
1.2920371809
 20
1.5348499567
 10
1.2883690897
 20
1.5361759086
 10
1.2859852665
 20
1.538040465
 10
1.2826363233
 20
1.5398925027
 10
1.2799398745
 20
1.5412369403
 10
1.2753133
 20
1.5439530178
 10
1.272066764
 20
1.5459737841
 10
1.2696088781
 20
1.5477206153
 10
1.2649845872
 20
1.5504413602
 10
1.2600244591
 20
1.5525879166
 10
1.2563113531
 20
1.5545871403
 10
1.2520540141
 20
1.5569450547
 10
1.2487312072
 20
1.5588377303
 10
1.2427302418
 20
1.5620974147
 10
1.2318936822
 20
1.5677029616
 10
1.2210255517
 20
1.573245517
 10
1.2125103647
 20
1.5776409018
 10
1.2015993614
 20
1.5830952102
 10
1.1965542512
 20
1.5850377539
 10
1.1929288357
 20
1.5871953195
 10
1.1840183173
 20
1.5908356974
 10
1.1774647648
 20
1.5945436511
 10
1.1711075266
 20
1.5973516475
 10
1.1659578755
 20
1.5992536853
 10
1.1610455705
 20
1.6016147284
 10
1.1572771652
 20
1.6036503552
 10
1.1521008982
 20
1.6054896157
 10
1.1482271733
 20
1.6073150422
 10
1.1412119379
 20
1.6103806068
 10
1.1360684986
 20
1.6122730783
 10
1.1320648529
 20
1.6138317956
 10
1.1249723149
 20
1.6167273247
 10
1.1179264513
 20
1.6197150718
 10
1.1124417845
 20
1.6221696168
 10
1.1072592605
 20
1.6239586311
 10
1.1032456541
 20
1.6254829964
 10
1.0994289279
 20
1.6274270208
 10
1.0961442885
 20
1.6283423641
 10
1.089041003
 20
1.6311951801
 10
1.08348126
 20
1.6334814529
 10
1.0760997883
 20
1.635716258
 10
1.0704331401
 20
1.6377576315
 10
1.0603519887
 20
1.6414819774
 10
1.0511441476
 20
1.6447070004
 10
1.0437688102
 20
1.6469075606
 10
1.0365869548
 20
1.6495504249
 10
1.0309979107
 20
1.6517528072
 10
1.0178107936
 20
1.655594769
 10
1.0075016428
 20
1.6587156565
 10
1.0002664348
 20
1.6612075086
 10
0.9946332726
 20
1.6632929365
 10
0.9886744218
 20
1.6645584998
 10
0.9842733327
 20
1.6662562681
 10
0.9658358558
 20
1.6716641548
 10
0.9491398317
 20
1.6766075985
 10
0.9417292953
 20
1.678599784
 10
0.9358093464
 20
1.6798889824
 10
0.9284648728
 20
1.6820468814
 10
0.9224896829
 20
1.6831651852
 10
0.9167281285
 20
1.6848755864
 10
0.9122061126
 20
1.6862342401
 10
0.9079945295
 20
1.6871480831
 10
0.9046349385
 20
1.6877172286
 10
0.8988828172
 20
1.6894459894
 10
0.8931356588
 20
1.6911903271
 10
0.8883982356
 20
1.6918979524
 10
0.8826434929
 20
1.6936142248
 10
0.8778895087
 20
1.6942558794
 10
0.8696916685
 20
1.6962744207
 10
0.8622802436
 20
1.6981773598
 10
0.8565034697
 20
1.6998169577
 10
0.8504434618
 20
1.7005497623
 10
0.8459579284
 20
1.7020045753
 10
0.8271476253
 20
1.7059173435
 10
0.8167494304
 20
1.7085446301
 10
0.808392447
 20
1.7099553508
 10
0.8037454308
 20
1.7108503822
 10
0.8002487342
 20
1.7120991979
 10
0.7935678516
 20
1.7127730588
 10
0.7867827937
 20
1.7142242309
 10
0.7814945171
 20
1.7155181168
 10
0.7718579745
 20
1.7171061977
 10
0.7624158154
 20
1.7194154772
 10
0.7549328871
 20
1.7209812216
 10
0.7495145531
 20
1.7217587471
 10
0.7452601512
 20
1.7223719328
 10
0.7377198525
 20
1.7236854858
 10
0.730205371
 20
1.7250952257
 10
0.7242799934
 20
1.726108152
 10
0.7189592568
 20
1.7272528317
 10
0.714806304
 20
1.7282727507
 10
0.710465771
 20
1.7284790203
 10
0.707248919
 20
1.7294802342
 10
0.6996576596
 20
1.7305223787
 10
0.6937462834
 20
1.7315700363
 10
0.6861690497
 20
1.7326514707
 10
0.6803189093
 20
1.7339786523
 10
0.6743465537
 20
1.7347238985
 10
0.6697296425
 20
1.735668671
 10
0.6643306018
 20
1.7364205382
 10
0.6601665719
 20
1.7373963526
 10
0.6559958282
 20
1.738342803
 10
0.6525563988
 20
1.7382636967
 10
0.6483710436
 20
1.7391331082
 10
0.6451197541
 20
1.7400113044
 10
0.6391736608
 20
1.7408500346
 10
0.6349519374
 20
1.7415332746
 10
0.6315987487
 20
1.7418725924
 10
0.6282844896
 20
1.7424168312
 10
0.6257459153
 20
1.7432076954
 10
0.6223991544
 20
1.7435756331
 10
0.6198080132
 20
1.7440751746
 10
0.6151203248
 20
1.7446313624
 10
0.6108967967
 20
1.7452953508
 10
0.6075416945
 20
1.745600592
 10
0.6042374747
 20
1.7461993586
 10
0.6016780207
 20
1.7468936886
 10
0.5983236336
 20
1.747197061
 10
0.5957229458
 20
1.7476400808
 10
0.5910590536
 20
1.7483156082
 10
0.5804892357
 20
1.7500375911
 10
0.5721493146
 20
1.7511588816
 10
0.5668001568
 20
1.7521691652
 10
0.5625628827
 20
1.7527329952
 10
0.5583238453
 20
1.7532826932
 10
0.554965592
 20
1.7535161007
 10
0.5507292532
 20
1.754078145
 10
0.5474937588
 20
1.7551995008
 10
0.5441234925
 20
1.7553350106
 10
0.541546049
 20
1.7559634854
 10
0.5339725533
 20
1.7569117561
 10
0.5280630931
 20
1.7579781472
 10
0.5246969071
 20
1.7581179285
 10
0.5221201434
 20
1.758778889
 10
0.5174648133
 20
1.7595308988
 10
0.5098656582
 20
1.7602463269
 10
0.5039086697
 20
1.7609274828
 10
0.4979793873
 20
1.7618520562
 10
0.4933556786
 20
1.7629115999
 10
0.4900293706
 20
1.7633895778
 10
0.4873659829
 20
1.7632809387
 10
0.4827450058
 20
1.7644025057
 10
0.4780856835
 20
1.7651632694
 10
0.4743762227
 20
1.7652550414
 10
0.4701883991
 20
1.7663606354
 10
0.4668328096
 20
1.7665402514
 10
0.4608880715
 20
1.7673796116
 10
0.4502862832
 20
1.7690713611
 10
0.4443421219
 20
1.7699589231
 10
0.4396518102
 20
1.770410209
 10
0.4349473648
 20
1.7706630406
 10
0.4313052748
 20
1.7716119971
 10
0.4253425736
 20
1.7722969576
 10
0.4206472551
 20
1.7726726087
 10
0.4159968831
 20
1.7737649649
 10
0.4122996801
 20
1.7739333795
 10
0.4076375138
 20
1.7748892347
 10
0.4039333447
 20
1.7749435447
 10
0.397364401
 20
1.7758407578
 10
0.3912364242
 20
1.7770245033
 10
0.3863942316
 20
1.7774033175
 10
0.3815780213
 20
1.7783927926
 10
0.3777639422
 20
1.7784804696
 10
0.3729422272
 20
1.779423073
 10
0.3691553026
 20
1.7802430307
 10
0.3653359595
 20
1.7801883528
 10
0.3623588004
 20
1.7808411688
 10
0.3469355547
 20
1.7831921362
 10
0.334797856
 20
1.7846909529
 10
0.3193395986
 20
1.7867847548
 10
0.3071807253
 20
1.7881218296
 10
0.2950164222
 20
1.7893315968
 10
0.2854462873
 20
1.790953586
 10
0.1968428993
 20
1.802083311
 10
0.1466647714
 20
1.8083766712
 10
0.1216234859
 20
1.8114554756
 10
0.114664857
 20
1.811566765
 10
0.1091301458
 20
1.8115010604
 10
0.0967636539
 20
1.8094291619
 10
0.0424148937
 20
1.7925725733
 10
0.0186844931
 20
1.7845868864
 10
0.008280967
 20
1.7809618989
 10
0.0037182202
 20
1.7793032552
 10
0.0
 20
1.7787802419
  0
LWPOLYLINE
  5
82
330
1F
100
AcDbEntity
  8
0
  6
Continuous
 62
     7
100
AcDbPolyline
 90
      410
 70
   128
 43
0.0
 10
2.9279655359
 20
0.0
 10
2.9268544473
 20
0.0024186444
 10
2.9260285321
 20
0.0043301433
 10
2.9245080299
 20
0.007735408
 10
2.9218246486
 20
0.0138284977
 10
2.9171094572
 20
0.0247422462
 10
2.9089317199
 20
0.0443338014
 10
2.8951011125
 20
0.0796303359
 10
2.8728650567
 20
0.1435648163
 10
2.840977111
 20
0.260133824
 10
2.8086297173
 20
0.4733748108
 10
2.8260246527
 20
0.8575210567
 10
2.9523903938
 20
1.2757316099
 10
3.1758418081
 20
1.6513482478
 10
3.5926528146
 20
2.0576226018
 10
4.1048365003
 20
2.3347513375
 10
4.6708519796
 20
2.4726496864
 10
5.1081759084
 20
2.4845232829
 10
5.5410670117
 20
2.4209746036
 10
6.0059003142
 20
2.2661382989
 10
6.2001432365
 20
2.1720779926
 10
6.2831897895
 20
2.1259868417
 10
6.3192283512
 20
2.104824464
 10
6.3349874782
 20
2.0953473564
 10
6.3468072318
 20
2.0871565116
 10
6.3679034207
 20
2.0705328263
 10
6.3835079308
 20
2.0562463125
 10
6.3919787959
 20
2.0478921327
 10
6.39773742
 20
2.04060583
 10
6.4032443431
 20
2.0331190412
 10
6.4077722423
 20
2.0273965883
 10
6.4146430469
 20
2.0177632922
 10
6.420131555
 20
2.0102662718
 10
6.4287699355
 20
1.9959862965
 10
6.4440948691
 20
1.9704440824
 10
6.5034900405
 20
1.8651631239
 10
6.5979971445
 20
1.6711373325
 10
6.7276402913
 20
1.3084505421
 10
6.8094965811
 20
0.878636391
 10
6.8168339222
 20
0.4412027334
 10
6.7785414896
 20
0.1518679465
 10
6.8112504798
 20
-0.1323856802
 10
6.7768507682
 20
-0.4130981934
 10
6.5320434474
 20
-0.8372419195
 10
6.4913916226
 20
-0.8913721106
 10
6.4729952513
 20
-0.9147991726
 10
6.4585319419
 20
-0.9331609549
 10
6.4518088789
 20
-0.9484355374
 10
6.4464086488
 20
-0.9603775616
 10
6.4365976354
 20
-0.9816258761
 10
6.4178988628
 20
-1.0188946787
 10
6.4033853064
 20
-1.0447205866
 10
6.3968118025
 20
-1.0559664899
 10
6.3914207564
 20
-1.0646482365
 10
6.388038611
 20
-1.0711632107
 10
6.3848491299
 20
-1.0759067715
 10
6.3796080493
 20
-1.0847037821
 10
6.3700314877
 20
-1.100269656
 10
6.3658569493
 20
-1.1062276264
 10
6.3625625311
 20
-1.1108980072
 10
6.3571569693
 20
-1.1195936364
 10
6.351229404
 20
-1.1279032954
 10
6.3466635427
 20
-1.1345016545
 10
6.3410209018
 20
-1.1430308279
 10
6.3363770725
 20
-1.1495738493
 10
6.3317106834
 20
-1.1561005753
 10
6.3279402303
 20
-1.1611482228
 10
6.3230929367
 20
-1.1680176087
 10
6.3190863657
 20
-1.1732600764
 10
6.3118899016
 20
-1.1825884045
 10
6.3077234943
 20
-1.1877033738
 10
6.3050263457
 20
-1.1921872016
 10
6.3017686892
 20
-1.1962197211
 10
6.298950957
 20
-1.1991777671
 10
6.2950123842
 20
-1.2044778654
 10
6.2917500446
 20
-1.2085055034
 10
6.2884863364
 20
-1.2125323381
 10
6.28606737
 20
-1.2158175703
 10
6.2827378181
 20
-1.2197907965
 10
6.2802553282
 20
-1.2230232718
 10
6.2754417673
 20
-1.2284776042
 10
6.2713084444
 20
-1.233621649
 10
6.2678921438
 20
-1.2375203924
 10
6.2617973749
 20
-1.2444857906
 10
6.255969139
 20
-1.2516819044
 10
6.2514774056
 20
-1.2574143373
 10
6.2451014985
 20
-1.2641338494
 10
6.2405136234
 20
-1.2697838599
 10
6.2355665794
 20
-1.275116096
 10
6.231715833
 20
-1.2793376821
 10
6.2271824268
 20
-1.2841324134
 10
6.2237158669
 20
-1.2879847081
 10
6.2176984381
 20
-1.2950218207
 10
6.2142179113
 20
-1.298862696
 10
6.2113779644
 20
-1.3017843109
 10
6.2064744364
 20
-1.3071538304
 10
6.2001327144
 20
-1.313895773
 10
6.1951591352
 20
-1.3192001684
 10
6.1923998777
 20
-1.3221960181
 10
6.1899524149
 20
-1.3242852481
 10
6.1860131013
 20
-1.3284227884
 10
6.1824482989
 20
-1.3321839642
 10
6.1794686949
 20
-1.3349693462
 10
6.1745463975
 20
-1.3403236537
 10
6.1692539015
 20
-1.3453206306
 10
6.1652375264
 20
-1.3493834845
 10
6.1602746082
 20
-1.354700497
 10
6.156290016
 20
-1.358794798
 10
6.149326803
 20
-1.3662569074
 10
6.1445264242
 20
-1.3707841081
 10
6.1408728063
 20
-1.3744587501
 10
6.1372164626
 20
-1.3781308691
 10
6.134482074
 20
-1.3811569546
 10
6.1307895059
 20
-1.3847935044
 10
6.1277577149
 20
-1.3875177573
 10
6.1246926389
 20
-1.3902061433
 10
6.1226235347
 20
-1.3926667429
 10
6.1189128288
 20
-1.396284598
 10
6.1159025074
 20
-1.3990293961
 10
6.1106856979
 20
-1.4040936455
 10
6.1057129201
 20
-1.4094151849
 10
6.1015499573
 20
-1.413327739
 10
6.0977811539
 20
-1.4168848583
 10
6.0946814946
 20
-1.4195325406
 10
6.0895766095
 20
-1.4247183272
 10
6.0843932679
 20
-1.4298210713
 10
6.0802054043
 20
-1.4337067133
 10
6.0750351935
 20
-1.4388254477
 10
6.0708300121
 20
-1.4426920611
 10
6.0633635552
 20
-1.4496434951
 10
6.0598746092
 20
-1.4535131359
 10
6.0566341028
 20
-1.4559974438
 10
6.0513429631
 20
-1.4609869344
 10
6.0420156286
 20
-1.4700352775
 10
6.0327830618
 20
-1.4792014314
 10
6.0253467041
 20
-1.4861966782
 10
6.0201056071
 20
-1.4912537757
 10
6.0157813407
 20
-1.494986677
 10
6.0084314144
 20
-1.502091782
 10
6.0010547493
 20
-1.509171271
 10
5.9950670166
 20
-1.5145057444
 10
5.9797022253
 20
-1.5289299538
 10
5.9728481032
 20
-1.5351676371
 10
5.9678463846
 20
-1.540549126
 10
5.9608903526
 20
-1.5466673435
 10
5.9553541873
 20
-1.5513847898
 10
5.9502661444
 20
-1.5566751633
 10
5.9462716703
 20
-1.5608399333
 10
5.9392631679
 20
-1.5669015913
 10
5.9340691164
 20
-1.572071061
 10
5.9285002747
 20
-1.576757058
 10
5.9244311731
 20
-1.5808424055
 10
5.9078220583
 20
-1.5973313148
 10
5.8864329587
 20
-1.6180625544
 10
5.8775377412
 20
-1.6275725241
 10
5.8705024422
 20
-1.6350046425
 10
5.8614318348
 20
-1.6443613442
 10
5.8543313351
 20
-1.651728321
 10
5.8415842604
 20
-1.6648148591
 10
5.8304512999
 20
-1.6770380058
 10
5.825520604
 20
-1.6823880277
 10
5.821327242
 20
-1.6863160118
 10
5.8162280797
 20
-1.6915164583
 10
5.8123965599
 20
-1.6957533302
 10
5.8087122261
 20
-1.7001197545
 10
5.8052180039
 20
-1.7030240356
 10
5.8001565811
 20
-1.7082518037
 10
5.7964348609
 20
-1.7125857007
 10
5.7925629266
 20
-1.7167869969
 10
5.7894638696
 20
-1.7200367317
 10
5.782432688
 20
-1.7274315222
 10
5.7767790555
 20
-1.7331239741
 10
5.771648149
 20
-1.7382842207
 10
5.7672831393
 20
-1.7420296156
 10
5.7632018137
 20
-1.746034383
 10
5.760311641
 20
-1.749476251
 10
5.7558084838
 20
-1.7530856649
 10
5.7527777402
 20
-1.7563971949
 10
5.7470164821
 20
-1.7619810468
 10
5.7393953079
 20
-1.7688102162
 10
5.733184554
 20
-1.773956726
 10
5.7274203435
 20
-1.7795312706
 10
5.7229228006
 20
-1.7839423719
 10
5.7152831646
 20
-1.7897916221
 10
5.7098693843
 20
-1.7949635275
 10
5.6992878958
 20
-1.803286905
 10
5.6803633263
 20
-1.818078131
 10
5.6655473757
 20
-1.8264349046
 10
5.6536433219
 20
-1.8325140006
 10
5.6413644227
 20
-1.8378778457
 10
5.6319942035
 20
-1.8426168943
 10
5.6227666237
 20
-1.8480044563
 10
5.6154195885
 20
-1.8520512726
 10
5.6080541438
 20
-1.8560632853
 10
5.60239119
 20
-1.8594686157
 10
5.595036841
 20
-1.8635096279
 10
5.5891490225
 20
-1.8664604792
 10
5.5836523398
 20
-1.8702197923
 10
5.5789864877
 20
-1.8724559401
 10
5.5719122213
 20
-1.8770937057
 10
5.5659887871
 20
-1.8799722814
 10
5.556058962
 20
-1.8864981149
 10
5.5457456932
 20
-1.8922171804
 10
5.5413638432
 20
-1.8950781255
 10
5.5375805983
 20
-1.8965789109
 10
5.5315166414
 20
-1.8994072144
 10
5.5266975482
 20
-1.9015075087
 10
5.5180581078
 20
-1.9051819651
 10
5.5093157178
 20
-1.9086221952
 10
5.5021138972
 20
-1.9105561453
 10
5.4732191099
 20
-1.9190819283
 10
5.4208436777
 20
-1.9320908943
 10
5.3265625566
 20
-1.9520162782
 10
5.0833658103
 20
-1.9830423975
 10
4.9755326576
 20
-1.9874636124
 10
4.8908263347
 20
-1.9876176073
 10
4.8717783362
 20
-1.9884765533
 10
4.8670958661
 20
-1.9887715062
 10
4.863405244
 20
-1.9888887459
 10
4.8568988748
 20
-1.9898740791
 10
4.8486230422
 20
-1.99119849
 10
4.8421813835
 20
-1.9928573671
 10
4.8356585777
 20
-1.9937139117
 10
4.8305870306
 20
-1.994961319
 10
4.8042140046
 20
-1.9997011365
 10
4.7925910269
 20
-2.0016899252
 10
4.7834134924
 20
-2.0026724439
 10
4.7739754917
 20
-2.0040512285
 10
4.7698023023
 20
-2.004352111
 10
4.7664990143
 20
-2.0041823179
 10
4.7590671059
 20
-2.0050440635
 10
4.7532162567
 20
-2.0055427706
 10
4.7398757175
 20
-2.0058372896
 10
4.7293644952
 20
-2.005373506
 10
4.7023545535
 20
-2.007677234
 10
4.6874359322
 20
-2.0108853362
 10
4.6756020763
 20
-2.0130313132
 10
4.6639667733
 20
-2.0158069823
 10
4.6548323413
 20
-2.0180033859
 10
4.6456930657
 20
-2.0201744016
 10
4.6415729333
 20
-2.0208074206
 10
4.6385779391
 20
-2.0220875406
 10
4.633286806
 20
-2.0227285935
 10
4.629418008
 20
-2.0241783552
 10
4.6222649276
 20
-2.0259598541
 10
4.6151028386
 20
-2.0277066315
 10
4.6092680596
 20
-2.0283648006
 10
4.6001915756
 20
-2.0307071576
 10
4.5930161768
 20
-2.0323907844
 10
4.5803040916
 20
-2.035753561
 10
4.5731135496
 20
-2.0373735155
 10
4.567363103
 20
-2.0382683012
 10
4.5573639415
 20
-2.0408637405
 10
4.5480946763
 20
-2.0424553751
 10
4.5408752933
 20
-2.0439420211
 10
4.5280425101
 20
-2.0468241748
 10
4.520801594
 20
-2.0482144789
 10
4.5149564714
 20
-2.0486576203
 10
4.5092910535
 20
-2.049837931
 10
4.5049124571
 20
-2.0510755583
 10
4.4975035777
 20
-2.0517283811
 10
4.491810092
 20
-2.0527815495
 10
4.4859741651
 20
-2.0532060107
 10
4.4815698255
 20
-2.0543384885
 10
4.475719099
 20
-2.054676793
 10
4.471298851
 20
-2.0557436999
 10
4.4667110148
 20
-2.0560356231
 10
4.4631092351
 20
-2.0562738035
 10
4.4085702633
 20
-2.0595964642
 10
4.3914686467
 20
-2.0596072134
 10
4.3839470287
 20
-2.0595320235
 10
4.3780214596
 20
-2.0595810744
 10
4.3705578744
 20
-2.0590232311
 10
4.3646110896
 20
-2.0591852557
 10
4.3541285206
 20
-2.0584466641
 10
4.3351260583
 20
-2.056955689
 10
4.3303687634
 20
-2.0570620074
 10
4.3267790272
 20
-2.0561893241
 10
4.3201162388
 20
-2.0562286027
 10
4.3117816768
 20
-2.0553462638
 10
4.3052655142
 20
-2.0544546962
 10
4.2986906794
 20
-2.0539100328
 10
4.2935063181
 20
-2.0535747137
 10
4.2851908709
 20
-2.0525457946
 10
4.278690653
 20
-2.0515499908
 10
4.2670387288
 20
-2.0500080666
 10
4.2554202523
 20
-2.0482698694
 10
4.2463561452
 20
-2.0465627237
 10
4.2397335258
 20
-2.0456264782
 10
4.2344528614
 20
-2.0452629839
 10
4.2293185022
 20
-2.0441775304
 10
4.2253007033
 20
-2.0432458422
 10
4.2201500642
 20
-2.0422430978
 10
4.2160946307
 20
-2.0414942843
 10
4.2088368262
 20
-2.0402270763
 10
4.2037230371
 20
-2.0390514466
 10
4.1996616055
 20
-2.0383242027
 10
4.1924166454
 20
-2.0369865132
 10
4.1852349412
 20
-2.0353652386
 10
4.1795686607
 20
-2.0341939788
 10
4.1744564499
 20
-2.0330105965
 10
4.1704384882
 20
-2.0320892945
 10
4.1632291316
 20
-2.0305817328
 10
4.1561378113
 20
-2.02859044
 10
4.1505439589
 20
-2.0271171414
 10
4.1465372286
 20
-2.026149192
 10
4.1433228598
 20
-2.0256489138
 10
4.1377589831
 20
-2.0240590835
 10
4.1276387107
 20
-2.0219344507
 10
4.1225696199
 20
-2.0205794626
 10
4.1186263635
 20
-2.0193657847
 10
4.1115347011
 20
-2.0173933248
 10
4.1044234478
 20
-2.0154895732
 10
4.0988136733
 20
-2.0140760554
 10
4.0948772301
 20
-2.0128443698
 10
4.0918293892
 20
-2.0117193969
 10
4.0862465884
 20
-2.0102081722
 10
4.0762945201
 20
-2.0074478456
 10
4.0692581763
 20
-2.0052867781
 10
4.0637570391
 20
-2.0034957589
 10
4.0582804029
 20
-2.0016266134
 10
4.0538884608
 20
-2.0004522901
 10
4.0484145701
 20
-1.9985757103
 10
4.044054576
 20
-1.9972952036
 10
4.0362840189
 20
-1.994956162
 10
4.0292509346
 20
-1.9923964717
 10
4.0236453756
 20
-1.9906373797
 10
4.0136200931
 20
-1.9875432705
 10
3.9957354021
 20
-1.9819574882
 10
3.9902459535
 20
-1.9798515496
 10
3.9858703709
 20
-1.9783826489
 10
3.9814958775
 20
-1.9769101386
 10
3.9779961073
 20
-1.9759329146
 10
3.973637921
 20
-1.9744110764
 10
3.970276851
 20
-1.9730347599
 10
3.966927463
 20
-1.9716290887
 10
3.9641303846
 20
-1.9709918318
 10
3.9584779292
 20
-1.9693501277
 10
3.9541778312
 20
-1.9676670339
 10
3.9498628792
 20
-1.9660267448
 10
3.9465229182
 20
-1.9646018102
 10
3.9421882638
 20
-1.9630176506
 10
3.9385816057
 20
-1.9623148899
 10
3.9352760007
 20
-1.960800251
 10
3.9324862291
 20
-1.960126314
 10
3.928164806
 20
-1.9585040478
 10
3.924870105
 20
-1.9569634156
 10
3.9187110355
 20
-1.9549427747
 10
3.9125733731
 20
-1.9528621214
 10
3.9078256157
 20
-1.9510342079
 10
3.9023281819
 20
-1.9489646525
 10
3.8978725968
 20
-1.947684392
 10
3.8934318862
 20
-1.9463608431
 10
3.8901608819
 20
-1.9447749132
 10
3.8858710345
 20
-1.9430740157
 10
3.8823043547
 20
-1.9422211376
 10
3.8762366452
 20
-1.939951578
 10
3.8719994546
 20
-1.9381217606
 10
3.8683925735
 20
-1.937355788
 10
3.8623308204
 20
-1.9350674601
 10
3.8562897957
 20
-1.9327290194
 10
3.8516130496
 20
-1.9307272602
 10
3.8437064139
 20
-1.9282610292
 10
3.8375755889
 20
-1.9261260577
 10
3.831429966
 20
-1.9240193243
 10
3.8267913667
 20
-1.9219303936
 10
3.8204361332
 20
-1.9202918979
 10
3.8157744602
 20
-1.9182533113
 10
3.8072282687
 20
-1.9151077012
 10
3.7973569217
 20
-1.9114797386
 10
3.7928412463
 20
-1.9102529608
 10
3.7892956728
 20
-1.909280208
 10
3.785147457
 20
-1.9072560118
 10
3.7816171564
 20
-1.9062447625
 10
3.7753836014
 20
-1.9042837733
 10
3.7676667154
 20
-1.9013198754
 10
3.761361072
 20
-1.8994919955
 10
3.7505377677
 20
-1.8953077003
 10
3.7056925624
 20
-1.8800090228
 10
3.6346115744
 20
-1.8356470787
 10
3.3295791574
 20
-1.5227275579
 10
3.2612355207
 20
-1.4381806006
 10
3.1617422038
 20
-1.3947496836
 10
3.0607453324
 20
-1.3524533766
 10
2.9904307048
 20
-1.2765324554
 10
2.8608639841
 20
-0.8593442485
 10
2.8472602442
 20
-0.4229669067
 10
2.8884452759
 20
-0.2080674254
 10
2.9215663452
 20
-0.1037137678
 10
2.9311656949
 20
-0.0780738617
 10
2.9340289547
 20
-0.0709440128
 10
2.9343885019
 20
-0.0676615854
 10
2.9355054843
 20
-0.0652214225
 10
2.9362222367
 20
-0.0615433891
 10
2.9367137766
 20
-0.0586405958
 10
2.9373673912
 20
-0.0553587182
 10
2.9386167876
 20
-0.0521830106
 10
2.9391262995
 20
-0.0488765712
 10
2.939276667
 20
-0.0455040438
 10
2.939089733
 20
-0.0386640687
 10
2.9381973308
 20
-0.0311704956
 10
2.9372558712
 20
-0.0280056276
 10
2.9373391206
 20
-0.0253243157
 10
2.9364666354
 20
-0.0220935477
 10
2.9350753697
 20
-0.0189816908
 10
2.934267946
 20
-0.015322736
 10
2.9329747791
 20
-0.0125971647
 10
2.9297599332
 20
-0.0056351047
 10
2.9282938756
 20
-0.002579777
 10
2.927966624
 20
0.0
  0
MTEXT
  5
84
330
1F
100
AcDbEntity
  8
0
  6
Continuous
 62
     7
100
AcDbMText
 10
-1.9516506528
 20
-2.1221370587
 30
0.0
 40
0.1903
 41
0.0
 71
     1
 72
     1
  1
SOLIDWORKS Educational Product.
  7
SLDTEXTSTYLE0
 73
     1
 44
1.0
  0
MTEXT
  5
85
330
1F
100
AcDbEntity
  8
0
  6
Continuous
 62
     7
100
AcDbMText
 10
-1.9516506528
 20
-2.4075870587
 30
0.0
 40
0.1903
 41
0.0
 71
     1
 72
     1
  1
For Instructional Use Only.
  7
SLDTEXTSTYLE0
 73
     1
 44
1.0
  0
ENDSEC
  0
SECTION
  2
OBJECTS
  0
DICTIONARY
  5
C
330
0
100
AcDbDictionary
281
     1
  3
ACAD_GROUP
350
D
  3
ACAD_LAYOUT
350
1A
  3
ACAD_MLINESTYLE
350
17
  3
ACAD_PLOTSETTINGS
350
19
  3
ACAD_PLOTSTYLENAME
350
E
  3
ACAD_SCALELIST
350
47
  0
DICTIONARY
  5
D
102
{ACAD_REACTORS
330
C
102
}
330
C
100
AcDbDictionary
281
     1
  0
DICTIONARY
  5
1A
102
{ACAD_REACTORS
330
C
102
}
330
C
100
AcDbDictionary
281
     1
  3
Layout1
350
1E
  3
Layout2
350
26
  3
Model
350
22
  0
DICTIONARY
  5
17
102
{ACAD_REACTORS
330
C
102
}
330
C
100
AcDbDictionary
281
     1
  3
Standard
350
18
  0
DICTIONARY
  5
19
102
{ACAD_REACTORS
330
C
102
}
330
C
100
AcDbDictionary
281
     1
  0
ACDBDICTIONARYWDFLT
  5
E
102
{ACAD_REACTORS
330
C
102
}
330
C
100
AcDbDictionary
281
     1
  3
Normal
350
F
100
AcDbDictionaryWithDefault
340
F
  0
DICTIONARY
  5
47
102
{ACAD_REACTORS
330
C
102
}
330
C
100
AcDbDictionary
281
     1
  3
A0
350
48
  3
A1
350
49
  3
A2
350
4A
  3
A3
350
4B
  3
A4
350
4C
  3
A5
350
4D
  3
A6
350
4E
  3
A7
350
4F
  3
A8
350
50
  3
A9
350
51
  3
B0
350
52
  3
B1
350
53
  3
B2
350
54
  3
B3
350
55
  3
B4
350
56
  3
B5
350
57
  3
B6
350
58
  3
B7
350
59
  3
B8
350
5A
  3
B9
350
5B
  3
C0
350
5C
  3
C1
350
5D
  3
C2
350
5E
  3
C3
350
5F
  3
C4
350
60
  3
C5
350
61
  3
C6
350
62
  3
C7
350
63
  3
C8
350
64
  3
C9
350
65
  3
D0
350
66
  3
D1
350
67
  3
D2
350
68
  0
LAYOUT
  5
1E
102
{ACAD_REACTORS
330
1A
102
}
330
1A
100
AcDbPlotSettings
  1

  2
none_device
  4

  6

 40
0.0
 41
0.0
 42
0.0
 43
0.0
 44
0.0
 45
0.0
 46
0.0
 47
0.0
 48
0.0
 49
0.0
140
0.0
141
0.0
142
1.0
143
1.0
 70
   688
 72
     0
 73
     0
 74
     5
  7

 75
    16
147
1.0
148
0.0
149
0.0
100
AcDbLayout
  1
Layout1
 70
     1
 71
     1
 10
0.0
 20
0.0
 11
12.0
 21
9.0
 12
0.0
 22
0.0
 32
0.0
 14
1.0000000000E+20
 24
1.0000000000E+20
 34
1.0000000000E+20
 15
-1.0000000000E+20
 25
-1.0000000000E+20
 35
-1.0000000000E+20
146
0.0
 13
0.0
 23
0.0
 33
0.0
 16
1.0
 26
0.0
 36
0.0
 17
0.0
 27
1.0
 37
0.0
 76
     0
330
1B
  0
LAYOUT
  5
26
102
{ACAD_REACTORS
330
1A
102
}
330
1A
100
AcDbPlotSettings
  1

  2
none_device
  4

  6

 40
0.0
 41
0.0
 42
0.0
 43
0.0
 44
0.0
 45
0.0
 46
0.0
 47
0.0
 48
0.0
 49
0.0
140
0.0
141
0.0
142
1.0
143
1.0
 70
   688
 72
     0
 73
     0
 74
     5
  7

 75
    16
147
1.0
148
0.0
149
0.0
100
AcDbLayout
  1
Layout2
 70
     1
 71
     2
 10
0.0
 20
0.0
 11
0.0
 21
0.0
 12
0.0
 22
0.0
 32
0.0
 14
0.0
 24
0.0
 34
0.0
 15
0.0
 25
0.0
 35
0.0
146
0.0
 13
0.0
 23
0.0
 33
0.0
 16
1.0
 26
0.0
 36
0.0
 17
0.0
 27
1.0
 37
0.0
 76
     0
330
23
  0
LAYOUT
  5
22
102
{ACAD_REACTORS
330
1A
102
}
330
1A
100
AcDbPlotSettings
  1

  2
none_device
  4
ANSI_A_(11.00_x_8.50_Inches)
  6

 40
6.35
 41
19.05
 42
6.35000508
 43
19.05000254
 44
279.4
 45
215.9
 46
56.6127419007
 47
82.5510520563
 48
0.0
 49
0.0
140
0.0
141
0.0
142
1.2419477855
143
1.0
 70
  1696
 72
     0
 73
     0
 74
     0
  7

 75
     0
147
0.5913241897
148
-39.4088153714
149
0.0
100
AcDbLayout
  1
Model
 70
     1
 71
     0
 10
0.0
 20
0.0
 11
12.0
 21
9.0
 12
0.0
 22
0.0
 32
0.0
 14
-1.9516506528
 24
-2.0819966495
 34
0.0
 15
6.8168339222
 25
2.4845232829
 35
0.0
146
0.0
 13
0.0
 23
0.0
 33
0.0
 16
1.0
 26
0.0
 36
0.0
 17
0.0
 27
1.0
 37
0.0
 76
     0
330
1F
331
29
  0
MLINESTYLE
  5
18
102
{ACAD_REACTORS
330
17
102
}
330
17
100
AcDbMlineStyle
  2
Standard
 70
     0
  3

 62
   256
 51
90.0
 52
90.0
 71
     2
 49
0.5
 62
   256
  6
BYLAYER
 49
-0.5
 62
   256
  6
BYLAYER
  0
ACDBPLACEHOLDER
  5
F
102
{ACAD_REACTORS
330
E
102
}
330
E
  0
SCALE
  5
48
102
{ACAD_REACTORS
330
47
102
}
330
47
100
AcDbScale
 70
     0
300
1:1
140
1.0
141
1.0
290
     1
  0
SCALE
  5
49
102
{ACAD_REACTORS
330
47
102
}
330
47
100
AcDbScale
 70
     0
300
1:2
140
1.0
141
2.0
290
     0
  0
SCALE
  5
4A
102
{ACAD_REACTORS
330
47
102
}
330
47
100
AcDbScale
 70
     0
300
1:4
140
1.0
141
4.0
290
     0
  0
SCALE
  5
4B
102
{ACAD_REACTORS
330
47
102
}
330
47
100
AcDbScale
 70
     0
300
1:5
140
1.0
141
5.0
290
     0
  0
SCALE
  5
4C
102
{ACAD_REACTORS
330
47
102
}
330
47
100
AcDbScale
 70
     0
300
1:8
140
1.0
141
8.0
290
     0
  0
SCALE
  5
4D
102
{ACAD_REACTORS
330
47
102
}
330
47
100
AcDbScale
 70
     0
300
1:10
140
1.0
141
10.0
290
     0
  0
SCALE
  5
4E
102
{ACAD_REACTORS
330
47
102
}
330
47
100
AcDbScale
 70
     0
300
1:16
140
1.0
141
16.0
290
     0
  0
SCALE
  5
4F
102
{ACAD_REACTORS
330
47
102
}
330
47
100
AcDbScale
 70
     0
300
1:20
140
1.0
141
20.0
290
     0
  0
SCALE
  5
50
102
{ACAD_REACTORS
330
47
102
}
330
47
100
AcDbScale
 70
     0
300
1:30
140
1.0
141
30.0
290
     0
  0
SCALE
  5
51
102
{ACAD_REACTORS
330
47
102
}
330
47
100
AcDbScale
 70
     0
300
1:40
140
1.0
141
40.0
290
     0
  0
SCALE
  5
52
102
{ACAD_REACTORS
330
47
102
}
330
47
100
AcDbScale
 70
     0
300
1:50
140
1.0
141
50.0
290
     0
  0
SCALE
  5
53
102
{ACAD_REACTORS
330
47
102
}
330
47
100
AcDbScale
 70
     0
300
1:100
140
1.0
141
100.0
290
     0
  0
SCALE
  5
54
102
{ACAD_REACTORS
330
47
102
}
330
47
100
AcDbScale
 70
     0
300
2:1
140
2.0
141
1.0
290
     0
  0
SCALE
  5
55
102
{ACAD_REACTORS
330
47
102
}
330
47
100
AcDbScale
 70
     0
300
4:1
140
4.0
141
1.0
290
     0
  0
SCALE
  5
56
102
{ACAD_REACTORS
330
47
102
}
330
47
100
AcDbScale
 70
     0
300
8:1
140
8.0
141
1.0
290
     0
  0
SCALE
  5
57
102
{ACAD_REACTORS
330
47
102
}
330
47
100
AcDbScale
 70
     0
300
10:1
140
10.0
141
1.0
290
     0
  0
SCALE
  5
58
102
{ACAD_REACTORS
330
47
102
}
330
47
100
AcDbScale
 70
     0
300
100:1
140
100.0
141
1.0
290
     0
  0
SCALE
  5
59
102
{ACAD_REACTORS
330
47
102
}
330
47
100
AcDbScale
 70
     0
300
1/128" = 1'-0"
140
0.0078125
141
12.0
290
     0
  0
SCALE
  5
5A
102
{ACAD_REACTORS
330
47
102
}
330
47
100
AcDbScale
 70
     0
300
1/64" = 1'-0"
140
0.015625
141
12.0
290
     0
  0
SCALE
  5
5B
102
{ACAD_REACTORS
330
47
102
}
330
47
100
AcDbScale
 70
     0
300
1/32" = 1'-0"
140
0.03125
141
12.0
290
     0
  0
SCALE
  5
5C
102
{ACAD_REACTORS
330
47
102
}
330
47
100
AcDbScale
 70
     0
300
1/16" = 1'-0"
140
0.0625
141
12.0
290
     0
  0
SCALE
  5
5D
102
{ACAD_REACTORS
330
47
102
}
330
47
100
AcDbScale
 70
     0
300
3/32" = 1'-0"
140
0.09375
141
12.0
290
     0
  0
SCALE
  5
5E
102
{ACAD_REACTORS
330
47
102
}
330
47
100
AcDbScale
 70
     0
300
1/8" = 1'-0"
140
0.125
141
12.0
290
     0
  0
SCALE
  5
5F
102
{ACAD_REACTORS
330
47
102
}
330
47
100
AcDbScale
 70
     0
300
3/16" = 1'-0"
140
0.1875
141
12.0
290
     0
  0
SCALE
  5
60
102
{ACAD_REACTORS
330
47
102
}
330
47
100
AcDbScale
 70
     0
300
1/4" = 1'-0"
140
0.25
141
12.0
290
     0
  0
SCALE
  5
61
102
{ACAD_REACTORS
330
47
102
}
330
47
100
AcDbScale
 70
     0
300
3/8" = 1'-0"
140
0.375
141
12.0
290
     0
  0
SCALE
  5
62
102
{ACAD_REACTORS
330
47
102
}
330
47
100
AcDbScale
 70
     0
300
1/2" = 1'-0"
140
0.5
141
12.0
290
     0
  0
SCALE
  5
63
102
{ACAD_REACTORS
330
47
102
}
330
47
100
AcDbScale
 70
     0
300
3/4" = 1'-0"
140
0.75
141
12.0
290
     0
  0
SCALE
  5
64
102
{ACAD_REACTORS
330
47
102
}
330
47
100
AcDbScale
 70
     0
300
1" = 1'-0"
140
1.0
141
12.0
290
     0
  0
SCALE
  5
65
102
{ACAD_REACTORS
330
47
102
}
330
47
100
AcDbScale
 70
     0
300
1-1/2" = 1'-0"
140
1.5
141
12.0
290
     0
  0
SCALE
  5
66
102
{ACAD_REACTORS
330
47
102
}
330
47
100
AcDbScale
 70
     0
300
3" = 1'-0"
140
3.0
141
12.0
290
     0
  0
SCALE
  5
67
102
{ACAD_REACTORS
330
47
102
}
330
47
100
AcDbScale
 70
     0
300
6" = 1'-0"
140
6.0
141
12.0
290
     0
  0
SCALE
  5
68
102
{ACAD_REACTORS
330
47
102
}
330
47
100
AcDbScale
 70
     0
300
1'-0" = 1'-0"
140
12.0
141
12.0
290
     0
  0
ENDSEC
  0
EOF
