  0
SECTION
  2
HEADER
  9
$ACADVER
  1
AC1015
  9
$ACADMAINTVER
 70
     6
  9
$DWGCODEPAGE
  3
ANSI_1252
  9
$INSBASE
 10
0.0
 20
0.0
 30
0.0
  9
$EXTMIN
 10
-1.5521391759
 20
-1.6872951201
 30
0.0
  9
$EXTMAX
 10
6.2990969879
 20
2.0943896957
 30
0.0
  9
$LIMMIN
 10
0.0
 20
0.0
  9
$LIMMAX
 10
12.0
 20
9.0
  9
$ORTHOMODE
 70
     0
  9
$REGENMODE
 70
     1
  9
$FILLMODE
 70
     1
  9
$QTEXTMODE
 70
     0
  9
$MIRRTEXT
 70
     1
  9
$LTSCALE
 40
1.0
  9
$ATTMODE
 70
     1
  9
$TEXTSIZE
 40
0.25
  9
$TRACEWID
 40
0.05
  9
$TEXTSTYLE
  7
Standard
  9
$CLAYER
  8
0
  9
$CELTYPE
  6
ByLayer
  9
$CECOLOR
 62
   256
  9
$CELTSCALE
 40
1.0
  9
$DISPSILH
 70
     0
  9
$DIMSCALE
 40
1.0
  9
$DIMASZ
 40
0.236
  9
$DIMEXO
 40
0.039
  9
$DIMDLI
 40
0.38
  9
$DIMRND
 40
0.0
  9
$DIMDLE
 40
0.0
  9
$DIMEXE
 40
0.039
  9
$DIMTP
 40
0.0
  9
$DIMTM
 40
0.0
  9
$DIMTXT
 40
0.25
  9
$DIMCEN
 40
0.09
  9
$DIMTSZ
 40
0.0
  9
$DIMTOL
 70
     0
  9
$DIMLIM
 70
     0
  9
$DIMTIH
 70
     1
  9
$DIMTOH
 70
     1
  9
$DIMSE1
 70
     0
  9
$DIMSE2
 70
     0
  9
$DIMTAD
 70
     1
  9
$DIMZIN
 70
     0
  9
$DIMBLK
  1

  9
$DIMASO
 70
     1
  9
$DIMSHO
 70
     1
  9
$DIMPOST
  1

  9
$DIMAPOST
  1

  9
$DIMALT
 70
     0
  9
$DIMALTD
 70
     2
  9
$DIMALTF
 40
25.4
  9
$DIMLFAC
 40
1.0
  9
$DIMTOFL
 70
     0
  9
$DIMTVP
 40
0.0
  9
$DIMTIX
 70
     0
  9
$DIMSOXD
 70
     0
  9
$DIMSAH
 70
     0
  9
$DIMBLK1
  1

  9
$DIMBLK2
  1

  9
$DIMSTYLE
  2
Standard
  9
$DIMCLRD
 70
     0
  9
$DIMCLRE
 70
     0
  9
$DIMCLRT
 70
     0
  9
$DIMTFAC
 40
1.0
  9
$DIMGAP
 40
0.06
  9
$DIMJUST
 70
     0
  9
$DIMSD1
 70
     0
  9
$DIMSD2
 70
     0
  9
$DIMTOLJ
 70
     1
  9
$DIMTZIN
 70
     0
  9
$DIMALTZ
 70
     0
  9
$DIMALTTZ
 70
     0
  9
$DIMUPT
 70
     0
  9
$DIMDEC
 70
     2
  9
$DIMTDEC
 70
     2
  9
$DIMALTU
 70
     2
  9
$DIMALTTD
 70
     2
  9
$DIMTXSTY
  7
Standard
  9
$DIMAUNIT
 70
     0
  9
$DIMADEC
 70
     2
  9
$DIMALTRND
 40
0.0
  9
$DIMAZIN
 70
     0
  9
$DIMDSEP
 70
    46
  9
$DIMATFIT
 70
     3
  9
$DIMFRAC
 70
     0
  9
$DIMLDRBLK
  1

  9
$DIMLUNIT
 70
     2
  9
$DIMLWD
 70
    -2
  9
$DIMLWE
 70
    -2
  9
$DIMTMOVE
 70
     0
  9
$LUNITS
 70
     2
  9
$LUPREC
 70
     2
  9
$SKETCHINC
 40
0.1
  9
$FILLETRAD
 40
0.5
  9
$AUNITS
 70
     0
  9
$AUPREC
 70
     2
  9
$MENU
  1
.
  9
$ELEVATION
 40
0.0
  9
$PELEVATION
 40
0.0
  9
$THICKNESS
 40
0.0
  9
$LIMCHECK
 70
     0
  9
$CHAMFERA
 40
0.0
  9
$CHAMFERB
 40
0.0
  9
$CHAMFERC
 40
0.0
  9
$CHAMFERD
 40
0.0
  9
$SKPOLY
 70
     0
  9
$TDCREATE
 40
2458240.019308472
  9
$TDUCREATE
 40
2458240.227641806
  9
$TDUPDATE
 40
2458240.020048055
  9
$TDUUPDATE
 40
2458240.228381389
  9
$TDINDWG
 40
0.0000000116
  9
$TDUSRTIMER
 40
0.0000000116
  9
$USRTIMER
 70
     1
  9
$ANGBASE
 50
0.0
  9
$ANGDIR
 70
     0
  9
$PDMODE
 70
     0
  9
$PDSIZE
 40
-1.0
  9
$PLINEWID
 40
0.0
  9
$SPLFRAME
 70
     0
  9
$SPLINETYPE
 70
     6
  9
$SPLINESEGS
 70
     8
  9
$HANDSEED
  5
86
  9
$SURFTAB1
 70
     6
  9
$SURFTAB2
 70
     6
  9
$SURFTYPE
 70
     6
  9
$SURFU
 70
     6
  9
$SURFV
 70
     6
  9
$UCSBASE
  2

  9
$UCSNAME
  2

  9
$UCSORG
 10
0.0
 20
0.0
 30
0.0
  9
$UCSXDIR
 10
1.0
 20
0.0
 30
0.0
  9
$UCSYDIR
 10
0.0
 20
1.0
 30
0.0
  9
$UCSORTHOREF
  2

  9
$UCSORTHOVIEW
 70
     0
  9
$UCSORGTOP
 10
0.0
 20
0.0
 30
0.0
  9
$UCSORGBOTTOM
 10
0.0
 20
0.0
 30
0.0
  9
$UCSORGLEFT
 10
0.0
 20
0.0
 30
0.0
  9
$UCSORGRIGHT
 10
0.0
 20
0.0
 30
0.0
  9
$UCSORGFRONT
 10
0.0
 20
0.0
 30
0.0
  9
$UCSORGBACK
 10
0.0
 20
0.0
 30
0.0
  9
$PUCSBASE
  2

  9
$PUCSNAME
  2

  9
$PUCSORG
 10
0.0
 20
0.0
 30
0.0
  9
$PUCSXDIR
 10
1.0
 20
0.0
 30
0.0
  9
$PUCSYDIR
 10
0.0
 20
1.0
 30
0.0
  9
$PUCSORTHOREF
  2

  9
$PUCSORTHOVIEW
 70
     0
  9
$PUCSORGTOP
 10
0.0
 20
0.0
 30
0.0
  9
$PUCSORGBOTTOM
 10
0.0
 20
0.0
 30
0.0
  9
$PUCSORGLEFT
 10
0.0
 20
0.0
 30
0.0
  9
$PUCSORGRIGHT
 10
0.0
 20
0.0
 30
0.0
  9
$PUCSORGFRONT
 10
0.0
 20
0.0
 30
0.0
  9
$PUCSORGBACK
 10
0.0
 20
0.0
 30
0.0
  9
$USERI1
 70
     0
  9
$USERI2
 70
     0
  9
$USERI3
 70
     0
  9
$USERI4
 70
     0
  9
$USERI5
 70
     0
  9
$USERR1
 40
0.0
  9
$USERR2
 40
0.0
  9
$USERR3
 40
0.0
  9
$USERR4
 40
0.0
  9
$USERR5
 40
0.0
  9
$WORLDVIEW
 70
     1
  9
$SHADEDGE
 70
     3
  9
$SHADEDIF
 70
    70
  9
$TILEMODE
 70
     1
  9
$MAXACTVP
 70
    64
  9
$PINSBASE
 10
0.0
 20
0.0
 30
0.0
  9
$PLIMCHECK
 70
     0
  9
$PEXTMIN
 10
1.0000000000E+20
 20
1.0000000000E+20
 30
1.0000000000E+20
  9
$PEXTMAX
 10
-1.0000000000E+20
 20
-1.0000000000E+20
 30
-1.0000000000E+20
  9
$PLIMMIN
 10
0.0
 20
0.0
  9
$PLIMMAX
 10
12.0
 20
9.0
  9
$UNITMODE
 70
     0
  9
$VISRETAIN
 70
     1
  9
$PLINEGEN
 70
     0
  9
$PSLTSCALE
 70
     1
  9
$TREEDEPTH
 70
  3020
  9
$CMLSTYLE
  2
Standard
  9
$CMLJUST
 70
     0
  9
$CMLSCALE
 40
1.0
  9
$PROXYGRAPHICS
 70
     1
  9
$MEASUREMENT
 70
     0
  9
$CELWEIGHT
370
    -1
  9
$ENDCAPS
280
     0
  9
$JOINSTYLE
280
     0
  9
$LWDISPLAY
290
     1
  9
$INSUNITS
 70
     1
  9
$HYPERLINKBASE
  1

  9
$STYLESHEET
  1

  9
$XEDIT
290
     1
  9
$CEPSNTYPE
380
     0
  9
$PSTYLEMODE
290
     1
  9
$FINGERPRINTGUID
  2
{9D26A642-6683-4ABF-A925-36A30EE43BAA}
  9
$VERSIONGUID
  2
{FAEB1C32-E019-11D5-929B-00C0DF256EC4}
  9
$EXTNAMES
290
     1
  9
$PSVPSCALE
 40
0.0
  9
$OLESTARTUP
290
     0
  0
ENDSEC
  0
SECTION
  2
CLASSES
  0
CLASS
  1
ACDBDICTIONARYWDFLT
  2
AcDbDictionaryWithDefault
  3
ObjectDBX Classes
 90
        0
280
     0
281
     0
  0
CLASS
  1
VISUALSTYLE
  2
AcDbVisualStyle
  3
ObjectDBX Classes
 90
     4095
280
     0
281
     0
  0
CLASS
  1
MATERIAL
  2
AcDbMaterial
  3
ObjectDBX Classes
 90
     1153
280
     0
281
     0
  0
CLASS
  1
SCALE
  2
AcDbScale
  3
ObjectDBX Classes
 90
     1153
280
     0
281
     0
  0
CLASS
  1
TABLESTYLE
  2
AcDbTableStyle
  3
ObjectDBX Classes
 90
     4095
280
     0
281
     0
  0
CLASS
  1
MLEADERSTYLE
  2
AcDbMLeaderStyle
  3
ACDB_MLEADERSTYLE_CLASS
 90
     4095
280
     0
281
     0
  0
CLASS
  1
SUN
  2
AcDbSun
  3
SCENEOE
 90
     1153
280
     0
281
     0
  0
CLASS
  1
ACDBPLACEHOLDER
  2
AcDbPlaceHolder
  3
ObjectDBX Classes
 90
        0
280
     0
281
     0
  0
CLASS
  1
LAYOUT
  2
AcDbLayout
  3
ObjectDBX Classes
 90
        0
280
     0
281
     0
  0
ENDSEC
  0
SECTION
  2
TABLES
  0
TABLE
  2
VPORT
  5
8
330
0
100
AcDbSymbolTable
 70
     1
  0
VPORT
  5
29
330
8
100
AcDbSymbolTableRecord
100
AcDbViewportTableRecord
  2
*Active
 70
     0
 10
0.0
 20
0.0
 11
1.0
 21
1.0
 12
2.373478906
 22
0.2035472878
 13
0.0
 23
0.0
 14
0.5
 24
0.5
 15
0.5
 25
0.5
 16
0.0
 26
0.0
 36
1.0
 17
0.0
 27
0.0
 37
0.0
 40
3.8573185121
 41
2.0761212386
 42
50.0
 43
0.0
 44
0.0
 50
0.0
 51
0.0
 71
     0
 72
   100
 73
     1
 74
     3
 75
     0
 76
     0
 77
     0
 78
     0
281
     0
 65
     1
110
0.0
120
0.0
130
0.0
111
1.0
121
0.0
131
0.0
112
0.0
122
1.0
132
0.0
 79
     0
146
0.0
  0
ENDTAB
  0
TABLE
  2
LTYPE
  5
5
330
0
100
AcDbSymbolTable
 70
     6
  0
LTYPE
  5
14
330
5
100
AcDbSymbolTableRecord
100
AcDbLinetypeTableRecord
  2
ByBlock
 70
     0
  3

 72
    65
 73
     0
 40
0.0
  0
LTYPE
  5
15
330
5
100
AcDbSymbolTableRecord
100
AcDbLinetypeTableRecord
  2
ByLayer
 70
     0
  3

 72
    65
 73
     0
 40
0.0
  0
LTYPE
  5
16
330
5
100
AcDbSymbolTableRecord
100
AcDbLinetypeTableRecord
  2
Continuous
 70
     0
  3
Solid line
 72
    65
 73
     0
 40
0.0
  0
LTYPE
  5
6E
330
5
100
AcDbSymbolTableRecord
100
AcDbLinetypeTableRecord
  2
HIDDEN
 70
     0
  3
Hidden __ __ __ __ __ __ __ __ __ __ __ __ __ __
 72
    65
 73
     2
 40
0.075
 49
0.05
 74
     0
 49
-0.025
 74
     0
  0
LTYPE
  5
6F
330
5
100
AcDbSymbolTableRecord
100
AcDbLinetypeTableRecord
  2
PHANTOM
 70
     0
  3
Phantom ______  __  __  ______  __  __  ______
 72
    65
 73
     6
 40
0.5
 49
0.25
 74
     0
 49
-0.05
 74
     0
 49
0.05
 74
     0
 49
-0.05
 74
     0
 49
0.05
 74
     0
 49
-0.05
 74
     0
  0
LTYPE
  5
70
330
5
100
AcDbSymbolTableRecord
100
AcDbLinetypeTableRecord
  2
CENTER
 70
     0
  3
Center ____ _ ____ _ ____ _ ____ _ ____ _ ____
 72
    65
 73
     4
 40
0.4
 49
0.25
 74
     0
 49
-0.05
 74
     0
 49
0.05
 74
     0
 49
-0.05
 74
     0
  0
LTYPE
  5
71
330
5
100
AcDbSymbolTableRecord
100
AcDbLinetypeTableRecord
  2
CENTERX2
 70
     0
  3
Center (2x) ________  __  ________  __  _____
 72
    65
 73
     4
 40
0.8
 49
0.5
 74
     0
 49
-0.1
 74
     0
 49
0.1
 74
     0
 49
-0.1
 74
     0
  0
LTYPE
  5
72
330
5
100
AcDbSymbolTableRecord
100
AcDbLinetypeTableRecord
  2
DOT2
 70
     0
  3
Dot (.5x) ........................................
 72
    65
 73
     2
 40
0.025
 49
0.0
 74
     0
 49
-0.025
 74
     0
  0
ENDTAB
  0
TABLE
  2
LAYER
  5
2
330
0
100
AcDbSymbolTable
 70
     1
  0
LAYER
  5
10
330
2
100
AcDbSymbolTableRecord
100
AcDbLayerTableRecord
  2
0
 70
     0
 62
     7
  6
Continuous
370
    -3
390
F
  0
ENDTAB
  0
TABLE
  2
STYLE
  5
3
330
0
100
AcDbSymbolTable
 70
     2
  0
STYLE
  5
11
330
3
100
AcDbSymbolTableRecord
100
AcDbTextStyleTableRecord
  2
Standard
 70
     0
 40
0.0
 41
1.0
 50
0.0
 71
     0
 42
0.25
  3
txt
  4

  0
STYLE
  5
83
330
3
100
AcDbSymbolTableRecord
100
AcDbTextStyleTableRecord
  2
SLDTEXTSTYLE0
 70
     0
 40
0.0
 41
0.7
 50
0.0
 71
     0
 42
0.25
  3
TXT
  4

  0
ENDTAB
  0
TABLE
  2
VIEW
  5
6
330
0
100
AcDbSymbolTable
 70
     0
  0
ENDTAB
  0
TABLE
  2
UCS
  5
7
330
0
100
AcDbSymbolTable
 70
     0
  0
ENDTAB
  0
TABLE
  2
APPID
  5
9
330
0
100
AcDbSymbolTable
 70
     1
  0
APPID
  5
12
330
9
100
AcDbSymbolTableRecord
100
AcDbRegAppTableRecord
  2
ACAD
 70
     0
  0
ENDTAB
  0
TABLE
  2
DIMSTYLE
  5
A
330
0
100
AcDbSymbolTable
 70
     1
100
AcDbDimStyleTable
  0
DIMSTYLE
105
27
330
A
100
AcDbSymbolTableRecord
100
AcDbDimStyleTableRecord
  2
Standard
 70
     0
178
     0
340
11
  0
ENDTAB
  0
TABLE
  2
BLOCK_RECORD
  5
1
330
0
100
AcDbSymbolTable
 70
     1
  0
BLOCK_RECORD
  5
1F
330
1
100
AcDbSymbolTableRecord
100
AcDbBlockTableRecord
  2
*Model_Space
340
22
  0
BLOCK_RECORD
  5
1B
330
1
100
AcDbSymbolTableRecord
100
AcDbBlockTableRecord
  2
*Paper_Space
340
1E
  0
BLOCK_RECORD
  5
23
330
1
100
AcDbSymbolTableRecord
100
AcDbBlockTableRecord
  2
*Paper_Space0
340
26
  0
ENDTAB
  0
ENDSEC
  0
SECTION
  2
BLOCKS
  0
BLOCK
  5
20
330
1F
100
AcDbEntity
  8
0
100
AcDbBlockBegin
  2
*Model_Space
 70
     0
 10
0.0
 20
0.0
 30
0.0
  3
*Model_Space
  1

  0
ENDBLK
  5
21
330
1F
100
AcDbEntity
  8
0
100
AcDbBlockEnd
  0
BLOCK
  5
1C
330
1B
100
AcDbEntity
 67
     1
  8
0
100
AcDbBlockBegin
  2
*Paper_Space
 70
     0
 10
0.0
 20
0.0
 30
0.0
  3
*Paper_Space
  1

  0
ENDBLK
  5
1D
330
1B
100
AcDbEntity
 67
     1
  8
0
100
AcDbBlockEnd
  0
BLOCK
  5
24
330
23
100
AcDbEntity
  8
0
100
AcDbBlockBegin
  2
*Paper_Space0
 70
     0
 10
0.0
 20
0.0
 30
0.0
  3
*Paper_Space0
  1

  0
ENDBLK
  5
25
330
23
100
AcDbEntity
  8
0
100
AcDbBlockEnd
  0
ENDSEC
  0
SECTION
  2
ENTITIES
  0
CIRCLE
  5
73
330
1F
100
AcDbEntity
  8
0
  6
Continuous
 62
     7
100
AcDbCircle
 10
0.0
 20
0.0
 30
0.0
 40
0.25
  0
CIRCLE
  5
74
330
1F
100
AcDbEntity
  8
0
  6
Continuous
 62
     7
100
AcDbCircle
 10
0.76
 20
0.0
 30
0.0
 40
0.1000000000000001
  0
CIRCLE
  5
75
330
1F
100
AcDbEntity
  8
0
  6
Continuous
 62
     7
100
AcDbCircle
 10
-0.38
 20
0.6581793069
 30
0.0
 40
0.1
  0
CIRCLE
  5
76
330
1F
100
AcDbEntity
  8
0
  6
Continuous
 62
     7
100
AcDbCircle
 10
-0.38
 20
-0.6581793069
 30
0.0
 40
0.1
  0
CIRCLE
  5
77
330
1F
100
AcDbEntity
  8
0
  6
Continuous
 62
     7
100
AcDbCircle
 10
0.51
 20
0.0
 30
0.0
 40
0.05
  0
CIRCLE
  5
78
330
1F
100
AcDbEntity
  8
0
  6
Continuous
 62
     7
100
AcDbCircle
 10
4.5876805172
 20
-0.6581793069
 30
0.0
 40
0.1000000000000001
  0
CIRCLE
  5
79
330
1F
100
AcDbEntity
  8
0
  6
Continuous
 62
     7
100
AcDbCircle
 10
4.5876805172
 20
0.6581793069
 30
0.0
 40
0.0999999999999991
  0
CIRCLE
  5
7A
330
1F
100
AcDbEntity
  8
0
  6
Continuous
 62
     7
100
AcDbCircle
 10
3.4476805172
 20
0.0
 30
0.0
 40
0.0999999999999996
  0
CIRCLE
  5
7B
330
1F
100
AcDbEntity
  8
0
  6
Continuous
 62
     7
100
AcDbCircle
 10
3.6976805172
 20
0.0
 30
0.0
 40
0.05
  0
CIRCLE
  5
7C
330
1F
100
AcDbEntity
  8
0
  6
Continuous
 62
     7
100
AcDbCircle
 10
4.2076805172
 20
0.0
 30
0.0
 40
0.250000000000001
  0
LWPOLYLINE
  5
81
330
1F
100
AcDbEntity
  8
0
  6
Continuous
 62
     7
100
AcDbPolyline
 90
     1760
 70
   128
 43
0.0
 10
0.0
 20
1.3787802419
 10
-0.0024125718
 20
1.3780189216
 10
-0.0048287065
 20
1.3772798409
 10
-0.0073282697
 20
1.376913688
 10
-0.0098130088
 20
1.3764769992
 10
-0.0130508523
 20
1.3764594352
 10
-0.0154018194
 20
1.3756033397
 10
-0.0199303331
 20
1.3754992594
 10
-0.0234080313
 20
1.3748229078
 10
-0.0262518988
 20
1.3747578728
 10
-0.031153385
 20
1.3738988934
 10
-0.0362093755
 20
1.3736640934
 10
-0.0400455896
 20
1.3729196681
 10
-0.0806771141
 20
1.3688443329
 10
-0.126552279
 20
1.3646081123
 10
-0.1467900654
 20
1.3625797063
 10
-0.162670181
 20
1.3607603638
 10
-0.1882022905
 20
1.3590350998
 10
-0.1994792885
 20
1.3574130017
 10
-0.2082770618
 20
1.3568389442
 10
-0.2118060612
 20
1.3563066704
 10
-0.2145772231
 20
1.3558925029
 10
-0.2173022169
 20
1.3562339288
 10
-0.2194818958
 20
1.3558393045
 10
-0.2244284887
 20
1.3550130853
 10
-0.2282684054
 20
1.3552248685
 10
-0.2332128458
 20
1.3543048682
 10
-0.2353848157
 20
1.3539487499
 10
-0.2370936985
 20
1.3536020021
 10
-0.2409376193
 20
1.3537105396
 10
-0.2439822788
 20
1.3531835106
 10
-0.2484319606
 20
1.3530171046
 10
-0.2519399885
 20
1.3524898703
 10
-0.258189806
 20
1.3519472409
 10
-0.261693741
 20
1.3514044033
 10
-0.2644500603
 20
1.3507980729
 10
-0.2693483255
 20
1.3506538626
 10
-0.2728508811
 20
1.3499131658
 10
-0.2755867069
 20
1.350259407
 10
-0.2804971128
 20
1.3491068412
 10
-0.2832355279
 20
1.3494093069
 10
-0.2853938034
 20
1.3488963871
 10
-0.2892450501
 20
1.3480486691
 10
-0.292733261
 20
1.3481280294
 10
-0.2954752092
 20
1.3474527195
 10
-0.3003693807
 20
1.3471926129
 10
-0.3091034511
 20
1.3460166881
 10
-0.3139951458
 20
1.34566779
 10
-0.3178313813
 20
1.3449319987
 10
-0.3246873305
 20
1.3442147789
 10
-0.3291139878
 20
1.3435801992
 10
-0.3326046119
 20
1.3435727178
 10
-0.3360676965
 20
1.3426034317
 10
-0.3388149948
 20
1.3427332574
 10
-0.3422804727
 20
1.3419489855
 10
-0.3450242969
 20
1.3419701349
 10
-0.3498982813
 20
1.341274082
 10
-0.3560914819
 20
1.340230518
 10
-0.3609666704
 20
1.3396654076
 10
-0.3696614119
 20
1.3385087437
 10
-0.375844217
 20
1.3374766036
 10
-0.3785995776
 20
1.3376113832
 10
-0.3807134368
 20
1.3368904879
 10
-0.3894248233
 20
1.3361065209
 10
-0.3942898974
 20
1.3354762005
 10
-0.3981115634
 20
1.3349734745
 10
-0.4019002541
 20
1.3340591381
 10
-0.404911428
 20
1.3337926564
 10
-0.4074142332
 20
1.3334660071
 10
-0.4099098661
 20
1.3330647443
 10
-0.4127417891
 20
1.3330486542
 10
-0.4149049407
 20
1.332319753
 10
-0.417735694
 20
1.3322799948
 10
-0.4198972482
 20
1.3315548623
 10
-0.4224257568
 20
1.331524444
 10
-0.4249549388
 20
1.3314882388
 10
-0.4280349428
 20
1.3304866424
 10
-0.430542774
 20
1.330598899
 10
-0.4329470689
 20
1.3296754806
 10
-0.4349293321
 20
1.329867818
 10
-0.4374163961
 20
1.3294069257
 10
-0.4399126946
 20
1.3290432688
 10
-0.4424020241
 20
1.3286088967
 10
-0.4448895005
 20
1.3281671562
 10
-0.4477236482
 20
1.3281052207
 10
-0.4498634324
 20
1.3272831742
 10
-0.4523968314
 20
1.3272466988
 10
-0.4549179535
 20
1.3270942204
 10
-0.4576473213
 20
1.3261343592
 10
-0.4598905391
 20
1.3262009328
 10
-0.4623664976
 20
1.325673923
 10
-0.4648601967
 20
1.3252992217
 10
-0.4676973147
 20
1.3252253071
 10
-0.469818053
 20
1.3243175008
 10
-0.4723581794
 20
1.3242989248
 10
-0.4748673892
 20
1.3240350685
 10
-0.4773334264
 20
1.323451616
 10
-0.4798508006
 20
1.3232527382
 10
-0.4847907798
 20
1.3221566412
 10
-0.48732908
 20
1.3220961205
 10
-0.4898188619
 20
1.321688464
 10
-0.4922824188
 20
1.3211060261
 10
-0.4947996032
 20
1.3208937615
 10
-0.4976302533
 20
1.3207240059
 10
-0.4997283205
 20
1.3197525747
 10
-0.5022713659
 20
1.3196989921
 10
-0.5047403395
 20
1.3191585906
 10
-0.5072072178
 20
1.3186124269
 10
-0.5097368824
 20
1.3184649907
 10
-0.512252684
 20
1.3182216121
 10
-0.5147072723
 20
1.3175993333
 10
-0.5171871603
 20
1.3171394716
 10
-0.5197234577
 20
1.3170180561
 10
-0.5222175123
 20
1.3166358779
 10
-0.5246642541
 20
1.3159773138
 10
-0.527164015
 20
1.3156345889
 10
-0.5297007909
 20
1.3155000534
 10
-0.5323603023
 20
1.3143073685
 10
-0.5346125177
 20
1.3142966079
 10
-0.53707595
 20
1.3137392006
 10
-0.53952408
 20
1.3131030233
 10
-0.5420454108
 20
1.3128709365
 10
-0.5445611154
 20
1.3126003916
 10
-0.5470026184
 20
1.3119295316
 10
-0.5494668309
 20
1.3113865002
 10
-0.5519997201
 20
1.311203935
 10
-0.5544872712
 20
1.3107772551
 10
-0.5569172672
 20
1.3100556898
 10
-0.5594125761
 20
1.3096734323
 10
-0.5644473226
 20
1.3091242127
 10
-0.566971039
 20
1.3088753025
 10
-0.5694058764
 20
1.3081849847
 10
-0.5718538236
 20
1.3075650793
 10
-0.5743819695
 20
1.3073330399
 10
-0.5768693123
 20
1.3068980879
 10
-0.5792880045
 20
1.3061383738
 10
-0.5817657726
 20
1.3056625475
 10
-0.5842948433
 20
1.3054221189
 10
-0.5867408919
 20
1.3047923562
 10
-0.5891610185
 20
1.3040484093
 10
-0.5920811126
 20
1.3041687528
 10
-0.5941817898
 20
1.3033851288
 10
-0.5967071986
 20
1.3031166625
 10
-0.5991868518
 20
1.3026384691
 10
-0.6015926555
 20
1.3018368665
 10
-0.604066427
 20
1.3013369022
 10
-0.6065916386
 20
1.3010553807
 10
-0.6089971722
 20
1.3002567405
 10
-0.6140140203
 20
1.299542679
 10
-0.6164458067
 20
1.2988623629
 10
-0.6189696595
 20
1.2985641757
 10
-0.6214285245
 20
1.2979919268
 10
-0.6238134422
 20
1.2971195907
 10
-0.6267438353
 20
1.2971979487
 10
-0.6288162357
 20
1.2963270269
 10
-0.6313219184
 20
1.2959448498
 10
-0.6338092529
 20
1.2954840449
 10
-0.6364883722
 20
1.2945475815
 10
-0.6388088309
 20
1.2946567537
 10
-0.6411763501
 20
1.2937278736
 10
-0.6436513875
 20
1.2932183917
 10
-0.6461593776
 20
1.2928305451
 10
-0.6485282257
 20
1.2919121173
 10
-0.651441523
 20
1.291869306
 10
-0.6535196314
 20
1.2910395131
 10
-0.6559600914
 20
1.2903958951
 10
-0.6584776767
 20
1.2900343792
 10
-0.6611737788
 20
1.2891725388
 10
-0.6634646317
 20
1.2891256941
 10
-0.6658416343
 20
1.2882475464
 10
-0.6682490919
 20
1.2874835738
 10
-0.670766127
 20
1.2871095921
 10
-0.6731620776
 20
1.2863023689
 10
-0.6781369428
 20
1.2853361945
 10
-0.6808055491
 20
1.2843852905
 10
-0.6831089169
 20
1.2843510771
 10
-0.685494609
 20
1.2835138896
 10
-0.6880094556
 20
1.2831163201
 10
-0.6906910036
 20
1.2822101323
 10
-0.6929782508
 20
1.2821061738
 10
-0.695334983
 20
1.2811723978
 10
-0.6977337865
 20
1.28038239
 10
-0.7027003621
 20
1.2793578932
 10
-0.705201865
 20
1.2789008756
 10
-0.707532392
 20
1.2778881861
 10
-0.7104406483
 20
1.2777163202
 10
-0.7124791007
 20
1.276787883
 10
-0.715484439
 20
1.2757860473
 10
-0.718054782
 20
1.2756570805
 10
-0.7203646163
 20
1.2747081806
 10
-0.7223334334
 20
1.2744423506
 10
-0.7249468129
 20
1.2733293107
 10
-0.7272692645
 20
1.2732859907
 10
-0.7295716274
 20
1.2721995706
 10
-0.7320334001
 20
1.2716021603
 10
-0.7369798632
 20
1.2704695174
 10
-0.7393962591
 20
1.2697295021
 10
-0.7416988573
 20
1.2686521707
 10
-0.7446233045
 20
1.2684694006
 10
-0.7466206573
 20
1.2674386797
 10
-0.7491109304
 20
1.2669150317
 10
-0.751479511
 20
1.2660336639
 10
-0.7563876518
 20
1.2647680355
 10
-0.7589965287
 20
1.263658038
 10
-0.7612906716
 20
1.2634809456
 10
-0.7642208392
 20
1.2622623753
 10
-0.7667855937
 20
1.2620426711
 10
-0.7690613652
 20
1.2610126007
 10
-0.7710189205
 20
1.260674151
 10
-0.7735900828
 20
1.2594629245
 10
-0.7759106334
 20
1.2593394127
 10
-0.7781741434
 20
1.2581722246
 10
-0.780627836
 20
1.2575256696
 10
-0.7855360237
 20
1.2562275168
 10
-0.7878982011
 20
1.2553290976
 10
-0.7901780362
 20
1.2542132031
 10
-0.7934158848
 20
1.2538162242
 10
-0.7956202931
 20
1.2526056818
 10
-0.799968203
 20
1.2515269676
 10
-0.8024200067
 20
1.2508613455
 10
-0.8046622228
 20
1.2496530721
 10
-0.807572104
 20
1.2493271025
 10
-0.8095175362
 20
1.2481954359
 10
-0.8124824082
 20
1.2470742311
 10
-0.8149821857
 20
1.2466223031
 10
-0.8191767406
 20
1.2451325683
 10
-0.8246214346
 20
1.2434970126
 10
-0.8288013828
 20
1.2419661605
 10
-0.8314119395
 20
1.2408723174
 10
-0.8335923778
 20
1.2403261463
 10
-0.8361087738
 20
1.2390027956
 10
-0.8384192162
 20
1.2387675866
 10
-0.8406272343
 20
1.2374951909
 10
-0.843052032
 20
1.2367427057
 10
-0.8479031597
 20
1.2352347793
 10
-0.8502066057
 20
1.2341908833
 10
-0.8524491904
 20
1.2330066335
 10
-0.8553197551
 20
1.2325165308
 10
-0.8572795429
 20
1.2314439678
 10
-0.8597290495
 20
1.2307388443
 10
-0.8619380665
 20
1.2294790262
 10
-0.8648123281
 20
1.2289859049
 10
-0.8667252205
 20
1.2278084911
 10
-0.8696206189
 20
1.226516134
 10
-0.872125928
 20
1.2260187641
 10
-0.8762494168
 20
1.2243396184
 10
-0.8790562838
 20
1.2228488752
 10
-0.8816195113
 20
1.2224702587
 10
-0.885674999
 20
1.2206380465
 10
-0.8885545434
 20
1.2193076268
 10
-0.8909763957
 20
1.218609987
 10
-0.8949575984
 20
1.2166168964
 10
-0.8997571471
 20
1.2149433813
 10
-0.9020956065
 20
1.2139731084
 10
-0.9042630818
 20
1.2126413118
 10
-0.9071469783
 20
1.2113211249
 10
-0.9096029811
 20
1.2106812036
 10
-0.9136809655
 20
1.2088918822
 10
-0.9190088683
 20
1.2068964448
 10
-0.9211090656
 20
1.2055165123
 10
-0.9230377065
 20
1.2050027335
 10
-0.925479152
 20
1.2035479315
 10
-0.9277598438
 20
1.2031412989
 10
-0.9298807068
 20
1.2017248423
 10
-0.9322279451
 20
1.2007663432
 10
-0.934573205
 20
1.1998007793
 10
-0.9367083888
 20
1.1984162225
 10
-0.9413741586
 20
1.1964348481
 10
-0.9460418535
 20
1.194453949
 10
-0.9481763155
 20
1.1930733706
 10
-0.9505546213
 20
1.1921683624
 10
-0.955278435
 20
1.190288672
 10
-0.9577583543
 20
1.1889160866
 10
-0.9596345238
 20
1.1877011293
 10
-0.9620313417
 20
1.18682501
 10
-0.9641633933
 20
1.1854442701
 10
-0.9669763086
 20
1.184703325
 10
-0.9688076672
 20
1.1834051591
 10
-0.9710806506
 20
1.1822927787
 10
-0.9734338868
 20
1.1813278614
 10
-0.975540847
 20
1.1799039443
 10
-0.9777748898
 20
1.1787183078
 10
-0.9801431149
 20
1.1777783458
 10
-0.9822173336
 20
1.1762969019
 10
-0.9850568645
 20
1.1755848869
 10
-0.9868389354
 20
1.1742043765
 10
-0.9891626931
 20
1.1731805251
 10
-0.9914428451
 20
1.1720747746
 10
-0.993516922
 20
1.1705983323
 10
-0.995809622
 20
1.169516396
 10
-0.9981140364
 20
1.1684525106
 10
-1.0001821837
 20
1.1669678816
 10
-1.0024383396
 20
1.1658192232
 10
-1.004762974
 20
1.1647890202
 10
-1.0068308126
 20
1.1633062121
 10
-1.0090539038
 20
1.1620982045
 10
-1.0116557188
 20
1.1609386315
 10
-1.0132936075
 20
1.159320089
 10
-1.0161650115
 20
1.1579453656
 10
-1.0182146915
 20
1.1565078618
 10
-1.021827781
 20
1.1538645868
 10
-1.0257145801
 20
1.1516777035
 10
-1.0286841438
 20
1.1498167719
 10
-1.0317525036
 20
1.1481208462
 10
-1.0337935251
 20
1.1461682314
 10
-1.0369300734
 20
1.1445857481
 10
-1.0389461962
 20
1.1425962833
 10
-1.0430166252
 20
1.139828433
 10
-1.0481631803
 20
1.1362514155
 10
-1.0522852381
 20
1.1335683468
 10
-1.0563513167
 20
1.130794697
 10
-1.0591642918
 20
1.1280050741
 10
-1.0751729918
 20
1.1159958021
 10
-1.0791422844
 20
1.1130774783
 10
-1.0820134888
 20
1.1104063288
 10
-1.0852592825
 20
1.1083101208
 10
-1.087450645
 20
1.1061172855
 10
-1.0907525213
 20
1.1030231962
 10
-1.0936578546
 20
1.1010640881
 10
-1.0981377423
 20
1.0965060131
 10
-1.1031023829
 20
1.092676269
 10
-1.106584002
 20
1.0890523642
 10
-1.1115251598
 20
1.0851932121
 10
-1.1150325601
 20
1.08161909
 10
-1.1189868623
 20
1.0786917964
 10
-1.1216776769
 20
1.075798194
 10
-1.1361050247
 20
1.06165128
 10
-1.1421965509
 20
1.0550951476
 10
-1.1448726279
 20
1.0522099061
 10
-1.1469606515
 20
1.0499253851
 10
-1.150143128
 20
1.0475313743
 10
-1.1522963376
 20
1.0451823684
 10
-1.1561139107
 20
1.0409559461
 10
-1.162893965
 20
1.0333761732
 10
-1.174868312
 20
1.0197260439
 10
-1.2001582506
 20
0.9874483871
 10
-1.2024667429
 20
0.9836257834
 10
-1.2046432586
 20
0.9808145957
 10
-1.2085460613
 20
0.9757998421
 10
-1.2119689555
 20
0.9705269163
 10
-1.214927511
 20
0.9665232415
 10
-1.2183503133
 20
0.9612455777
 10
-1.2207205802
 20
0.9569353785
 10
-1.2225046261
 20
0.9547529774
 10
-1.2238538859
 20
0.9530106582
 10
-1.2256002663
 20
0.9495640182
 10
-1.2277678672
 20
0.9467294889
 10
-1.2287412421
 20
0.9441381725
 10
-1.2317531243
 20
0.940142361
 10
-1.2342442732
 20
0.9358866538
 10
-1.2358518106
 20
0.9323722926
 10
-1.2400991824
 20
0.9246735946
 10
-1.242273991
 20
0.9214300322
 10
-1.2432691194
 20
0.9185430235
 10
-1.2452150938
 20
0.9159508791
 10
-1.2460624339
 20
0.9135931972
 10
-1.248011371
 20
0.9095880102
 10
-1.2503983352
 20
0.9051160443
 10
-1.2512626992
 20
0.9027290776
 10
-1.2525727179
 20
0.9005457427
 10
-1.2535215584
 20
0.8981968114
 10
-1.2543423902
 20
0.8957913012
 10
-1.2556289016
 20
0.8935959919
 10
-1.2566166285
 20
0.8912651488
 10
-1.2573918606
 20
0.8888405601
 10
-1.2586454341
 20
0.8866293006
 10
-1.2596762606
 20
0.8843179
 10
-1.2604134017
 20
0.8818779934
 10
-1.2616288849
 20
0.8796488059
 10
-1.2626772614
 20
0.8773452377
 10
-1.2642066505
 20
0.8724925974
 10
-1.2652880206
 20
0.8695031784
 10
-1.2665078588
 20
0.8673133787
 10
-1.2678722987
 20
0.8630540632
 10
-1.270100011
 20
0.8585024791
 10
-1.27095451
 20
0.8557887608
 10
-1.2722629938
 20
0.853922555
 10
-1.2739973438
 20
0.8512064927
 10
-1.2746869445
 20
0.848793475
 10
-1.2772650929
 20
0.845038701
 10
-1.3003994002
 20
0.8111000688
 10
-1.3034598525
 20
0.8070116757
 10
-1.3043229556
 20
0.8043076666
 10
-1.3053981744
 20
0.8023321237
 10
-1.305792948
 20
0.7990956617
 10
-1.3069615381
 20
0.796868416
 10
-1.3074842958
 20
0.7944050015
 10
-1.3086851942
 20
0.7927569663
 10
-1.309673413
 20
0.7893353549
 10
-1.3112533265
 20
0.7869355235
 10
-1.3118914551
 20
0.7841983409
 10
-1.3131198419
 20
0.7823063061
 10
-1.3177307224
 20
0.7744872161
 10
-1.3210039056
 20
0.7689060785
 10
-1.3223793631
 20
0.766395648
 10
-1.3240964804
 20
0.7649840189
 10
-1.3255451621
 20
0.7625403353
 10
-1.3266289335
 20
0.760573757
 10
-1.3297405969
 20
0.7580876495
 10
-1.3311507167
 20
0.7559620912
 10
-1.3329398649
 20
0.7541654276
 10
-1.3347308829
 20
0.7523685478
 10
-1.336163512
 20
0.7502642607
 10
-1.3397133978
 20
0.7466423044
 10
-1.3426818233
 20
0.7425245185
 10
-1.3460554888
 20
0.7370683348
 10
-1.3489865314
 20
0.7330197607
 10
-1.3533004946
 20
0.7250306199
 10
-1.3587189745
 20
0.714823356
 10
-1.3610811837
 20
0.7103200071
 10
-1.3621425993
 20
0.7065483811
 10
-1.3640459645
 20
0.7029541441
 10
-1.3655176875
 20
0.7001216377
 10
-1.3673599317
 20
0.6948380555
 10
-1.3688325404
 20
0.6920018497
 10
-1.3691260674
 20
0.6895328934
 10
-1.3711644155
 20
0.6855423709
 10
-1.372939734
 20
0.6802373158
 10
-1.3748926391
 20
0.6762177599
 10
-1.3762085783
 20
0.6720260076
 10
-1.3777883417
 20
0.6688754274
 10
-1.3819687493
 20
0.6582461029
 10
-1.385116408
 20
0.6498535276
 10
-1.3899892543
 20
0.6393738206
 10
-1.3921204176
 20
0.6347607334
 10
-1.3943386574
 20
0.6315294129
 10
-1.3958709835
 20
0.6282558276
 10
-1.396990603
 20
0.6256250523
 10
-1.3997139216
 20
0.6214436691
 10
-1.4024549701
 20
0.6172749666
 10
-1.4033743536
 20
0.6152401207
 10
-1.4046607031
 20
0.6140355894
 10
-1.405899861
 20
0.6118132977
 10
-1.4073744575
 20
0.6097693594
 10
-1.408641389
 20
0.6048485595
 10
-1.4091039175
 20
0.6017038229
 10
-1.4102518472
 20
0.5993964912
 10
-1.4111730574
 20
0.5950400386
 10
-1.4118846607
 20
0.5915583977
 10
-1.4129483317
 20
0.5889240904
 10
-1.4147295257
 20
0.5841943501
 10
-1.4160516945
 20
0.5793711104
 10
-1.4175581562
 20
0.5756711171
 10
-1.4258257055
 20
0.5569056706
 10
-1.4366464892
 20
0.5337193986
 10
-1.4416624399
 20
0.5236928589
 10
-1.4432691874
 20
0.518921185
 10
-1.4453642787
 20
0.5156743787
 10
-1.4465124781
 20
0.5122797977
 10
-1.4473960445
 20
0.5096032746
 10
-1.4497359606
 20
0.5052775657
 10
-1.4526715265
 20
0.4968270611
 10
-1.4577557033
 20
0.4816783467
 10
-1.4587799058
 20
0.4786063242
 10
-1.4587333267
 20
0.4760890487
 10
-1.460261076
 20
0.4717858341
 10
-1.461111317
 20
0.4667895602
 10
-1.4610854264
 20
0.4642411564
 10
-1.4616424686
 20
0.4617576774
 10
-1.461840891
 20
0.4592339054
 10
-1.4618425353
 20
0.4566902022
 10
-1.4623615923
 20
0.4542014645
 10
-1.4625931321
 20
0.4516816522
 10
-1.4627262669
 20
0.4459995349
 10
-1.4639422529
 20
0.4416453088
 10
-1.4651537636
 20
0.4353839143
 10
-1.4665973709
 20
0.4305076305
 10
-1.4691450317
 20
0.4217959143
 10
-1.4737088383
 20
0.4113999429
 10
-1.477865029
 20
0.403520524
 10
-1.4804042652
 20
0.3984521682
 10
-1.4809832771
 20
0.3959628197
 10
-1.4815025566
 20
0.3940340785
 10
-1.4815253446
 20
0.3908557508
 10
-1.4822130768
 20
0.3883993971
 10
-1.4834329919
 20
0.3840101439
 10
-1.4841964794
 20
0.3776948437
 10
-1.4854441498
 20
0.3727650863
 10
-1.4876282029
 20
0.3639515859
 10
-1.490330211
 20
0.3527150595
 10
-1.4910013139
 20
0.3499515824
 10
-1.4914933562
 20
0.347765102
 10
-1.4930940575
 20
0.3441893639
 10
-1.4936785483
 20
0.341345913
 10
-1.4948959467
 20
0.3394514049
 10
-1.4958444382
 20
0.3367718662
 10
-1.4968626652
 20
0.3347884296
 10
-1.4992954307
 20
0.3296659289
 10
-1.5000005088
 20
0.3272529753
 10
-1.5011359162
 20
0.3256104387
 10
-1.5022620741
 20
0.3226393112
 10
-1.5037630614
 20
0.3205709995
 10
-1.5054202215
 20
0.3164364166
 10
-1.506516615
 20
0.3141526192
 10
-1.5072424031
 20
0.3117123171
 10
-1.5084427231
 20
0.3091436269
 10
-1.5095408757
 20
0.3071892386
 10
-1.5102518634
 20
0.3047440252
 10
-1.511354381
 20
0.3024627792
 10
-1.5125244659
 20
0.3002080247
 10
-1.5132295794
 20
0.2977616835
 10
-1.5142717796
 20
0.2954548451
 10
-1.5154665446
 20
0.293208944
 10
-1.5163430472
 20
0.2905057143
 10
-1.5172496086
 20
0.2884706362
 10
-1.5213404383
 20
0.2764317777
 10
-1.5230790818
 20
0.2711125886
 10
-1.5241661015
 20
0.2668264702
 10
-1.5255397087
 20
0.2640028064
 10
-1.5258623158
 20
0.2614939902
 10
-1.5273021765
 20
0.2573456429
 10
-1.5293244931
 20
0.2497325519
 10
-1.5308441747
 20
0.2455393706
 10
-1.5313562593
 20
0.2419937224
 10
-1.5327105348
 20
0.2387577993
 10
-1.5330760168
 20
0.2359611064
 10
-1.5357292305
 20
0.2250422676
 10
-1.5381375826
 20
0.2140463739
 10
-1.5397697464
 20
0.2053255915
 10
-1.541993137
 20
0.194285978
 10
-1.5426105898
 20
0.1893123311
 10
-1.5438371929
 20
0.1856479596
 10
-1.5441345414
 20
0.1828497709
 10
-1.5444107241
 20
0.1806657688
 10
-1.544860956
 20
0.1767534027
 10
-1.5456457074
 20
0.1697659693
 10
-1.5503452559
 20
0.1289115306
 10
-1.5516909167
 20
0.0879343389
 10
-1.5516687205
 20
0.0735709773
 10
-1.5519595027
 20
0.0671989595
 10
-1.5521391759
 20
0.0643855538
 10
-1.5514324044
 20
0.062305693
 10
-1.5515624677
 20
0.0587379145
 10
-1.5516483401
 20
0.0559361916
 10
-1.5517813013
 20
0.053125822
 10
-1.5510499942
 20
0.0510526566
 10
-1.5511798971
 20
0.0482410849
 10
-1.5512344475
 20
0.0460389637
 10
-1.5513743995
 20
0.0420980926
 10
-1.5506435653
 20
0.0386672208
 10
-1.5507279663
 20
0.0358587056
 10
-1.5501245536
 20
0.0309734073
 10
-1.5501709856
 20
0.0281686322
 10
-1.5501624487
 20
0.0259722829
 10
-1.5496622882
 20
0.0221372999
 10
-1.5487688867
 20
0.0133740329
 10
-1.5489303595
 20
0.0094113092
 10
-1.5480485692
 20
0.0064899915
 10
-1.5478342981
 20
0.0024755151
 10
-1.5473844381
 20
-0.0006251292
 10
-1.5474259396
 20
-0.0038236473
 10
-1.5465692237
 20
-0.0061588626
 10
-1.5466519913
 20
-0.0093680971
 10
-1.5457824984
 20
-0.011699308
 10
-1.5458481046
 20
-0.0161958349
 10
-1.5450457138
 20
-0.0217369381
 10
-1.5441205951
 20
-0.02602822
 10
-1.5432209368
 20
-0.0303241846
 10
-1.543108469
 20
-0.0338302858
 10
-1.5418242184
 20
-0.0400481582
 10
-1.5414390883
 20
-0.0428250325
 10
-1.5405941149
 20
-0.0448835287
 10
-1.5397877117
 20
-0.0498151651
 10
-1.5395506453
 20
-0.053784019
 10
-1.5380480938
 20
-0.0586285657
 10
-1.5377383655
 20
-0.0611560651
 10
-1.5369982666
 20
-0.0635808834
 10
-1.5361948738
 20
-0.0659889206
 10
-1.5358649524
 20
-0.0685127675
 10
-1.5351731021
 20
-0.0709486815
 10
-1.5343106276
 20
-0.0733409992
 10
-1.5339484867
 20
-0.0758580407
 10
-1.5333086576
 20
-0.0783065331
 10
-1.532077204
 20
-0.0832143556
 10
-1.5306546504
 20
-0.0857742437
 10
-1.5304410319
 20
-0.0880185936
 10
-1.5295787825
 20
-0.0904086346
 10
-1.5288143285
 20
-0.0928228455
 10
-1.5284419626
 20
-0.0953410784
 10
-1.5276246396
 20
-0.0977419317
 10
-1.5267808525
 20
-0.100134244
 10
-1.5263954312
 20
-0.1026502164
 10
-1.5255803848
 20
-0.1057175249
 10
-1.524392299
 20
-0.1079771055
 10
-1.5230725005
 20
-0.1122309645
 10
-1.5226352362
 20
-0.1147352756
 10
-1.521671096
 20
-0.1170922354
 10
-1.5208511081
 20
-0.1198040037
 10
-1.5198154538
 20
-0.1218237362
 10
-1.5191200433
 20
-0.1245707639
 10
-1.5186924977
 20
-0.1267643475
 10
-1.5176731413
 20
-0.1291023456
 10
-1.5170829319
 20
-0.131564242
 10
-1.5149689371
 20
-0.1368471266
 10
-1.5145436946
 20
-0.139321456
 10
-1.5136159916
 20
-0.1410882286
 10
-1.5131276838
 20
-0.1435819973
 10
-1.5123792448
 20
-0.1459983681
 10
-1.5104077935
 20
-0.1506851962
 10
-1.5093015837
 20
-0.1536634908
 10
-1.5088120571
 20
-0.1561210329
 10
-1.5074070239
 20
-0.158293571
 10
-1.5071587842
 20
-0.1602682633
 10
-1.5060880079
 20
-0.1625822779
 10
-1.5053707356
 20
-0.1650070787
 10
-1.5034668494
 20
-0.1697073802
 10
-1.5026629125
 20
-0.1727812
 10
-1.5016394066
 20
-0.1750693663
 10
-1.4997477625
 20
-0.1791316776
 10
-1.4988950748
 20
-0.1821899507
 10
-1.4982572502
 20
-0.184604514
 10
-1.4962169902
 20
-0.1886141194
 10
-1.4950883244
 20
-0.1915799722
 10
-1.4945884795
 20
-0.1940419528
 10
-1.4927496205
 20
-0.1981164603
 10
-1.4906338307
 20
-0.2033766631
 10
-1.4889711764
 20
-0.2075091544
 10
-1.4879521239
 20
-0.210512922
 10
-1.4865560769
 20
-0.2126608477
 10
-1.4849202
 20
-0.2168005468
 10
-1.4828329746
 20
-0.2214210599
 10
-1.4822083061
 20
-0.2238841753
 10
-1.4810266684
 20
-0.2261433582
 10
-1.4800951266
 20
-0.2288168581
 10
-1.478837492
 20
-0.230722992
 10
-1.4781647524
 20
-0.2331693686
 10
-1.4773172797
 20
-0.2355515532
 10
-1.4750687176
 20
-0.240106532
 10
-1.4739530925
 20
-0.2423859528
 10
-1.4733534497
 20
-0.244862532
 10
-1.4715115625
 20
-0.2475511621
 10
-1.4708993306
 20
-0.2499850277
 10
-1.4689187492
 20
-0.2539881573
 10
-1.4676827475
 20
-0.2562180778
 10
-1.4669434641
 20
-0.2586428251
 10
-1.4647069106
 20
-0.2631935242
 10
-1.4636127328
 20
-0.2661705662
 10
-1.4620630454
 20
-0.2682314972
 10
-1.4613311249
 20
-0.270622424
 10
-1.4602721863
 20
-0.2723041791
 10
-1.4594506146
 20
-0.2750256429
 10
-1.4579821103
 20
-0.2768266668
 10
-1.45731529
 20
-0.279284994
 10
-1.4561205424
 20
-0.2815255018
 10
-1.4536221387
 20
-0.2866157048
 10
-1.4524853689
 20
-0.2888389179
 10
-1.4513162515
 20
-0.2904690107
 10
-1.4505375882
 20
-0.2928829296
 10
-1.4495881439
 20
-0.2952252834
 10
-1.4471515788
 20
-0.2996786571
 10
-1.4459081356
 20
-0.3018931027
 10
-1.4451885883
 20
-0.3043349891
 10
-1.4433726977
 20
-0.3066295344
 10
-1.4427860673
 20
-0.3087998341
 10
-1.4414930807
 20
-0.3116936195
 10
-1.4399832387
 20
-0.3137476261
 10
-1.4381029597
 20
-0.3177772111
 10
-1.4356568081
 20
-0.3222167833
 10
-1.4346586046
 20
-0.3248709922
 10
-1.4331889876
 20
-0.3266440842
 10
-1.4322496687
 20
-0.3289924664
 10
-1.4308988866
 20
-0.3311513993
 10
-1.4298442223
 20
-0.3337800833
 10
-1.4283788921
 20
-0.3355504802
 10
-1.4275444063
 20
-0.3379479026
 10
-1.4264759074
 20
-0.340237047
 10
-1.4238933829
 20
-0.3446045586
 10
-1.4225819429
 20
-0.3467773881
 10
-1.4217753903
 20
-0.3491906821
 10
-1.4198828991
 20
-0.3514205875
 10
-1.4192122292
 20
-0.3535640749
 10
-1.4178362822
 20
-0.3564181443
 10
-1.4162157813
 20
-0.3583978791
 10
-1.4141117502
 20
-0.3623162066
 10
-1.4115015969
 20
-0.3666593522
 10
-1.410657249
 20
-0.3690594981
 10
-1.4093128381
 20
-0.3712112165
 10
-1.4066298744
 20
-0.3755148535
 10
-1.4054628494
 20
-0.3777536816
 10
-1.4045667595
 20
-0.3801306617
 10
-1.4026015556
 20
-0.3823030138
 10
-1.4018871877
 20
-0.3844336036
 10
-1.4004848104
 20
-0.3865519724
 10
-1.3992485161
 20
-0.3887545119
 10
-1.3965397862
 20
-0.3930366101
 10
-1.395642418
 20
-0.3954165183
 10
-1.3942540545
 20
-0.397539409
 10
-1.3914870855
 20
-0.4017876168
 10
-1.3902489879
 20
-0.4039878842
 10
-1.389285731
 20
-0.4063355608
 10
-1.3877790177
 20
-0.409121418
 10
-1.3860716198
 20
-0.411027205
 10
-1.3850107424
 20
-0.4132824819
 10
-1.38379478
 20
-0.4148461032
 10
-1.3828080056
 20
-0.4171831438
 10
-1.3815564822
 20
-0.4193763239
 10
-1.3787213086
 20
-0.4235783358
 10
-1.3772654065
 20
-0.4256567246
 10
-1.3762146148
 20
-0.4279602669
 10
-1.3749435439
 20
-0.4304889663
 10
-1.3733512523
 20
-0.4321418139
 10
-1.3721944723
 20
-0.4343875072
 10
-1.3706778772
 20
-0.4364289514
 10
-1.3695064662
 20
-0.4386655639
 10
-1.3684362198
 20
-0.4409612075
 10
-1.3669880327
 20
-0.4430405099
 10
-1.3655701958
 20
-0.445135695
 10
-1.3643615474
 20
-0.44770183
 10
-1.3626654031
 20
-0.4492847814
 10
-1.3616519748
 20
-0.4516150562
 10
-1.3603134389
 20
-0.4537563168
 10
-1.3587885795
 20
-0.4557868446
 10
-1.357614439
 20
-0.4580234908
 10
-1.3564872783
 20
-0.4602893455
 10
-1.3549679546
 20
-0.462321948
 10
-1.3519942337
 20
-0.4664230724
 10
-1.3506335403
 20
-0.4685484895
 10
-1.3495407983
 20
-0.4708365396
 10
-1.3481513832
 20
-0.4729455037
 10
-1.3465989125
 20
-0.4749537299
 10
-1.3453900036
 20
-0.4771714218
 10
-1.3442260243
 20
-0.4794181139
 10
-1.3426985654
 20
-0.4814407261
 10
-1.3412250841
 20
-0.4834951136
 10
-1.340088134
 20
-0.4857589417
 10
-1.3387730968
 20
-0.4879128408
 10
-1.3356337811
 20
-0.4918995816
 10
-1.333234557
 20
-0.4963522392
 10
-1.3300715803
 20
-0.5003186146
 10
-1.3288025253
 20
-0.5032644179
 10
-1.3268631754
 20
-0.5049715702
 10
-1.3244337201
 20
-0.5086871392
 10
-1.3234527469
 20
-0.5114205551
 10
-1.3219856174
 20
-0.5131133076
 10
-1.3205519139
 20
-0.515188709
 10
-1.3193639899
 20
-0.5174270501
 10
-1.3179179315
 20
-0.5194954283
 10
-1.3162799278
 20
-0.5214348518
 10
-1.3149458327
 20
-0.5235762391
 10
-1.3137163515
 20
-0.525789059
 10
-1.3121555831
 20
-0.5277793771
 10
-1.3105521297
 20
-0.5297392158
 10
-1.3092831556
 20
-0.53192562
 10
-1.3079753891
 20
-0.534087086
 10
-1.3063296811
 20
-0.5360172756
 10
-1.3048141905
 20
-0.5380353171
 10
-1.3037049197
 20
-0.5407019324
 10
-1.302189042
 20
-0.54235134
 10
-1.3009465925
 20
-0.5445587677
 10
-1.2995193053
 20
-0.5466387043
 10
-1.2978306376
 20
-0.5485348287
 10
-1.2963761339
 20
-0.550594104
 10
-1.2951219449
 20
-0.5527956631
 10
-1.293501428
 20
-0.5547384065
 10
-1.2909128383
 20
-0.5590863067
 10
-1.2892141484
 20
-0.560970891
 10
-1.2878463915
 20
-0.5630926544
 10
-1.2851063204
 20
-0.5673345325
 10
-1.2838029232
 20
-0.569504835
 10
-1.282156992
 20
-0.571425547
 10
-1.2803052981
 20
-0.5735690215
 10
-1.2795021337
 20
-0.5757332008
 10
-1.2777502719
 20
-0.5775733658
 10
-1.2764072513
 20
-0.5797159944
 10
-1.2736042245
 20
-0.5839160962
 10
-1.2722262693
 20
-0.5860346795
 10
-1.270445159
 20
-0.5878495297
 10
-1.2677215929
 20
-0.592111291
 10
-1.265675265
 20
-0.5945273754
 10
-1.2647105759
 20
-0.5969181506
 10
-1.2621700617
 20
-0.6005628284
 10
-1.260412678
 20
-0.6023901325
 10
-1.2590470729
 20
-0.6045211414
 10
-1.2561671625
 20
-0.6086695098
 10
-1.2527879385
 20
-0.6131954054
 10
-1.2503860241
 20
-0.6169525388
 10
-1.2489280606
 20
-0.6190144851
 10
-1.2470920172
 20
-0.6207736318
 10
-1.2441874648
 20
-0.6249060432
 10
-1.2407754407
 20
-0.6302808755
 10
-1.2378621288
 20
-0.6343173537
 10
-1.2349347239
 20
-0.6383434874
 10
-1.2324033644
 20
-0.6413151674
 10
-1.2312743935
 20
-0.6436125384
 10
-1.229733749
 20
-0.6448716133
 10
-1.2281391084
 20
-0.64809028
 10
-1.2257780937
 20
-0.6506637823
 10
-1.2244928615
 20
-0.6531692438
 10
-1.2222797127
 20
-0.6558689849
 10
-1.2204411432
 20
-0.6579038377
 10
-1.219003307
 20
-0.6602838829
 10
-1.2179937326
 20
-0.662258706
 10
-1.2156443758
 20
-0.6648407054
 10
-1.2143565287
 20
-0.6673552057
 10
-1.2123238081
 20
-0.6692195224
 10
-1.2113689522
 20
-0.6712478763
 10
-1.2093299063
 20
-0.6731051778
 10
-1.2082866526
 20
-0.6750580443
 10
-1.2058886064
 20
-0.6780722509
 10
-1.2023024081
 20
-0.6832236898
 10
-1.1996349082
 20
-0.6874118588
 10
-1.1975721191
 20
-0.6892417712
 10
-1.1965108033
 20
-0.6911883969
 10
-1.1940332774
 20
-0.6941342521
 10
-1.1925527411
 20
-0.6964970587
 10
-1.1914686311
 20
-0.6984277509
 10
-1.1888888719
 20
-0.7012816725
 10
-1.1846735027
 20
-0.7067412036
 10
-1.1823339256
 20
-0.7106371583
 10
-1.1799960549
 20
-0.7132289777
 10
-1.1781735384
 20
-0.7163115073
 10
-1.1761069816
 20
-0.7181276089
 10
-1.1750816896
 20
-0.7198516349
 10
-1.1742375091
 20
-0.7211697685
 10
-1.17279865
 20
-0.7235910697
 10
-1.1706944557
 20
-0.7253691356
 10
-1.1695856651
 20
-0.7272951875
 10
-1.1676727635
 20
-0.7303037346
 10
-1.1656108355
 20
-0.7321210664
 10
-1.1630223704
 20
-0.7364439889
 10
-1.1597433985
 20
-0.7400870381
 10
-1.1576219203
 20
-0.7434050794
 10
-1.1550944321
 20
-0.7458101267
 10
-1.1536107715
 20
-0.7482077047
 10
-1.1520662858
 20
-0.7505455413
 10
-1.1508832193
 20
-0.7524147889
 10
-1.1487528969
 20
-0.7541568538
 10
-1.1475847318
 20
-0.7560437091
 10
-1.1454023868
 20
-0.7593171174
 10
-1.1438380085
 20
-0.7616429858
 10
-1.1420494067
 20
-0.7628900681
 10
-1.1399038339
 20
-0.766209495
 10
-1.1377182662
 20
-0.7694910468
 10
-1.1354600812
 20
-0.7714999787
 10
-1.1340171449
 20
-0.7735935505
 10
-1.1328743391
 20
-0.7752299447
 10
-1.1308567193
 20
-0.7781787494
 10
-1.1287939165
 20
-0.7810818771
 10
-1.1266723895
 20
-0.7828251755
 10
-1.1201501185
 20
-0.7921684645
 10
-1.1077762221
 20
-0.8081263542
 10
-1.0854787663
 20
-0.8366042239
 10
-1.0694835835
 20
-0.8569572008
 10
-1.0623248675
 20
-0.8658162743
 10
-1.057393957
 20
-0.8731153186
 10
-1.0500446179
 20
-0.8818368703
 10
-1.0449547749
 20
-0.8890337579
 10
-1.0352071404
 20
-0.9015109966
 10
-1.0110165095
 20
-0.9341422824
 10
-1.0091311649
 20
-0.9363077597
 10
-1.0081841806
 20
-0.9383225624
 10
-1.0070521068
 20
-0.9405806965
 10
-1.0055393538
 20
-0.9426127943
 10
-1.0037852959
 20
-0.9481395766
 10
-1.0023263154
 20
-0.9524385128
 10
-0.9955105309
 20
-0.9719167834
 10
-0.9809607285
 20
-1.010538408
 10
-0.9771157285
 20
-1.0201081537
 10
-0.9746322421
 20
-1.0245192612
 10
-0.9730217962
 20
-1.0264731233
 10
-0.971818404
 20
-1.0287062081
 10
-0.9686689982
 20
-1.0326527573
 10
-0.9644226701
 20
-1.0354323219
 10
-0.9566504043
 20
-1.0421013137
 10
-0.9368798712
 20
-1.0584910926
 10
-0.9211794969
 20
-1.0711856675
 10
-0.893340162
 20
-1.0945108638
 10
-0.8582628666
 20
-1.1241620864
 10
-0.8531663792
 20
-1.1280059344
 10
-0.849107444
 20
-1.1309728229
 10
-0.8475401619
 20
-1.1332468611
 10
-0.8457185212
 20
-1.1345184836
 10
-0.8425692662
 20
-1.1368770956
 10
-0.8389854735
 20
-1.1402508015
 10
-0.8359455656
 20
-1.1426996821
 10
-0.8327218046
 20
-1.1449820393
 10
-0.8308673009
 20
-1.1473830678
 10
-0.8287617982
 20
-1.1488364251
 10
-0.8271466667
 20
-1.1500126001
 10
-0.8242317033
 20
-1.1520831497
 10
-0.8219118747
 20
-1.154694024
 10
-0.8196387827
 20
-1.1563330394
 10
-0.8149610119
 20
-1.1605031853
 10
-0.8110106201
 20
-1.1635217482
 10
-0.8084989657
 20
-1.1659543431
 10
-0.8061935991
 20
-1.1675535183
 10
-0.8044892999
 20
-1.1697184107
 10
-0.8026344612
 20
-1.1709317978
 10
-0.7957847409
 20
-1.176490379
 10
-0.7934146773
 20
-1.1790580037
 10
-0.7910032321
 20
-1.1805435967
 10
-0.7874476233
 20
-1.1839213896
 10
-0.7838639034
 20
-1.1872721796
 10
-0.7804924145
 20
-1.189356044
 10
-0.7787936024
 20
-1.1915366009
 10
-0.7768252387
 20
-1.1926207075
 10
-0.7741404297
 20
-1.1953816629
 10
-0.7714048188
 20
-1.1980930979
 10
-0.7687573789
 20
-1.1997205873
 10
-0.7662475204
 20
-1.2022229033
 10
-0.7642121407
 20
-1.2041256605
 10
-0.7603998447
 20
-1.2073405497
 10
-0.7565746811
 20
-1.2105402068
 10
-0.7534217173
 20
-1.2128990087
 10
-0.7513091027
 20
-1.2152686531
 10
-0.7491210978
 20
-1.2165784304
 10
-0.7456921479
 20
-1.2194153937
 10
-0.7440977163
 20
-1.2214019016
 10
-0.7421600102
 20
-1.2230254771
 10
-0.7382731359
 20
-1.2262582581
 10
-0.7363037703
 20
-1.2278457219
 10
-0.7346876971
 20
-1.2298136238
 10
-0.7321726992
 20
-1.2312571609
 10
-0.7307293951
 20
-1.2329674289
 10
-0.7287205946
 20
-1.2349592436
 10
-0.7267526651
 20
-1.2360980363
 10
-0.7249678936
 20
-1.237886613
 10
-0.7229200139
 20
-1.2393853214
 10
-0.7209171246
 20
-1.2413838431
 10
-0.7189660231
 20
-1.2425366966
 10
-0.7171942518
 20
-1.2443400256
 10
-0.715470373
 20
-1.2461986311
 10
-0.7134511804
 20
-1.2477269813
 10
-0.7115021042
 20
-1.2493322953
 10
-0.7095810375
 20
-1.251426443
 10
-0.7074956116
 20
-1.252420129
 10
-0.7058232472
 20
-1.2543400328
 10
-0.703916492
 20
-1.2559946318
 10
-0.7018583631
 20
-1.2574747321
 10
-0.7000621842
 20
-1.2592546722
 10
-0.6983113449
 20
-1.2610889133
 10
-0.6962718077
 20
-1.2625897263
 10
-0.6942885735
 20
-1.2641539562
 10
-0.6925653136
 20
-1.2660215909
 10
-0.6906750811
 20
-1.2676960391
 10
-0.6885906627
 20
-1.2691415805
 10
-0.6867372827
 20
-1.2708578857
 10
-0.6849846936
 20
-1.2726952001
 10
-0.6829476875
 20
-1.2741960349
 10
-0.6809180332
 20
-1.2757036707
 10
-0.6791621683
 20
-1.2775386024
 10
-0.6772788029
 20
-1.2792228368
 10
-0.6751742469
 20
-1.2806400974
 10
-0.673277677
 20
-1.2823070396
 10
-0.6715131826
 20
-1.2841358172
 10
-0.6693991086
 20
-1.285539944
 10
-0.6676320982
 20
-1.2878450492
 10
-0.6657675005
 20
-1.2890745798
 10
-0.6637846095
 20
-1.2906368995
 10
-0.662017005
 20
-1.2924660003
 10
-0.6600160591
 20
-1.2940077952
 10
-0.657906455
 20
-1.2954128661
 10
-0.6560855158
 20
-1.2971775726
 10
-0.6541775996
 20
-1.2988352427
 10
-0.6504819527
 20
-1.3023019997
 10
-0.6483399812
 20
-1.3036636473
 10
-0.6464629489
 20
-1.3053608113
 10
-0.6427745523
 20
-1.3088424446
 10
-0.6408580314
 20
-1.3104921565
 10
-0.6386733705
 20
-1.3117955682
 10
-0.6369079765
 20
-1.314136795
 10
-0.6349324893
 20
-1.3152135507
 10
-0.6330851906
 20
-1.3169540185
 10
-0.6311148966
 20
-1.3185354635
 10
-0.6273420605
 20
-1.3219185451
 10
-0.6235588578
 20
-1.3252917435
 10
-0.6193114268
 20
-1.3290596991
 10
-0.6158204248
 20
-1.3318154674
 10
-0.6135958302
 20
-1.333564334
 10
-0.6119668008
 20
-1.3351011709
 10
-0.6095304488
 20
-1.3365630197
 10
-0.6081318602
 20
-1.3384160547
 10
-0.6038169249
 20
-1.3421048346
 10
-0.6003198484
 20
-1.3448574225
 10
-0.5973712778
 20
-1.3468354575
 10
-0.595537602
 20
-1.3490659995
 10
-0.591662709
 20
-1.3522116336
 10
-0.5892464037
 20
-1.3536242261
 10
-0.5877496178
 20
-1.3553047785
 10
-0.5845153011
 20
-1.3575073769
 10
-0.5826456258
 20
-1.3597085254
 10
-0.5806347404
 20
-1.3606598687
 10
-0.5778240727
 20
-1.363484131
 10
-0.5747715262
 20
-1.3659620055
 10
-0.5721189597
 20
-1.3675372644
 10
-0.5693655843
 20
-1.3704565595
 10
-0.5667977864
 20
-1.3721553296
 10
-0.5624678641
 20
-1.3755684394
 10
-0.5596268223
 20
-1.3783708933
 10
-0.5569857869
 20
-1.3799610317
 10
-0.5527793929
 20
-1.3835684296
 10
-0.5451391244
 20
-1.3898301594
 10
-0.5351988195
 20
-1.3974820042
 10
-0.5307861006
 20
-1.4007932314
 10
-0.5290229089
 20
-1.4025345436
 10
-0.5276185784
 20
-1.4038739304
 10
-0.5249379012
 20
-1.4053974979
 10
-0.5231670067
 20
-1.40713176
 10
-0.5195303669
 20
-1.4094675561
 10
-0.5161065358
 20
-1.4121487951
 10
-0.5134548537
 20
-1.414321967
 10
-0.5078428448
 20
-1.4185692974
 10
-0.5055508919
 20
-1.4207350793
 10
-0.50329858
 20
-1.4216864043
 10
-0.5010024871
 20
-1.4238495592
 10
-0.499156111
 20
-1.4254804908
 10
-0.4955421121
 20
-1.4278626665
 10
-0.4931927569
 20
-1.4299453609
 10
-0.4909580959
 20
-1.4309209908
 10
-0.4877451539
 20
-1.4339930735
 10
-0.4840419653
 20
-1.4362260433
 10
-0.4814784853
 20
-1.4385818137
 10
-0.4768709383
 20
-1.4416109717
 10
-0.4735423251
 20
-1.4445058419
 10
-0.4698445005
 20
-1.4467522893
 10
-0.4671989787
 20
-1.44898111
 10
-0.4635106956
 20
-1.4512468189
 10
-0.4608263162
 20
-1.4534126934
 10
-0.4578723632
 20
-1.4550931874
 10
-0.4558162785
 20
-1.4568965277
 10
-0.4515438377
 20
-1.4594907207
 10
-0.4484496795
 20
-1.4620156548
 10
-0.4450481647
 20
-1.4639745614
 10
-0.4426495983
 20
-1.4660264134
 10
-0.4391766208
 20
-1.4678522334
 10
-0.4367795533
 20
-1.4699138241
 10
-0.4339492147
 20
-1.4711545753
 10
-0.4320541057
 20
-1.4727562544
 10
-0.4261525662
 20
-1.4765938399
 10
-0.4237272063
 20
-1.4786176014
 10
-0.4214322332
 20
-1.4794509388
 10
-0.4189750312
 20
-1.4814176836
 10
-0.4170143247
 20
-1.4829060754
 10
-0.4132035985
 20
-1.4849553623
 10
-0.4100298186
 20
-1.4873785076
 10
-0.4072562116
 20
-1.4887268604
 10
-0.4025948119
 20
-1.4917182257
 10
-0.3942069987
 20
-1.4969461546
 10
-0.3858904425
 20
-1.5023390209
 10
-0.3820161519
 20
-1.5042664977
 10
-0.3792586851
 20
-1.5063873082
 10
-0.3757255717
 20
-1.5080970569
 10
-0.3731949913
 20
-1.5099661235
 10
-0.368314641
 20
-1.5125324873
 10
-0.363474287
 20
-1.5151878791
 10
-0.359955096
 20
-1.5179011609
 10
-0.3512362147
 20
-1.5224949247
 10
-0.3475622982
 20
-1.5248855018
 10
-0.344393067
 20
-1.5261280131
 10
-0.3394964355
 20
-1.5286776631
 10
-0.335913675
 20
-1.5312930589
 10
-0.3319716775
 20
-1.533084155
 10
-0.3288533954
 20
-1.5344412004
 10
-0.3251547259
 20
-1.5368049162
 10
-0.3220048641
 20
-1.5380900158
 10
-0.3191630648
 20
-1.5401078462
 10
-0.3165953595
 20
-1.5408938847
 10
-0.3127408072
 20
-1.5432473745
 10
-0.3095568456
 20
-1.5447249995
 10
-0.3063081922
 20
-1.5460434815
 10
-0.3039692213
 20
-1.5476053702
 10
-0.3006548289
 20
-1.5487621024
 10
-0.2983592227
 20
-1.5504379477
 10
-0.2938499795
 20
-1.5524138322
 10
-0.2905846405
 20
-1.5536914279
 10
-0.288229654
 20
-1.5552311734
 10
-0.2837166168
 20
-1.5572012803
 10
-0.2792348741
 20
-1.5592553652
 10
-0.2755691167
 20
-1.5604939284
 10
-0.2698986761
 20
-1.5631992677
 10
-0.2653830894
 20
-1.5651690499
 10
-0.2609438926
 20
-1.5673461546
 10
-0.2573405387
 20
-1.5687493803
 10
-0.2529281432
 20
-1.5710114471
 10
-0.2493125478
 20
-1.5723843143
 10
-0.2457323867
 20
-1.5738569702
 10
-0.2428571093
 20
-1.5748385607
 10
-0.2369923996
 20
-1.5773162048
 10
-0.2323640153
 20
-1.579207958
 10
-0.2296536234
 20
-1.5799269335
 10
-0.2277340724
 20
-1.5810987697
 10
-0.2240137932
 20
-1.5823455551
 10
-0.2193199375
 20
-1.5842799276
 10
-0.2146178795
 20
-1.5861954193
 10
-0.211873427
 20
-1.586934822
 10
-0.2098706962
 20
-1.5879784338
 10
-0.2073744453
 20
-1.5885003967
 10
-0.2050018134
 20
-1.5893938707
 10
-0.2026612074
 20
-1.5903893636
 10
-0.2001570251
 20
-1.5908822252
 10
-0.1954058204
 20
-1.5926585563
 10
-0.1906691816
 20
-1.5944831304
 10
-0.1879468444
 20
-1.5952847649
 10
-0.1859246013
 20
-1.5962873907
 10
-0.1834196227
 20
-1.5967680123
 10
-0.1810345892
 20
-1.5976294278
 10
-0.1786759351
 20
-1.5985805097
 10
-0.1761641449
 20
-1.5990339822
 10
-0.1714116857
 20
-1.6008238849
 10
-0.1689018176
 20
-1.601278306
 10
-0.1665565145
 20
-1.6022771496
 10
-0.1641330929
 20
-1.603020244
 10
-0.1616343546
 20
-1.6035068675
 10
-0.1592985329
 20
-1.6045435248
 10
-0.1568410328
 20
-1.6051712421
 10
-0.1537433711
 20
-1.6059030938
 10
-0.1514287968
 20
-1.6068883112
 10
-0.1470557485
 20
-1.6078238421
 10
-0.1445338383
 20
-1.6082213899
 10
-0.1421712037
 20
-1.6091775377
 10
-0.1397371821
 20
-1.609886058
 10
-0.1372305243
 20
-1.610331955
 10
-0.134879522
 20
-1.6113359253
 10
-0.132402459
 20
-1.611889208
 10
-0.1273917863
 20
-1.6127823917
 10
-0.1225763276
 20
-1.6143928109
 10
-0.1176974947
 20
-1.6157706532
 10
-0.1144464116
 20
-1.6159139765
 10
-0.1121129827
 20
-1.616862379
 10
-0.1077930324
 20
-1.6179762529
 10
-0.1042284982
 20
-1.6184163026
 10
-0.1014954451
 20
-1.6190202093
 10
-0.0965979078
 20
-1.6200305819
 10
-0.0917305535
 20
-1.6211610199
 10
-0.0879161314
 20
-1.6220918419
 10
-0.0854110285
 20
-1.6223797352
 10
-0.083582144
 20
-1.6231763407
 10
-0.0800046479
 20
-1.62331499
 10
-0.0766166692
 20
-1.6242375248
 10
-0.0738474736
 20
-1.6245130425
 10
-0.0676925209
 20
-1.6257184289
 10
-0.0627792386
 20
-1.626326372
 10
-0.0593865255
 20
-1.6272352002
 10
-0.0566074669
 20
-1.6274499048
 10
-0.0517189913
 20
-1.6281526434
 10
-0.0470849038
 20
-1.6300121213
 10
-0.0434580786
 20
-1.6315471066
 10
-0.032782967
 20
-1.635161334
 10
-0.0281607284
 20
-1.6371317062
 10
-0.0243716814
 20
-1.6379186994
 10
-0.0217697365
 20
-1.6389695527
 10
-0.0197336505
 20
-1.6398414676
 10
-0.0159084161
 20
-1.6404487429
 10
-0.0092423712
 20
-1.6423726788
 10
-0.0058047897
 20
-1.6433597869
 10
-0.0030976628
 20
-1.6441099503
 10
-0.0002866344
 20
-1.6443074951
 10
0.0017628347
 20
-1.6453154086
 10
0.0045532542
 20
-1.6456175305
 10
0.0066528572
 20
-1.6463635804
 10
0.0088793069
 20
-1.646412505
 10
0.0105147704
 20
-1.6470812656
 10
0.0130665753
 20
-1.6472177784
 10
0.0155244176
 20
-1.6478783169
 10
0.0205534507
 20
-1.6485637873
 10
0.0237047219
 20
-1.6490118007
 10
0.0262059416
 20
-1.6492110892
 10
0.0306171365
 20
-1.6498915249
 10
0.0345386947
 20
-1.650638256
 10
0.0377467193
 20
-1.6504483461
 10
0.0433191273
 20
-1.6510554432
 10
0.0488785344
 20
-1.6517424124
 10
0.0532760088
 20
-1.6520944694
 10
0.071157412
 20
-1.6532138966
 10
0.0838790097
 20
-1.6541175765
 10
0.0894686989
 20
-1.6545658259
 10
0.0939162287
 20
-1.654477132
 10
0.0995191999
 20
-1.6547948274
 10
0.1039011167
 20
-1.6552038113
 10
0.1082680456
 20
-1.6557405806
 10
0.1116835617
 20
-1.6562996596
 10
0.1167497694
 20
-1.6566489035
 10
0.1192371118
 20
-1.6572322517
 10
0.1217922511
 20
-1.6572060199
 10
0.124953369
 20
-1.6575639388
 10
0.1274023366
 20
-1.6581761281
 10
0.1299235992
 20
-1.6581095247
 10
0.1318297158
 20
-1.658768385
 10
0.1517391286
 20
-1.6637338723
 10
0.2018141976
 20
-1.6768750416
 10
0.2239766292
 20
-1.6821422017
 10
0.2337846117
 20
-1.6835738698
 10
0.241477073
 20
-1.6851812908
 10
0.2484960827
 20
-1.6856213904
 10
0.2540180743
 20
-1.6857570975
 10
0.2570890933
 20
-1.6865932009
 10
0.2595283153
 20
-1.6862928642
 10
0.2619489067
 20
-1.6867148478
 10
0.2638660499
 20
-1.6864325994
 10
0.2669548236
 20
-1.6866517299
 10
0.2693815046
 20
-1.6868917948
 10
0.2718170821
 20
-1.6866402621
 10
0.2737203065
 20
-1.6870327708
 10
0.2761560625
 20
-1.6867381371
 10
0.2780598312
 20
-1.6871464008
 10
0.2814718076
 20
-1.6870872327
 10
0.2845675028
 20
-1.6869041358
 10
0.2869941759
 20
-1.6872951201
 10
0.2913396617
 20
-1.6867937846
 10
0.2956800189
 20
-1.6868666786
 10
0.2990907347
 20
-1.6867227285
 10
0.3034308965
 20
-1.6865668438
 10
0.3068420739
 20
-1.6867502933
 10
0.3102527281
 20
-1.6866161651
 10
0.3129310799
 20
-1.6864103906
 10
0.3174050142
 20
-1.6863554338
 10
0.3209212023
 20
-1.6863285129
 10
0.3271955884
 20
-1.6860013515
 10
0.3334788019
 20
-1.6862247808
 10
0.3384118468
 20
-1.6861658439
 10
0.3419282819
 20
-1.6861188478
 10
0.3446827797
 20
-1.6857437786
 10
0.3496050591
 20
-1.6852934378
 10
0.3523763591
 20
-1.685551806
 10
0.3545354041
 20
-1.6851310941
 10
0.3584130862
 20
-1.685126007
 10
0.3619208348
 20
-1.6848006638
 10
0.3646739772
 20
-1.6844921217
 10
0.3695998293
 20
-1.684207562
 10
0.3783645604
 20
-1.6829510976
 10
0.3832919764
 20
-1.6827092759
 10
0.3871279367
 20
-1.6817824266
 10
0.3910074198
 20
-1.6817483719
 10
0.3940189141
 20
-1.681016217
 10
0.4165773818
 20
-1.6770915455
 10
0.4341799604
 20
-1.6726414961
 10
0.4565119763
 20
-1.6666849468
 10
0.4736738144
 20
-1.6611210601
 10
0.4889201183
 20
-1.6558995185
 10
0.4957972327
 20
-1.6539212623
 10
0.4984209724
 20
-1.6522533301
 10
0.5007999023
 20
-1.651567852
 10
0.5126585703
 20
-1.6471678099
 10
0.5176382323
 20
-1.6447665299
 10
0.5217826901
 20
-1.643321931
 10
0.5283210486
 20
-1.6406399873
 10
0.5332990517
 20
-1.638230867
 10
0.5382376292
 20
-1.6357477608
 10
0.5423896274
 20
-1.6342986404
 10
0.5474137747
 20
-1.6319692128
 10
0.5511836755
 20
-1.6298143667
 10
0.5549976686
 20
-1.627741659
 10
0.5583208306
 20
-1.6266999644
 10
0.5616917925
 20
-1.6246588745
 10
0.564265178
 20
-1.6229227046
 10
0.5692778161
 20
-1.6205652611
 10
0.5743187238
 20
-1.6182537935
 10
0.5783146559
 20
-1.6164952751
 10
0.5808338162
 20
-1.6146698954
 10
0.5830838459
 20
-1.613705832
 10
0.5868157336
 20
-1.6114875134
 10
0.5907294189
 20
-1.6095801157
 10
0.5935333094
 20
-1.6076194742
 10
0.5962601826
 20
-1.6061540258
 10
0.5983913508
 20
-1.6049819016
 10
0.6021766742
 20
-1.6028563028
 10
0.6044406092
 20
-1.6019066732
 10
0.6058879349
 20
-1.6006057682
 10
0.6088529584
 20
-1.5989197135
 10
0.615543561
 20
-1.5950049342
 10
0.6208934606
 20
-1.5920802906
 10
0.6400909685
 20
-1.5798780894
 10
0.6426640943
 20
-1.5780761459
 10
0.6449389775
 20
-1.5770582488
 10
0.6482717023
 20
-1.5740947523
 10
0.6519842998
 20
-1.5717273284
 10
0.654814646
 20
-1.5697335697
 10
0.6585689333
 20
-1.5681816443
 10
0.6615142516
 20
-1.5669662556
 10
0.6669424516
 20
-1.5655618514
 10
0.6698503916
 20
-1.5641995931
 10
0.6723357096
 20
-1.5640041469
 10
0.6766227709
 20
-1.5629975694
 10
0.6821812649
 20
-1.5621478539
 10
0.6866484918
 20
-1.5618959141
 10
0.6946247069
 20
-1.5614188251
 10
0.7768467587
 20
-1.5542102839
 10
1.0992703507
 20
-1.4854568679
 10
1.4033442232
 20
-1.3579323703
 10
1.6803744051
 20
-1.1790213677
 10
1.8211733384
 20
-1.0592688481
 10
1.8309483733
 20
-1.0489826143
 10
1.8392047978
 20
-1.0413412767
 10
1.8431105367
 20
-1.0364990801
 10
1.8466294467
 20
-1.0330418412
 10
1.8521218806
 20
-1.0262560366
 10
1.8563542198
 20
-1.0216600578
 10
1.8592814667
 20
-1.017746014
 10
1.8648143412
 20
-1.0109868149
 10
1.8695334352
 20
-1.0036204468
 10
1.8734234358
 20
-0.9979697912
 10
1.8798478303
 20
-0.9889069094
 10
1.8841799723
 20
-0.9812676877
 10
1.889170569
 20
-0.974107022
 10
1.8925454852
 20
-0.9680916063
 10
1.9064368525
 20
-0.9438450923
 10
1.9435134557
 20
-0.8704483091
 10
1.9619489254
 20
-0.8280587092
 10
1.975062635
 20
-0.7943012591
 10
1.9849227084
 20
-0.7671516873
 10
1.9922904415
 20
-0.7456998598
 10
1.9947590694
 20
-0.7389999668
 10
1.9960338117
 20
-0.7335934078
 10
1.998772954
 20
-0.7240340361
 10
2.0021173712
 20
-0.7145919686
 10
2.0039942824
 20
-0.7070191392
 10
2.0055476681
 20
-0.7001197681
 10
2.0067564257
 20
-0.6946971186
 10
2.0084548673
 20
-0.6893657135
 10
2.0090944271
 20
-0.685045928
 10
2.0116784342
 20
-0.6754364888
 10
2.0126467737
 20
-0.6676935855
 10
2.0136344788
 20
-0.6622282403
 10
2.0142184861
 20
-0.6579007895
 10
2.0151768125
 20
-0.6501601095
 10
2.0163675073
 20
-0.6362554805
 10
2.0171888409
 20
-0.6249615167
 10
2.0179390845
 20
-0.6161065961
 10
2.0179995618
 20
-0.6071528147
 10
2.0179823721
 20
-0.6001121145
 10
2.0176552392
 20
-0.571538871
 10
2.0160653659
 20
-0.520537596
 10
2.0099957174
 20
-0.4296275496
 10
1.9887388074
 20
-0.2683544658
 10
1.9170962929
 20
0.0129400024
 10
1.7631980333
 20
0.348468549
 10
1.6736171044
 20
0.484229053
 10
1.6300976016
 20
0.5410712096
 10
1.6101704425
 20
0.5654686161
 10
1.6051855783
 20
0.5714190564
 10
1.603422448
 20
0.5742826918
 10
1.6018544054
 20
0.5764262178
 10
1.6003055112
 20
0.5794126301
 10
1.5990459187
 20
0.5817351928
 10
1.5967268756
 20
0.5858409042
 10
1.5953625256
 20
0.5896729323
 10
1.5942788569
 20
0.5926693612
 10
1.5930442834
 20
0.5981411548
 10
1.5925342807
 20
0.6037460468
 10
1.5917119761
 20
0.6080721748
 10
1.5912076484
 20
0.6111715241
 10
1.5904215217
 20
0.6135317385
 10
1.5902836063
 20
0.6160162155
 10
1.5896396626
 20
0.6178653127
 10
1.5888717043
 20
0.6222019157
 10
1.5881351566
 20
0.6255826827
 10
1.5880693031
 20
0.6278507984
 10
1.5873779883
 20
0.6295045049
 10
1.5869816698
 20
0.6326263664
 10
1.5865158444
 20
0.6357353445
 10
1.5856846063
 20
0.638081935
 10
1.5841845733
 20
0.6434934556
 10
1.5840481525
 20
0.6459853401
 10
1.5833039928
 20
0.6478081616
 10
1.5828190702
 20
0.6509138721
 10
1.5824533388
 20
0.6533585935
 10
1.5815654624
 20
0.6576727795
 10
1.5799592051
 20
0.6618279972
 10
1.5792989808
 20
0.6652257287
 10
1.5773800948
 20
0.6729837597
 10
1.5758774315
 20
0.6790796413
 10
1.5740172371
 20
0.6850909472
 10
1.5728274054
 20
0.689878005
 10
1.5720233154
 20
0.6933012658
 10
1.5710676051
 20
0.6959116764
 10
1.5696389901
 20
0.7006395338
 10
1.5674029727
 20
0.7091609526
 10
1.565543818
 20
0.715167127
 10
1.5637233775
 20
0.7197921254
 10
1.5609360197
 20
0.7281679799
 10
1.559138973
 20
0.7327937643
 10
1.5582468643
 20
0.7365675912
 10
1.5564712689
 20
0.7401014347
 10
1.5559986548
 20
0.7431301392
 10
1.5539304101
 20
0.747201041
 10
1.5531956374
 20
0.7506470346
 10
1.5516207997
 20
0.7538567099
 10
1.5504807836
 20
0.7564052408
 10
1.5483290646
 20
0.7623196393
 10
1.5465736471
 20
0.7669481633
 10
1.543986984
 20
0.7727323959
 10
1.541819584
 20
0.7772354037
 10
1.5401955443
 20
0.7818984467
 10
1.5384263381
 20
0.7854127581
 10
1.5223083534
 20
0.817813603
 10
1.4990157061
 20
0.8575153772
 10
1.4955120885
 20
0.8627732346
 10
1.4924588077
 20
0.8666515466
 10
1.4899494444
 20
0.8709936342
 10
1.487278787
 20
0.8738102352
 10
1.4844092422
 20
0.8778479926
 10
1.4822686294
 20
0.8811214609
 10
1.4795368647
 20
0.8838834032
 10
1.4780462942
 20
0.886623708
 10
1.4751034011
 20
0.8899957937
 10
1.4727753246
 20
0.8926302375
 10
1.4687978961
 20
0.8974948978
 10
1.4649151139
 20
0.9024456196
 10
1.4616038223
 20
0.9061030064
 10
1.4570680239
 20
0.9104681656
 10
1.4539909481
 20
0.9143385922
 10
1.4518812052
 20
0.9161529255
 10
1.4506796396
 20
0.9179955425
 10
1.4480208751
 20
0.9208167843
 10
1.4454486634
 20
0.9232273371
 10
1.4440322263
 20
0.9256802685
 10
1.4406047426
 20
0.929229301
 10
1.4375138225
 20
0.9330936237
 10
1.4347529927
 20
0.9358180415
 10
1.4326856319
 20
0.9376644561
 10
1.4314452481
 20
0.9394789923
 10
1.428735668
 20
0.9422511121
 10
1.4259386602
 20
0.9449390975
 10
1.4241692581
 20
0.9474605847
 10
1.4210108201
 20
0.9506306706
 10
1.4186314299
 20
0.9532206012
 10
1.4161364554
 20
0.9556986728
 10
1.41397329
 20
0.9574470132
 10
1.4115181782
 20
0.9599620575
 10
1.4097955539
 20
0.9621415862
 10
1.4062568277
 20
0.9655791993
 10
1.3978636228
 20
0.9730406786
 10
1.3909846102
 20
0.9786114934
 10
1.3746336669
 20
0.9905064
 10
1.361285981
 20
0.9992943232
 10
1.3221918283
 20
1.0239586027
 10
1.3124505488
 20
1.02986106
 10
1.3049158126
 20
1.034619851
 10
1.2978616299
 20
1.0399191331
 10
1.2948776124
 20
1.0423883338
 10
1.2924130717
 20
1.0441876666
 10
1.2903596541
 20
1.0461568792
 10
1.2886900514
 20
1.0476400107
 10
1.2865995582
 20
1.049096414
 10
1.2848704863
 20
1.0509794267
 10
1.2823882701
 20
1.0529724253
 10
1.2802823838
 20
1.0543521478
 10
1.2772737404
 20
1.0577120078
 10
1.2725362656
 20
1.061967628
 10
1.2689955482
 20
1.0655326248
 10
1.2652241678
 20
1.0688189836
 10
1.2624146465
 20
1.071588573
 10
1.2595825356
 20
1.0744326824
 10
1.2569567691
 20
1.0761722894
 10
1.254889474
 20
1.0786041019
 10
1.2532709941
 20
1.0805236753
 10
1.2506529597
 20
1.0822710246
 10
1.2490477239
 20
1.0842093206
 10
1.2456423485
 20
1.0869946698
 10
1.2435948383
 20
1.0894612537
 10
1.2414749651
 20
1.0907510184
 10
1.2384578057
 20
1.0940333872
 10
1.2349605442
 20
1.0967020826
 10
1.2326470544
 20
1.0993588713
 10
1.2277651361
 20
1.1034482042
 10
1.2240541483
 20
1.1068260131
 10
1.2200075875
 20
1.1097635993
 10
1.2170220688
 20
1.1123286331
 10
1.2146506506
 20
1.1139004139
 10
1.2130459572
 20
1.1154805155
 10
1.2108033843
 20
1.116716249
 10
1.2088875039
 20
1.1183882863
 10
1.2064047881
 20
1.1203812851
 10
1.2041944823
 20
1.1215964686
 10
1.2003890364
 20
1.1239541075
 10
1.1972190154
 20
1.1263781874
 10
1.1947823195
 20
1.1283580539
 10
1.1918208669
 20
1.1296153518
 10
1.1899839787
 20
1.1312786648
 10
1.1851494718
 20
1.1341455514
 10
1.1811975837
 20
1.1361800062
 10
1.1764801067
 20
1.1392038287
 10
1.1724333247
 20
1.1410975846
 10
1.1687407298
 20
1.1434928323
 10
1.1655454981
 20
1.1449526152
 10
1.1589383856
 20
1.1479256032
 10
1.1537069983
 20
1.1501956187
 10
1.1493096309
 20
1.1536792656
 10
1.1460247148
 20
1.1566704462
 10
1.1432864565
 20
1.1582158505
 10
1.1415707966
 20
1.1600774426
 10
1.1379405517
 20
1.1625600411
 10
1.1317148608
 20
1.1673797289
 10
1.1265062907
 20
1.1710338676
 10
1.1222001116
 20
1.1735775776
 10
1.118274134
 20
1.1767060947
 10
1.1152401812
 20
1.1792468213
 10
1.1103904287
 20
1.1822015935
 10
1.1068824016
 20
1.1850003425
 10
1.102519003
 20
1.1875846051
 10
1.0980747864
 20
1.1900388425
 10
1.0940067695
 20
1.1930947418
 10
1.0919621228
 20
1.1946078522
 10
1.0896206584
 20
1.195639377
 10
1.0869302484
 20
1.1973325526
 10
1.0849663872
 20
1.198909443
 10
1.0811789346
 20
1.2012657931
 10
1.0789938687
 20
1.2025489728
 10
1.0769537082
 20
1.204073994
 10
1.0746110297
 20
1.2050963019
 10
1.0724841152
 20
1.2064761469
 10
1.0698392406
 20
1.2082481594
 10
1.0675377745
 20
1.2092650892
 10
1.063857437
 20
1.211802139
 10
1.0618302568
 20
1.2133542727
 10
1.0595061095
 20
1.2144012798
 10
1.0573043366
 20
1.2156548736
 10
1.0552406716
 20
1.2171476569
 10
1.0528841152
 20
1.2181357252
 10
1.0507286206
 20
1.2194691168
 10
1.04862181
 20
1.2208895571
 10
1.0462514459
 20
1.2218498901
 10
1.0438277633
 20
1.223327512
 10
1.041977442
 20
1.2245855633
 10
1.0396094152
 20
1.2255461563
 10
1.0375243246
 20
1.2270060949
 10
1.0284119617
 20
1.2314772846
 10
1.026278331
 20
1.232855366
 10
1.0238934414
 20
1.2337780003
 10
1.0214509797
 20
1.2352243168
 10
1.0195771553
 20
1.2364455317
 10
1.01719537
 20
1.2373699149
 10
1.0150870516
 20
1.2387954909
 10
1.0105000646
 20
1.2409660309
 10
1.0076196935
 20
1.2423207714
 10
1.0053026197
 20
1.2432823675
 10
1.0012975923
 20
1.2452467448
 10
0.9966982321
 20
1.2473872129
 10
0.9945921321
 20
1.2488257692
 10
0.9922116192
 20
1.2497412651
 10
0.9885084585
 20
1.2512587725
 10
0.9858282736
 20
1.2528943798
 10
0.982971532
 20
1.2541887124
 10
0.9806987854
 20
1.2551490169
 10
0.9755234132
 20
1.2573105186
 10
0.9715551827
 20
1.2591995977
 10
0.9687154492
 20
1.2605241134
 10
0.9663869482
 20
1.2613686781
 10
0.9623864332
 20
1.2631905912
 10
0.9550674907
 20
1.2660870607
 10
0.9503776718
 20
1.267873705
 10
0.9468830988
 20
1.2696688113
 10
0.9432669059
 20
1.2712136826
 10
0.9403769084
 20
1.2723241752
 10
0.9366531283
 20
1.2736377467
 10
0.9339679618
 20
1.2751784751
 10
0.9308648462
 20
1.2758314611
 10
0.9287937792
 20
1.2771262362
 10
0.9249135078
 20
1.278097029
 10
0.9222234775
 20
1.2796308796
 10
0.9170603078
 20
1.281593329
 10
0.9116067645
 20
1.2829140762
 10
0.9075348865
 20
1.2844140392
 10
0.9040093901
 20
1.2861493365
 10
0.9009121987
 20
1.2867797613
 10
0.8981635278
 20
1.288191606
 10
0.8957028268
 20
1.288619895
 10
0.8929716886
 20
1.2900730003
 10
0.890536612
 20
1.2905549723
 10
0.8865143845
 20
1.2921609133
 10
0.883398894
 20
1.2927273524
 10
0.8812795167
 20
1.2939352098
 10
0.8770134829
 20
1.2949662794
 10
0.872954381
 20
1.2964790831
 10
0.8695823726
 20
1.2972331959
 10
0.8659052596
 20
1.2986143985
 10
0.8630647351
 20
1.2998180652
 10
0.8575785025
 20
1.3009597822
 10
0.8523699531
 20
1.3027725
 10
0.8482454165
 20
1.3041172495
 10
0.8387212062
 20
1.30678348
 10
0.8346602159
 20
1.3082815683
 10
0.8312319727
 20
1.3088492762
 10
0.8259700898
 20
1.3105111517
 10
0.8235244744
 20
1.310901805
 10
0.8216131005
 20
1.3112335009
 10
0.8194607857
 20
1.3123892064
 10
0.8175157976
 20
1.3126298318
 10
0.8141082233
 20
1.313227797
 10
0.8099970607
 20
1.3145844204
 10
0.8065948633
 20
1.3151872242
 10
0.8034079862
 20
1.3163682456
 10
0.8006998298
 20
1.316740012
 10
0.7959289508
 20
1.3182341813
 10
0.7919620509
 20
1.3188008119
 10
0.7882520414
 20
1.320078029
 10
0.7851159252
 20
1.3204586706
 10
0.7782908251
 20
1.3221662879
 10
0.7754266967
 20
1.3233168737
 10
0.7729773188
 20
1.3236448289
 10
0.7661313335
 20
1.3252781141
 10
0.7607657014
 20
1.3265958196
 10
0.7551956191
 20
1.3272900759
 10
0.7510636084
 20
1.3285675105
 10
0.7471074323
 20
1.3290898558
 10
0.7442026218
 20
1.3301225768
 10
0.7385860282
 20
1.3306314831
 10
0.733249079
 20
1.332005945
 10
0.7290567332
 20
1.3330890603
 10
0.7259476978
 20
1.3334686139
 10
0.7234693878
 20
1.3336480017
 10
0.7193081691
 20
1.334823996
 10
0.7116721979
 20
1.3362440254
 10
0.7047626812
 20
1.3375756553
 10
0.7016071743
 20
1.3377625444
 10
0.699352452
 20
1.3386796816
 10
0.6962339153
 20
1.3389856457
 10
0.6937532463
 20
1.3391158976
 10
0.6895670492
 20
1.3401968175
 10
0.6864151849
 20
1.3403689827
 10
0.6841748654
 20
1.3413459795
 10
0.6797480831
 20
1.3415565423
 10
0.6720739685
 20
1.3427468857
 10
0.6666491634
 20
1.3437512957
 10
0.6624589297
 20
1.3448094312
 10
0.6580707368
 20
1.3451109674
 10
0.6547680544
 20
1.3458999019
 10
0.647066181
 20
1.3469256299
 10
0.6437912668
 20
1.3478259893
 10
0.6410661127
 20
1.3479210343
 10
0.6366764802
 20
1.3487248301
 10
0.6331022547
 20
1.3488351052
 10
0.6297308727
 20
1.349781285
 10
0.6269103943
 20
1.3498063453
 10
0.6235150294
 20
1.3506557554
 10
0.620677826
 20
1.3505962546
 10
0.6180628836
 20
1.3514912045
 10
0.6158489239
 20
1.351502683
 10
0.6122905875
 20
1.3516357528
 10
0.6096492913
 20
1.3524188675
 10
0.6047943193
 20
1.353205498
 10
0.6019502818
 20
1.3530727695
 10
0.599915738
 20
1.3538801816
 10
0.5959855502
 20
1.3539535658
 10
0.5925511036
 20
1.3546206774
 10
0.5898255994
 20
1.3550194236
 10
0.5849070589
 20
1.3554756783
 10
0.5822298133
 20
1.356100954
 10
0.5800034781
 20
1.3559920334
 10
0.5762127294
 20
1.35669975
 10
0.5713535289
 20
1.3574285525
 10
0.5675291986
 20
1.3579678534
 10
0.5636000418
 20
1.3579563611
 10
0.5606563455
 20
1.3586922122
 10
0.5556148513
 20
1.3592186617
 10
0.5528610686
 20
1.359886854
 10
0.5505722773
 20
1.3597270579
 10
0.5405254428
 20
1.3609333425
 10
0.5354792414
 20
1.3613958779
 10
0.5304295281
 20
1.361824085
 10
0.5279802876
 20
1.3624912902
 10
0.5254373301
 20
1.3625925504
 10
0.5203789399
 20
1.3629472026
 10
0.5179031202
 20
1.363454211
 10
0.5154370202
 20
1.3640291832
 10
0.5125357111
 20
1.3637778071
 10
0.5103769455
 20
1.3643607872
 10
0.5078323937
 20
1.3644242157
 10
0.5053457039
 20
1.3648640562
 10
0.5002868328
 20
1.3651711513
 10
0.4978210213
 20
1.3657623846
 10
0.4952781877
 20
1.3658183096
 10
0.4927750893
 20
1.3661451085
 10
0.4903095107
 20
1.3667453465
 10
0.4871693224
 20
1.3671612944
 10
0.4846252005
 20
1.3669173476
 10
0.4801969343
 20
1.3673227331
 10
0.4777268163
 20
1.3679028139
 10
0.4752170521
 20
1.3681845385
 10
0.472675496
 20
1.3682088515
 10
0.4701855109
 20
1.3686369906
 10
0.4677034082
 20
1.3691384006
 10
0.4651669954
 20
1.369196159
 10
0.4626437046
 20
1.3693510418
 10
0.4601658136
 20
1.369891274
 10
0.4576569724
 20
1.370175977
 10
0.4551147243
 20
1.3701621025
 10
0.4526156864
 20
1.3705218232
 10
0.4501303631
 20
1.371014679
 10
0.4475971869
 20
1.3710736817
 10
0.445067723
 20
1.3711539154
 10
0.442581883
 20
1.3716462751
 10
0.4400756925
 20
1.3719548619
 10
0.437533759
 20
1.3719075837
 10
0.4350248818
 20
1.3721779168
 10
0.4325367492
 20
1.3726678662
 10
0.4299987222
 20
1.3726460435
 10
0.4250097462
 20
1.3735031808
 10
0.4224783932
 20
1.373529762
 10
0.419984891
 20
1.3739775918
 10
0.4174751049
 20
1.3742536736
 10
0.4149310469
 20
1.3741234839
 10
0.4121735275
 20
1.3750632622
 10
0.4099308344
 20
1.3748887787
 10
0.4071134654
 20
1.3751085527
 10
0.4049274723
 20
1.3756407491
 10
0.4024135572
 20
1.3758575363
 10
0.3999137274
 20
1.3762716417
 10
0.3973797867
 20
1.3762263591
 10
0.3948515816
 20
1.3762428181
 10
0.3920753028
 20
1.3770628837
 10
0.3898401084
 20
1.3769192122
 10
0.3848253962
 20
1.377562488
 10
0.3823238415
 20
1.3779890853
 10
0.3797957371
 20
1.3779914703
 10
0.3697527035
 20
1.3791403184
 10
0.3647328189
 20
1.3797806564
 10
0.3618992303
 20
1.3796790691
 10
0.3597097598
 20
1.3804000644
 10
0.3557415413
 20
1.3805326733
 10
0.3526560771
 20
1.3814177585
 10
0.3495289119
 20
1.3812745709
 10
0.3471034219
 20
1.382000712
 10
0.3439792701
 20
1.381919956
 10
0.3415451793
 20
1.3824581638
 10
0.3371810316
 20
1.3829490438
 10
0.3340563312
 20
1.3827963024
 10
0.3316217675
 20
1.3834430138
 10
0.3272494675
 20
1.383648352
 10
0.3228922151
 20
1.3845952301
 10
0.3194563452
 20
1.3847966118
 10
0.3105749855
 20
1.3856398578
 10
0.3066660508
 20
1.3861007394
 10
0.3035964178
 20
1.3868381153
 10
0.2996840106
 20
1.3868328338
 10
0.2966108707
 20
1.3875599871
 10
0.2935373059
 20
1.3873169842
 10
0.2911205558
 20
1.3878897201
 10
0.2786339911
 20
1.3893367972
 10
0.2688099232
 20
1.3906177298
 10
0.261804223
 20
1.3913935996
 10
0.2563078857
 20
1.3916275949
 10
0.2464616713
 20
1.3929289328
 10
0.2365946703
 20
1.3943898865
 10
0.2322508367
 20
1.3950058352
 10
0.2288624465
 20
1.3949221349
 10
0.2162654801
 20
1.3969156389
 10
0.2131598124
 20
1.3973747084
 10
0.2107197966
 20
1.3977162787
 10
0.2064021415
 20
1.3976585097
 10
0.1886803587
 20
1.4001465632
 10
0.1569592184
 20
1.4040564202
 10
0.1163473322
 20
1.4095200498
 10
0.1099021057
 20
1.4100568061
 10
0.1050650674
 20
1.4112335079
 10
0.0999720437
 20
1.4115285203
 10
0.0959766603
 20
1.4117699789
 10
0.0933394396
 20
1.4127959392
 10
0.0910440094
 20
1.4129380689
 10
0.0882960495
 20
1.4122238581
 10
0.0860074322
 20
1.4125198385
 10
0.0835627918
 20
1.4118187365
 10
0.0810742091
 20
1.4114114367
 10
0.0761484695
 20
1.4102669637
 10
0.0333370679
 20
1.3928489733
 10
0.0147015927
 20
1.3847003118
 10
0.0065428781
 20
1.3810225418
 10
0.0029685963
 20
1.3793524339
 10
0.0013644945
 20
1.3787647021
 10
0.0
 20
1.3787802419
  0
LWPOLYLINE
  5
82
330
1F
100
AcDbEntity
  8
0
  6
Continuous
 62
     7
100
AcDbPolyline
 90
      528
 70
   128
 43
0.0
 10
3.1970945869
 20
0.0
 10
3.1959039908
 20
0.0018604797
 10
3.1950093031
 20
0.0033354097
 10
3.1933747871
 20
0.0059608184
 10
3.1904825706
 20
0.0106638466
 10
3.1853870703
 20
0.0191041993
 10
3.1765085512
 20
0.0343070442
 10
3.1613585426
 20
0.0618532367
 10
3.1365546116
 20
0.1122089902
 10
3.0994265324
 20
0.2052883453
 10
3.0556947591
 20
0.378675787
 10
3.0463474433
 20
0.6972692145
 10
3.1322776641
 20
1.0490916796
 10
3.304945693
 20
1.3676764546
 10
3.6399962797
 20
1.7150214371
 10
4.0585897365
 20
1.9558153579
 10
4.5249324295
 20
2.082057105
 10
5.0080653372
 20
2.0943896957
 10
5.4820364348
 20
1.9992986079
 10
5.925723884
 20
1.8071303333
 10
6.0368568711
 20
1.6680384816
 10
6.1158160852
 20
1.5045111027
 10
6.1819685405
 20
1.3353988108
 10
6.2346493884
 20
1.161619804
 10
6.2971655449
 20
0.8041800094
 10
6.2990969879
 20
0.4413594084
 10
6.2373872455
 20
0.0838689808
 10
6.250824717
 20
-0.0029986587
 10
6.2756936435
 20
-0.0903372003
 10
6.2878710007
 20
-0.1397145611
 10
6.2966126026
 20
-0.1787147027
 10
6.2974727886
 20
-0.1865657228
 10
6.2980723922
 20
-0.1927390426
 10
6.2984955139
 20
-0.1989232436
 10
6.298714703
 20
-0.2037879809
 10
6.2990465768
 20
-0.2148523499
 10
6.2981690461
 20
-0.2235943631
 10
6.2980682687
 20
-0.2306461769
 10
6.2974398916
 20
-0.2362035752
 10
6.2964887844
 20
-0.241677135
 10
6.2954847216
 20
-0.2459102087
 10
6.2932816099
 20
-0.2526101731
 10
6.2917171239
 20
-0.2579188435
 10
6.2902652562
 20
-0.2632593919
 10
6.2883734496
 20
-0.2672444093
 10
6.2864829071
 20
-0.2731584834
 10
6.28446303
 20
-0.2776520265
 10
6.2807959436
 20
-0.2856544622
 10
6.274158077
 20
-0.2999036229
 10
6.2620284829
 20
-0.3252178444
 10
6.239490026
 20
-0.3699892709
 10
6.1964582725
 20
-0.4484685513
 10
6.110854806
 20
-0.5833994346
 10
5.9860970603
 20
-0.7439608847
 10
5.9399327594
 20
-0.8195361247
 10
5.9214757932
 20
-0.8540848073
 10
5.9190650814
 20
-0.8589598507
 10
5.9164665244
 20
-0.8622827323
 10
5.9130110765
 20
-0.8690778265
 10
5.9089404408
 20
-0.8754283545
 10
5.9056027276
 20
-0.8803146834
 10
5.9029890376
 20
-0.8852631631
 10
5.9007611528
 20
-0.8890225315
 10
5.896735359
 20
-0.8957054769
 10
5.8923979241
 20
-0.9021554463
 10
5.8888331738
 20
-0.9071037418
 10
5.8844304443
 20
-0.9135049161
 10
5.8809551169
 20
-0.9185233285
 10
5.8780035119
 20
-0.9239549303
 10
5.8749456185
 20
-0.9276432972
 10
5.8605020002
 20
-0.9477679635
 10
5.8542354992
 20
-0.9567043396
 10
5.8511340148
 20
-0.9603546316
 10
5.8485792618
 20
-0.9631243699
 10
5.8463575831
 20
-0.9669263798
 10
5.8440430365
 20
-0.9694411988
 10
5.8403363052
 20
-0.9742878989
 10
5.8365541959
 20
-0.9790719806
 10
5.8334461643
 20
-0.9827159317
 10
5.8211209395
 20
-0.9977490752
 10
5.8190217229
 20
-1.0004474322
 10
5.8169934355
 20
-1.0022366242
 10
5.8138062358
 20
-1.0058102507
 10
5.8110433356
 20
-1.0097576243
 10
5.8086590827
 20
-1.0126724748
 10
5.8054433983
 20
-1.0162214639
 10
5.8029184716
 20
-1.0190117795
 10
5.7981935124
 20
-1.0237980008
 10
5.7965659552
 20
-1.0260531673
 10
5.7948297103
 20
-1.0274105736
 10
5.7922923243
 20
-1.0303445224
 10
5.7876366746
 20
-1.0354717064
 10
5.7832989999
 20
-1.0408913178
 10
5.7809926409
 20
-1.042908179
 10
5.7796116445
 20
-1.0448927522
 10
5.7769482584
 20
-1.0477124763
 10
5.7746250005
 20
-1.0497115406
 10
5.7710239245
 20
-1.0537939448
 10
5.7687662077
 20
-1.0558521163
 10
5.767375613
 20
-1.0578325012
 10
5.7644009499
 20
-1.0609038103
 10
5.7616146475
 20
-1.0636055711
 10
5.759349334
 20
-1.0656541155
 10
5.7556066157
 20
-1.0696031283
 10
5.7489210884
 20
-1.0766532597
 10
5.7466213415
 20
-1.0786652587
 10
5.745199955
 20
-1.080624097
 10
5.7421773595
 20
-1.0836477625
 10
5.7391327871
 20
-1.0866494549
 10
5.7365687519
 20
-1.0888368113
 10
5.7331324733
 20
-1.0923792713
 10
5.7302848184
 20
-1.095014504
 10
5.7275866643
 20
-1.0977995505
 10
5.7251148352
 20
-1.0996335746
 10
5.7223163502
 20
-1.1023171483
 10
5.7203492688
 20
-1.104661479
 10
5.7162968925
 20
-1.1082985929
 10
5.7114495478
 20
-1.1132458243
 10
5.7090434509
 20
-1.1151397426
 10
5.7075560038
 20
-1.117045123
 10
5.7035013248
 20
-1.1206768303
 10
5.70071086
 20
-1.12394424
 10
5.6955919718
 20
-1.1286074989
 10
5.6935076655
 20
-1.1308378064
 10
5.6915102036
 20
-1.1322077051
 10
5.6894730572
 20
-1.1344879127
 10
5.6876064739
 20
-1.1359969312
 10
5.6844343555
 20
-1.1388616662
 10
5.6773938226
 20
-1.1455544828
 10
5.674196723
 20
-1.1483917348
 10
5.671581105
 20
-1.1505067792
 10
5.6694555264
 20
-1.1527680789
 10
5.6675851456
 20
-1.1543260814
 10
5.6642788635
 20
-1.1571429512
 10
5.6614126604
 20
-1.1604472272
 10
5.6589501053
 20
-1.1628115546
 10
5.6556863201
 20
-1.1656758316
 10
5.6529637066
 20
-1.1677481031
 10
5.6486004635
 20
-1.1720095046
 10
5.6385265086
 20
-1.1815207319
 10
5.6359952182
 20
-1.183809253
 10
5.6337331554
 20
-1.1852906529
 10
5.6319145668
 20
-1.1872856712
 10
5.6300888868
 20
-1.1883926321
 10
5.6272455519
 20
-1.1917464167
 10
5.6245340486
 20
-1.193824177
 10
5.6200894137
 20
-1.1980001256
 10
5.6156268874
 20
-1.2021572463
 10
5.611898044
 20
-1.2051583064
 10
5.6097302894
 20
-1.2078847561
 10
5.6074236036
 20
-1.2093022862
 10
5.6037268372
 20
-1.2123410297
 10
5.6006184671
 20
-1.216095098
 10
5.5975604526
 20
-1.2182953698
 10
5.5946456933
 20
-1.2215898527
 10
5.5918618135
 20
-1.2235728036
 10
5.5872744668
 20
-1.227585558
 10
5.5827070737
 20
-1.2316240892
 10
5.5793507724
 20
-1.23509021
 10
5.5748875644
 20
-1.2392658289
 10
5.5711012213
 20
-1.2421921047
 10
5.5679095921
 20
-1.2458779144
 10
5.5647901883
 20
-1.247991663
 10
5.5624731407
 20
-1.250568533
 10
5.5606406269
 20
-1.2525794291
 10
5.5568689513
 20
-1.2555255248
 10
5.550483797
 20
-1.261242513
 10
5.5471782473
 20
-1.2648027517
 10
5.5440950044
 20
-1.2669582792
 10
5.5393834588
 20
-1.2718655703
 10
5.5290891931
 20
-1.2815635489
 10
5.5207696553
 20
-1.2888823788
 10
5.5062591059
 20
-1.3024594592
 10
5.4881276855
 20
-1.3202886294
 10
5.4743069889
 20
-1.3345677911
 10
5.4547065426
 20
-1.3549395222
 10
5.452438689
 20
-1.3580861261
 10
5.4501453687
 20
-1.3601585912
 10
5.4460634731
 20
-1.3638669077
 10
5.442541322
 20
-1.3680133882
 10
5.4400374806
 20
-1.3714812166
 10
5.4350284952
 20
-1.3763385544
 10
5.4312170474
 20
-1.3802504444
 10
5.4276335877
 20
-1.3843449502
 10
5.4251052317
 20
-1.3877965044
 10
5.4213796157
 20
-1.3917754888
 10
5.4181523908
 20
-1.3946526511
 10
5.4130555307
 20
-1.4003374772
 10
5.4096779612
 20
-1.4039429751
 10
5.4073909152
 20
-1.4070838776
 10
5.4043362746
 20
-1.4095786821
 10
5.4025985953
 20
-1.4120973774
 10
5.3941707763
 20
-1.4211544684
 10
5.385733316
 20
-1.4302002189
 10
5.381950024
 20
-1.4341179708
 10
5.3785918487
 20
-1.4368558911
 10
5.3737515702
 20
-1.4418148415
 10
5.3701023141
 20
-1.4458482822
 10
5.3662654337
 20
-1.4497144723
 10
5.3629194239
 20
-1.4524524467
 10
5.3502420487
 20
-1.464364611
 10
5.3444855329
 20
-1.4697561419
 10
5.3395845314
 20
-1.4736386661
 10
5.3351211538
 20
-1.47792551
 10
5.3312095918
 20
-1.4809124504
 10
5.3157801249
 20
-1.493427904
 10
5.309398156
 20
-1.4982300394
 10
5.3039974426
 20
-1.5012484393
 10
5.29372002
 20
-1.5053699844
 10
5.2834318998
 20
-1.509456418
 10
5.2790849057
 20
-1.5116208741
 10
5.2755870086
 20
-1.5131504444
 10
5.2706902386
 20
-1.5157171787
 10
5.2667101092
 20
-1.5174563017
 10
5.2599738648
 20
-1.5213445101
 10
5.2560174917
 20
-1.5231315013
 10
5.2532073921
 20
-1.5251766403
 10
5.2477774908
 20
-1.5279475124
 10
5.235454377
 20
-1.5342867414
 10
5.2259605777
 20
-1.5396931227
 10
5.2193842655
 20
-1.5439879524
 10
5.2139439483
 20
-1.5467504042
 10
5.2087531712
 20
-1.5500891901
 10
5.2044009611
 20
-1.5520805906
 10
5.1991780189
 20
-1.5553598226
 10
5.1950944653
 20
-1.5579897683
 10
5.19066953
 20
-1.5598130805
 10
5.1871725701
 20
-1.5611976726
 10
5.1798209474
 20
-1.5637022156
 10
5.1740980686
 20
-1.5657972469
 10
5.1636039299
 20
-1.5688509949
 10
5.1445969034
 20
-1.5735760033
 10
5.1100831085
 20
-1.5803078617
 10
4.7485539755
 20
-1.6076501841
 10
4.6916728951
 20
-1.6046886455
 10
4.6666860521
 20
-1.6027444692
 10
4.6557705224
 20
-1.6025072051
 10
4.6509354105
 20
-1.6020024685
 10
4.6472030132
 20
-1.6023598875
 10
4.642823394
 20
-1.6019242052
 10
4.6394285247
 20
-1.6021366941
 10
4.6333442548
 20
-1.6022289106
 10
4.62726652
 20
-1.6023750719
 10
4.6225019469
 20
-1.6026299482
 10
4.6191568468
 20
-1.603545813
 10
4.616523494
 20
-1.6042059567
 10
4.6117854238
 20
-1.604855031
 10
4.6033638087
 20
-1.6067306891
 10
4.5841359789
 20
-1.6097974072
 10
4.5689888636
 20
-1.6116428149
 10
4.5620141942
 20
-1.6124925903
 10
4.5589550333
 20
-1.6132104
 10
4.5565248617
 20
-1.6129023678
 10
4.5534507178
 20
-1.6131392589
 10
4.5510329212
 20
-1.6132640756
 10
4.5486254644
 20
-1.6137925363
 10
4.5467157873
 20
-1.6134630687
 10
4.5435950787
 20
-1.6136659777
 10
4.541143058
 20
-1.6138759924
 10
4.5383476494
 20
-1.6136127273
 10
4.5355602405
 20
-1.6137552967
 10
4.5293055249
 20
-1.613411894
 10
4.5243935398
 20
-1.6133165361
 10
4.520467878
 20
-1.6125784316
 10
4.5173898439
 20
-1.6128006148
 10
4.5118893809
 20
-1.6127572636
 10
4.5020668825
 20
-1.6137424511
 10
4.4950593646
 20
-1.615003032
 10
4.4919815866
 20
-1.6155681168
 10
4.4895417067
 20
-1.6159519461
 10
4.4867571723
 20
-1.6172978243
 10
4.4843028265
 20
-1.6176385931
 10
4.4799727933
 20
-1.6183835063
 10
4.4714243929
 20
-1.6205634419
 10
4.4675209491
 20
-1.6211232477
 10
4.4647565471
 20
-1.622408015
 10
4.4608706583
 20
-1.6230079103
 10
4.4579697852
 20
-1.6239093918
 10
4.4526081468
 20
-1.6249935536
 10
4.4407494157
 20
-1.6283885199
 10
4.4355393324
 20
-1.6299031841
 10
4.4313591314
 20
-1.6308327222
 10
4.4275683105
 20
-1.6316731518
 10
4.4245249738
 20
-1.6321348168
 10
4.4192630225
 20
-1.6334788186
 10
4.4140192354
 20
-1.6348758165
 10
4.4099988879
 20
-1.6362865052
 10
4.4006902563
 20
-1.6389557129
 10
4.3931819939
 20
-1.6404169786
 10
4.3884625403
 20
-1.6417978208
 10
4.3847591807
 20
-1.6429009086
 10
4.3808556293
 20
-1.6433309193
 10
4.3780398396
 20
-1.6445136012
 10
4.3712548562
 20
-1.6458963724
 10
4.3659942186
 20
-1.6472206312
 10
4.3539177389
 20
-1.649797233
 10
4.3485486662
 20
-1.6507258452
 10
4.3442886349
 20
-1.6512951352
 10
4.3406015657
 20
-1.6524613671
 10
4.3375041594
 20
-1.6526339802
 10
4.3322136606
 20
-1.6538351012
 10
4.3266998847
 20
-1.6541828809
 10
4.322589124
 20
-1.6552998679
 10
4.3170680578
 20
-1.6555944667
 10
4.3129561474
 20
-1.6567089101
 10
4.3086274844
 20
-1.6569593892
 10
4.3052139454
 20
-1.6570990563
 10
4.3009553519
 20
-1.6581689841
 10
4.297451552
 20
-1.6583610144
 10
4.2911937038
 20
-1.6586852026
 10
4.2800172597
 20
-1.659210203
 10
4.2600514238
 20
-1.6599607223
 10
4.2348730109
 20
-1.6590694053
 10
4.2285981423
 20
-1.6592160499
 10
4.2238181866
 20
-1.6584466713
 10
4.2151774391
 20
-1.6576716706
 10
4.2101628472
 20
-1.6577590138
 10
4.2063652882
 20
-1.6570476482
 10
4.2024443731
 20
-1.6569919657
 10
4.1994182533
 20
-1.6566562069
 10
4.1955690513
 20
-1.6562097364
 10
4.192479829
 20
-1.6561918258
 10
4.189555161
 20
-1.655327914
 10
4.1871177382
 20
-1.6553589732
 10
4.1802489945
 20
-1.6545189516
 10
4.1748854185
 20
-1.653691998
 10
4.1694944884
 20
-1.6529923265
 10
4.1652082777
 20
-1.6526731435
 10
4.1530007302
 20
-1.6508329938
 10
4.1476703158
 20
-1.6498310051
 10
4.145248353
 20
-1.6497304945
 10
4.1435014654
 20
-1.6489586419
 10
4.1405016532
 20
-1.6484617527
 10
4.1381789327
 20
-1.6479183002
 10
4.133993292
 20
-1.6471173616
 10
4.1296915699
 20
-1.6468068979
 10
4.126473298
 20
-1.6458738397
 10
4.1195682277
 20
-1.6446538637
 10
4.114136563
 20
-1.6437106319
 10
4.1088795999
 20
-1.6420605947
 10
4.104529551
 20
-1.641641716
 10
4.1011489987
 20
-1.6407333233
 10
4.0985655428
 20
-1.6397374033
 10
4.0937858068
 20
-1.6386103893
 10
4.0882979954
 20
-1.6375436029
 10
4.0856500634
 20
-1.6366467375
 10
4.0828869089
 20
-1.6361828031
 10
4.0794925406
 20
-1.6353283524
 10
4.0769228127
 20
-1.6342976613
 10
4.0740951351
 20
-1.6342178372
 10
4.0721151397
 20
-1.6332695004
 10
4.0690638582
 20
-1.6325835133
 10
4.0666619542
 20
-1.6320565994
 10
4.0640589789
 20
-1.6310066561
 10
4.0613477337
 20
-1.6303459587
 10
4.0586061857
 20
-1.6297881359
 10
4.0559951509
 20
-1.6287709737
 10
4.0533435613
 20
-1.6279005902
 10
4.0505886979
 20
-1.6273867039
 10
4.0479356535
 20
-1.626518362
 10
4.0453344168
 20
-1.6254768569
 10
4.0422998633
 20
-1.6247243148
 10
4.0399135094
 20
-1.6241372593
 10
4.0344690998
 20
-1.6228731685
 10
4.0318871353
 20
-1.6217753055
 10
4.0291798319
 20
-1.6210935521
 10
4.0264584242
 20
-1.6204537532
 10
4.0238741075
 20
-1.6193675659
 10
4.021233008
 20
-1.618469848
 10
4.0184904373
 20
-1.6178964588
 10
4.0158619502
 20
-1.6169553364
 10
4.0132804772
 20
-1.6158689746
 10
4.0105605006
 20
-1.6152213726
 10
4.007870251
 20
-1.6144761413
 10
4.005307831
 20
-1.6133334072
 10
4.0026513407
 20
-1.6124864738
 10
3.9999210419
 20
-1.6118641444
 10
3.9973271535
 20
-1.6108217322
 10
3.9947426292
 20
-1.6097552276
 10
3.9920191297
 20
-1.6091098922
 10
3.9893608705
 20
-1.6082641392
 10
3.9868162737
 20
-1.6070804244
 10
3.9835062848
 20
-1.6059501684
 10
3.9809982941
 20
-1.604786495
 10
3.9762921465
 20
-1.6033806988
 10
3.9737545435
 20
-1.6021847803
 10
3.9711155307
 20
-1.6012859765
 10
3.9683998099
 20
-1.6006050574
 10
3.9658266979
 20
-1.5995142975
 10
3.9632679018
 20
-1.5983869484
 10
3.9605619324
 20
-1.5976762969
 10
3.9579148572
 20
-1.5967961685
 10
3.9553927363
 20
-1.5955683086
 10
3.952754632
 20
-1.5946664714
 10
3.9500513535
 20
-1.5939420072
 10
3.9471539325
 20
-1.5927704311
 10
3.9449478517
 20
-1.5916601712
 10
3.9416409033
 20
-1.5905204791
 10
3.9389465104
 20
-1.5898826501
 10
3.9342928928
 20
-1.5883174188
 10
3.931785809
 20
-1.5870636542
 10
3.9291277571
 20
-1.5862121242
 10
3.9264571003
 20
-1.585390336
 10
3.9239470939
 20
-1.5841471614
 10
3.9213831489
 20
-1.5830486116
 10
3.9186885908
 20
-1.5822877955
 10
3.9161071602
 20
-1.5812320412
 10
3.9136149473
 20
-1.5799500338
 10
3.9109706624
 20
-1.5790585739
 10
3.908308195
 20
-1.5782100549
 10
3.9055022945
 20
-1.5768147963
 10
3.9029998492
 20
-1.57646846
 10
3.9001811503
 20
-1.5751073434
 10
3.8979572694
 20
-1.5740639012
 10
3.8952754383
 20
-1.573259966
 10
3.8927365025
 20
-1.5721016463
 10
3.8895792828
 20
-1.5705843044
 10
3.8867816332
 20
-1.5701646504
 10
3.8823121267
 20
-1.568134458
 10
3.879054437
 20
-1.566860802
 10
3.8766047859
 20
-1.5655972223
 10
3.8719981572
 20
-1.5638973157
 10
3.8674252132
 20
-1.5620988162
 10
3.863804161
 20
-1.5607516969
 10
3.8572924537
 20
-1.5584439772
 10
3.8538306849
 20
-1.5567277755
 10
3.8507771777
 20
-1.556139006
 10
3.8480869419
 20
-1.5547235967
 10
3.8459566457
 20
-1.5536513041
 10
3.8421813891
 20
-1.5526398726
 10
3.839556083
 20
-1.5510837003
 10
3.8365108954
 20
-1.5504601634
 10
3.8345006842
 20
-1.5491240031
 10
3.8314469524
 20
-1.5485133433
 10
3.8294389157
 20
-1.5471759547
 10
3.8253088149
 20
-1.5459749846
 10
3.8217134204
 20
-1.5445538854
 10
3.819036928
 20
-1.5431196175
 10
3.8136997044
 20
-1.5417473677
 10
3.8086758281
 20
-1.5397036632
 10
3.8048632821
 20
-1.5378146684
 10
3.7956731876
 20
-1.5346135612
 10
3.7918506668
 20
-1.5327477633
 10
3.7885437719
 20
-1.5318993792
 10
3.7802867809
 20
-1.5288086841
 10
3.7738574664
 20
-1.5262574633
 10
3.7700632768
 20
-1.5252082988
 10
3.7674530599
 20
-1.5236536967
 10
3.7644982753
 20
-1.5227725876
 10
3.7621755284
 20
-1.5220806681
 10
3.7414516467
 20
-1.5142942641
 10
3.7037880184
 20
-1.5013663694
 10
3.6104789773
 20
-1.4268389478
 10
3.5286467499
 20
-1.3376324109
 10
3.4547486364
 20
-1.2417534117
 10
3.4050431511
 20
-1.1657654418
 10
3.3920649768
 20
-1.1438967516
 10
3.3903499762
 20
-1.1408211898
 10
3.3884188651
 20
-1.1389339687
 10
3.3870346569
 20
-1.1365539367
 10
3.3860190941
 20
-1.134620786
 10
3.3830818136
 20
-1.130793857
 10
3.3806065227
 20
-1.1279366118
 10
3.3786418425
 20
-1.1259712475
 10
3.3767848783
 20
-1.1239099912
 10
3.3748562399
 20
-1.1214694083
 10
3.3728255247
 20
-1.1200025802
 10
3.3699643341
 20
-1.1178875373
 10
3.3677184165
 20
-1.1162273808
 10
3.3651547463
 20
-1.1152595078
 10
3.3634240472
 20
-1.1138858816
 10
3.3537553055
 20
-1.1083720854
 10
3.3511520501
 20
-1.1073872707
 10
3.3486253662
 20
-1.1062400595
 10
3.3458766781
 20
-1.1047868535
 10
3.3434236095
 20
-1.1042530709
 10
3.3340212914
 20
-1.1012204833
 10
3.3264039106
 20
-1.0992849461
 10
3.3128294905
 20
-1.0957183381
 10
3.2886859762
 20
-1.0889936896
 10
3.2459011268
 20
-1.0758674708
 10
3.2035725669
 20
-1.0613368535
 10
3.1851027152
 20
-1.0545072303
 10
3.1770041862
 20
-1.0514235394
 10
3.173409041
 20
-1.050109039
 10
3.1710968135
 20
-1.0482804332
 10
3.1665801055
 20
-1.0452375349
 10
3.1645322405
 20
-1.0399382826
 10
3.1604044301
 20
-1.0293632103
 10
3.1524122422
 20
-1.0081121179
 10
3.1374899743
 20
-0.9652271781
 10
3.1120188201
 20
-0.8780722901
 10
3.0795523708
 20
-0.699516356
 10
3.0958521115
 20
-0.3380977132
 10
3.1481377998
 20
-0.1643939678
 10
3.1858337037
 20
-0.0818053268
 10
3.1964709068
 20
-0.0617473998
 10
3.2019489641
 20
-0.0518115055
 10
3.2027513381
 20
-0.050600107
 10
3.2028203756
 20
-0.0492156111
 10
3.2034935594
 20
-0.0478067931
 10
3.204182358
 20
-0.0467385577
 10
3.2041703616
 20
-0.0453337504
 10
3.2048863588
 20
-0.0441049999
 10
3.2055763064
 20
-0.0428705242
 10
3.2056166041
 20
-0.0414774372
 10
3.2062580482
 20
-0.0402318848
 10
3.2063208018
 20
-0.0388436646
 10
3.2075740651
 20
-0.0363475309
 10
3.2079260834
 20
-0.0350315347
 10
3.2082988873
 20
-0.0337201334
 10
3.2081570005
 20
-0.0308708133
 10
3.2080683622
 20
-0.0276921833
 10
3.2080489813
 20
-0.0251807647
 10
3.2073125779
 20
-0.0239850295
 10
3.2071791502
 20
-0.0225982527
 10
3.2070533768
 20
-0.0212092839
 10
3.2063105375
 20
-0.0200142475
 10
3.2064177894
 20
-0.0183823481
 10
3.205927851
 20
-0.0172785761
 10
3.2055325997
 20
-0.0159748611
 10
3.2051061634
 20
-0.0146800981
 10
3.2039963321
 20
-0.0121698356
 10
3.2025543931
 20
-0.0097577423
 10
3.1994953557
 20
-0.0049792797
 10
3.1979872555
 20
-0.0025800627
 10
3.1971543653
 20
-0.0014023055
 10
3.1970958398
 20
0.0
  0
MTEXT
  5
84
330
1F
100
AcDbEntity
  8
0
  6
Continuous
 62
     7
100
AcDbMText
 10
-1.5521391759
 20
-1.7274355292
 30
0.0
 40
0.1903
 41
0.0
 71
     1
 72
     1
  1
SOLIDWORKS Educational Product.
  7
SLDTEXTSTYLE0
 73
     1
 44
1.0
  0
MTEXT
  5
85
330
1F
100
AcDbEntity
  8
0
  6
Continuous
 62
     7
100
AcDbMText
 10
-1.5521391759
 20
-2.0128855292
 30
0.0
 40
0.1903
 41
0.0
 71
     1
 72
     1
  1
For Instructional Use Only.
  7
SLDTEXTSTYLE0
 73
     1
 44
1.0
  0
ENDSEC
  0
SECTION
  2
OBJECTS
  0
DICTIONARY
  5
C
330
0
100
AcDbDictionary
281
     1
  3
ACAD_GROUP
350
D
  3
ACAD_LAYOUT
350
1A
  3
ACAD_MLINESTYLE
350
17
  3
ACAD_PLOTSETTINGS
350
19
  3
ACAD_PLOTSTYLENAME
350
E
  3
ACAD_SCALELIST
350
47
  0
DICTIONARY
  5
D
102
{ACAD_REACTORS
330
C
102
}
330
C
100
AcDbDictionary
281
     1
  0
DICTIONARY
  5
1A
102
{ACAD_REACTORS
330
C
102
}
330
C
100
AcDbDictionary
281
     1
  3
Layout1
350
1E
  3
Layout2
350
26
  3
Model
350
22
  0
DICTIONARY
  5
17
102
{ACAD_REACTORS
330
C
102
}
330
C
100
AcDbDictionary
281
     1
  3
Standard
350
18
  0
DICTIONARY
  5
19
102
{ACAD_REACTORS
330
C
102
}
330
C
100
AcDbDictionary
281
     1
  0
ACDBDICTIONARYWDFLT
  5
E
102
{ACAD_REACTORS
330
C
102
}
330
C
100
AcDbDictionary
281
     1
  3
Normal
350
F
100
AcDbDictionaryWithDefault
340
F
  0
DICTIONARY
  5
47
102
{ACAD_REACTORS
330
C
102
}
330
C
100
AcDbDictionary
281
     1
  3
A0
350
48
  3
A1
350
49
  3
A2
350
4A
  3
A3
350
4B
  3
A4
350
4C
  3
A5
350
4D
  3
A6
350
4E
  3
A7
350
4F
  3
A8
350
50
  3
A9
350
51
  3
B0
350
52
  3
B1
350
53
  3
B2
350
54
  3
B3
350
55
  3
B4
350
56
  3
B5
350
57
  3
B6
350
58
  3
B7
350
59
  3
B8
350
5A
  3
B9
350
5B
  3
C0
350
5C
  3
C1
350
5D
  3
C2
350
5E
  3
C3
350
5F
  3
C4
350
60
  3
C5
350
61
  3
C6
350
62
  3
C7
350
63
  3
C8
350
64
  3
C9
350
65
  3
D0
350
66
  3
D1
350
67
  3
D2
350
68
  0
LAYOUT
  5
1E
102
{ACAD_REACTORS
330
1A
102
}
330
1A
100
AcDbPlotSettings
  1

  2
none_device
  4

  6

 40
0.0
 41
0.0
 42
0.0
 43
0.0
 44
0.0
 45
0.0
 46
0.0
 47
0.0
 48
0.0
 49
0.0
140
0.0
141
0.0
142
1.0
143
1.0
 70
   688
 72
     0
 73
     0
 74
     5
  7

 75
    16
147
1.0
148
0.0
149
0.0
100
AcDbLayout
  1
Layout1
 70
     1
 71
     1
 10
0.0
 20
0.0
 11
12.0
 21
9.0
 12
0.0
 22
0.0
 32
0.0
 14
1.0000000000E+20
 24
1.0000000000E+20
 34
1.0000000000E+20
 15
-1.0000000000E+20
 25
-1.0000000000E+20
 35
-1.0000000000E+20
146
0.0
 13
0.0
 23
0.0
 33
0.0
 16
1.0
 26
0.0
 36
0.0
 17
0.0
 27
1.0
 37
0.0
 76
     0
330
1B
  0
LAYOUT
  5
26
102
{ACAD_REACTORS
330
1A
102
}
330
1A
100
AcDbPlotSettings
  1

  2
none_device
  4

  6

 40
0.0
 41
0.0
 42
0.0
 43
0.0
 44
0.0
 45
0.0
 46
0.0
 47
0.0
 48
0.0
 49
0.0
140
0.0
141
0.0
142
1.0
143
1.0
 70
   688
 72
     0
 73
     0
 74
     5
  7

 75
    16
147
1.0
148
0.0
149
0.0
100
AcDbLayout
  1
Layout2
 70
     1
 71
     2
 10
0.0
 20
0.0
 11
0.0
 21
0.0
 12
0.0
 22
0.0
 32
0.0
 14
0.0
 24
0.0
 34
0.0
 15
0.0
 25
0.0
 35
0.0
146
0.0
 13
0.0
 23
0.0
 33
0.0
 16
1.0
 26
0.0
 36
0.0
 17
0.0
 27
1.0
 37
0.0
 76
     0
330
23
  0
LAYOUT
  5
22
102
{ACAD_REACTORS
330
1A
102
}
330
1A
100
AcDbPlotSettings
  1

  2
none_device
  4
ANSI_A_(11.00_x_8.50_Inches)
  6

 40
6.35
 41
19.05
 42
6.35000508
 43
19.05000254
 44
279.4
 45
215.9
 46
49.730234587
 47
81.7288475996
 48
0.0
 49
0.0
140
0.0
141
0.0
142
1.3870427246
143
1.0
 70
  1696
 72
     0
 73
     0
 74
     0
  7

 75
     0
147
0.5913241897
148
-39.4088153714
149
0.0
100
AcDbLayout
  1
Model
 70
     1
 71
     0
 10
0.0
 20
0.0
 11
12.0
 21
9.0
 12
0.0
 22
0.0
 32
0.0
 14
-1.5521391759
 24
-1.6872951201
 34
0.0
 15
6.2990969879
 25
2.0943896957
 35
0.0
146
0.0
 13
0.0
 23
0.0
 33
0.0
 16
1.0
 26
0.0
 36
0.0
 17
0.0
 27
1.0
 37
0.0
 76
     0
330
1F
331
29
  0
MLINESTYLE
  5
18
102
{ACAD_REACTORS
330
17
102
}
330
17
100
AcDbMlineStyle
  2
Standard
 70
     0
  3

 62
   256
 51
90.0
 52
90.0
 71
     2
 49
0.5
 62
   256
  6
BYLAYER
 49
-0.5
 62
   256
  6
BYLAYER
  0
ACDBPLACEHOLDER
  5
F
102
{ACAD_REACTORS
330
E
102
}
330
E
  0
SCALE
  5
48
102
{ACAD_REACTORS
330
47
102
}
330
47
100
AcDbScale
 70
     0
300
1:1
140
1.0
141
1.0
290
     1
  0
SCALE
  5
49
102
{ACAD_REACTORS
330
47
102
}
330
47
100
AcDbScale
 70
     0
300
1:2
140
1.0
141
2.0
290
     0
  0
SCALE
  5
4A
102
{ACAD_REACTORS
330
47
102
}
330
47
100
AcDbScale
 70
     0
300
1:4
140
1.0
141
4.0
290
     0
  0
SCALE
  5
4B
102
{ACAD_REACTORS
330
47
102
}
330
47
100
AcDbScale
 70
     0
300
1:5
140
1.0
141
5.0
290
     0
  0
SCALE
  5
4C
102
{ACAD_REACTORS
330
47
102
}
330
47
100
AcDbScale
 70
     0
300
1:8
140
1.0
141
8.0
290
     0
  0
SCALE
  5
4D
102
{ACAD_REACTORS
330
47
102
}
330
47
100
AcDbScale
 70
     0
300
1:10
140
1.0
141
10.0
290
     0
  0
SCALE
  5
4E
102
{ACAD_REACTORS
330
47
102
}
330
47
100
AcDbScale
 70
     0
300
1:16
140
1.0
141
16.0
290
     0
  0
SCALE
  5
4F
102
{ACAD_REACTORS
330
47
102
}
330
47
100
AcDbScale
 70
     0
300
1:20
140
1.0
141
20.0
290
     0
  0
SCALE
  5
50
102
{ACAD_REACTORS
330
47
102
}
330
47
100
AcDbScale
 70
     0
300
1:30
140
1.0
141
30.0
290
     0
  0
SCALE
  5
51
102
{ACAD_REACTORS
330
47
102
}
330
47
100
AcDbScale
 70
     0
300
1:40
140
1.0
141
40.0
290
     0
  0
SCALE
  5
52
102
{ACAD_REACTORS
330
47
102
}
330
47
100
AcDbScale
 70
     0
300
1:50
140
1.0
141
50.0
290
     0
  0
SCALE
  5
53
102
{ACAD_REACTORS
330
47
102
}
330
47
100
AcDbScale
 70
     0
300
1:100
140
1.0
141
100.0
290
     0
  0
SCALE
  5
54
102
{ACAD_REACTORS
330
47
102
}
330
47
100
AcDbScale
 70
     0
300
2:1
140
2.0
141
1.0
290
     0
  0
SCALE
  5
55
102
{ACAD_REACTORS
330
47
102
}
330
47
100
AcDbScale
 70
     0
300
4:1
140
4.0
141
1.0
290
     0
  0
SCALE
  5
56
102
{ACAD_REACTORS
330
47
102
}
330
47
100
AcDbScale
 70
     0
300
8:1
140
8.0
141
1.0
290
     0
  0
SCALE
  5
57
102
{ACAD_REACTORS
330
47
102
}
330
47
100
AcDbScale
 70
     0
300
10:1
140
10.0
141
1.0
290
     0
  0
SCALE
  5
58
102
{ACAD_REACTORS
330
47
102
}
330
47
100
AcDbScale
 70
     0
300
100:1
140
100.0
141
1.0
290
     0
  0
SCALE
  5
59
102
{ACAD_REACTORS
330
47
102
}
330
47
100
AcDbScale
 70
     0
300
1/128" = 1'-0"
140
0.0078125
141
12.0
290
     0
  0
SCALE
  5
5A
102
{ACAD_REACTORS
330
47
102
}
330
47
100
AcDbScale
 70
     0
300
1/64" = 1'-0"
140
0.015625
141
12.0
290
     0
  0
SCALE
  5
5B
102
{ACAD_REACTORS
330
47
102
}
330
47
100
AcDbScale
 70
     0
300
1/32" = 1'-0"
140
0.03125
141
12.0
290
     0
  0
SCALE
  5
5C
102
{ACAD_REACTORS
330
47
102
}
330
47
100
AcDbScale
 70
     0
300
1/16" = 1'-0"
140
0.0625
141
12.0
290
     0
  0
SCALE
  5
5D
102
{ACAD_REACTORS
330
47
102
}
330
47
100
AcDbScale
 70
     0
300
3/32" = 1'-0"
140
0.09375
141
12.0
290
     0
  0
SCALE
  5
5E
102
{ACAD_REACTORS
330
47
102
}
330
47
100
AcDbScale
 70
     0
300
1/8" = 1'-0"
140
0.125
141
12.0
290
     0
  0
SCALE
  5
5F
102
{ACAD_REACTORS
330
47
102
}
330
47
100
AcDbScale
 70
     0
300
3/16" = 1'-0"
140
0.1875
141
12.0
290
     0
  0
SCALE
  5
60
102
{ACAD_REACTORS
330
47
102
}
330
47
100
AcDbScale
 70
     0
300
1/4" = 1'-0"
140
0.25
141
12.0
290
     0
  0
SCALE
  5
61
102
{ACAD_REACTORS
330
47
102
}
330
47
100
AcDbScale
 70
     0
300
3/8" = 1'-0"
140
0.375
141
12.0
290
     0
  0
SCALE
  5
62
102
{ACAD_REACTORS
330
47
102
}
330
47
100
AcDbScale
 70
     0
300
1/2" = 1'-0"
140
0.5
141
12.0
290
     0
  0
SCALE
  5
63
102
{ACAD_REACTORS
330
47
102
}
330
47
100
AcDbScale
 70
     0
300
3/4" = 1'-0"
140
0.75
141
12.0
290
     0
  0
SCALE
  5
64
102
{ACAD_REACTORS
330
47
102
}
330
47
100
AcDbScale
 70
     0
300
1" = 1'-0"
140
1.0
141
12.0
290
     0
  0
SCALE
  5
65
102
{ACAD_REACTORS
330
47
102
}
330
47
100
AcDbScale
 70
     0
300
1-1/2" = 1'-0"
140
1.5
141
12.0
290
     0
  0
SCALE
  5
66
102
{ACAD_REACTORS
330
47
102
}
330
47
100
AcDbScale
 70
     0
300
3" = 1'-0"
140
3.0
141
12.0
290
     0
  0
SCALE
  5
67
102
{ACAD_REACTORS
330
47
102
}
330
47
100
AcDbScale
 70
     0
300
6" = 1'-0"
140
6.0
141
12.0
290
     0
  0
SCALE
  5
68
102
{ACAD_REACTORS
330
47
102
}
330
47
100
AcDbScale
 70
     0
300
1'-0" = 1'-0"
140
12.0
141
12.0
290
     0
  0
ENDSEC
  0
EOF
