  0
SECTION
  2
HEADER
  9
$ACADVER
  1
AC1015
  9
$ACADMAINTVER
 70
     6
  9
$DWGCODEPAGE
  3
ANSI_1252
  9
$INSBASE
 10
0.0
 20
0.0
 30
0.0
  9
$EXTMIN
 10
-2.1910861125
 20
-2.8000150512
 30
0.0
  9
$EXTMAX
 10
7.6219032681
 20
2.5304362385
 30
0.0
  9
$LIMMIN
 10
0.0
 20
0.0
  9
$LIMMAX
 10
12.0
 20
9.0
  9
$ORTHOMODE
 70
     0
  9
$REGENMODE
 70
     1
  9
$FILLMODE
 70
     1
  9
$QTEXTMODE
 70
     0
  9
$MIRRTEXT
 70
     1
  9
$LTSCALE
 40
1.0
  9
$ATTMODE
 70
     1
  9
$TEXTSIZE
 40
0.25
  9
$TRACEWID
 40
0.05
  9
$TEXTSTYLE
  7
Standard
  9
$CLAYER
  8
0
  9
$CELTYPE
  6
ByLayer
  9
$CECOLOR
 62
   256
  9
$CELTSCALE
 40
1.0
  9
$DISPSILH
 70
     0
  9
$DIMSCALE
 40
1.0
  9
$DIMASZ
 40
0.236
  9
$DIMEXO
 40
0.039
  9
$DIMDLI
 40
0.38
  9
$DIMRND
 40
0.0
  9
$DIMDLE
 40
0.0
  9
$DIMEXE
 40
0.039
  9
$DIMTP
 40
0.0
  9
$DIMTM
 40
0.0
  9
$DIMTXT
 40
0.25
  9
$DIMCEN
 40
0.09
  9
$DIMTSZ
 40
0.0
  9
$DIMTOL
 70
     0
  9
$DIMLIM
 70
     0
  9
$DIMTIH
 70
     1
  9
$DIMTOH
 70
     1
  9
$DIMSE1
 70
     0
  9
$DIMSE2
 70
     0
  9
$DIMTAD
 70
     1
  9
$DIMZIN
 70
     0
  9
$DIMBLK
  1

  9
$DIMASO
 70
     1
  9
$DIMSHO
 70
     1
  9
$DIMPOST
  1

  9
$DIMAPOST
  1

  9
$DIMALT
 70
     0
  9
$DIMALTD
 70
     2
  9
$DIMALTF
 40
25.4
  9
$DIMLFAC
 40
1.0
  9
$DIMTOFL
 70
     0
  9
$DIMTVP
 40
0.0
  9
$DIMTIX
 70
     0
  9
$DIMSOXD
 70
     0
  9
$DIMSAH
 70
     0
  9
$DIMBLK1
  1

  9
$DIMBLK2
  1

  9
$DIMSTYLE
  2
Standard
  9
$DIMCLRD
 70
     0
  9
$DIMCLRE
 70
     0
  9
$DIMCLRT
 70
     0
  9
$DIMTFAC
 40
1.0
  9
$DIMGAP
 40
0.06
  9
$DIMJUST
 70
     0
  9
$DIMSD1
 70
     0
  9
$DIMSD2
 70
     0
  9
$DIMTOLJ
 70
     1
  9
$DIMTZIN
 70
     0
  9
$DIMALTZ
 70
     0
  9
$DIMALTTZ
 70
     0
  9
$DIMUPT
 70
     0
  9
$DIMDEC
 70
     2
  9
$DIMTDEC
 70
     2
  9
$DIMALTU
 70
     2
  9
$DIMALTTD
 70
     2
  9
$DIMTXSTY
  7
Standard
  9
$DIMAUNIT
 70
     0
  9
$DIMADEC
 70
     2
  9
$DIMALTRND
 40
0.0
  9
$DIMAZIN
 70
     0
  9
$DIMDSEP
 70
    46
  9
$DIMATFIT
 70
     3
  9
$DIMFRAC
 70
     0
  9
$DIMLDRBLK
  1

  9
$DIMLUNIT
 70
     2
  9
$DIMLWD
 70
    -2
  9
$DIMLWE
 70
    -2
  9
$DIMTMOVE
 70
     0
  9
$LUNITS
 70
     2
  9
$LUPREC
 70
     2
  9
$SKETCHINC
 40
0.1
  9
$FILLETRAD
 40
0.5
  9
$AUNITS
 70
     0
  9
$AUPREC
 70
     2
  9
$MENU
  1
.
  9
$ELEVATION
 40
0.0
  9
$PELEVATION
 40
0.0
  9
$THICKNESS
 40
0.0
  9
$LIMCHECK
 70
     0
  9
$CHAMFERA
 40
0.0
  9
$CHAMFERB
 40
0.0
  9
$CHAMFERC
 40
0.0
  9
$CHAMFERD
 40
0.0
  9
$SKPOLY
 70
     0
  9
$TDCREATE
 40
2458242.521303785
  9
$TDUCREATE
 40
2458242.729637118
  9
$TDUPDATE
 40
2458242.521652176
  9
$TDUUPDATE
 40
2458242.729985509
  9
$TDINDWG
 40
0.0000000116
  9
$TDUSRTIMER
 40
0.0000000116
  9
$USRTIMER
 70
     1
  9
$ANGBASE
 50
0.0
  9
$ANGDIR
 70
     0
  9
$PDMODE
 70
     0
  9
$PDSIZE
 40
-1.0
  9
$PLINEWID
 40
0.0
  9
$SPLFRAME
 70
     0
  9
$SPLINETYPE
 70
     6
  9
$SPLINESEGS
 70
     8
  9
$HANDSEED
  5
86
  9
$SURFTAB1
 70
     6
  9
$SURFTAB2
 70
     6
  9
$SURFTYPE
 70
     6
  9
$SURFU
 70
     6
  9
$SURFV
 70
     6
  9
$UCSBASE
  2

  9
$UCSNAME
  2

  9
$UCSORG
 10
0.0
 20
0.0
 30
0.0
  9
$UCSXDIR
 10
1.0
 20
0.0
 30
0.0
  9
$UCSYDIR
 10
0.0
 20
1.0
 30
0.0
  9
$UCSORTHOREF
  2

  9
$UCSORTHOVIEW
 70
     0
  9
$UCSORGTOP
 10
0.0
 20
0.0
 30
0.0
  9
$UCSORGBOTTOM
 10
0.0
 20
0.0
 30
0.0
  9
$UCSORGLEFT
 10
0.0
 20
0.0
 30
0.0
  9
$UCSORGRIGHT
 10
0.0
 20
0.0
 30
0.0
  9
$UCSORGFRONT
 10
0.0
 20
0.0
 30
0.0
  9
$UCSORGBACK
 10
0.0
 20
0.0
 30
0.0
  9
$PUCSBASE
  2

  9
$PUCSNAME
  2

  9
$PUCSORG
 10
0.0
 20
0.0
 30
0.0
  9
$PUCSXDIR
 10
1.0
 20
0.0
 30
0.0
  9
$PUCSYDIR
 10
0.0
 20
1.0
 30
0.0
  9
$PUCSORTHOREF
  2

  9
$PUCSORTHOVIEW
 70
     0
  9
$PUCSORGTOP
 10
0.0
 20
0.0
 30
0.0
  9
$PUCSORGBOTTOM
 10
0.0
 20
0.0
 30
0.0
  9
$PUCSORGLEFT
 10
0.0
 20
0.0
 30
0.0
  9
$PUCSORGRIGHT
 10
0.0
 20
0.0
 30
0.0
  9
$PUCSORGFRONT
 10
0.0
 20
0.0
 30
0.0
  9
$PUCSORGBACK
 10
0.0
 20
0.0
 30
0.0
  9
$USERI1
 70
     0
  9
$USERI2
 70
     0
  9
$USERI3
 70
     0
  9
$USERI4
 70
     0
  9
$USERI5
 70
     0
  9
$USERR1
 40
0.0
  9
$USERR2
 40
0.0
  9
$USERR3
 40
0.0
  9
$USERR4
 40
0.0
  9
$USERR5
 40
0.0
  9
$WORLDVIEW
 70
     1
  9
$SHADEDGE
 70
     3
  9
$SHADEDIF
 70
    70
  9
$TILEMODE
 70
     1
  9
$MAXACTVP
 70
    64
  9
$PINSBASE
 10
0.0
 20
0.0
 30
0.0
  9
$PLIMCHECK
 70
     0
  9
$PEXTMIN
 10
1.0000000000E+20
 20
1.0000000000E+20
 30
1.0000000000E+20
  9
$PEXTMAX
 10
-1.0000000000E+20
 20
-1.0000000000E+20
 30
-1.0000000000E+20
  9
$PLIMMIN
 10
0.0
 20
0.0
  9
$PLIMMAX
 10
12.0
 20
9.0
  9
$UNITMODE
 70
     0
  9
$VISRETAIN
 70
     1
  9
$PLINEGEN
 70
     0
  9
$PSLTSCALE
 70
     1
  9
$TREEDEPTH
 70
  3020
  9
$CMLSTYLE
  2
Standard
  9
$CMLJUST
 70
     0
  9
$CMLSCALE
 40
1.0
  9
$PROXYGRAPHICS
 70
     1
  9
$MEASUREMENT
 70
     0
  9
$CELWEIGHT
370
    -1
  9
$ENDCAPS
280
     0
  9
$JOINSTYLE
280
     0
  9
$LWDISPLAY
290
     1
  9
$INSUNITS
 70
     1
  9
$HYPERLINKBASE
  1

  9
$STYLESHEET
  1

  9
$XEDIT
290
     1
  9
$CEPSNTYPE
380
     0
  9
$PSTYLEMODE
290
     1
  9
$FINGERPRINTGUID
  2
{AB6A9702-97C1-4CEE-BB1E-0B2E7EE00CA9}
  9
$VERSIONGUID
  2
{FAEB1C32-E019-11D5-929B-00C0DF256EC4}
  9
$EXTNAMES
290
     1
  9
$PSVPSCALE
 40
0.0
  9
$OLESTARTUP
290
     0
  0
ENDSEC
  0
SECTION
  2
CLASSES
  0
CLASS
  1
ACDBDICTIONARYWDFLT
  2
AcDbDictionaryWithDefault
  3
ObjectDBX Classes
 90
        0
280
     0
281
     0
  0
CLASS
  1
VISUALSTYLE
  2
AcDbVisualStyle
  3
ObjectDBX Classes
 90
     4095
280
     0
281
     0
  0
CLASS
  1
MATERIAL
  2
AcDbMaterial
  3
ObjectDBX Classes
 90
     1153
280
     0
281
     0
  0
CLASS
  1
SCALE
  2
AcDbScale
  3
ObjectDBX Classes
 90
     1153
280
     0
281
     0
  0
CLASS
  1
TABLESTYLE
  2
AcDbTableStyle
  3
ObjectDBX Classes
 90
     4095
280
     0
281
     0
  0
CLASS
  1
MLEADERSTYLE
  2
AcDbMLeaderStyle
  3
ACDB_MLEADERSTYLE_CLASS
 90
     4095
280
     0
281
     0
  0
CLASS
  1
SUN
  2
AcDbSun
  3
SCENEOE
 90
     1153
280
     0
281
     0
  0
CLASS
  1
ACDBPLACEHOLDER
  2
AcDbPlaceHolder
  3
ObjectDBX Classes
 90
        0
280
     0
281
     0
  0
CLASS
  1
LAYOUT
  2
AcDbLayout
  3
ObjectDBX Classes
 90
        0
280
     0
281
     0
  0
ENDSEC
  0
SECTION
  2
TABLES
  0
TABLE
  2
VPORT
  5
8
330
0
100
AcDbSymbolTable
 70
     1
  0
VPORT
  5
29
330
8
100
AcDbSymbolTableRecord
100
AcDbViewportTableRecord
  2
*Active
 70
     0
 10
0.0
 20
0.0
 11
1.0
 21
1.0
 12
2.7154085778
 22
-0.1347894063
 13
0.0
 23
0.0
 14
0.5
 24
0.5
 15
0.5
 25
0.5
 16
0.0
 26
0.0
 36
1.0
 17
0.0
 27
0.0
 37
0.0
 40
5.4370603155
 41
1.8409303166
 42
50.0
 43
0.0
 44
0.0
 50
0.0
 51
0.0
 71
     0
 72
   100
 73
     1
 74
     3
 75
     0
 76
     0
 77
     0
 78
     0
281
     0
 65
     1
110
0.0
120
0.0
130
0.0
111
1.0
121
0.0
131
0.0
112
0.0
122
1.0
132
0.0
 79
     0
146
0.0
  0
ENDTAB
  0
TABLE
  2
LTYPE
  5
5
330
0
100
AcDbSymbolTable
 70
     6
  0
LTYPE
  5
14
330
5
100
AcDbSymbolTableRecord
100
AcDbLinetypeTableRecord
  2
ByBlock
 70
     0
  3

 72
    65
 73
     0
 40
0.0
  0
LTYPE
  5
15
330
5
100
AcDbSymbolTableRecord
100
AcDbLinetypeTableRecord
  2
ByLayer
 70
     0
  3

 72
    65
 73
     0
 40
0.0
  0
LTYPE
  5
16
330
5
100
AcDbSymbolTableRecord
100
AcDbLinetypeTableRecord
  2
Continuous
 70
     0
  3
Solid line
 72
    65
 73
     0
 40
0.0
  0
LTYPE
  5
6E
330
5
100
AcDbSymbolTableRecord
100
AcDbLinetypeTableRecord
  2
HIDDEN
 70
     0
  3
Hidden __ __ __ __ __ __ __ __ __ __ __ __ __ __
 72
    65
 73
     2
 40
0.075
 49
0.05
 74
     0
 49
-0.025
 74
     0
  0
LTYPE
  5
6F
330
5
100
AcDbSymbolTableRecord
100
AcDbLinetypeTableRecord
  2
PHANTOM
 70
     0
  3
Phantom ______  __  __  ______  __  __  ______
 72
    65
 73
     6
 40
0.5
 49
0.25
 74
     0
 49
-0.05
 74
     0
 49
0.05
 74
     0
 49
-0.05
 74
     0
 49
0.05
 74
     0
 49
-0.05
 74
     0
  0
LTYPE
  5
70
330
5
100
AcDbSymbolTableRecord
100
AcDbLinetypeTableRecord
  2
CENTER
 70
     0
  3
Center ____ _ ____ _ ____ _ ____ _ ____ _ ____
 72
    65
 73
     4
 40
0.4
 49
0.25
 74
     0
 49
-0.05
 74
     0
 49
0.05
 74
     0
 49
-0.05
 74
     0
  0
LTYPE
  5
71
330
5
100
AcDbSymbolTableRecord
100
AcDbLinetypeTableRecord
  2
CENTERX2
 70
     0
  3
Center (2x) ________  __  ________  __  _____
 72
    65
 73
     4
 40
0.8
 49
0.5
 74
     0
 49
-0.1
 74
     0
 49
0.1
 74
     0
 49
-0.1
 74
     0
  0
LTYPE
  5
72
330
5
100
AcDbSymbolTableRecord
100
AcDbLinetypeTableRecord
  2
DOT2
 70
     0
  3
Dot (.5x) ........................................
 72
    65
 73
     2
 40
0.025
 49
0.0
 74
     0
 49
-0.025
 74
     0
  0
ENDTAB
  0
TABLE
  2
LAYER
  5
2
330
0
100
AcDbSymbolTable
 70
     1
  0
LAYER
  5
10
330
2
100
AcDbSymbolTableRecord
100
AcDbLayerTableRecord
  2
0
 70
     0
 62
     7
  6
Continuous
370
    -3
390
F
  0
ENDTAB
  0
TABLE
  2
STYLE
  5
3
330
0
100
AcDbSymbolTable
 70
     2
  0
STYLE
  5
11
330
3
100
AcDbSymbolTableRecord
100
AcDbTextStyleTableRecord
  2
Standard
 70
     0
 40
0.0
 41
1.0
 50
0.0
 71
     0
 42
0.25
  3
txt
  4

  0
STYLE
  5
83
330
3
100
AcDbSymbolTableRecord
100
AcDbTextStyleTableRecord
  2
SLDTEXTSTYLE0
 70
     0
 40
0.0
 41
0.7
 50
0.0
 71
     0
 42
0.25
  3
TXT
  4

  0
ENDTAB
  0
TABLE
  2
VIEW
  5
6
330
0
100
AcDbSymbolTable
 70
     0
  0
ENDTAB
  0
TABLE
  2
UCS
  5
7
330
0
100
AcDbSymbolTable
 70
     0
  0
ENDTAB
  0
TABLE
  2
APPID
  5
9
330
0
100
AcDbSymbolTable
 70
     1
  0
APPID
  5
12
330
9
100
AcDbSymbolTableRecord
100
AcDbRegAppTableRecord
  2
ACAD
 70
     0
  0
ENDTAB
  0
TABLE
  2
DIMSTYLE
  5
A
330
0
100
AcDbSymbolTable
 70
     1
100
AcDbDimStyleTable
  0
DIMSTYLE
105
27
330
A
100
AcDbSymbolTableRecord
100
AcDbDimStyleTableRecord
  2
Standard
 70
     0
178
     0
340
11
  0
ENDTAB
  0
TABLE
  2
BLOCK_RECORD
  5
1
330
0
100
AcDbSymbolTable
 70
     1
  0
BLOCK_RECORD
  5
1F
330
1
100
AcDbSymbolTableRecord
100
AcDbBlockTableRecord
  2
*Model_Space
340
22
  0
BLOCK_RECORD
  5
1B
330
1
100
AcDbSymbolTableRecord
100
AcDbBlockTableRecord
  2
*Paper_Space
340
1E
  0
BLOCK_RECORD
  5
23
330
1
100
AcDbSymbolTableRecord
100
AcDbBlockTableRecord
  2
*Paper_Space0
340
26
  0
ENDTAB
  0
ENDSEC
  0
SECTION
  2
BLOCKS
  0
BLOCK
  5
20
330
1F
100
AcDbEntity
  8
0
100
AcDbBlockBegin
  2
*Model_Space
 70
     0
 10
0.0
 20
0.0
 30
0.0
  3
*Model_Space
  1

  0
ENDBLK
  5
21
330
1F
100
AcDbEntity
  8
0
100
AcDbBlockEnd
  0
BLOCK
  5
1C
330
1B
100
AcDbEntity
 67
     1
  8
0
100
AcDbBlockBegin
  2
*Paper_Space
 70
     0
 10
0.0
 20
0.0
 30
0.0
  3
*Paper_Space
  1

  0
ENDBLK
  5
1D
330
1B
100
AcDbEntity
 67
     1
  8
0
100
AcDbBlockEnd
  0
BLOCK
  5
24
330
23
100
AcDbEntity
  8
0
100
AcDbBlockBegin
  2
*Paper_Space0
 70
     0
 10
0.0
 20
0.0
 30
0.0
  3
*Paper_Space0
  1

  0
ENDBLK
  5
25
330
23
100
AcDbEntity
  8
0
100
AcDbBlockEnd
  0
ENDSEC
  0
SECTION
  2
ENTITIES
  0
CIRCLE
  5
73
330
1F
100
AcDbEntity
  8
0
  6
Continuous
 62
     7
100
AcDbCircle
 10
0.0
 20
0.0
 30
0.0
 40
0.25
  0
CIRCLE
  5
74
330
1F
100
AcDbEntity
  8
0
  6
Continuous
 62
     7
100
AcDbCircle
 10
0.76
 20
0.0
 30
0.0
 40
0.1000000000000001
  0
CIRCLE
  5
75
330
1F
100
AcDbEntity
  8
0
  6
Continuous
 62
     7
100
AcDbCircle
 10
-0.38
 20
0.6581793069
 30
0.0
 40
0.1
  0
CIRCLE
  5
76
330
1F
100
AcDbEntity
  8
0
  6
Continuous
 62
     7
100
AcDbCircle
 10
-0.38
 20
-0.6581793069
 30
0.0
 40
0.1
  0
CIRCLE
  5
77
330
1F
100
AcDbEntity
  8
0
  6
Continuous
 62
     7
100
AcDbCircle
 10
0.51
 20
0.0
 30
0.0
 40
0.05
  0
CIRCLE
  5
78
330
1F
100
AcDbEntity
  8
0
  6
Continuous
 62
     7
100
AcDbCircle
 10
5.3717726197
 20
-0.6581793069
 30
0.0
 40
0.1000000000000001
  0
CIRCLE
  5
79
330
1F
100
AcDbEntity
  8
0
  6
Continuous
 62
     7
100
AcDbCircle
 10
5.3717726197
 20
0.6581793069
 30
0.0
 40
0.1
  0
CIRCLE
  5
7A
330
1F
100
AcDbEntity
  8
0
  6
Continuous
 62
     7
100
AcDbCircle
 10
4.2317726197
 20
0.0
 30
0.0
 40
0.0999999999999991
  0
CIRCLE
  5
7B
330
1F
100
AcDbEntity
  8
0
  6
Continuous
 62
     7
100
AcDbCircle
 10
4.4817726197
 20
0.0
 30
0.0
 40
0.05
  0
CIRCLE
  5
7C
330
1F
100
AcDbEntity
  8
0
  6
Continuous
 62
     7
100
AcDbCircle
 10
4.9917726197
 20
0.0
 30
0.0
 40
0.250000000000001
  0
LWPOLYLINE
  5
81
330
1F
100
AcDbEntity
  8
0
  6
Continuous
 62
     7
100
AcDbPolyline
 90
       49
 70
   128
 43
0.0
 10
0.0
 20
1.9149253731
 10
-0.0087969391
 20
1.9118728065
 10
-0.0157051358
 20
1.9094866718
 10
-0.0280103696
 20
1.9051167668
 10
-0.0499043426
 20
1.897091314
 10
-0.088737023
 20
1.8820618301
 10
-0.1571756205
 20
1.8530014695
 10
-0.2761221326
 20
1.7940566026
 10
-0.4758722031
 20
1.6666612652
 10
-0.7785615678
 20
1.3724288597
 10
-0.8485810035
 20
1.2746619986
 10
-0.880490526
 20
1.2236860156
 10
-0.8881246917
 20
1.2107318704
 10
-0.8928480995
 20
1.2050303588
 10
-0.9001389544
 20
1.2032252918
 10
-0.9293203678
 20
1.1959692538
 10
-1.1561920688
 20
1.1167389359
 10
-1.5599670435
 20
0.8583775711
 10
-1.8752277869
 20
0.4968436911
 10
-2.0872961395
 20
0.0663298606
 10
-2.1910861125
 20
-0.4023967645
 10
-2.188218181
 20
-0.8825976829
 10
-2.0849678845
 20
-1.3516803695
 10
-1.890765115
 20
-1.7910705868
 10
-1.716372271
 20
-2.0600429068
 10
-1.5103464098
 20
-2.3056441205
 10
-1.259793851
 20
-2.5007123796
 10
-0.658933712
 20
-2.7214792514
 10
-0.0236361073
 20
-2.8000150512
 10
0.6128967773
 20
-2.7322153086
 10
1.2173981976
 20
-2.5216234019
 10
1.7582754508
 20
-2.179245372
 10
2.2072609866
 20
-1.722974721
 10
2.5408897377
 20
-1.176657254
 10
2.7417254605
 20
-0.5688448398
 10
2.7992719955
 20
0.0686967781
 10
2.7463008592
 20
0.5463284865
 10
2.5200887145
 20
0.9680633334
 10
2.2117060786
 20
1.3364837042
 10
1.8389045933
 20
1.6394440387
 10
1.4131286213
 20
1.8617020223
 10
0.9501186913
 20
1.9889956409
 10
0.4129887236
 20
2.0038432807
 10
0.179316872
 20
1.9644910044
 10
0.0784131093
 20
1.9380300049
 10
0.0345160934
 20
1.9246063627
 10
0.0153102571
 20
1.9183526471
 10
0.0069123372
 20
1.9153479302
 10
0.0
 20
1.9149253731
  0
LWPOLYLINE
  5
82
330
1F
100
AcDbEntity
  8
0
  6
Continuous
 62
     7
100
AcDbPolyline
 90
      670
 70
   128
 43
0.0
 10
3.0820130363
 20
0.0
 10
3.080018867
 20
0.011688998
 10
3.07693423
 20
0.0206357388
 10
3.0754542539
 20
0.0298392672
 10
3.0749534118
 20
0.0371681099
 10
3.0712142921
 20
0.0534488927
 10
3.0709203175
 20
0.0607973256
 10
3.0693185085
 20
0.0663895128
 10
3.0682232201
 20
0.0756473826
 10
3.0665695407
 20
0.0828207955
 10
3.0655215407
 20
0.0958642287
 10
3.0640014817
 20
0.1088520119
 10
3.0615699893
 20
0.1189266914
 10
3.058267286
 20
0.1484768699
 10
3.0561680394
 20
0.1717368914
 10
3.0545751411
 20
0.1847329493
 10
3.0538824034
 20
0.1949847277
 10
3.0532362736
 20
0.2052397266
 10
3.0512338519
 20
0.2132194151
 10
3.050529479
 20
0.2250673508
 10
3.0503427476
 20
0.2343930174
 10
3.0484700781
 20
0.2509884604
 10
3.0485379238
 20
0.2603207407
 10
3.0487466653
 20
0.2676524515
 10
3.0483530022
 20
0.2807284866
 10
3.0468361775
 20
0.2973591001
 10
3.0463166464
 20
0.3104408898
 10
3.0460101492
 20
0.3338055979
 10
3.0449325505
 20
0.350478901
 10
3.0457776103
 20
0.3577899525
 10
3.0450458274
 20
0.3635667584
 10
3.045749192
 20
0.3708803052
 10
3.0457386139
 20
0.3766387591
 10
3.0450904007
 20
0.3869526728
 10
3.0453327931
 20
0.4000419716
 10
3.045826023
 20
0.4103147818
 10
3.0459967638
 20
0.4286968023
 10
3.0467587349
 20
0.4498970758
 10
3.047702433
 20
0.4591800944
 10
3.0475947538
 20
0.4665375782
 10
3.0480937395
 20
0.4758585789
 10
3.0493926361
 20
0.4831058906
 10
3.0497671308
 20
0.4962092273
 10
3.0503503155
 20
0.5055231909
 10
3.0504963179
 20
0.5128770614
 10
3.0512573029
 20
0.525963082
 10
3.0524196384
 20
0.5390068856
 10
3.0536752526
 20
0.5492175849
 10
3.0546427499
 20
0.5658909302
 10
3.0564082675
 20
0.5788645269
 10
3.0572861917
 20
0.5919646232
 10
3.059007169
 20
0.6021114602
 10
3.0605569692
 20
0.6151186481
 10
3.0623142893
 20
0.6252577503
 10
3.0642611486
 20
0.6435519744
 10
3.0675371732
 20
0.6645158241
 10
3.0698574698
 20
0.6810336469
 10
3.0721967795
 20
0.6975584576
 10
3.0751181958
 20
0.71032864
 10
3.0783796551
 20
0.7266747976
 10
3.080593944
 20
0.7395900144
 10
3.0830860326
 20
0.7524511851
 10
3.0856097883
 20
0.7624279536
 10
3.0883464321
 20
0.7789035453
 10
3.0909695969
 20
0.7917443257
 10
3.093797795
 20
0.8045389827
 10
3.0963883621
 20
0.8144967035
 10
3.0996371884
 20
0.8271838825
 10
3.1007215421
 20
0.8375460095
 10
3.1033170879
 20
0.8475084107
 10
3.105920656
 20
0.8551800865
 10
3.1118045706
 20
0.8782118926
 10
3.114575129
 20
0.888295498
 10
3.1163662451
 20
0.8963378318
 10
3.1193991589
 20
0.9063482542
 10
3.1213640184
 20
0.9143397211
 10
3.1261318275
 20
0.9282210318
 10
3.1293139535
 20
0.938180548
 10
3.1304980816
 20
0.9464407191
 10
3.1335953241
 20
0.9540692183
 10
3.1348423688
 20
0.960461899
 10
3.1380703119
 20
0.9680449426
 10
3.1387868219
 20
0.9746268106
 10
3.1426455418
 20
0.9854945848
 10
3.146275175
 20
0.9953059618
 10
3.1495394374
 20
1.0028632944
 10
3.1535402343
 20
1.0170222049
 10
3.1586784427
 20
1.0307692752
 10
3.1628478455
 20
1.0415180965
 10
3.1673524774
 20
1.0555079625
 10
3.1715642379
 20
1.0662408827
 10
3.1758415884
 20
1.0769479944
 10
3.1777461031
 20
1.0859580796
 10
3.185507121
 20
1.1029612361
 10
3.1901047504
 20
1.1169534518
 10
3.1962450134
 20
1.1302898963
 10
3.2008955705
 20
1.1408414876
 10
3.2059005366
 20
1.1546797032
 10
3.2106404319
 20
1.1651931928
 10
3.2182454373
 20
1.1843758309
 10
3.237777657
 20
1.2269306733
 10
3.2464872782
 20
1.2456132728
 10
3.2505702845
 20
1.2537033275
 10
3.2532372504
 20
1.2603441464
 10
3.2594747195
 20
1.2721130414
 10
3.2642565587
 20
1.2814253526
 10
3.2692028947
 20
1.2906507186
 10
3.2736533721
 20
1.2975916255
 10
3.2814241237
 20
1.3146500771
 10
3.286041634
 20
1.3214879805
 10
3.2884777939
 20
1.3275314367
 10
3.2936285986
 20
1.3366451645
 10
3.2983745025
 20
1.3434022133
 10
3.3050111002
 20
1.3565248757
 10
3.3123781273
 20
1.3692272067
 10
3.3172079953
 20
1.3797816815
 10
3.3341201937
 20
1.4085710578
 10
3.3477570476
 20
1.4309783655
 10
3.3552765555
 20
1.4436078861
 10
3.3617209182
 20
1.4531806162
 10
3.368087717
 20
1.4628031956
 10
3.3728992061
 20
1.4704910799
 10
3.3828519899
 20
1.4863262624
 10
3.3911306177
 20
1.4984580174
 10
3.3988528017
 20
1.5109768707
 10
3.4054696241
 20
1.5204309435
 10
3.4140225917
 20
1.5323720549
 10
3.4196226924
 20
1.5425684605
 10
3.4317410748
 20
1.5592463864
 10
3.4473073727
 20
1.5803643119
 10
3.4586306182
 20
1.5976672777
 10
3.4719258501
 20
1.6134353303
 10
3.481502652
 20
1.6265153288
 10
3.4897277645
 20
1.6370020568
 10
3.4963979126
 20
1.6450712969
 10
3.5028759524
 20
1.6533010807
 10
3.5075939799
 20
1.6600836151
 10
3.5191467314
 20
1.6748045383
 10
3.5290673966
 20
1.6856534153
 10
3.5408376669
 20
1.7002000755
 10
3.5505905334
 20
1.7111892364
 10
3.5673158674
 20
1.731431082
 10
3.5797555527
 20
1.745402593
 10
3.5894363681
 20
1.7564665729
 10
3.6073683619
 20
1.7756245793
 10
3.617159132
 20
1.7865967561
 10
3.6252222307
 20
1.7948595506
 10
3.6332785417
 20
1.8031303559
 10
3.6387927895
 20
1.8104509566
 10
3.6520416321
 20
1.8236556062
 10
3.6617318752
 20
1.8347797934
 10
3.672459926
 20
1.8448295879
 10
3.6807431499
 20
1.8528810828
 10
3.6908692978
 20
1.863578683
 10
3.6995248946
 20
1.8712319511
 10
3.7150213778
 20
1.8848418232
 10
3.7249992155
 20
1.8957283409
 10
3.7334892173
 20
1.9035641022
 10
3.748755069
 20
1.9174393476
 10
3.7573608296
 20
1.9251450637
 10
3.7639651526
 20
1.9313894651
 10
3.7713134655
 20
1.9367574368
 10
3.7758119412
 20
1.9424863441
 10
3.7943068622
 20
1.9574937351
 10
3.8080662077
 20
1.9702336283
 10
3.8229308468
 20
1.9816045792
 10
3.8346211158
 20
1.990522718
 10
3.8488224138
 20
2.0027361386
 10
3.86039558
 20
2.0118030485
 10
3.871639241
 20
2.0213042188
 10
3.880793869
 20
2.0283498297
 10
3.8956741867
 20
2.0397035753
 10
3.9073028125
 20
2.0487094658
 10
3.9190355534
 20
2.0575805403
 10
3.9286395284
 20
2.0640066759
 10
3.9495146415
 20
2.079968575
 10
3.9663510596
 20
2.091905434
 10
4.0154437549
 20
2.1258681691
 10
4.0372834965
 20
2.1404667495
 10
4.0469805921
 20
2.1467550702
 10
4.0544946161
 20
2.1518758956
 10
4.0668396216
 20
2.1598912529
 10
4.076939727
 20
2.1655155052
 10
4.0869086689
 20
2.1713558813
 10
4.094455363
 20
2.176435836
 10
4.112103519
 20
2.1871420556
 10
4.1262562013
 20
2.1950538178
 10
4.1372563727
 20
2.2027192587
 10
4.1462619808
 20
2.2081031907
 10
4.1555375955
 20
2.2129967372
 10
4.1631100452
 20
2.2163062236
 10
4.1715541269
 20
2.2227523723
 10
4.1792080372
 20
2.2258983586
 10
4.1921371045
 20
2.2329163307
 10
4.2213467121
 20
2.2492294237
 10
4.2446796429
 20
2.261303932
 10
4.2745075679
 20
2.2764335563
 10
4.2877381847
 20
2.2828694038
 10
4.2983003887
 20
2.2875632345
 10
4.3116543959
 20
2.2937335774
 10
4.3216141856
 20
2.29977881
 10
4.3321260574
 20
2.304597104
 10
4.3406493973
 20
2.3077780617
 10
4.3709645583
 20
2.3219426753
 10
4.3951348602
 20
2.3322474015
 10
4.4088190192
 20
2.3376519486
 10
4.4195367167
 20
2.3419816595
 10
4.4297494758
 20
2.3476285533
 10
4.4385024261
 20
2.3501705459
 10
4.4521866364
 20
2.3555830298
 10
4.4631016017
 20
2.3593946048
 10
4.4821111941
 20
2.3675244861
 10
4.5014884185
 20
2.3746493747
 10
4.5164105145
 20
2.3811497635
 10
4.5290510975
 20
2.3854471966
 10
4.5391265957
 20
2.3883924265
 10
4.5566219114
 20
2.3951532736
 10
4.5744760385
 20
2.4008102833
 10
4.5881793191
 20
2.406324747
 10
4.6062615008
 20
2.4112371201
 10
4.6204302663
 20
2.4152199046
 10
4.6341321399
 20
2.420825565
 10
4.6452429771
 20
2.424041566
 10
4.6634711365
 20
2.428401321
 10
4.6772824355
 20
2.4337302056
 10
4.6915462063
 20
2.4373677659
 10
4.7027036234
 20
2.440426399
 10
4.7169443468
 20
2.4441477227
 10
4.7282125553
 20
2.4467450266
 10
4.7394233192
 20
2.4495803559
 10
4.7480386861
 20
2.4526471062
 10
4.7582991371
 20
2.4548321741
 10
4.7661646188
 20
2.4574247101
 10
4.7805570124
 20
2.4605209073
 10
4.806199572
 20
2.4663164491
 10
4.8316849154
 20
2.4729160096
 10
4.8430044818
 20
2.4753124854
 10
4.8520439134
 20
2.4764297507
 10
4.8980749498
 20
2.485675253
 10
4.9182590437
 20
2.4902540305
 10
4.9342725721
 20
2.4929104673
 10
4.9474783201
 20
2.4949151289
 10
4.957940361
 20
2.4958935148
 10
4.9763735311
 20
2.4993661862
 10
5.0094424024
 20
2.5045585743
 10
5.0198989578
 20
2.5054740293
 10
5.0279996146
 20
2.5071945218
 10
5.0425605145
 20
2.5095176415
 10
5.0687471252
 20
2.5119011938
 10
5.1019903619
 20
2.5158360945
 10
5.1282159346
 20
2.5176914961
 10
5.1543329948
 20
2.5211514353
 10
5.1749173624
 20
2.5231190557
 10
5.1936676566
 20
2.5234209045
 10
5.2083765754
 20
2.5240799866
 10
5.2230361901
 20
2.5260425689
 10
5.2345913811
 20
2.5267585636
 10
5.2493158885
 20
2.5270890472
 10
5.2608838833
 20
2.527458828
 10
5.2724469599
 20
2.5278761341
 10
5.2815293888
 20
2.5287058813
 10
5.2962563859
 20
2.5291463045
 10
5.3078266964
 20
2.5289374417
 10
5.3284932091
 20
2.5297444628
 10
5.34917055
 20
2.5304362385
 10
5.3654002904
 20
2.5299011744
 10
5.408016892
 20
2.5295395602
 10
5.4415091426
 20
2.5290471224
 10
5.4749809497
 20
2.5278962611
 10
5.5011923353
 20
2.5256810327
 10
5.5199373341
 20
2.5249272876
 10
5.5346226147
 20
2.52380009
 10
5.5493010985
 20
2.5225790368
 10
5.5608131877
 20
2.521409499
 10
5.5871396286
 20
2.5202724834
 10
5.6076230182
 20
2.5174842925
 10
5.6671567377
 20
2.5117367116
 10
5.6931481087
 20
2.5076913796
 10
5.7137187811
 20
2.5054868968
 10
5.7396762149
 20
2.5012357297
 10
5.7601879555
 20
2.4985634803
 10
5.7806752491
 20
2.4956840484
 10
5.7967057264
 20
2.493028886
 10
5.8228741947
 20
2.4875904054
 10
5.8436198028
 20
2.4842214502
 10
5.8643369293
 20
2.4806598564
 10
5.8805705994
 20
2.4776183546
 10
5.9170251257
 20
2.4688057843
 10
5.9334115807
 20
2.4663331302
 10
5.9460017881
 20
2.463220546
 10
5.9665783689
 20
2.4588786057
 10
5.9824962422
 20
2.4545145009
 10
6.0111281789
 20
2.4474557638
 10
6.0394611583
 20
2.4393343847
 10
6.0620080354
 20
2.4338997412
 10
6.0818572679
 20
2.4269813672
 10
6.0975876565
 20
2.4219894348
 10
6.1261116887
 20
2.4144185354
 10
6.1760710094
 20
2.3978645074
 10
6.1921298194
 20
2.3937526798
 10
6.2043263998
 20
2.3893351683
 10
6.2257683521
 20
2.3805470469
 10
6.2478354202
 20
2.37342847
 10
6.2650098139
 20
2.3673836536
 10
6.2848863438
 20
2.3604989485
 10
6.3001779573
 20
2.3542758712
 10
6.3156913997
 20
2.3485827132
 10
6.3274877831
 20
2.3431728667
 10
6.3545685416
 20
2.3315365281
 10
6.3763131015
 20
2.3234499707
 10
6.4031370472
 20
2.3112222875
 10
6.4247104033
 20
2.3026876705
 10
6.4452946464
 20
2.2920358176
 10
6.4621824212
 20
2.2851613383
 10
6.4892589391
 20
2.2733931757
 10
6.5095929295
 20
2.2622751767
 10
6.5306013197
 20
2.2524667225
 10
6.5469188983
 20
2.2443884689
 10
6.5838052874
 20
2.2256235961
 10
6.6127093159
 20
2.2106983909
 10
6.6356547122
 20
2.1969420651
 10
6.6542952773
 20
2.1871853407
 10
6.672596303
 20
2.1768427863
 10
6.6866376935
 20
2.1681497502
 10
6.7189310221
 20
2.1490200331
 10
6.744454189
 20
2.1341929736
 10
6.7764371621
 20
2.1145143165
 10
6.7902167913
 20
2.1054093586
 10
6.8008518495
 20
2.0979697811
 10
6.8254753215
 20
2.0817371443
 10
6.8447716907
 20
2.068894975
 10
6.8624343806
 20
2.0574567761
 10
6.8758619246
 20
2.0478383543
 10
6.8892351118
 20
2.0381454085
 10
6.899536434
 20
2.0302485054
 10
6.9129314673
 20
2.0205886987
 10
6.9233651533
 20
2.0128762045
 10
6.9422183536
 20
1.9993880975
 10
6.9552926865
 20
1.9892992132
 10
6.9655112814
 20
1.9813048664
 10
6.9841481509
 20
1.9675149572
 10
7.0026981115
 20
1.9535994103
 10
7.0172407365
 20
1.9426092443
 10
7.0465897602
 20
1.91917355
 10
7.0687823016
 20
1.8997407342
 10
7.108835094
 20
1.8655261389
 10
7.1482253437
 20
1.8305483399
 10
7.1658787541
 20
1.8154804392
 10
7.1790859933
 20
1.8029402991
 10
7.1911954386
 20
1.79169375
 10
7.2002240839
 20
1.7823659321
 10
7.217283658
 20
1.766651326
 10
7.2341808342
 20
1.7507585095
 10
7.2466351306
 20
1.7374667758
 10
7.2626009644
 20
1.7206625004
 10
7.275565068
 20
1.7078633101
 10
7.2882027047
 20
1.694747892
 10
7.2977462779
 20
1.6840864813
 10
7.3169573575
 20
1.6653907186
 10
7.3316146128
 20
1.6502861437
 10
7.3562802529
 20
1.6219757511
 10
7.4008042115
 20
1.5718105143
 10
7.4145340131
 20
1.5558738568
 10
7.4249067988
 20
1.5430115603
 10
7.4356101416
 20
1.5304101334
 10
7.4433244846
 20
1.5199621804
 10
7.4535004082
 20
1.5069481425
 10
7.4628425256
 20
1.4977618414
 10
7.4762728313
 20
1.4788500615
 10
7.4891336191
 20
1.4622107098
 10
7.4995195467
 20
1.4493468127
 10
7.5173937655
 20
1.4258255233
 10
7.52619489
 20
1.3974819471
 10
7.5325944143
 20
1.3750508656
 10
7.5566473588
 20
1.2834941851
 10
7.6219032681
 20
0.9051871273
 10
7.6171282635
 20
0.3242522125
 10
7.4822800856
 20
-0.2406947765
 10
7.2172448491
 20
-0.7573238512
 10
6.8301821386
 20
-1.1898437872
 10
6.3401616073
 20
-1.5003678878
 10
5.7804774462
 20
-1.6514120054
 10
5.3452739059
 20
-1.6400607271
 10
4.9297818395
 20
-1.5110118263
 10
4.7413014609
 20
-1.4013320053
 10
4.716402429
 20
-1.3836115502
 10
4.697195889
 20
-1.3692003888
 10
4.690717639
 20
-1.3680080807
 10
4.6840747401
 20
-1.3677453568
 10
4.6774175228
 20
-1.3677651202
 10
4.6707385074
 20
-1.3693284508
 10
4.6640833555
 20
-1.3688026143
 10
4.6574284969
 20
-1.3684981925
 10
4.6507680625
 20
-1.3684603603
 10
4.6440614141
 20
-1.3698013387
 10
4.6374180876
 20
-1.369110886
 10
4.6307678368
 20
-1.3687189687
 10
4.6232319172
 20
-1.3701916845
 10
4.6173937674
 20
-1.3694797041
 10
4.6107534089
 20
-1.3688865343
 10
4.604101773
 20
-1.3685216695
 10
4.5965403752
 20
-1.3697942455
 10
4.5907258856
 20
-1.3688319978
 10
4.5840920704
 20
-1.3681874011
 10
4.580304186
 20
-1.3687702597
 10
4.5774328799
 20
-1.3678784991
 10
4.569860888
 20
-1.368830073
 10
4.564073132
 20
-1.3676709662
 10
4.557437396
 20
-1.3670595742
 10
4.5507664029
 20
-1.366797954
 10
4.5432088165
 20
-1.3672785768
 10
4.5374386761
 20
-1.3660603634
 10
4.5307819518
 20
-1.3656108113
 10
4.5240153388
 20
-1.3660592823
 10
4.5174482066
 20
-1.3648228757
 10
4.5136382196
 20
-1.3652032891
 10
4.5108174584
 20
-1.3641251366
 10
4.5041456248
 20
-1.363720773
 10
4.4974439587
 20
-1.3634939321
 10
4.4908611238
 20
-1.3624214129
 10
4.4842053881
 20
-1.3618561804
 10
4.4775396891
 20
-1.3613228155
 10
4.4709365759
 20
-1.3603586561
 10
4.4642831967
 20
-1.359737466
 10
4.4576199135
 20
-1.3591458334
 10
4.4510011112
 20
-1.3582586607
 10
4.4444966458
 20
-1.3567112126
 10
4.4377280113
 20
-1.3566777008
 10
4.4311069891
 20
-1.3557795279
 10
4.4271429799
 20
-1.3542057189
 10
4.4237843631
 20
-1.3542706311
 10
4.4178577282
 20
-1.3540014162
 10
4.4112468144
 20
-1.3530216615
 10
4.4047365627
 20
-1.3515324095
 10
4.3974806404
 20
-1.3497116036
 10
4.3914168859
 20
-1.3500008423
 10
4.3849290641
 20
-1.3484110562
 10
4.3784877205
 20
-1.3466256685
 10
4.3712295801
 20
-1.3448376158
 10
4.3651269893
 20
-1.3451575782
 10
4.3587476353
 20
-1.3431196255
 10
4.3522844015
 20
-1.3414544787
 10
4.3457048531
 20
-1.3402617337
 10
4.3390077719
 20
-1.3395140348
 10
4.3326037917
 20
-1.3376121949
 10
4.3260240797
 20
-1.3363906054
 10
4.3185379376
 20
-1.3354349723
 10
4.3129687295
 20
-1.3335227712
 10
4.3064032573
 20
-1.3322190208
 10
4.2998568382
 20
-1.3308252546
 10
4.2926613924
 20
-1.3287735632
 10
4.2868304656
 20
-1.3277864227
 10
4.2803136426
 20
-1.3262661925
 10
4.2739654462
 20
-1.3241722609
 10
4.2669104857
 20
-1.3216602991
 10
4.2608232614
 20
-1.321452827
 10
4.2545497575
 20
-1.3191255782
 10
4.2483153733
 20
-1.3166917419
 10
4.2406444343
 20
-1.3160968864
 10
4.2352094158
 20
-1.3137970405
 10
4.2289538639
 20
-1.3114421346
 10
4.2225198877
 20
-1.3096183345
 10
4.2150325838
 20
-1.3083731572
 10
4.2096623029
 20
-1.3059177936
 10
4.2032133394
 20
-1.3041175884
 10
4.1967620651
 20
-1.3023064954
 10
4.1897259334
 20
-1.2997473976
 10
4.1839669513
 20
-1.2983714261
 10
4.1775832793
 20
-1.2963555426
 10
4.1714278535
 20
-1.2937309996
 10
4.1645675121
 20
-1.2907170854
 10
4.1584825836
 20
-1.2901375001
 10
4.1524464445
 20
-1.2872181949
 10
4.1463273541
 20
-1.2845222707
 10
4.1387236291
 20
-1.2833546939
 10
4.1335468557
 20
-1.2804700296
 10
4.1273484492
 20
-1.2779721234
 10
4.1209646097
 20
-1.2759092131
 10
4.1084150837
 20
-1.2712472982
 10
4.1020616256
 20
-1.2690889379
 10
4.0959461695
 20
-1.2663774814
 10
4.0892721417
 20
-1.2629546352
 10
4.0832791568
 20
-1.2619317286
 10
4.0773380914
 20
-1.2588364965
 10
4.0714234854
 20
-1.2556958167
 10
4.0638195156
 20
-1.252157899
 10
4.0571283826
 20
-1.2508879198
 10
4.0465752478
 20
-1.245669205
 10
4.034263989
 20
-1.2403911623
 10
4.0280229919
 20
-1.2379152609
 10
4.0220706578
 20
-1.2348555413
 10
4.0155924686
 20
-1.2310664486
 10
4.0096361464
 20
-1.2297750808
 10
4.0039086255
 20
-1.22628399
 10
3.9981319328
 20
-1.2228987628
 10
3.9935765648
 20
-1.2214585979
 10
3.9906946593
 20
-1.2190141517
 10
3.9841402262
 20
-1.2172771085
 10
3.9786352867
 20
-1.2135962686
 10
3.9737476114
 20
-1.2117355529
 10
3.9670864058
 20
-1.20828877
 10
3.9622879968
 20
-1.2048021897
 10
3.9500176598
 20
-1.1993126525
 10
3.9428539152
 20
-1.1949326271
 10
3.9363435944
 20
-1.1930042125
 10
3.9308416654
 20
-1.1893424583
 10
3.9265092001
 20
-1.1864918325
 10
3.9131172016
 20
-1.1796608385
 10
3.9075276887
 20
-1.1761587213
 10
3.9027365881
 20
-1.1740489028
 10
3.8972726601
 20
-1.1701556243
 10
3.8917705901
 20
-1.1663332913
 10
3.884508412
 20
-1.163783048
 10
3.8799566122
 20
-1.1599660169
 10
3.8728875831
 20
-1.1554356992
 10
3.8665034945
 20
-1.1531412532
 10
3.8613301648
 20
-1.1489998843
 10
3.8565802364
 20
-1.1467809735
 10
3.8495301778
 20
-1.1422089209
 10
3.8442914953
 20
-1.1381716146
 10
3.8341137808
 20
-1.1321775317
 10
3.8287054762
 20
-1.1282294698
 10
3.8228759021
 20
-1.1248803131
 10
3.8114960766
 20
-1.1177689615
 10
3.8057919705
 20
-1.1142252711
 10
3.8005971915
 20
-1.1099762926
 10
3.7890792205
 20
-1.1030219485
 10
3.7825123605
 20
-1.0977701203
 10
3.7774054526
 20
-1.0935800506
 10
3.7673203925
 20
-1.0873672515
 10
3.7616465654
 20
-1.0837522462
 10
3.7564910163
 20
-1.0794639477
 10
3.7452468279
 20
-1.0720779881
 10
3.735067931
 20
-1.0633522928
 10
3.7245315926
 20
-1.0550665554
 10
3.7134528429
 20
-1.0474331544
 10
3.7086555464
 20
-1.0427260489
 10
3.7033795847
 20
-1.0385903332
 10
3.6961205956
 20
-1.0341409053
 10
3.6915417523
 20
-1.0293369589
 10
3.6862112867
 20
-1.0254028293
 10
3.6823706923
 20
-1.021908024
 10
3.6715609995
 20
-1.0138964914
 10
3.6617027363
 20
-1.0048127677
 10
3.6538141436
 20
-0.9994806958
 10
3.6487306422
 20
-0.9940760729
 10
3.6434429717
 20
-0.9888990952
 10
3.6386789285
 20
-0.9854801329
 10
3.6284428804
 20
-0.9770628755
 10
3.6210745776
 20
-0.9697430542
 10
3.6135576204
 20
-0.9639543527
 10
3.6086814437
 20
-0.9583570523
 10
3.6033958384
 20
-0.9531792681
 10
3.5987243897
 20
-0.9496244341
 10
3.5937627668
 20
-0.94411781
 10
3.5887520924
 20
-0.9408881637
 10
3.581570843
 20
-0.9333820595
 10
3.5756042342
 20
-0.9274457073
 10
3.5714305426
 20
-0.9222900482
 10
3.5657983545
 20
-0.9185203282
 10
3.5628045562
 20
-0.9142054887
 10
3.557065758
 20
-0.9080567072
 10
3.5521270884
 20
-0.9036213626
 10
3.5432698122
 20
-0.8957182878
 10
3.5403093112
 20
-0.8912794182
 10
3.5369226708
 20
-0.888749084
 10
3.5323280796
 20
-0.8829227082
 10
3.5228114377
 20
-0.8736871904
 10
3.5182216813
 20
-0.8678662708
 10
3.5139410868
 20
-0.8638777614
 10
3.5063810277
 20
-0.8566659641
 10
3.4959332235
 20
-0.8434575362
 10
3.4867670883
 20
-0.8338752703
 10
3.4820608298
 20
-0.8281583696
 10
3.4778238949
 20
-0.824099483
 10
3.4747266165
 20
-0.8191202463
 10
3.4713129795
 20
-0.8159968882
 10
3.4651083343
 20
-0.8088805638
 10
3.4606978447
 20
-0.8029274277
 10
3.4523024743
 20
-0.7926984191
 10
3.4370065046
 20
-0.7746534392
 10
3.4254279216
 20
-0.7597613293
 10
3.4202575219
 20
-0.7532615418
 10
3.4161294943
 20
-0.7481958569
 10
3.4116367813
 20
-0.7412054016
 10
3.4067333323
 20
-0.7366873392
 10
3.4003411551
 20
-0.7269472846
 10
3.3919433776
 20
-0.7147327593
 10
3.384917854
 20
-0.7054297202
 10
3.3782170102
 20
-0.6959019267
 10
3.3723036656
 20
-0.6888428693
 10
3.3670568096
 20
-0.6810026904
 10
3.3626835901
 20
-0.6750003529
 10
3.359129004
 20
-0.6684742597
 10
3.3547853832
 20
-0.6643308025
 10
3.3481793071
 20
-0.6528502577
 10
3.3428072575
 20
-0.6439441476
 10
3.3332394914
 20
-0.6300432844
 10
3.3257725458
 20
-0.6190799896
 10
3.3184438487
 20
-0.6080267684
 10
3.3161821208
 20
-0.6026072618
 10
3.3131564677
 20
-0.5990651443
 10
3.3109404322
 20
-0.5935163167
 10
3.3076414374
 20
-0.5900384246
 10
3.3037952316
 20
-0.5826762586
 10
3.299537967
 20
-0.5755430766
 10
3.2958302357
 20
-0.5701320591
 10
3.2921604291
 20
-0.5626725999
 10
3.287994084
 20
-0.5575034856
 10
3.2828232838
 20
-0.547054685
 10
3.2760358714
 20
-0.5338650762
 10
3.2717313065
 20
-0.52873883
 10
3.2701588739
 20
-0.5237853264
 10
3.2665806418
 20
-0.5182818043
 10
3.2647925214
 20
-0.5134405082
 10
3.2594032094
 20
-0.5058935135
 10
3.2548465992
 20
-0.4963519648
 10
3.2509172049
 20
-0.4890217709
 10
3.2474658688
 20
-0.4814613458
 10
3.2437957206
 20
-0.4759760152
 10
3.2401582114
 20
-0.468502331
 10
3.2380336993
 20
-0.4622924803
 10
3.2329542457
 20
-0.4517983071
 10
3.2257919979
 20
-0.4387487315
 10
3.2237015474
 20
-0.4325379098
 10
3.2208512744
 20
-0.4281842734
 10
3.2189414154
 20
-0.4218966023
 10
3.215674326
 20
-0.4177148527
 10
3.2124242321
 20
-0.4091428284
 10
3.2083461825
 20
-0.3993863409
 10
3.203738462
 20
-0.3922960858
 10
3.2006116084
 20
-0.3845932846
 10
3.1988257551
 20
-0.3782748408
 10
3.1956497714
 20
-0.3705965154
 10
3.1923839191
 20
-0.3648610059
 10
3.1879180348
 20
-0.3540843147
 10
3.1825561565
 20
-0.3402460417
 10
3.1773074015
 20
-0.3297475645
 10
3.1733884029
 20
-0.3187615185
 10
3.1702006654
 20
-0.3101664793
 10
3.1664302734
 20
-0.3002733958
 10
3.1638871431
 20
-0.2923593623
 10
3.158579419
 20
-0.2784823594
 10
3.152924551
 20
-0.2647126435
 10
3.1492547196
 20
-0.2536381676
 10
3.1470013475
 20
-0.2456296272
 10
3.1439769919
 20
-0.2397269006
 10
3.1408092422
 20
-0.2284965804
 10
3.1338364894
 20
-0.2088240064
 10
3.1304392627
 20
-0.1974649311
 10
3.1281958068
 20
-0.1884207337
 10
3.1251695273
 20
-0.1795952801
 10
3.1226573995
 20
-0.172690824
 10
3.1202557021
 20
-0.1636889356
 10
3.1191175818
 20
-0.1564241317
 10
3.1156959526
 20
-0.1497423183
 10
3.1151128115
 20
-0.1439611571
 10
3.1127596381
 20
-0.134950029
 10
3.1103673341
 20
-0.1279981546
 10
3.1063739378
 20
-0.1155059287
 10
3.1037086761
 20
-0.1027073769
 10
3.1014229677
 20
-0.0926938021
 10
3.0974357155
 20
-0.0765346481
 10
3.0949057299
 20
-0.0637106769
 10
3.0914111632
 20
-0.0510820208
 10
3.0894168909
 20
-0.0410079459
 10
3.0869716432
 20
-0.0281666447
 10
3.0838255119
 20
-0.0182975431
 10
3.0818140711
 20
-0.0082193178
 10
3.0820137219
 20
0.0
  0
MTEXT
  5
84
330
1F
100
AcDbEntity
  8
0
  6
Continuous
 62
     7
100
AcDbMText
 10
-2.1910861125
 20
-2.8401554603
 30
0.0
 40
0.1903
 41
0.0
 71
     1
 72
     1
  1
SOLIDWORKS Educational Product.
  7
SLDTEXTSTYLE0
 73
     1
 44
1.0
  0
MTEXT
  5
85
330
1F
100
AcDbEntity
  8
0
  6
Continuous
 62
     7
100
AcDbMText
 10
-2.1910861125
 20
-3.1256054603
 30
0.0
 40
0.1903
 41
0.0
 71
     1
 72
     1
  1
For Instructional Use Only.
  7
SLDTEXTSTYLE0
 73
     1
 44
1.0
  0
ENDSEC
  0
SECTION
  2
OBJECTS
  0
DICTIONARY
  5
C
330
0
100
AcDbDictionary
281
     1
  3
ACAD_GROUP
350
D
  3
ACAD_LAYOUT
350
1A
  3
ACAD_MLINESTYLE
350
17
  3
ACAD_PLOTSETTINGS
350
19
  3
ACAD_PLOTSTYLENAME
350
E
  3
ACAD_SCALELIST
350
47
  0
DICTIONARY
  5
D
102
{ACAD_REACTORS
330
C
102
}
330
C
100
AcDbDictionary
281
     1
  0
DICTIONARY
  5
1A
102
{ACAD_REACTORS
330
C
102
}
330
C
100
AcDbDictionary
281
     1
  3
Layout1
350
1E
  3
Layout2
350
26
  3
Model
350
22
  0
DICTIONARY
  5
17
102
{ACAD_REACTORS
330
C
102
}
330
C
100
AcDbDictionary
281
     1
  3
Standard
350
18
  0
DICTIONARY
  5
19
102
{ACAD_REACTORS
330
C
102
}
330
C
100
AcDbDictionary
281
     1
  0
ACDBDICTIONARYWDFLT
  5
E
102
{ACAD_REACTORS
330
C
102
}
330
C
100
AcDbDictionary
281
     1
  3
Normal
350
F
100
AcDbDictionaryWithDefault
340
F
  0
DICTIONARY
  5
47
102
{ACAD_REACTORS
330
C
102
}
330
C
100
AcDbDictionary
281
     1
  3
A0
350
48
  3
A1
350
49
  3
A2
350
4A
  3
A3
350
4B
  3
A4
350
4C
  3
A5
350
4D
  3
A6
350
4E
  3
A7
350
4F
  3
A8
350
50
  3
A9
350
51
  3
B0
350
52
  3
B1
350
53
  3
B2
350
54
  3
B3
350
55
  3
B4
350
56
  3
B5
350
57
  3
B6
350
58
  3
B7
350
59
  3
B8
350
5A
  3
B9
350
5B
  3
C0
350
5C
  3
C1
350
5D
  3
C2
350
5E
  3
C3
350
5F
  3
C4
350
60
  3
C5
350
61
  3
C6
350
62
  3
C7
350
63
  3
C8
350
64
  3
C9
350
65
  3
D0
350
66
  3
D1
350
67
  3
D2
350
68
  0
LAYOUT
  5
1E
102
{ACAD_REACTORS
330
1A
102
}
330
1A
100
AcDbPlotSettings
  1

  2
none_device
  4

  6

 40
0.0
 41
0.0
 42
0.0
 43
0.0
 44
0.0
 45
0.0
 46
0.0
 47
0.0
 48
0.0
 49
0.0
140
0.0
141
0.0
142
1.0
143
1.0
 70
   688
 72
     0
 73
     0
 74
     5
  7

 75
    16
147
1.0
148
0.0
149
0.0
100
AcDbLayout
  1
Layout1
 70
     1
 71
     1
 10
0.0
 20
0.0
 11
12.0
 21
9.0
 12
0.0
 22
0.0
 32
0.0
 14
1.0000000000E+20
 24
1.0000000000E+20
 34
1.0000000000E+20
 15
-1.0000000000E+20
 25
-1.0000000000E+20
 35
-1.0000000000E+20
146
0.0
 13
0.0
 23
0.0
 33
0.0
 16
1.0
 26
0.0
 36
0.0
 17
0.0
 27
1.0
 37
0.0
 76
     0
330
1B
  0
LAYOUT
  5
26
102
{ACAD_REACTORS
330
1A
102
}
330
1A
100
AcDbPlotSettings
  1

  2
none_device
  4

  6

 40
0.0
 41
0.0
 42
0.0
 43
0.0
 44
0.0
 45
0.0
 46
0.0
 47
0.0
 48
0.0
 49
0.0
140
0.0
141
0.0
142
1.0
143
1.0
 70
   688
 72
     0
 73
     0
 74
     5
  7

 75
    16
147
1.0
148
0.0
149
0.0
100
AcDbLayout
  1
Layout2
 70
     1
 71
     2
 10
0.0
 20
0.0
 11
0.0
 21
0.0
 12
0.0
 22
0.0
 32
0.0
 14
0.0
 24
0.0
 34
0.0
 15
0.0
 25
0.0
 35
0.0
146
0.0
 13
0.0
 23
0.0
 33
0.0
 16
1.0
 26
0.0
 36
0.0
 17
0.0
 27
1.0
 37
0.0
 76
     0
330
23
  0
LAYOUT
  5
22
102
{ACAD_REACTORS
330
1A
102
}
330
1A
100
AcDbPlotSettings
  1

  2
none_device
  4
ANSI_A_(11.00_x_8.50_Inches)
  6

 40
6.35
 41
19.05
 42
6.35000508
 43
19.05000254
 44
279.4
 45
215.9
 46
56.8087646174
 47
92.6994075621
 48
0.0
 49
0.0
140
0.0
141
0.0
142
1.1097535703
143
1.0
 70
  1696
 72
     0
 73
     0
 74
     0
  7

 75
     0
147
0.5913241897
148
-39.4088153714
149
0.0
100
AcDbLayout
  1
Model
 70
     1
 71
     0
 10
0.0
 20
0.0
 11
12.0
 21
9.0
 12
0.0
 22
0.0
 32
0.0
 14
-2.1910861125
 24
-2.8000150512
 34
0.0
 15
7.6219032681
 25
2.5304362385
 35
0.0
146
0.0
 13
0.0
 23
0.0
 33
0.0
 16
1.0
 26
0.0
 36
0.0
 17
0.0
 27
1.0
 37
0.0
 76
     0
330
1F
331
29
  0
MLINESTYLE
  5
18
102
{ACAD_REACTORS
330
17
102
}
330
17
100
AcDbMlineStyle
  2
Standard
 70
     0
  3

 62
   256
 51
90.0
 52
90.0
 71
     2
 49
0.5
 62
   256
  6
BYLAYER
 49
-0.5
 62
   256
  6
BYLAYER
  0
ACDBPLACEHOLDER
  5
F
102
{ACAD_REACTORS
330
E
102
}
330
E
  0
SCALE
  5
48
102
{ACAD_REACTORS
330
47
102
}
330
47
100
AcDbScale
 70
     0
300
1:1
140
1.0
141
1.0
290
     1
  0
SCALE
  5
49
102
{ACAD_REACTORS
330
47
102
}
330
47
100
AcDbScale
 70
     0
300
1:2
140
1.0
141
2.0
290
     0
  0
SCALE
  5
4A
102
{ACAD_REACTORS
330
47
102
}
330
47
100
AcDbScale
 70
     0
300
1:4
140
1.0
141
4.0
290
     0
  0
SCALE
  5
4B
102
{ACAD_REACTORS
330
47
102
}
330
47
100
AcDbScale
 70
     0
300
1:5
140
1.0
141
5.0
290
     0
  0
SCALE
  5
4C
102
{ACAD_REACTORS
330
47
102
}
330
47
100
AcDbScale
 70
     0
300
1:8
140
1.0
141
8.0
290
     0
  0
SCALE
  5
4D
102
{ACAD_REACTORS
330
47
102
}
330
47
100
AcDbScale
 70
     0
300
1:10
140
1.0
141
10.0
290
     0
  0
SCALE
  5
4E
102
{ACAD_REACTORS
330
47
102
}
330
47
100
AcDbScale
 70
     0
300
1:16
140
1.0
141
16.0
290
     0
  0
SCALE
  5
4F
102
{ACAD_REACTORS
330
47
102
}
330
47
100
AcDbScale
 70
     0
300
1:20
140
1.0
141
20.0
290
     0
  0
SCALE
  5
50
102
{ACAD_REACTORS
330
47
102
}
330
47
100
AcDbScale
 70
     0
300
1:30
140
1.0
141
30.0
290
     0
  0
SCALE
  5
51
102
{ACAD_REACTORS
330
47
102
}
330
47
100
AcDbScale
 70
     0
300
1:40
140
1.0
141
40.0
290
     0
  0
SCALE
  5
52
102
{ACAD_REACTORS
330
47
102
}
330
47
100
AcDbScale
 70
     0
300
1:50
140
1.0
141
50.0
290
     0
  0
SCALE
  5
53
102
{ACAD_REACTORS
330
47
102
}
330
47
100
AcDbScale
 70
     0
300
1:100
140
1.0
141
100.0
290
     0
  0
SCALE
  5
54
102
{ACAD_REACTORS
330
47
102
}
330
47
100
AcDbScale
 70
     0
300
2:1
140
2.0
141
1.0
290
     0
  0
SCALE
  5
55
102
{ACAD_REACTORS
330
47
102
}
330
47
100
AcDbScale
 70
     0
300
4:1
140
4.0
141
1.0
290
     0
  0
SCALE
  5
56
102
{ACAD_REACTORS
330
47
102
}
330
47
100
AcDbScale
 70
     0
300
8:1
140
8.0
141
1.0
290
     0
  0
SCALE
  5
57
102
{ACAD_REACTORS
330
47
102
}
330
47
100
AcDbScale
 70
     0
300
10:1
140
10.0
141
1.0
290
     0
  0
SCALE
  5
58
102
{ACAD_REACTORS
330
47
102
}
330
47
100
AcDbScale
 70
     0
300
100:1
140
100.0
141
1.0
290
     0
  0
SCALE
  5
59
102
{ACAD_REACTORS
330
47
102
}
330
47
100
AcDbScale
 70
     0
300
1/128" = 1'-0"
140
0.0078125
141
12.0
290
     0
  0
SCALE
  5
5A
102
{ACAD_REACTORS
330
47
102
}
330
47
100
AcDbScale
 70
     0
300
1/64" = 1'-0"
140
0.015625
141
12.0
290
     0
  0
SCALE
  5
5B
102
{ACAD_REACTORS
330
47
102
}
330
47
100
AcDbScale
 70
     0
300
1/32" = 1'-0"
140
0.03125
141
12.0
290
     0
  0
SCALE
  5
5C
102
{ACAD_REACTORS
330
47
102
}
330
47
100
AcDbScale
 70
     0
300
1/16" = 1'-0"
140
0.0625
141
12.0
290
     0
  0
SCALE
  5
5D
102
{ACAD_REACTORS
330
47
102
}
330
47
100
AcDbScale
 70
     0
300
3/32" = 1'-0"
140
0.09375
141
12.0
290
     0
  0
SCALE
  5
5E
102
{ACAD_REACTORS
330
47
102
}
330
47
100
AcDbScale
 70
     0
300
1/8" = 1'-0"
140
0.125
141
12.0
290
     0
  0
SCALE
  5
5F
102
{ACAD_REACTORS
330
47
102
}
330
47
100
AcDbScale
 70
     0
300
3/16" = 1'-0"
140
0.1875
141
12.0
290
     0
  0
SCALE
  5
60
102
{ACAD_REACTORS
330
47
102
}
330
47
100
AcDbScale
 70
     0
300
1/4" = 1'-0"
140
0.25
141
12.0
290
     0
  0
SCALE
  5
61
102
{ACAD_REACTORS
330
47
102
}
330
47
100
AcDbScale
 70
     0
300
3/8" = 1'-0"
140
0.375
141
12.0
290
     0
  0
SCALE
  5
62
102
{ACAD_REACTORS
330
47
102
}
330
47
100
AcDbScale
 70
     0
300
1/2" = 1'-0"
140
0.5
141
12.0
290
     0
  0
SCALE
  5
63
102
{ACAD_REACTORS
330
47
102
}
330
47
100
AcDbScale
 70
     0
300
3/4" = 1'-0"
140
0.75
141
12.0
290
     0
  0
SCALE
  5
64
102
{ACAD_REACTORS
330
47
102
}
330
47
100
AcDbScale
 70
     0
300
1" = 1'-0"
140
1.0
141
12.0
290
     0
  0
SCALE
  5
65
102
{ACAD_REACTORS
330
47
102
}
330
47
100
AcDbScale
 70
     0
300
1-1/2" = 1'-0"
140
1.5
141
12.0
290
     0
  0
SCALE
  5
66
102
{ACAD_REACTORS
330
47
102
}
330
47
100
AcDbScale
 70
     0
300
3" = 1'-0"
140
3.0
141
12.0
290
     0
  0
SCALE
  5
67
102
{ACAD_REACTORS
330
47
102
}
330
47
100
AcDbScale
 70
     0
300
6" = 1'-0"
140
6.0
141
12.0
290
     0
  0
SCALE
  5
68
102
{ACAD_REACTORS
330
47
102
}
330
47
100
AcDbScale
 70
     0
300
1'-0" = 1'-0"
140
12.0
141
12.0
290
     0
  0
ENDSEC
  0
EOF
