  0
SECTION
  2
HEADER
  9
$ACADVER
  1
AC1015
  9
$ACADMAINTVER
 70
     6
  9
$DWGCODEPAGE
  3
ANSI_1252
  9
$INSBASE
 10
0.0
 20
0.0
 30
0.0
  9
$EXTMIN
 10
-1.812661277
 20
-2.3994679276
 30
0.0
  9
$EXTMAX
 10
6.4525216845
 20
2.1352487101
 30
0.0
  9
$LIMMIN
 10
0.0
 20
0.0
  9
$LIMMAX
 10
12.0
 20
9.0
  9
$ORTHOMODE
 70
     0
  9
$REGENMODE
 70
     1
  9
$FILLMODE
 70
     1
  9
$QTEXTMODE
 70
     0
  9
$MIRRTEXT
 70
     1
  9
$LTSCALE
 40
1.0
  9
$ATTMODE
 70
     1
  9
$TEXTSIZE
 40
0.25
  9
$TRACEWID
 40
0.05
  9
$TEXTSTYLE
  7
Standard
  9
$CLAYER
  8
0
  9
$CELTYPE
  6
ByLayer
  9
$CECOLOR
 62
   256
  9
$CELTSCALE
 40
1.0
  9
$DISPSILH
 70
     0
  9
$DIMSCALE
 40
1.0
  9
$DIMASZ
 40
0.236
  9
$DIMEXO
 40
0.039
  9
$DIMDLI
 40
0.38
  9
$DIMRND
 40
0.0
  9
$DIMDLE
 40
0.0
  9
$DIMEXE
 40
0.039
  9
$DIMTP
 40
0.0
  9
$DIMTM
 40
0.0
  9
$DIMTXT
 40
0.25
  9
$DIMCEN
 40
0.09
  9
$DIMTSZ
 40
0.0
  9
$DIMTOL
 70
     0
  9
$DIMLIM
 70
     0
  9
$DIMTIH
 70
     1
  9
$DIMTOH
 70
     1
  9
$DIMSE1
 70
     0
  9
$DIMSE2
 70
     0
  9
$DIMTAD
 70
     1
  9
$DIMZIN
 70
     0
  9
$DIMBLK
  1

  9
$DIMASO
 70
     1
  9
$DIMSHO
 70
     1
  9
$DIMPOST
  1

  9
$DIMAPOST
  1

  9
$DIMALT
 70
     0
  9
$DIMALTD
 70
     2
  9
$DIMALTF
 40
25.4
  9
$DIMLFAC
 40
1.0
  9
$DIMTOFL
 70
     0
  9
$DIMTVP
 40
0.0
  9
$DIMTIX
 70
     0
  9
$DIMSOXD
 70
     0
  9
$DIMSAH
 70
     0
  9
$DIMBLK1
  1

  9
$DIMBLK2
  1

  9
$DIMSTYLE
  2
Standard
  9
$DIMCLRD
 70
     0
  9
$DIMCLRE
 70
     0
  9
$DIMCLRT
 70
     0
  9
$DIMTFAC
 40
1.0
  9
$DIMGAP
 40
0.06
  9
$DIMJUST
 70
     0
  9
$DIMSD1
 70
     0
  9
$DIMSD2
 70
     0
  9
$DIMTOLJ
 70
     1
  9
$DIMTZIN
 70
     0
  9
$DIMALTZ
 70
     0
  9
$DIMALTTZ
 70
     0
  9
$DIMUPT
 70
     0
  9
$DIMDEC
 70
     2
  9
$DIMTDEC
 70
     2
  9
$DIMALTU
 70
     2
  9
$DIMALTTD
 70
     2
  9
$DIMTXSTY
  7
Standard
  9
$DIMAUNIT
 70
     0
  9
$DIMADEC
 70
     2
  9
$DIMALTRND
 40
0.0
  9
$DIMAZIN
 70
     0
  9
$DIMDSEP
 70
    46
  9
$DIMATFIT
 70
     3
  9
$DIMFRAC
 70
     0
  9
$DIMLDRBLK
  1

  9
$DIMLUNIT
 70
     2
  9
$DIMLWD
 70
    -2
  9
$DIMLWE
 70
    -2
  9
$DIMTMOVE
 70
     0
  9
$LUNITS
 70
     2
  9
$LUPREC
 70
     2
  9
$SKETCHINC
 40
0.1
  9
$FILLETRAD
 40
0.5
  9
$AUNITS
 70
     0
  9
$AUPREC
 70
     2
  9
$MENU
  1
.
  9
$ELEVATION
 40
0.0
  9
$PELEVATION
 40
0.0
  9
$THICKNESS
 40
0.0
  9
$LIMCHECK
 70
     0
  9
$CHAMFERA
 40
0.0
  9
$CHAMFERB
 40
0.0
  9
$CHAMFERC
 40
0.0
  9
$CHAMFERD
 40
0.0
  9
$SKPOLY
 70
     0
  9
$TDCREATE
 40
2458240.007652905
  9
$TDUCREATE
 40
2458240.215986238
  9
$TDUPDATE
 40
2458240.008101481
  9
$TDUUPDATE
 40
2458240.216434815
  9
$TDINDWG
 40
0.0000000116
  9
$TDUSRTIMER
 40
0.0000000116
  9
$USRTIMER
 70
     1
  9
$ANGBASE
 50
0.0
  9
$ANGDIR
 70
     0
  9
$PDMODE
 70
     0
  9
$PDSIZE
 40
-1.0
  9
$PLINEWID
 40
0.0
  9
$SPLFRAME
 70
     0
  9
$SPLINETYPE
 70
     6
  9
$SPLINESEGS
 70
     8
  9
$HANDSEED
  5
86
  9
$SURFTAB1
 70
     6
  9
$SURFTAB2
 70
     6
  9
$SURFTYPE
 70
     6
  9
$SURFU
 70
     6
  9
$SURFV
 70
     6
  9
$UCSBASE
  2

  9
$UCSNAME
  2

  9
$UCSORG
 10
0.0
 20
0.0
 30
0.0
  9
$UCSXDIR
 10
1.0
 20
0.0
 30
0.0
  9
$UCSYDIR
 10
0.0
 20
1.0
 30
0.0
  9
$UCSORTHOREF
  2

  9
$UCSORTHOVIEW
 70
     0
  9
$UCSORGTOP
 10
0.0
 20
0.0
 30
0.0
  9
$UCSORGBOTTOM
 10
0.0
 20
0.0
 30
0.0
  9
$UCSORGLEFT
 10
0.0
 20
0.0
 30
0.0
  9
$UCSORGRIGHT
 10
0.0
 20
0.0
 30
0.0
  9
$UCSORGFRONT
 10
0.0
 20
0.0
 30
0.0
  9
$UCSORGBACK
 10
0.0
 20
0.0
 30
0.0
  9
$PUCSBASE
  2

  9
$PUCSNAME
  2

  9
$PUCSORG
 10
0.0
 20
0.0
 30
0.0
  9
$PUCSXDIR
 10
1.0
 20
0.0
 30
0.0
  9
$PUCSYDIR
 10
0.0
 20
1.0
 30
0.0
  9
$PUCSORTHOREF
  2

  9
$PUCSORTHOVIEW
 70
     0
  9
$PUCSORGTOP
 10
0.0
 20
0.0
 30
0.0
  9
$PUCSORGBOTTOM
 10
0.0
 20
0.0
 30
0.0
  9
$PUCSORGLEFT
 10
0.0
 20
0.0
 30
0.0
  9
$PUCSORGRIGHT
 10
0.0
 20
0.0
 30
0.0
  9
$PUCSORGFRONT
 10
0.0
 20
0.0
 30
0.0
  9
$PUCSORGBACK
 10
0.0
 20
0.0
 30
0.0
  9
$USERI1
 70
     0
  9
$USERI2
 70
     0
  9
$USERI3
 70
     0
  9
$USERI4
 70
     0
  9
$USERI5
 70
     0
  9
$USERR1
 40
0.0
  9
$USERR2
 40
0.0
  9
$USERR3
 40
0.0
  9
$USERR4
 40
0.0
  9
$USERR5
 40
0.0
  9
$WORLDVIEW
 70
     1
  9
$SHADEDGE
 70
     3
  9
$SHADEDIF
 70
    70
  9
$TILEMODE
 70
     1
  9
$MAXACTVP
 70
    64
  9
$PINSBASE
 10
0.0
 20
0.0
 30
0.0
  9
$PLIMCHECK
 70
     0
  9
$PEXTMIN
 10
1.0000000000E+20
 20
1.0000000000E+20
 30
1.0000000000E+20
  9
$PEXTMAX
 10
-1.0000000000E+20
 20
-1.0000000000E+20
 30
-1.0000000000E+20
  9
$PLIMMIN
 10
0.0
 20
0.0
  9
$PLIMMAX
 10
12.0
 20
9.0
  9
$UNITMODE
 70
     0
  9
$VISRETAIN
 70
     1
  9
$PLINEGEN
 70
     0
  9
$PSLTSCALE
 70
     1
  9
$TREEDEPTH
 70
  3020
  9
$CMLSTYLE
  2
Standard
  9
$CMLJUST
 70
     0
  9
$CMLSCALE
 40
1.0
  9
$PROXYGRAPHICS
 70
     1
  9
$MEASUREMENT
 70
     0
  9
$CELWEIGHT
370
    -1
  9
$ENDCAPS
280
     0
  9
$JOINSTYLE
280
     0
  9
$LWDISPLAY
290
     1
  9
$INSUNITS
 70
     1
  9
$HYPERLINKBASE
  1

  9
$STYLESHEET
  1

  9
$XEDIT
290
     1
  9
$CEPSNTYPE
380
     0
  9
$PSTYLEMODE
290
     1
  9
$FINGERPRINTGUID
  2
{3B0BB52A-636F-4746-AFC0-2A1F9AA62FB3}
  9
$VERSIONGUID
  2
{FAEB1C32-E019-11D5-929B-00C0DF256EC4}
  9
$EXTNAMES
290
     1
  9
$PSVPSCALE
 40
0.0
  9
$OLESTARTUP
290
     0
  0
ENDSEC
  0
SECTION
  2
CLASSES
  0
CLASS
  1
ACDBDICTIONARYWDFLT
  2
AcDbDictionaryWithDefault
  3
ObjectDBX Classes
 90
        0
280
     0
281
     0
  0
CLASS
  1
VISUALSTYLE
  2
AcDbVisualStyle
  3
ObjectDBX Classes
 90
     4095
280
     0
281
     0
  0
CLASS
  1
MATERIAL
  2
AcDbMaterial
  3
ObjectDBX Classes
 90
     1153
280
     0
281
     0
  0
CLASS
  1
SCALE
  2
AcDbScale
  3
ObjectDBX Classes
 90
     1153
280
     0
281
     0
  0
CLASS
  1
TABLESTYLE
  2
AcDbTableStyle
  3
ObjectDBX Classes
 90
     4095
280
     0
281
     0
  0
CLASS
  1
MLEADERSTYLE
  2
AcDbMLeaderStyle
  3
ACDB_MLEADERSTYLE_CLASS
 90
     4095
280
     0
281
     0
  0
CLASS
  1
SUN
  2
AcDbSun
  3
SCENEOE
 90
     1153
280
     0
281
     0
  0
CLASS
  1
ACDBPLACEHOLDER
  2
AcDbPlaceHolder
  3
ObjectDBX Classes
 90
        0
280
     0
281
     0
  0
CLASS
  1
LAYOUT
  2
AcDbLayout
  3
ObjectDBX Classes
 90
        0
280
     0
281
     0
  0
ENDSEC
  0
SECTION
  2
TABLES
  0
TABLE
  2
VPORT
  5
8
330
0
100
AcDbSymbolTable
 70
     1
  0
VPORT
  5
29
330
8
100
AcDbSymbolTableRecord
100
AcDbViewportTableRecord
  2
*Active
 70
     0
 10
0.0
 20
0.0
 11
1.0
 21
1.0
 12
2.3199302038
 22
-0.1321096087
 13
0.0
 23
0.0
 14
0.5
 24
0.5
 15
0.5
 25
0.5
 16
0.0
 26
0.0
 36
1.0
 17
0.0
 27
0.0
 37
0.0
 40
4.6254109704
 41
1.8226459605
 42
50.0
 43
0.0
 44
0.0
 50
0.0
 51
0.0
 71
     0
 72
   100
 73
     1
 74
     3
 75
     0
 76
     0
 77
     0
 78
     0
281
     0
 65
     1
110
0.0
120
0.0
130
0.0
111
1.0
121
0.0
131
0.0
112
0.0
122
1.0
132
0.0
 79
     0
146
0.0
  0
ENDTAB
  0
TABLE
  2
LTYPE
  5
5
330
0
100
AcDbSymbolTable
 70
     6
  0
LTYPE
  5
14
330
5
100
AcDbSymbolTableRecord
100
AcDbLinetypeTableRecord
  2
ByBlock
 70
     0
  3

 72
    65
 73
     0
 40
0.0
  0
LTYPE
  5
15
330
5
100
AcDbSymbolTableRecord
100
AcDbLinetypeTableRecord
  2
ByLayer
 70
     0
  3

 72
    65
 73
     0
 40
0.0
  0
LTYPE
  5
16
330
5
100
AcDbSymbolTableRecord
100
AcDbLinetypeTableRecord
  2
Continuous
 70
     0
  3
Solid line
 72
    65
 73
     0
 40
0.0
  0
LTYPE
  5
6E
330
5
100
AcDbSymbolTableRecord
100
AcDbLinetypeTableRecord
  2
HIDDEN
 70
     0
  3
Hidden __ __ __ __ __ __ __ __ __ __ __ __ __ __
 72
    65
 73
     2
 40
0.075
 49
0.05
 74
     0
 49
-0.025
 74
     0
  0
LTYPE
  5
6F
330
5
100
AcDbSymbolTableRecord
100
AcDbLinetypeTableRecord
  2
PHANTOM
 70
     0
  3
Phantom ______  __  __  ______  __  __  ______
 72
    65
 73
     6
 40
0.5
 49
0.25
 74
     0
 49
-0.05
 74
     0
 49
0.05
 74
     0
 49
-0.05
 74
     0
 49
0.05
 74
     0
 49
-0.05
 74
     0
  0
LTYPE
  5
70
330
5
100
AcDbSymbolTableRecord
100
AcDbLinetypeTableRecord
  2
CENTER
 70
     0
  3
Center ____ _ ____ _ ____ _ ____ _ ____ _ ____
 72
    65
 73
     4
 40
0.4
 49
0.25
 74
     0
 49
-0.05
 74
     0
 49
0.05
 74
     0
 49
-0.05
 74
     0
  0
LTYPE
  5
71
330
5
100
AcDbSymbolTableRecord
100
AcDbLinetypeTableRecord
  2
CENTERX2
 70
     0
  3
Center (2x) ________  __  ________  __  _____
 72
    65
 73
     4
 40
0.8
 49
0.5
 74
     0
 49
-0.1
 74
     0
 49
0.1
 74
     0
 49
-0.1
 74
     0
  0
LTYPE
  5
72
330
5
100
AcDbSymbolTableRecord
100
AcDbLinetypeTableRecord
  2
DOT2
 70
     0
  3
Dot (.5x) ........................................
 72
    65
 73
     2
 40
0.025
 49
0.0
 74
     0
 49
-0.025
 74
     0
  0
ENDTAB
  0
TABLE
  2
LAYER
  5
2
330
0
100
AcDbSymbolTable
 70
     1
  0
LAYER
  5
10
330
2
100
AcDbSymbolTableRecord
100
AcDbLayerTableRecord
  2
0
 70
     0
 62
     7
  6
Continuous
370
    -3
390
F
  0
ENDTAB
  0
TABLE
  2
STYLE
  5
3
330
0
100
AcDbSymbolTable
 70
     2
  0
STYLE
  5
11
330
3
100
AcDbSymbolTableRecord
100
AcDbTextStyleTableRecord
  2
Standard
 70
     0
 40
0.0
 41
1.0
 50
0.0
 71
     0
 42
0.25
  3
txt
  4

  0
STYLE
  5
83
330
3
100
AcDbSymbolTableRecord
100
AcDbTextStyleTableRecord
  2
SLDTEXTSTYLE0
 70
     0
 40
0.0
 41
0.7
 50
0.0
 71
     0
 42
0.25
  3
TXT
  4

  0
ENDTAB
  0
TABLE
  2
VIEW
  5
6
330
0
100
AcDbSymbolTable
 70
     0
  0
ENDTAB
  0
TABLE
  2
UCS
  5
7
330
0
100
AcDbSymbolTable
 70
     0
  0
ENDTAB
  0
TABLE
  2
APPID
  5
9
330
0
100
AcDbSymbolTable
 70
     1
  0
APPID
  5
12
330
9
100
AcDbSymbolTableRecord
100
AcDbRegAppTableRecord
  2
ACAD
 70
     0
  0
ENDTAB
  0
TABLE
  2
DIMSTYLE
  5
A
330
0
100
AcDbSymbolTable
 70
     1
100
AcDbDimStyleTable
  0
DIMSTYLE
105
27
330
A
100
AcDbSymbolTableRecord
100
AcDbDimStyleTableRecord
  2
Standard
 70
     0
178
     0
340
11
  0
ENDTAB
  0
TABLE
  2
BLOCK_RECORD
  5
1
330
0
100
AcDbSymbolTable
 70
     1
  0
BLOCK_RECORD
  5
1F
330
1
100
AcDbSymbolTableRecord
100
AcDbBlockTableRecord
  2
*Model_Space
340
22
  0
BLOCK_RECORD
  5
1B
330
1
100
AcDbSymbolTableRecord
100
AcDbBlockTableRecord
  2
*Paper_Space
340
1E
  0
BLOCK_RECORD
  5
23
330
1
100
AcDbSymbolTableRecord
100
AcDbBlockTableRecord
  2
*Paper_Space0
340
26
  0
ENDTAB
  0
ENDSEC
  0
SECTION
  2
BLOCKS
  0
BLOCK
  5
20
330
1F
100
AcDbEntity
  8
0
100
AcDbBlockBegin
  2
*Model_Space
 70
     0
 10
0.0
 20
0.0
 30
0.0
  3
*Model_Space
  1

  0
ENDBLK
  5
21
330
1F
100
AcDbEntity
  8
0
100
AcDbBlockEnd
  0
BLOCK
  5
1C
330
1B
100
AcDbEntity
 67
     1
  8
0
100
AcDbBlockBegin
  2
*Paper_Space
 70
     0
 10
0.0
 20
0.0
 30
0.0
  3
*Paper_Space
  1

  0
ENDBLK
  5
1D
330
1B
100
AcDbEntity
 67
     1
  8
0
100
AcDbBlockEnd
  0
BLOCK
  5
24
330
23
100
AcDbEntity
  8
0
100
AcDbBlockBegin
  2
*Paper_Space0
 70
     0
 10
0.0
 20
0.0
 30
0.0
  3
*Paper_Space0
  1

  0
ENDBLK
  5
25
330
23
100
AcDbEntity
  8
0
100
AcDbBlockEnd
  0
ENDSEC
  0
SECTION
  2
ENTITIES
  0
CIRCLE
  5
73
330
1F
100
AcDbEntity
  8
0
  6
Continuous
 62
     7
100
AcDbCircle
 10
0.0
 20
0.0
 30
0.0
 40
0.25
  0
CIRCLE
  5
74
330
1F
100
AcDbEntity
  8
0
  6
Continuous
 62
     7
100
AcDbCircle
 10
0.76
 20
0.0
 30
0.0
 40
0.1000000000000001
  0
CIRCLE
  5
75
330
1F
100
AcDbEntity
  8
0
  6
Continuous
 62
     7
100
AcDbCircle
 10
-0.38
 20
0.6581793069
 30
0.0
 40
0.1
  0
CIRCLE
  5
76
330
1F
100
AcDbEntity
  8
0
  6
Continuous
 62
     7
100
AcDbCircle
 10
-0.38
 20
-0.6581793069
 30
0.0
 40
0.1
  0
CIRCLE
  5
77
330
1F
100
AcDbEntity
  8
0
  6
Continuous
 62
     7
100
AcDbCircle
 10
0.51
 20
0.0
 30
0.0
 40
0.05
  0
CIRCLE
  5
78
330
1F
100
AcDbEntity
  8
0
  6
Continuous
 62
     7
100
AcDbCircle
 10
4.5876805172
 20
-0.6581793069
 30
0.0
 40
0.1000000000000001
  0
CIRCLE
  5
79
330
1F
100
AcDbEntity
  8
0
  6
Continuous
 62
     7
100
AcDbCircle
 10
4.5876805172
 20
0.6581793069
 30
0.0
 40
0.0999999999999991
  0
CIRCLE
  5
7A
330
1F
100
AcDbEntity
  8
0
  6
Continuous
 62
     7
100
AcDbCircle
 10
3.4476805172
 20
0.0
 30
0.0
 40
0.0999999999999996
  0
CIRCLE
  5
7B
330
1F
100
AcDbEntity
  8
0
  6
Continuous
 62
     7
100
AcDbCircle
 10
3.6976805172
 20
0.0
 30
0.0
 40
0.05
  0
CIRCLE
  5
7C
330
1F
100
AcDbEntity
  8
0
  6
Continuous
 62
     7
100
AcDbCircle
 10
4.2076805172
 20
0.0
 30
0.0
 40
0.250000000000001
  0
LWPOLYLINE
  5
81
330
1F
100
AcDbEntity
  8
0
  6
Continuous
 62
     7
100
AcDbPolyline
 90
       48
 70
   128
 43
0.0
 10
0.0
 20
1.5149253731
 10
-0.0071898733
 20
1.5117808364
 10
-0.0128333775
 20
1.5093138861
 10
-0.0228787144
 20
1.5048217634
 10
-0.0407276341
 20
1.4966010693
 10
-0.072308318
 20
1.4813037179
 10
-0.1277040672
 20
1.4520234019
 10
-0.2230528516
 20
1.3935190989
 10
-0.3795860199
 20
1.2696481023
 10
-0.6006480144
 20
0.9913653964
 10
-0.6460789924
 20
0.9007906972
 10
-0.651157662
 20
0.8891853129
 10
-0.654340219
 20
0.8838412786
 10
-0.6605812525
 20
0.8829308834
 10
-0.6857352972
 20
0.8798719342
 10
-0.7357937376
 20
0.8719606948
 10
-0.9306784074
 20
0.8171222304
 10
-1.2784301419
 20
0.6121365413
 10
-1.5484169626
 20
0.3114883153
 10
-1.7276158004
 20
-0.0509821746
 10
-1.812661277
 20
-0.4464734744
 10
-1.8062374849
 20
-0.8510888892
 10
-1.714839726
 20
-1.2454034331
 10
-1.5473114705
 20
-1.6139634559
 10
-1.3983341927
 20
-1.8393204697
 10
-1.2232481552
 20
-2.045065132
 10
-0.9946250977
 20
-2.1843241561
 10
-0.4816193472
 20
-2.3512962188
 10
0.0557204488
 20
-2.3994679276
 10
0.5902449427
 20
-2.3264053842
 10
1.0949470316
 20
-2.1358001081
 10
1.5443264037
 20
-1.8372825212
 10
1.9156779537
 20
-1.4459353656
 10
2.1902389688
 20
-0.9815316417
 10
2.3541371237
 20
-0.4675355672
 10
2.3990913868
 20
0.0700829631
 10
2.2981053332
 20
0.5946579691
 10
1.9752341465
 20
1.0266389153
 10
1.5550701533
 20
1.3644145932
 10
1.1890023924
 20
1.5370409567
 10
0.7943640278
 20
1.6263365511
 10
0.3418463669
 20
1.6137388304
 10
0.1475780067
 20
1.5675816633
 10
0.0643900518
 20
1.539165428
 10
0.0283600813
 20
1.5250840629
 10
0.0126312743
 20
1.5185731947
 10
0.0057712677
 20
1.5154738978
 10
0.0
 20
1.5149253731
  0
LWPOLYLINE
  5
82
330
1F
100
AcDbEntity
  8
0
  6
Continuous
 62
     7
100
AcDbPolyline
 90
      875
 70
   128
 43
0.0
 10
2.6979197667
 20
0.0
 10
2.6962250071
 20
0.0067325011
 10
2.6945335158
 20
0.0119545797
 10
2.6923197839
 20
0.0214408862
 10
2.6913366313
 20
0.0268816972
 10
2.6896191516
 20
0.0321901902
 10
2.6890369114
 20
0.0383829675
 10
2.6867427717
 20
0.0429195001
 10
2.6865447133
 20
0.0485006711
 10
2.6850173008
 20
0.053850877
 10
2.6838215856
 20
0.0599356841
 10
2.6820516558
 20
0.0645803657
 10
2.6816208115
 20
0.0701166031
 10
2.6809189287
 20
0.0756043577
 10
2.6793453271
 20
0.0809631988
 10
2.6792000035
 20
0.0865366337
 10
2.6766797812
 20
0.0924351064
 10
2.6768047189
 20
0.0973704013
 10
2.6754981291
 20
0.1027753019
 10
2.6745738626
 20
0.1082383175
 10
2.6719421003
 20
0.1204052003
 10
2.6720497519
 20
0.1259127813
 10
2.6706786661
 20
0.1300670911
 10
2.6705559514
 20
0.1362939065
 10
2.6685535714
 20
0.1409733328
 10
2.6687105064
 20
0.1465567979
 10
2.6674546207
 20
0.1519906908
 10
2.6669254752
 20
0.1575042224
 10
2.6669205241
 20
0.1630636064
 10
2.6648894485
 20
0.1691038556
 10
2.6647270692
 20
0.1739791344
 10
2.6636626637
 20
0.1794469908
 10
2.6638836211
 20
0.1850207072
 10
2.6624371958
 20
0.1960153743
 10
2.6609763368
 20
0.2070146954
 10
2.6608639116
 20
0.2125535089
 10
2.6597614089
 20
0.2180358562
 10
2.6596971689
 20
0.224991415
 10
2.6581326654
 20
0.2303757881
 10
2.6577596721
 20
0.2401178131
 10
2.6563105023
 20
0.2524797831
 10
2.6562081395
 20
0.2622303288
 10
2.6556834183
 20
0.2677597741
 10
2.6562828372
 20
0.2733143468
 10
2.6549616277
 20
0.284366248
 10
2.6541566207
 20
0.2898971611
 10
2.6547389739
 20
0.2954443067
 10
2.6541089269
 20
0.3065210192
 10
2.653494129
 20
0.3176029679
 10
2.6537374054
 20
0.3231391624
 10
2.6530496972
 20
0.328689442
 10
2.6535874424
 20
0.3356339605
 10
2.6522971929
 20
0.3411214979
 10
2.6525389944
 20
0.3508733009
 10
2.6529548831
 20
0.3578173667
 10
2.6519470356
 20
0.363316127
 10
2.6524221637
 20
0.3730602466
 10
2.6525233009
 20
0.3800175727
 10
2.6535791908
 20
0.385435966
 10
2.652674982
 20
0.3952489378
 10
2.652772922
 20
0.4007979285
 10
2.6537237881
 20
0.4062918088
 10
2.6534890866
 20
0.4125269166
 10
2.654165626
 20
0.4173717143
 10
2.6530626336
 20
0.4236750031
 10
2.654244974
 20
0.4284784429
 10
2.6542634345
 20
0.4347029408
 10
2.6545272985
 20
0.4395790983
 10
2.6555865816
 20
0.4473045288
 10
2.6544947189
 20
0.4535485726
 10
2.6555980878
 20
0.4644235259
 10
2.6556668172
 20
0.4754089224
 10
2.6566925541
 20
0.4839386493
 10
2.6579633903
 20
0.4893739162
 10
2.6578315651
 20
0.494971635
 10
2.6581569183
 20
0.5061106451
 10
2.6596636609
 20
0.5171008534
 10
2.6616348029
 20
0.5280273894
 10
2.6612651258
 20
0.5359525773
 10
2.6628078857
 20
0.5419135199
 10
2.6630139019
 20
0.5480734299
 10
2.6642774932
 20
0.5527478009
 10
2.6636130949
 20
0.559051031
 10
2.665158366
 20
0.5636745901
 10
2.6664434309
 20
0.5721682055
 10
2.6682535601
 20
0.5844652552
 10
2.6692917211
 20
0.5941945431
 10
2.6695012463
 20
0.5997977342
 10
2.6711614643
 20
0.6051328409
 10
2.6728393487
 20
0.6161089076
 10
2.6744691665
 20
0.6270973738
 10
2.676119428
 20
0.6380886515
 10
2.6778399415
 20
0.6504357113
 10
2.6799166202
 20
0.6599812669
 10
2.6840253093
 20
0.681818605
 10
2.6882437678
 20
0.7036502226
 10
2.6919682661
 20
0.717069966
 10
2.6929890339
 20
0.7231400516
 10
2.6950184752
 20
0.7275809232
 10
2.6965362888
 20
0.7385062854
 10
2.6986211445
 20
0.7468518281
 10
2.7005211966
 20
0.7544230734
 10
2.7029192659
 20
0.7601103919
 10
2.7051190718
 20
0.770866337
 10
2.7083150075
 20
0.7813325327
 10
2.7091636643
 20
0.7900685265
 10
2.7115601747
 20
0.7974956529
 10
2.7140448316
 20
0.8031370562
 10
2.7153786409
 20
0.8091451907
 10
2.7171986742
 20
0.8136193596
 10
2.7199064814
 20
0.824248677
 10
2.722497104
 20
0.8324499031
 10
2.7265870684
 20
0.845778245
 10
2.7298010427
 20
0.856250965
 10
2.7330874389
 20
0.8667039684
 10
2.7363290061
 20
0.874676573
 10
2.7403413735
 20
0.8898385191
 10
2.7440350493
 20
0.9015611501
 10
2.7469897694
 20
0.9077789198
 10
2.7481765321
 20
0.9131127062
 10
2.7508375
 20
0.9178628172
 10
2.7517194922
 20
0.9220770112
 10
2.7547444692
 20
0.9282638019
 10
2.7554763818
 20
0.9337966741
 10
2.7591754818
 20
0.9426989341
 10
2.7619587813
 20
0.9473828895
 10
2.762839046
 20
0.9516159484
 10
2.7663248329
 20
0.9583622639
 10
2.7687089489
 20
0.9668550324
 10
2.7711698816
 20
0.9732799025
 10
2.7754709623
 20
0.9847986897
 10
2.7788358269
 20
0.9908161105
 10
2.7802983138
 20
0.9960824864
 10
2.7843025914
 20
1.0048539617
 10
2.7886561441
 20
1.0163703443
 10
2.7928278954
 20
1.025064684
 10
2.795834971
 20
1.0296071424
 10
2.7969492875
 20
1.0337831058
 10
2.8006101843
 20
1.0404269075
 10
2.8046010622
 20
1.0482093712
 10
2.8077718982
 20
1.0543035096
 10
2.8132620972
 20
1.0652780091
 10
2.8149377651
 20
1.0721462497
 10
2.8181748378
 20
1.0765488226
 10
2.8199372144
 20
1.0817214348
 10
2.8226107488
 20
1.0851087513
 10
2.8253587852
 20
1.0914297631
 10
2.8280497589
 20
1.0961161749
 10
2.8319404474
 20
1.1049723684
 10
2.8393087513
 20
1.1205803078
 10
2.8438398261
 20
1.1280683635
 10
2.8468853753
 20
1.1342411986
 10
2.8498740621
 20
1.1404539927
 10
2.8533017196
 20
1.1447120112
 10
2.8585201849
 20
1.1558758219
 10
2.863375063
 20
1.1642096463
 10
2.8663375656
 20
1.1704504738
 10
2.8698082464
 20
1.1746662508
 10
2.8734947947
 20
1.1837141771
 10
2.8784832651
 20
1.1919731112
 10
2.8823979376
 20
1.1984684416
 10
2.8876738364
 20
1.2067304088
 10
2.8912841114
 20
1.213559723
 10
2.8950536594
 20
1.2202945011
 10
2.898991518
 20
1.2249536691
 10
2.905748333
 20
1.2369658484
 10
2.9115173761
 20
1.2461071772
 10
2.9244568516
 20
1.2670118401
 10
2.935649427
 20
1.2827330897
 10
2.9388088014
 20
1.2899384925
 10
2.9428759142
 20
1.2944718397
 10
2.9491550266
 20
1.3032682168
 10
2.9595640138
 20
1.319568555
 10
2.9796553103
 20
1.3475991545
 10
2.9893002822
 20
1.359908552
 10
2.996470405
 20
1.3699000138
 10
3.0037202768
 20
1.3798375419
 10
3.0100056429
 20
1.3871683861
 10
3.0173503938
 20
1.3970342609
 10
3.0235472607
 20
1.4044347169
 10
3.0284260557
 20
1.4129537054
 10
3.0336148429
 20
1.418501774
 10
3.0439628437
 20
1.4302272941
 10
3.0510102455
 20
1.4403960142
 10
3.0595132188
 20
1.4492803392
 10
3.0658505101
 20
1.4565682415
 10
3.0731234868
 20
1.4665736548
 10
3.0796328404
 20
1.4737110613
 10
3.0862044939
 20
1.480791237
 10
3.0918831565
 20
1.4858674433
 10
3.0977336981
 20
1.4938403965
 10
3.1028029599
 20
1.4996643731
 10
3.1086169522
 20
1.5047676751
 10
3.1117622738
 20
1.5101624776
 10
3.1215903231
 20
1.5198076866
 10
3.1293008598
 20
1.5273973749
 10
3.1594309296
 20
1.5594012335
 10
3.1652650757
 20
1.5644529568
 10
3.169120151
 20
1.5692009437
 10
3.1768574954
 20
1.5767745873
 10
3.1848166504
 20
1.5841049277
 10
3.1912068305
 20
1.5897114729
 10
3.1951496154
 20
1.5943870865
 10
3.1992348869
 20
1.5969644064
 10
3.2044082045
 20
1.6039409816
 10
3.2162517695
 20
1.6134646961
 10
3.2287922092
 20
1.6257687675
 10
3.2347497069
 20
1.6306675743
 10
3.2389085786
 20
1.6351381031
 10
3.2451259563
 20
1.6397317798
 10
3.2497435563
 20
1.6436545239
 10
3.2572116508
 20
1.6516144163
 10
3.2680077348
 20
1.6601743843
 10
3.2758264906
 20
1.6677308024
 10
3.2912517981
 20
1.6793885194
 10
3.3017045998
 20
1.6883900296
 10
3.3102226238
 20
1.695068621
 10
3.3187948555
 20
1.7016782374
 10
3.3255455636
 20
1.7068499474
 10
3.3332543507
 20
1.7146327845
 10
3.340309495
 20
1.7194008859
 10
3.3525881862
 20
1.7283421072
 10
3.3600323114
 20
1.7348235385
 10
3.3666082763
 20
1.7388877205
 10
3.377753999
 20
1.7469944024
 10
3.3886661562
 20
1.755440893
 10
3.3975669338
 20
1.7616063383
 10
3.4086654594
 20
1.7698008487
 10
3.4176006276
 20
1.7759171458
 10
3.4266395628
 20
1.7818782086
 10
3.4336379311
 20
1.7867221086
 10
3.469961518
 20
1.8115302007
 10
3.4792312631
 20
1.8171296025
 10
3.4864478975
 20
1.8216383227
 10
3.4990445045
 20
1.8301886793
 10
3.5074083845
 20
1.8353496184
 10
3.513867636
 20
1.8396076483
 10
3.5209093426
 20
1.8428471625
 10
3.5254578444
 20
1.8471249764
 10
3.5325280345
 20
1.8503022776
 10
3.5374451803
 20
1.8539387112
 10
3.54691793
 20
1.8591983256
 10
3.5585465964
 20
1.8666863527
 10
3.5681072019
 20
1.8717869766
 10
3.5777017055
 20
1.876822417
 10
3.5850199014
 20
1.8811939682
 10
3.5916348885
 20
1.8852175751
 10
3.5973963977
 20
1.8872791561
 10
3.6070633924
 20
1.8921666849
 10
3.6160160286
 20
1.8984861613
 10
3.6236289449
 20
1.9023034063
 10
3.6412849094
 20
1.9102387367
 10
3.6546113966
 20
1.917610344
 10
3.6635554606
 20
1.921683649
 10
3.6703756594
 20
1.9253324394
 10
3.682409743
 20
1.9321943871
 10
3.6951983031
 20
1.9373828868
 10
3.70455589
 20
1.9430356095
 10
3.7172297098
 20
1.9484817397
 10
3.727186271
 20
1.9527679316
 10
3.7369917298
 20
1.9574223522
 10
3.7449761144
 20
1.9603933094
 10
3.7576515413
 20
1.9658440441
 10
3.7677712846
 20
1.9697236266
 10
3.77738693
 20
1.9748854796
 10
3.7851964368
 20
1.9783100051
 10
3.7953149885
 20
1.9822039934
 10
3.8034938156
 20
1.9846532417
 10
3.8174493646
 20
1.9907596066
 10
3.8278454362
 20
1.9943911077
 10
3.8354319012
 20
1.9988833026
 10
3.8502549766
 20
2.0033064927
 10
3.8647993022
 20
2.0085351939
 10
3.8761179947
 20
2.0129652769
 10
3.8906259373
 20
2.0183291597
 10
3.9021668135
 20
2.0221086368
 10
3.9136838136
 20
2.0259595208
 10
3.9227848561
 20
2.02881704
 10
3.9374971429
 20
2.0335646361
 10
3.9489906968
 20
2.0375179753
 10
3.9606738433
 20
2.0408275742
 10
3.9693929229
 20
2.0450879328
 10
3.9811008381
 20
2.0483264312
 10
3.9903617174
 20
2.0506443583
 10
4.0065764742
 20
2.0560163447
 10
4.0216848474
 20
2.059322892
 10
4.0335111621
 20
2.062094087
 10
4.0449543065
 20
2.0664789666
 10
4.0542957065
 20
2.0684567558
 10
4.0919209036
 20
2.0777165917
 10
4.1297186981
 20
2.086250009
 10
4.1462626336
 20
2.0905320414
 10
4.1537753064
 20
2.0911324266
 10
4.1594256312
 20
2.0930202974
 10
4.1702808406
 20
2.0949393282
 10
4.1789197467
 20
2.0957919899
 10
4.1940436179
 20
2.09911158
 10
4.2092073627
 20
2.1022419876
 10
4.2212123956
 20
2.1041121063
 10
4.2364137773
 20
2.1070649001
 10
4.2484349712
 20
2.1088646709
 10
4.2604797341
 20
2.1104671126
 10
4.2699633348
 20
2.1115533605
 10
4.2784973744
 20
2.1131241787
 10
4.2852760142
 20
2.1137596892
 10
4.297286077
 20
2.1156818283
 10
4.3093727268
 20
2.1169307579
 10
4.3188380139
 20
2.1182249419
 10
4.3572639579
 20
2.1237076094
 10
4.3659425068
 20
2.1238139863
 10
4.372670446
 20
2.1251307008
 10
4.3848007534
 20
2.1259225287
 10
4.3968903577
 20
2.1274060957
 10
4.4064529589
 20
2.1274518967
 10
4.4185842762
 20
2.1281930691
 10
4.4281208787
 20
2.1286575899
 10
4.4451217138
 20
2.130233162
 10
4.4572683339
 20
2.1306572747
 10
4.4667691905
 20
2.1325704672
 10
4.4838290119
 20
2.1325628645
 10
4.500884608
 20
2.1327987265
 10
4.51427673
 20
2.1335720726
 10
4.5253022305
 20
2.1337039648
 10
4.5339688314
 20
2.1343233344
 10
4.5494550874
 20
2.1352487101
 10
4.5649178279
 20
2.1344389008
 10
4.5770720755
 20
2.1341515114
 10
4.6047261043
 20
2.1345096676
 10
4.6264431192
 20
2.1341499719
 10
4.6419360191
 20
2.1340861781
 10
4.6540797527
 20
2.1334265387
 10
4.6662185823
 20
2.1327404499
 10
4.6757614231
 20
2.1322833896
 10
4.6975174084
 20
2.1319411299
 10
4.7069948351
 20
2.1306232403
 10
4.7145283577
 20
2.130614255
 10
4.7298872767
 20
2.1286104954
 10
4.7421591731
 20
2.1291289042
 10
4.7542602181
 20
2.1278955459
 10
4.7637258662
 20
2.126535492
 10
4.7854030587
 20
2.124959527
 10
4.7949338039
 20
2.1241456445
 10
4.8022835912
 20
2.1224206769
 10
4.814514553
 20
2.1221548459
 10
4.8240350498
 20
2.1212225774
 10
4.833463755
 20
2.1196285321
 10
4.8408195274
 20
2.1180468125
 10
4.8578282087
 20
2.1164066628
 10
4.8710651187
 20
2.1142710524
 10
4.8819610489
 20
2.1125449096
 10
4.8907360569
 20
2.1124324437
 10
4.9060531347
 20
2.1101372335
 10
4.9214297161
 20
2.1081315086
 10
4.9333657564
 20
2.1057700615
 10
4.9486050311
 20
2.1030253145
 10
4.9606321105
 20
2.1011065456
 10
4.972515777
 20
2.0984987349
 10
4.9818313753
 20
2.0963626157
 10
4.9970026961
 20
2.0932656152
 10
5.0090972636
 20
2.0916113471
 10
5.0304396704
 20
2.0874516408
 10
5.0515369941
 20
2.082274671
 10
5.0681504004
 20
2.0783397054
 10
5.0833023024
 20
2.0750869098
 10
5.095065927
 20
2.0719831384
 10
5.1164667771
 20
2.0678480825
 10
5.13722539
 20
2.0613981687
 10
5.1538668647
 20
2.0574645238
 10
5.1746050674
 20
2.0509796288
 10
5.1911930954
 20
2.0468233424
 10
5.2202619048
 20
2.0376181488
 10
5.2310165513
 20
2.0349746988
 10
5.2393736594
 20
2.0326004915
 10
5.2539333818
 20
2.0273078428
 10
5.2689414403
 20
2.0232736685
 10
5.2803977917
 20
2.0191573517
 10
5.2948174946
 20
2.0134861567
 10
5.3065963804
 20
2.0102226522
 10
5.3178943415
 20
2.0056860592
 10
5.326666734
 20
2.0018607282
 10
5.3415196093
 20
1.997311267
 10
5.3528587764
 20
1.9928867192
 10
5.373248575
 20
1.9853120347
 10
5.3844469928
 20
1.9805434113
 10
5.3933584849
 20
1.9770670148
 10
5.4090049374
 20
1.9702176668
 10
5.4235117887
 20
1.9647328157
 10
5.4346517917
 20
1.9598293566
 10
5.4457782967
 20
1.954893544
 10
5.4550400189
 20
1.9521428999
 10
5.4745514046
 20
1.9425490357
 10
5.4904170366
 20
1.9361450623
 10
5.5102666884
 20
1.9272481474
 10
5.5259998577
 20
1.9205117091
 10
5.5409641736
 20
1.9122503795
 10
5.5528648086
 20
1.9060441014
 10
5.5633616383
 20
1.9022837506
 10
5.5707018099
 20
1.8975994937
 10
5.5844682438
 20
1.8904845391
 10
5.5984392171
 20
1.8837490167
 10
5.6091350913
 20
1.8779343019
 10
5.6227140788
 20
1.8704678732
 10
5.6340041935
 20
1.8657009701
 10
5.6529533637
 20
1.8550253347
 10
5.6769412075
 20
1.8412192339
 10
5.6873655926
 20
1.8349278932
 10
5.6956981167
 20
1.8302198762
 10
5.706763946
 20
1.824963947
 10
5.7145388661
 20
1.81934583
 10
5.7293166022
 20
1.8107503867
 10
5.7426440454
 20
1.8028259559
 10
5.7528468239
 20
1.796178668
 10
5.7719123357
 20
1.7855881025
 10
5.7819117923
 20
1.7786274219
 10
5.789594635
 20
1.772906828
 10
5.8040078713
 20
1.7637138497
 10
5.8225745157
 20
1.7523244002
 10
5.8361559584
 20
1.7419297746
 10
5.8615818554
 20
1.7250240928
 10
5.8778853575
 20
1.7138917815
 10
5.8902762594
 20
1.7045754793
 10
5.9027850475
 20
1.6954157582
 10
5.9130510145
 20
1.6887889429
 10
5.9250871461
 20
1.6790118769
 10
5.934745328
 20
1.6715896804
 10
5.9522838523
 20
1.6586961285
 10
5.9745045675
 20
1.6421387521
 10
5.9915325252
 20
1.6285857865
 10
6.0086236316
 20
1.6150988407
 10
6.021175543
 20
1.6034796501
 10
6.0328773949
 20
1.5933080936
 10
6.0430556271
 20
1.5864287924
 10
6.0522335454
 20
1.5784112963
 10
6.0591086471
 20
1.5717367618
 10
6.0760633986
 20
1.5580335862
 10
6.0883252338
 20
1.5461140901
 10
6.1044831547
 20
1.5315366009
 10
6.117128258
 20
1.5200222812
 10
6.1298503005
 20
1.5085809886
 10
6.139375992
 20
1.4991106087
 10
6.1538596817
 20
1.4856828148
 10
6.1653705541
 20
1.4752466661
 10
6.1763002606
 20
1.4642392787
 10
6.1847231525
 20
1.4554292643
 10
6.1957136572
 20
1.4444749586
 10
6.2038927319
 20
1.4354396719
 10
6.2122485311
 20
1.4265718539
 10
6.21973414
 20
1.4204509108
 10
6.2384334932
 20
1.4000160118
 10
6.2538696973
 20
1.3846183995
 10
6.2676494484
 20
1.3677551245
 10
6.279196678
 20
1.3551345135
 10
6.2895519531
 20
1.3435820697
 10
6.2973793344
 20
1.3342429194
 10
6.3052868692
 20
1.3249699049
 10
6.3122646594
 20
1.3183106476
 10
6.3260786895
 20
1.3014928579
 10
6.337758041
 20
1.2889347263
 10
6.3454016694
 20
1.2794366557
 10
6.3508973105
 20
1.2715731479
 10
6.3618297089
 20
1.2584098233
 10
6.3807338836
 20
1.2344328632
 10
6.4118409445
 20
1.118695975
 10
6.4341339708
 20
1.0002972835
 10
6.4503770605
 20
0.8809184441
 10
6.4525216845
 20
0.3998593928
 10
6.3502186081
 20
-0.0700796504
 10
6.1419742565
 20
-0.5034343491
 10
5.8324943442
 20
-0.8711145602
 10
5.4351807291
 20
-1.1409964174
 10
4.9756760017
 20
-1.279371692
 10
4.6153213165
 20
-1.2773634673
 10
4.27088224
 20
-1.1725344646
 10
4.1159836385
 20
-1.0798469338
 10
4.0453459843
 20
-1.0235348476
 10
4.0120900012
 20
-0.992952375
 10
4.0030464651
 20
-0.9841049728
 10
3.9990861821
 20
-0.9801938252
 10
3.995929328
 20
-0.9771731646
 10
3.9931391317
 20
-0.977083732
 10
3.9905094244
 20
-0.9779439897
 10
3.9877597073
 20
-0.9774935642
 10
3.9851154957
 20
-0.9784995601
 10
3.9823638769
 20
-0.9778989436
 10
3.9797196579
 20
-0.9790154747
 10
3.9770683068
 20
-0.9800710603
 10
3.9743218237
 20
-0.9794427449
 10
3.9716615806
 20
-0.9804389361
 10
3.9689238966
 20
-0.9798935641
 10
3.9662531057
 20
-0.9807814077
 10
3.9635248165
 20
-0.9803678358
 10
3.9581741835
 20
-0.9821913563
 10
3.9554510648
 20
-0.981820096
 10
3.9527519708
 20
-0.982228945
 10
3.9500459426
 20
-0.9823164238
 10
3.9473304776
 20
-0.9821836224
 10
3.9419474836
 20
-0.9836796815
 10
3.9392302186
 20
-0.9834376192
 10
3.9365319389
 20
-0.9840546461
 10
3.9338123345
 20
-0.9835578115
 10
3.9311121125
 20
-0.9843460059
 10
3.9283940288
 20
-0.9836163178
 10
3.925689786
 20
-0.984623606
 10
3.9229814452
 20
-0.9854907441
 10
3.9202697665
 20
-0.9847136036
 10
3.9175559686
 20
-0.9855526851
 10
3.9148485828
 20
-0.9848856703
 10
3.9121304598
 20
-0.985565179
 10
3.9094244913
 20
-0.985104689
 10
3.9039779688
 20
-0.9865015845
 10
3.9012723973
 20
-0.9861624706
 10
3.8985566333
 20
-0.9861832013
 10
3.8958415507
 20
-0.986357135
 10
3.8931338826
 20
-0.9860319906
 10
3.890408517
 20
-0.9864925911
 10
3.8877157573
 20
-0.985764934
 10
3.8846357346
 20
-0.9869254195
 10
3.8822302197
 20
-0.9873584937
 10
3.879547997
 20
-0.9865011156
 10
3.8767999048
 20
-0.9872555604
 10
3.8741200389
 20
-0.9864429731
 10
3.8713831806
 20
-0.9868565333
 10
3.8659320319
 20
-0.9872124321
 10
3.8631995962
 20
-0.9874209226
 10
3.8604940362
 20
-0.9872263614
 10
3.8577822959
 20
-0.9870507349
 10
3.8550535625
 20
-0.9872155528
 10
3.8495888786
 20
-0.987496291
 10
3.8468419805
 20
-0.9878422373
 10
3.8441845609
 20
-0.9869457713
 10
3.8414102401
 20
-0.9876079367
 10
3.8387623259
 20
-0.9866455222
 10
3.8359886374
 20
-0.9872289313
 10
3.8333299223
 20
-0.9864460783
 10
3.8277805722
 20
-0.9875013465
 10
3.8251049727
 20
-0.9869435309
 10
3.8223934878
 20
-0.9867352882
 10
3.8196620877
 20
-0.9867741074
 10
3.816992902
 20
-0.9861383484
 10
3.8142240355
 20
-0.9865162733
 10
3.8115976821
 20
-0.9855025477
 10
3.8084506988
 20
-0.9862947962
 10
3.8059941655
 20
-0.9867440259
 10
3.803380197
 20
-0.9856788475
 10
3.8005958329
 20
-0.9860829895
 10
3.7952343548
 20
-0.9851328848
 10
3.7896957596
 20
-0.9856245032
 10
3.7870284558
 20
-0.9850367617
 10
3.7842579833
 20
-0.9852625402
 10
3.781644943
 20
-0.9842818689
 10
3.7788377421
 20
-0.9847438445
 10
3.7762513255
 20
-0.9836030024
 10
3.7734609057
 20
-0.9839098029
 10
3.768009689
 20
-0.9836140675
 10
3.7652601496
 20
-0.9835940521
 10
3.7625769433
 20
-0.9831625122
 10
3.7599011298
 20
-0.982651257
 10
3.757145102
 20
-0.9826761798
 10
3.7517056793
 20
-0.9822111201
 10
3.7488961682
 20
-0.9825197545
 10
3.7463428714
 20
-0.9813003662
 10
3.7435272808
 20
-0.9816144734
 10
3.7409368719
 20
-0.9806381623
 10
3.7381805186
 20
-0.9805865041
 10
3.735511073
 20
-0.9800663448
 10
3.7299887996
 20
-0.9799885014
 10
3.7272453433
 20
-0.9798534448
 10
3.724690745
 20
-0.9787116022
 10
3.7218564093
 20
-0.9790367296
 10
3.7193228966
 20
-0.9778076829
 10
3.7136561347
 20
-0.9783797314
 10
3.7083813553
 20
-0.976985962
 10
3.7056510891
 20
-0.9767517109
 10
3.7030776868
 20
-0.9757486422
 10
3.7002591874
 20
-0.9759139183
 10
3.6977606267
 20
-0.9745810205
 10
3.6945836228
 20
-0.9748312772
 10
3.6920521279
 20
-0.9751745167
 10
3.6895276835
 20
-0.97398863
 10
3.6867873588
 20
-0.9737472161
 10
3.6841264612
 20
-0.9731746464
 10
3.6815154449
 20
-0.9723651472
 10
3.6787343211
 20
-0.9723003054
 10
3.6762486654
 20
-0.9709718634
 10
3.6705212089
 20
-0.9714779708
 10
3.6680438914
 20
-0.9701431543
 10
3.6652704583
 20
-0.9699997813
 10
3.6600769903
 20
-0.9683089098
 10
3.6543990378
 20
-0.9685089425
 10
3.651939303
 20
-0.9671393859
 10
3.649085153
 20
-0.9672718732
 10
3.6466253642
 20
-0.9659210013
 10
3.643840063
 20
-0.9657749654
 10
3.6386818891
 20
-0.9639706706
 10
3.6330137827
 20
-0.9640052628
 10
3.6305727353
 20
-0.9626148219
 10
3.6277157386
 20
-0.9626902807
 10
3.6252873827
 20
-0.9612724619
 10
3.6224990812
 20
-0.9610901375
 10
3.6173789757
 20
-0.9591724239
 10
3.6117075659
 20
-0.9591003805
 10
3.6092972754
 20
-0.9576496268
 10
3.6064392087
 20
-0.9576654369
 10
3.6040314888
 20
-0.9562224049
 10
3.6012605831
 20
-0.9559389862
 10
3.5961782148
 20
-0.9539182936
 10
3.5904874735
 20
-0.953795709
 10
3.5881197879
 20
-0.9522538225
 10
3.5852708033
 20
-0.9521827917
 10
3.5802175971
 20
-0.9500818633
 10
3.5746368889
 20
-0.9495548421
 10
3.5722151759
 20
-0.9481980281
 10
3.5693708703
 20
-0.9480766352
 10
3.5670410536
 20
-0.9464664281
 10
3.5642258914
 20
-0.9462439331
 10
3.5592221992
 20
-0.9440200072
 10
3.5535787673
 20
-0.9435836379
 10
3.5512413138
 20
-0.9420212116
 10
3.5483859165
 20
-0.9418777255
 10
3.5460518418
 20
-0.9403198251
 10
3.5433148875
 20
-0.9398408685
 10
3.5383473807
 20
-0.9375385695
 10
3.5326365138
 20
-0.9371877286
 10
3.5303655414
 20
-0.9354872048
 10
3.5275494874
 20
-0.9351907
 10
3.5225508692
 20
-0.9329725174
 10
3.5175872519
 20
-0.9306765192
 10
3.511841375
 20
-0.9303150306
 10
3.5068857734
 20
-0.9279925902
 10
3.5019895461
 20
-0.9255386107
 10
3.4962607233
 20
-0.9250651227
 10
3.494036951
 20
-0.9233127336
 10
3.4912994124
 20
-0.9227599907
 10
3.486390757
 20
-0.9203405195
 10
3.4836465206
 20
-0.9198003994
 10
3.4814463614
 20
-0.9180111929
 10
3.4757325303
 20
-0.9174107743
 10
3.4709131999
 20
-0.9147936392
 10
3.4682350439
 20
-0.9140852498
 10
3.4660154507
 20
-0.9123609467
 10
3.463180393
 20
-0.9119845894
 10
3.4609616509
 20
-0.9102697562
 10
3.455423049
 20
-0.9092050787
 10
3.4506694496
 20
-0.9064651527
 10
3.4478437847
 20
-0.9060392714
 10
3.4456808638
 20
-0.9042267072
 10
3.4405416696
 20
-0.902292975
 10
3.4346305071
 20
-0.9004274251
 10
3.4304634214
 20
-0.8979981478
 10
3.425339933
 20
-0.8960136085
 10
3.4201780626
 20
-0.8940909895
 10
3.4153196536
 20
-0.8915785593
 10
3.4126395753
 20
-0.8908012134
 10
3.4102372279
 20
-0.8894955403
 10
3.4079325596
 20
-0.8879935895
 10
3.4051903792
 20
-0.8873320219
 10
3.4004507412
 20
-0.8845844521
 10
3.3952149345
 20
-0.882771187
 10
3.3929388268
 20
-0.8812234015
 10
3.3901914884
 20
-0.8805486195
 10
3.3881553689
 20
-0.8785677414
 10
3.3854160328
 20
-0.8778666585
 10
3.3808715533
 20
-0.8747746507
 10
3.3752770185
 20
-0.873560113
 10
3.3732676703
 20
-0.8715523085
 10
3.370581165
 20
-0.8707362407
 10
3.3654203153
 20
-0.867408938
 10
3.3604575779
 20
-0.8663630258
 10
3.3558555196
 20
-0.8633794126
 10
3.3513094046
 20
-0.8603089987
 10
3.348565797
 20
-0.8595653123
 10
3.3465928166
 20
-0.8575298745
 10
3.3411251962
 20
-0.8559857666
 10
3.3367129354
 20
-0.8527004623
 10
3.3339496084
 20
-0.8519655259
 10
3.331969775
 20
-0.8499605491
 10
3.3270255146
 20
-0.8475368834
 10
3.3221964325
 20
-0.8449194942
 10
3.3174241388
 20
-0.8422171417
 10
3.3125069153
 20
-0.839732984
 10
3.3105516161
 20
-0.8377084632
 10
3.3078059321
 20
-0.8369049037
 10
3.3035023514
 20
-0.8334719802
 10
3.2980976342
 20
-0.8317107809
 10
3.2935541178
 20
-0.8286399063
 10
3.2886662341
 20
-0.8249078418
 10
3.2838066508
 20
-0.8234733142
 10
3.2794499949
 20
-0.8201289073
 10
3.2751446161
 20
-0.8167184063
 10
3.2724368444
 20
-0.8158078249
 10
3.2705695935
 20
-0.8136973863
 10
3.265343746
 20
-0.8115869196
 10
3.2627400699
 20
-0.8099501325
 10
3.2611328319
 20
-0.8080494858
 10
3.2584550851
 20
-0.8070747881
 10
3.2564574058
 20
-0.8051608324
 10
3.2517004458
 20
-0.8023745652
 10
3.2473772799
 20
-0.798991978
 10
3.2424280917
 20
-0.7964602975
 10
3.2401580428
 20
-0.7943634548
 10
3.2378047772
 20
-0.7934788671
 10
3.2358046626
 20
-0.7910299133
 10
3.2335835246
 20
-0.7899620242
 10
3.2294880716
 20
-0.7862879987
 10
3.2235113531
 20
-0.7839779136
 10
3.2200537613
 20
-0.7805560794
 10
3.2153187309
 20
-0.7766386021
 10
3.2105581634
 20
-0.7748714807
 10
3.2066041569
 20
-0.7710290218
 10
3.2039577665
 20
-0.7699407177
 10
3.2021487683
 20
-0.7678153897
 10
3.1975165279
 20
-0.7648112762
 10
3.193337557
 20
-0.7612479345
 10
3.1885515996
 20
-0.7584240147
 10
3.1840914053
 20
-0.7551968762
 10
3.1800898106
 20
-0.7514227611
 10
3.1761677072
 20
-0.7475628333
 10
3.17031728
 20
-0.7449371902
 10
3.1671069893
 20
-0.7412617008
 10
3.1629175376
 20
-0.737714632
 10
3.1579627529
 20
-0.735029393
 10
3.1541146421
 20
-0.7310940416
 10
3.1496781648
 20
-0.7278174877
 10
3.1475212965
 20
-0.7256130804
 10
3.145299035
 20
-0.7244677697
 10
3.1435379405
 20
-0.7218331117
 10
3.1415629757
 20
-0.7204111076
 10
3.1325768806
 20
-0.7139491188
 10
3.1288722864
 20
-0.7098679834
 10
3.1248378598
 20
-0.7061420338
 10
3.1193603763
 20
-0.7029669718
 10
3.1162874127
 20
-0.6991879986
 10
3.1119584143
 20
-0.6957610603
 10
3.1077407906
 20
-0.6922106474
 10
3.1058358633
 20
-0.689232656
 10
3.1035803538
 20
-0.687661663
 10
3.0992419037
 20
-0.6851654426
 10
3.0955148516
 20
-0.6811166192
 10
3.0920022569
 20
-0.6768621551
 10
3.0864007769
 20
-0.6737304989
 10
3.0835353123
 20
-0.6697689702
 10
3.0808402359
 20
-0.668092538
 10
3.0796374512
 20
-0.6658944363
 10
3.0753735855
 20
-0.6623639547
 10
3.0710193692
 20
-0.6580030312
 10
3.0672042982
 20
-0.654949153
 10
3.0632676846
 20
-0.6510975799
 10
3.0598699914
 20
-0.646748861
 10
3.055871332
 20
-0.6420624995
 10
3.0515153095
 20
-0.6394791487
 10
3.0481990252
 20
-0.6350661543
 10
3.0441378764
 20
-0.6313207178
 10
3.040169718
 20
-0.6274840016
 10
3.0369783034
 20
-0.6229652824
 10
3.0288518272
 20
-0.6154514897
 10
3.0251324358
 20
-0.6105269333
 10
3.0207932894
 20
-0.6078571805
 10
3.0177110186
 20
-0.6032611186
 10
3.0138613741
 20
-0.5993095495
 10
3.0099411363
 20
-0.5954080693
 10
3.0068584049
 20
-0.590818069
 10
2.9989888153
 20
-0.583029071
 10
2.9958814119
 20
-0.5784692099
 10
2.9921099736
 20
-0.5744375015
 10
2.9846210022
 20
-0.5663187111
 10
2.9827391995
 20
-0.5638744433
 10
2.9807998575
 20
-0.562311806
 10
2.9777095774
 20
-0.5577414975
 10
2.9742956408
 20
-0.5525940805
 10
2.9701314338
 20
-0.5496627011
 10
2.9673147065
 20
-0.5448958795
 10
2.9635948056
 20
-0.5408002179
 10
2.956352066
 20
-0.5324504865
 10
2.9527816878
 20
-0.5282322568
 10
2.9499595958
 20
-0.5234782976
 10
2.9466022629
 20
-0.5183002279
 10
2.9426608602
 20
-0.5151438035
 10
2.9398292514
 20
-0.5104056353
 10
2.9361524978
 20
-0.5062506843
 10
2.932927915
 20
-0.5017785414
 10
2.9303811038
 20
-0.4968504525
 10
2.9254718632
 20
-0.4927143854
 10
2.9233900481
 20
-0.4882753249
 10
2.919934893
 20
-0.4831649408
 10
2.916468139
 20
-0.4796372714
 10
2.9133261274
 20
-0.4751094477
 10
2.909826831
 20
-0.4708059878
 10
2.9071631749
 20
-0.4659662633
 10
2.9045319786
 20
-0.4611127218
 10
2.8998558331
 20
-0.4567551236
 10
2.8978716075
 20
-0.4522802346
 10
2.8944306219
 20
-0.44792654
 10
2.8914012196
 20
-0.4433142197
 10
2.8848381541
 20
-0.4343902148
 10
2.8826189833
 20
-0.4292973147
 10
2.8795944252
 20
-0.4246832464
 10
2.8762914567
 20
-0.4202243916
 10
2.8740388923
 20
-0.4151579209
 10
2.8696821202
 20
-0.4105348644
 10
2.8676801503
 20
-0.406090658
 10
2.8648744139
 20
-0.4005861979
 10
2.8613945004
 20
-0.3969665963
 10
2.8588963653
 20
-0.3920488692
 10
2.8556359178
 20
-0.387544031
 10
2.8532029997
 20
-0.3825869097
 10
2.8510337995
 20
-0.3774947693
 10
2.8466467296
 20
-0.3728256932
 10
2.8450155656
 20
-0.3682017605
 10
2.8418797715
 20
-0.3636156212
 10
2.8392342126
 20
-0.3587697185
 10
2.8333506363
 20
-0.3493771909
 10
2.8315042519
 20
-0.3441333376
 10
2.8286180156
 20
-0.3394078605
 10
2.8258160228
 20
-0.3346334654
 10
2.8240457655
 20
-0.3293599295
 10
2.8198191581
 20
-0.3245325385
 10
2.818414033
 20
-0.3198238744
 10
2.8156469376
 20
-0.3142978658
 10
2.8129424735
 20
-0.3101985482
 10
2.8100546025
 20
-0.3047255303
 10
2.8075376152
 20
-0.3005325904
 10
2.8058085315
 20
-0.2952574804
 10
2.8033876834
 20
-0.2902965045
 10
2.7979612528
 20
-0.2806232207
 10
2.7953311962
 20
-0.2757437328
 10
2.7936870395
 20
-0.2704419322
 10
2.7913550593
 20
-0.2647178345
 10
2.7885392132
 20
-0.2606286329
 10
2.7862262514
 20
-0.2556124774
 10
2.7836333883
 20
-0.2507056184
 10
2.782077457
 20
-0.2453775317
 10
2.7800119692
 20
-0.2402596015
 10
2.774942364
 20
-0.2303881167
 10
2.7724432991
 20
-0.2254316558
 10
2.7711476677
 20
-0.2200143362
 10
2.7673465516
 20
-0.2148381016
 10
2.76638327
 20
-0.2100096449
 10
2.7640682727
 20
-0.2049793059
 10
2.7617543653
 20
-0.1999413531
 10
2.7602225327
 20
-0.1939172436
 10
2.7571447388
 20
-0.1898527536
 10
2.7559984285
 20
-0.1844005251
 10
2.7537006345
 20
-0.1793530144
 10
2.7515770177
 20
-0.1742382708
 10
2.7504915122
 20
-0.1687732563
 10
2.7468685074
 20
-0.1634600437
 10
2.7461042315
 20
-0.1585926996
 10
2.7437522593
 20
-0.1535494503
 10
2.7421417488
 20
-0.1482614348
 10
2.7379624749
 20
-0.1379929073
 10
2.7366615136
 20
-0.132613505
 10
2.7343292484
 20
-0.1275479143
 10
2.732666039
 20
-0.1215826043
 10
2.7301383816
 20
-0.1172596466
 10
2.7290897917
 20
-0.1118059839
 10
2.7276483708
 20
-0.1064723753
 10
2.7254233016
 20
-0.1013581645
 10
2.7245007613
 20
-0.0958748886
 10
2.721338263
 20
-0.0903263535
 10
2.7207246444
 20
-0.0854508544
 10
2.7190552318
 20
-0.0801781615
 10
2.7170912686
 20
-0.0749771415
 10
2.7161176652
 20
-0.0688318804
 10
2.7134459722
 20
-0.0644938316
 10
2.712810879
 20
-0.0589524845
 10
2.7108581611
 20
-0.0537420319
 10
2.7092242533
 20
-0.0477643421
 10
2.7071362447
 20
-0.0432618733
 10
2.7062271965
 20
-0.0377925564
 10
2.7052268971
 20
-0.0323506558
 10
2.7032430275
 20
-0.0271313748
 10
2.7025461466
 20
-0.0216185533
 10
2.6987687002
 20
-0.0097661729
 10
2.6978744721
 20
-0.0043851103
 10
2.6979216194
 20
0.0
  0
MTEXT
  5
84
330
1F
100
AcDbEntity
  8
0
  6
Continuous
 62
     7
100
AcDbMText
 10
-1.812661277
 20
-2.4396083367
 30
0.0
 40
0.1903
 41
0.0
 71
     1
 72
     1
  1
SOLIDWORKS Educational Product.
  7
SLDTEXTSTYLE0
 73
     1
 44
1.0
  0
MTEXT
  5
85
330
1F
100
AcDbEntity
  8
0
  6
Continuous
 62
     7
100
AcDbMText
 10
-1.812661277
 20
-2.7250583367
 30
0.0
 40
0.1903
 41
0.0
 71
     1
 72
     1
  1
For Instructional Use Only.
  7
SLDTEXTSTYLE0
 73
     1
 44
1.0
  0
ENDSEC
  0
SECTION
  2
OBJECTS
  0
DICTIONARY
  5
C
330
0
100
AcDbDictionary
281
     1
  3
ACAD_GROUP
350
D
  3
ACAD_LAYOUT
350
1A
  3
ACAD_MLINESTYLE
350
17
  3
ACAD_PLOTSETTINGS
350
19
  3
ACAD_PLOTSTYLENAME
350
E
  3
ACAD_SCALELIST
350
47
  0
DICTIONARY
  5
D
102
{ACAD_REACTORS
330
C
102
}
330
C
100
AcDbDictionary
281
     1
  0
DICTIONARY
  5
1A
102
{ACAD_REACTORS
330
C
102
}
330
C
100
AcDbDictionary
281
     1
  3
Layout1
350
1E
  3
Layout2
350
26
  3
Model
350
22
  0
DICTIONARY
  5
17
102
{ACAD_REACTORS
330
C
102
}
330
C
100
AcDbDictionary
281
     1
  3
Standard
350
18
  0
DICTIONARY
  5
19
102
{ACAD_REACTORS
330
C
102
}
330
C
100
AcDbDictionary
281
     1
  0
ACDBDICTIONARYWDFLT
  5
E
102
{ACAD_REACTORS
330
C
102
}
330
C
100
AcDbDictionary
281
     1
  3
Normal
350
F
100
AcDbDictionaryWithDefault
340
F
  0
DICTIONARY
  5
47
102
{ACAD_REACTORS
330
C
102
}
330
C
100
AcDbDictionary
281
     1
  3
A0
350
48
  3
A1
350
49
  3
A2
350
4A
  3
A3
350
4B
  3
A4
350
4C
  3
A5
350
4D
  3
A6
350
4E
  3
A7
350
4F
  3
A8
350
50
  3
A9
350
51
  3
B0
350
52
  3
B1
350
53
  3
B2
350
54
  3
B3
350
55
  3
B4
350
56
  3
B5
350
57
  3
B6
350
58
  3
B7
350
59
  3
B8
350
5A
  3
B9
350
5B
  3
C0
350
5C
  3
C1
350
5D
  3
C2
350
5E
  3
C3
350
5F
  3
C4
350
60
  3
C5
350
61
  3
C6
350
62
  3
C7
350
63
  3
C8
350
64
  3
C9
350
65
  3
D0
350
66
  3
D1
350
67
  3
D2
350
68
  0
LAYOUT
  5
1E
102
{ACAD_REACTORS
330
1A
102
}
330
1A
100
AcDbPlotSettings
  1

  2
none_device
  4

  6

 40
0.0
 41
0.0
 42
0.0
 43
0.0
 44
0.0
 45
0.0
 46
0.0
 47
0.0
 48
0.0
 49
0.0
140
0.0
141
0.0
142
1.0
143
1.0
 70
   688
 72
     0
 73
     0
 74
     5
  7

 75
    16
147
1.0
148
0.0
149
0.0
100
AcDbLayout
  1
Layout1
 70
     1
 71
     1
 10
0.0
 20
0.0
 11
12.0
 21
9.0
 12
0.0
 22
0.0
 32
0.0
 14
1.0000000000E+20
 24
1.0000000000E+20
 34
1.0000000000E+20
 15
-1.0000000000E+20
 25
-1.0000000000E+20
 35
-1.0000000000E+20
146
0.0
 13
0.0
 23
0.0
 33
0.0
 16
1.0
 26
0.0
 36
0.0
 17
0.0
 27
1.0
 37
0.0
 76
     0
330
1B
  0
LAYOUT
  5
26
102
{ACAD_REACTORS
330
1A
102
}
330
1A
100
AcDbPlotSettings
  1

  2
none_device
  4

  6

 40
0.0
 41
0.0
 42
0.0
 43
0.0
 44
0.0
 45
0.0
 46
0.0
 47
0.0
 48
0.0
 49
0.0
140
0.0
141
0.0
142
1.0
143
1.0
 70
   688
 72
     0
 73
     0
 74
     5
  7

 75
    16
147
1.0
148
0.0
149
0.0
100
AcDbLayout
  1
Layout2
 70
     1
 71
     2
 10
0.0
 20
0.0
 11
0.0
 21
0.0
 12
0.0
 22
0.0
 32
0.0
 14
0.0
 24
0.0
 34
0.0
 15
0.0
 25
0.0
 35
0.0
146
0.0
 13
0.0
 23
0.0
 33
0.0
 16
1.0
 26
0.0
 36
0.0
 17
0.0
 27
1.0
 37
0.0
 76
     0
330
23
  0
LAYOUT
  5
22
102
{ACAD_REACTORS
330
1A
102
}
330
1A
100
AcDbPlotSettings
  1

  2
none_device
  4
ANSI_A_(11.00_x_8.50_Inches)
  6

 40
6.35
 41
19.05
 42
6.35000508
 43
19.05000254
 44
279.4
 45
215.9
 46
55.7102625706
 47
93.321233034
 48
0.0
 49
0.0
140
0.0
141
0.0
142
1.3175751887
143
1.0
 70
  1696
 72
     0
 73
     0
 74
     0
  7

 75
     0
147
0.5913241897
148
-39.4088153714
149
0.0
100
AcDbLayout
  1
Model
 70
     1
 71
     0
 10
0.0
 20
0.0
 11
12.0
 21
9.0
 12
0.0
 22
0.0
 32
0.0
 14
-1.812661277
 24
-2.3994679276
 34
0.0
 15
6.4525216845
 25
2.1352487101
 35
0.0
146
0.0
 13
0.0
 23
0.0
 33
0.0
 16
1.0
 26
0.0
 36
0.0
 17
0.0
 27
1.0
 37
0.0
 76
     0
330
1F
331
29
  0
MLINESTYLE
  5
18
102
{ACAD_REACTORS
330
17
102
}
330
17
100
AcDbMlineStyle
  2
Standard
 70
     0
  3

 62
   256
 51
90.0
 52
90.0
 71
     2
 49
0.5
 62
   256
  6
BYLAYER
 49
-0.5
 62
   256
  6
BYLAYER
  0
ACDBPLACEHOLDER
  5
F
102
{ACAD_REACTORS
330
E
102
}
330
E
  0
SCALE
  5
48
102
{ACAD_REACTORS
330
47
102
}
330
47
100
AcDbScale
 70
     0
300
1:1
140
1.0
141
1.0
290
     1
  0
SCALE
  5
49
102
{ACAD_REACTORS
330
47
102
}
330
47
100
AcDbScale
 70
     0
300
1:2
140
1.0
141
2.0
290
     0
  0
SCALE
  5
4A
102
{ACAD_REACTORS
330
47
102
}
330
47
100
AcDbScale
 70
     0
300
1:4
140
1.0
141
4.0
290
     0
  0
SCALE
  5
4B
102
{ACAD_REACTORS
330
47
102
}
330
47
100
AcDbScale
 70
     0
300
1:5
140
1.0
141
5.0
290
     0
  0
SCALE
  5
4C
102
{ACAD_REACTORS
330
47
102
}
330
47
100
AcDbScale
 70
     0
300
1:8
140
1.0
141
8.0
290
     0
  0
SCALE
  5
4D
102
{ACAD_REACTORS
330
47
102
}
330
47
100
AcDbScale
 70
     0
300
1:10
140
1.0
141
10.0
290
     0
  0
SCALE
  5
4E
102
{ACAD_REACTORS
330
47
102
}
330
47
100
AcDbScale
 70
     0
300
1:16
140
1.0
141
16.0
290
     0
  0
SCALE
  5
4F
102
{ACAD_REACTORS
330
47
102
}
330
47
100
AcDbScale
 70
     0
300
1:20
140
1.0
141
20.0
290
     0
  0
SCALE
  5
50
102
{ACAD_REACTORS
330
47
102
}
330
47
100
AcDbScale
 70
     0
300
1:30
140
1.0
141
30.0
290
     0
  0
SCALE
  5
51
102
{ACAD_REACTORS
330
47
102
}
330
47
100
AcDbScale
 70
     0
300
1:40
140
1.0
141
40.0
290
     0
  0
SCALE
  5
52
102
{ACAD_REACTORS
330
47
102
}
330
47
100
AcDbScale
 70
     0
300
1:50
140
1.0
141
50.0
290
     0
  0
SCALE
  5
53
102
{ACAD_REACTORS
330
47
102
}
330
47
100
AcDbScale
 70
     0
300
1:100
140
1.0
141
100.0
290
     0
  0
SCALE
  5
54
102
{ACAD_REACTORS
330
47
102
}
330
47
100
AcDbScale
 70
     0
300
2:1
140
2.0
141
1.0
290
     0
  0
SCALE
  5
55
102
{ACAD_REACTORS
330
47
102
}
330
47
100
AcDbScale
 70
     0
300
4:1
140
4.0
141
1.0
290
     0
  0
SCALE
  5
56
102
{ACAD_REACTORS
330
47
102
}
330
47
100
AcDbScale
 70
     0
300
8:1
140
8.0
141
1.0
290
     0
  0
SCALE
  5
57
102
{ACAD_REACTORS
330
47
102
}
330
47
100
AcDbScale
 70
     0
300
10:1
140
10.0
141
1.0
290
     0
  0
SCALE
  5
58
102
{ACAD_REACTORS
330
47
102
}
330
47
100
AcDbScale
 70
     0
300
100:1
140
100.0
141
1.0
290
     0
  0
SCALE
  5
59
102
{ACAD_REACTORS
330
47
102
}
330
47
100
AcDbScale
 70
     0
300
1/128" = 1'-0"
140
0.0078125
141
12.0
290
     0
  0
SCALE
  5
5A
102
{ACAD_REACTORS
330
47
102
}
330
47
100
AcDbScale
 70
     0
300
1/64" = 1'-0"
140
0.015625
141
12.0
290
     0
  0
SCALE
  5
5B
102
{ACAD_REACTORS
330
47
102
}
330
47
100
AcDbScale
 70
     0
300
1/32" = 1'-0"
140
0.03125
141
12.0
290
     0
  0
SCALE
  5
5C
102
{ACAD_REACTORS
330
47
102
}
330
47
100
AcDbScale
 70
     0
300
1/16" = 1'-0"
140
0.0625
141
12.0
290
     0
  0
SCALE
  5
5D
102
{ACAD_REACTORS
330
47
102
}
330
47
100
AcDbScale
 70
     0
300
3/32" = 1'-0"
140
0.09375
141
12.0
290
     0
  0
SCALE
  5
5E
102
{ACAD_REACTORS
330
47
102
}
330
47
100
AcDbScale
 70
     0
300
1/8" = 1'-0"
140
0.125
141
12.0
290
     0
  0
SCALE
  5
5F
102
{ACAD_REACTORS
330
47
102
}
330
47
100
AcDbScale
 70
     0
300
3/16" = 1'-0"
140
0.1875
141
12.0
290
     0
  0
SCALE
  5
60
102
{ACAD_REACTORS
330
47
102
}
330
47
100
AcDbScale
 70
     0
300
1/4" = 1'-0"
140
0.25
141
12.0
290
     0
  0
SCALE
  5
61
102
{ACAD_REACTORS
330
47
102
}
330
47
100
AcDbScale
 70
     0
300
3/8" = 1'-0"
140
0.375
141
12.0
290
     0
  0
SCALE
  5
62
102
{ACAD_REACTORS
330
47
102
}
330
47
100
AcDbScale
 70
     0
300
1/2" = 1'-0"
140
0.5
141
12.0
290
     0
  0
SCALE
  5
63
102
{ACAD_REACTORS
330
47
102
}
330
47
100
AcDbScale
 70
     0
300
3/4" = 1'-0"
140
0.75
141
12.0
290
     0
  0
SCALE
  5
64
102
{ACAD_REACTORS
330
47
102
}
330
47
100
AcDbScale
 70
     0
300
1" = 1'-0"
140
1.0
141
12.0
290
     0
  0
SCALE
  5
65
102
{ACAD_REACTORS
330
47
102
}
330
47
100
AcDbScale
 70
     0
300
1-1/2" = 1'-0"
140
1.5
141
12.0
290
     0
  0
SCALE
  5
66
102
{ACAD_REACTORS
330
47
102
}
330
47
100
AcDbScale
 70
     0
300
3" = 1'-0"
140
3.0
141
12.0
290
     0
  0
SCALE
  5
67
102
{ACAD_REACTORS
330
47
102
}
330
47
100
AcDbScale
 70
     0
300
6" = 1'-0"
140
6.0
141
12.0
290
     0
  0
SCALE
  5
68
102
{ACAD_REACTORS
330
47
102
}
330
47
100
AcDbScale
 70
     0
300
1'-0" = 1'-0"
140
12.0
141
12.0
290
     0
  0
ENDSEC
  0
EOF
