  0
SECTION
  2
HEADER
  9
$ACADVER
  1
AC1015
  9
$ACADMAINTVER
 70
     6
  9
$DWGCODEPAGE
  3
ANSI_1252
  9
$INSBASE
 10
0.0
 20
0.0
 30
0.0
  9
$EXTMIN
 10
-1.3722874969
 20
-2.3434051441
 30
0.0
  9
$EXTMAX
 10
6.1634231342
 20
2.3399826651
 30
0.0
  9
$LIMMIN
 10
0.0
 20
0.0
  9
$LIMMAX
 10
12.0
 20
9.0
  9
$ORTHOMODE
 70
     0
  9
$REGENMODE
 70
     1
  9
$FILLMODE
 70
     1
  9
$QTEXTMODE
 70
     0
  9
$MIRRTEXT
 70
     1
  9
$LTSCALE
 40
1.0
  9
$ATTMODE
 70
     1
  9
$TEXTSIZE
 40
0.25
  9
$TRACEWID
 40
0.05
  9
$TEXTSTYLE
  7
Standard
  9
$CLAYER
  8
0
  9
$CELTYPE
  6
ByLayer
  9
$CECOLOR
 62
   256
  9
$CELTSCALE
 40
1.0
  9
$DISPSILH
 70
     0
  9
$DIMSCALE
 40
1.0
  9
$DIMASZ
 40
0.236
  9
$DIMEXO
 40
0.039
  9
$DIMDLI
 40
0.38
  9
$DIMRND
 40
0.0
  9
$DIMDLE
 40
0.0
  9
$DIMEXE
 40
0.039
  9
$DIMTP
 40
0.0
  9
$DIMTM
 40
0.0
  9
$DIMTXT
 40
0.25
  9
$DIMCEN
 40
0.09
  9
$DIMTSZ
 40
0.0
  9
$DIMTOL
 70
     0
  9
$DIMLIM
 70
     0
  9
$DIMTIH
 70
     1
  9
$DIMTOH
 70
     1
  9
$DIMSE1
 70
     0
  9
$DIMSE2
 70
     0
  9
$DIMTAD
 70
     1
  9
$DIMZIN
 70
     0
  9
$DIMBLK
  1

  9
$DIMASO
 70
     1
  9
$DIMSHO
 70
     1
  9
$DIMPOST
  1

  9
$DIMAPOST
  1

  9
$DIMALT
 70
     0
  9
$DIMALTD
 70
     2
  9
$DIMALTF
 40
25.4
  9
$DIMLFAC
 40
1.0
  9
$DIMTOFL
 70
     0
  9
$DIMTVP
 40
0.0
  9
$DIMTIX
 70
     0
  9
$DIMSOXD
 70
     0
  9
$DIMSAH
 70
     0
  9
$DIMBLK1
  1

  9
$DIMBLK2
  1

  9
$DIMSTYLE
  2
Standard
  9
$DIMCLRD
 70
     0
  9
$DIMCLRE
 70
     0
  9
$DIMCLRT
 70
     0
  9
$DIMTFAC
 40
1.0
  9
$DIMGAP
 40
0.06
  9
$DIMJUST
 70
     0
  9
$DIMSD1
 70
     0
  9
$DIMSD2
 70
     0
  9
$DIMTOLJ
 70
     1
  9
$DIMTZIN
 70
     0
  9
$DIMALTZ
 70
     0
  9
$DIMALTTZ
 70
     0
  9
$DIMUPT
 70
     0
  9
$DIMDEC
 70
     2
  9
$DIMTDEC
 70
     2
  9
$DIMALTU
 70
     2
  9
$DIMALTTD
 70
     2
  9
$DIMTXSTY
  7
Standard
  9
$DIMAUNIT
 70
     0
  9
$DIMADEC
 70
     2
  9
$DIMALTRND
 40
0.0
  9
$DIMAZIN
 70
     0
  9
$DIMDSEP
 70
    46
  9
$DIMATFIT
 70
     3
  9
$DIMFRAC
 70
     0
  9
$DIMLDRBLK
  1

  9
$DIMLUNIT
 70
     2
  9
$DIMLWD
 70
    -2
  9
$DIMLWE
 70
    -2
  9
$DIMTMOVE
 70
     0
  9
$LUNITS
 70
     2
  9
$LUPREC
 70
     2
  9
$SKETCHINC
 40
0.1
  9
$FILLETRAD
 40
0.5
  9
$AUNITS
 70
     0
  9
$AUPREC
 70
     2
  9
$MENU
  1
.
  9
$ELEVATION
 40
0.0
  9
$PELEVATION
 40
0.0
  9
$THICKNESS
 40
0.0
  9
$LIMCHECK
 70
     0
  9
$CHAMFERA
 40
0.0
  9
$CHAMFERB
 40
0.0
  9
$CHAMFERC
 40
0.0
  9
$CHAMFERD
 40
0.0
  9
$SKPOLY
 70
     0
  9
$TDCREATE
 40
2458226.669281886
  9
$TDUCREATE
 40
2458226.87761522
  9
$TDUPDATE
 40
2458226.669515995
  9
$TDUUPDATE
 40
2458226.877849329
  9
$TDINDWG
 40
0.0000000116
  9
$TDUSRTIMER
 40
0.0000000116
  9
$USRTIMER
 70
     1
  9
$ANGBASE
 50
0.0
  9
$ANGDIR
 70
     0
  9
$PDMODE
 70
     0
  9
$PDSIZE
 40
-1.0
  9
$PLINEWID
 40
0.0
  9
$SPLFRAME
 70
     0
  9
$SPLINETYPE
 70
     6
  9
$SPLINESEGS
 70
     8
  9
$HANDSEED
  5
84
  9
$SURFTAB1
 70
     6
  9
$SURFTAB2
 70
     6
  9
$SURFTYPE
 70
     6
  9
$SURFU
 70
     6
  9
$SURFV
 70
     6
  9
$UCSBASE
  2

  9
$UCSNAME
  2

  9
$UCSORG
 10
0.0
 20
0.0
 30
0.0
  9
$UCSXDIR
 10
1.0
 20
0.0
 30
0.0
  9
$UCSYDIR
 10
0.0
 20
1.0
 30
0.0
  9
$UCSORTHOREF
  2

  9
$UCSORTHOVIEW
 70
     0
  9
$UCSORGTOP
 10
0.0
 20
0.0
 30
0.0
  9
$UCSORGBOTTOM
 10
0.0
 20
0.0
 30
0.0
  9
$UCSORGLEFT
 10
0.0
 20
0.0
 30
0.0
  9
$UCSORGRIGHT
 10
0.0
 20
0.0
 30
0.0
  9
$UCSORGFRONT
 10
0.0
 20
0.0
 30
0.0
  9
$UCSORGBACK
 10
0.0
 20
0.0
 30
0.0
  9
$PUCSBASE
  2

  9
$PUCSNAME
  2

  9
$PUCSORG
 10
0.0
 20
0.0
 30
0.0
  9
$PUCSXDIR
 10
1.0
 20
0.0
 30
0.0
  9
$PUCSYDIR
 10
0.0
 20
1.0
 30
0.0
  9
$PUCSORTHOREF
  2

  9
$PUCSORTHOVIEW
 70
     0
  9
$PUCSORGTOP
 10
0.0
 20
0.0
 30
0.0
  9
$PUCSORGBOTTOM
 10
0.0
 20
0.0
 30
0.0
  9
$PUCSORGLEFT
 10
0.0
 20
0.0
 30
0.0
  9
$PUCSORGRIGHT
 10
0.0
 20
0.0
 30
0.0
  9
$PUCSORGFRONT
 10
0.0
 20
0.0
 30
0.0
  9
$PUCSORGBACK
 10
0.0
 20
0.0
 30
0.0
  9
$USERI1
 70
     0
  9
$USERI2
 70
     0
  9
$USERI3
 70
     0
  9
$USERI4
 70
     0
  9
$USERI5
 70
     0
  9
$USERR1
 40
0.0
  9
$USERR2
 40
0.0
  9
$USERR3
 40
0.0
  9
$USERR4
 40
0.0
  9
$USERR5
 40
0.0
  9
$WORLDVIEW
 70
     1
  9
$SHADEDGE
 70
     3
  9
$SHADEDIF
 70
    70
  9
$TILEMODE
 70
     1
  9
$MAXACTVP
 70
    64
  9
$PINSBASE
 10
0.0
 20
0.0
 30
0.0
  9
$PLIMCHECK
 70
     0
  9
$PEXTMIN
 10
1.0000000000E+20
 20
1.0000000000E+20
 30
1.0000000000E+20
  9
$PEXTMAX
 10
-1.0000000000E+20
 20
-1.0000000000E+20
 30
-1.0000000000E+20
  9
$PLIMMIN
 10
0.0
 20
0.0
  9
$PLIMMAX
 10
12.0
 20
9.0
  9
$UNITMODE
 70
     0
  9
$VISRETAIN
 70
     1
  9
$PLINEGEN
 70
     0
  9
$PSLTSCALE
 70
     1
  9
$TREEDEPTH
 70
  3020
  9
$CMLSTYLE
  2
Standard
  9
$CMLJUST
 70
     0
  9
$CMLSCALE
 40
1.0
  9
$PROXYGRAPHICS
 70
     1
  9
$MEASUREMENT
 70
     0
  9
$CELWEIGHT
370
    -1
  9
$ENDCAPS
280
     0
  9
$JOINSTYLE
280
     0
  9
$LWDISPLAY
290
     1
  9
$INSUNITS
 70
     1
  9
$HYPERLINKBASE
  1

  9
$STYLESHEET
  1

  9
$XEDIT
290
     1
  9
$CEPSNTYPE
380
     0
  9
$PSTYLEMODE
290
     1
  9
$FINGERPRINTGUID
  2
{F191FA5F-BC3D-42EB-9198-F21EF6D5F6D9}
  9
$VERSIONGUID
  2
{FAEB1C32-E019-11D5-929B-00C0DF256EC4}
  9
$EXTNAMES
290
     1
  9
$PSVPSCALE
 40
0.0
  9
$OLESTARTUP
290
     0
  0
ENDSEC
  0
SECTION
  2
CLASSES
  0
CLASS
  1
ACDBDICTIONARYWDFLT
  2
AcDbDictionaryWithDefault
  3
ObjectDBX Classes
 90
        0
280
     0
281
     0
  0
CLASS
  1
VISUALSTYLE
  2
AcDbVisualStyle
  3
ObjectDBX Classes
 90
     4095
280
     0
281
     0
  0
CLASS
  1
MATERIAL
  2
AcDbMaterial
  3
ObjectDBX Classes
 90
     1153
280
     0
281
     0
  0
CLASS
  1
SCALE
  2
AcDbScale
  3
ObjectDBX Classes
 90
     1153
280
     0
281
     0
  0
CLASS
  1
TABLESTYLE
  2
AcDbTableStyle
  3
ObjectDBX Classes
 90
     4095
280
     0
281
     0
  0
CLASS
  1
MLEADERSTYLE
  2
AcDbMLeaderStyle
  3
ACDB_MLEADERSTYLE_CLASS
 90
     4095
280
     0
281
     0
  0
CLASS
  1
SUN
  2
AcDbSun
  3
SCENEOE
 90
     1153
280
     0
281
     0
  0
CLASS
  1
ACDBPLACEHOLDER
  2
AcDbPlaceHolder
  3
ObjectDBX Classes
 90
        0
280
     0
281
     0
  0
CLASS
  1
LAYOUT
  2
AcDbLayout
  3
ObjectDBX Classes
 90
        0
280
     0
281
     0
  0
ENDSEC
  0
SECTION
  2
TABLES
  0
TABLE
  2
VPORT
  5
8
330
0
100
AcDbSymbolTable
 70
     1
  0
VPORT
  5
29
330
8
100
AcDbSymbolTableRecord
100
AcDbViewportTableRecord
  2
*Active
 70
     0
 10
0.0
 20
0.0
 11
1.0
 21
1.0
 12
2.3955678187
 22
-0.0017112395
 13
0.0
 23
0.0
 14
0.5
 24
0.5
 15
0.5
 25
0.5
 16
0.0
 26
0.0
 36
1.0
 17
0.0
 27
0.0
 37
0.0
 40
4.7770555655
 41
1.6090298173
 42
50.0
 43
0.0
 44
0.0
 50
0.0
 51
0.0
 71
     0
 72
   100
 73
     1
 74
     3
 75
     0
 76
     0
 77
     0
 78
     0
281
     0
 65
     1
110
0.0
120
0.0
130
0.0
111
1.0
121
0.0
131
0.0
112
0.0
122
1.0
132
0.0
 79
     0
146
0.0
  0
ENDTAB
  0
TABLE
  2
LTYPE
  5
5
330
0
100
AcDbSymbolTable
 70
     6
  0
LTYPE
  5
14
330
5
100
AcDbSymbolTableRecord
100
AcDbLinetypeTableRecord
  2
ByBlock
 70
     0
  3

 72
    65
 73
     0
 40
0.0
  0
LTYPE
  5
15
330
5
100
AcDbSymbolTableRecord
100
AcDbLinetypeTableRecord
  2
ByLayer
 70
     0
  3

 72
    65
 73
     0
 40
0.0
  0
LTYPE
  5
16
330
5
100
AcDbSymbolTableRecord
100
AcDbLinetypeTableRecord
  2
Continuous
 70
     0
  3
Solid line
 72
    65
 73
     0
 40
0.0
  0
LTYPE
  5
6E
330
5
100
AcDbSymbolTableRecord
100
AcDbLinetypeTableRecord
  2
HIDDEN
 70
     0
  3
Hidden __ __ __ __ __ __ __ __ __ __ __ __ __ __
 72
    65
 73
     2
 40
0.075
 49
0.05
 74
     0
 49
-0.025
 74
     0
  0
LTYPE
  5
6F
330
5
100
AcDbSymbolTableRecord
100
AcDbLinetypeTableRecord
  2
PHANTOM
 70
     0
  3
Phantom ______  __  __  ______  __  __  ______
 72
    65
 73
     6
 40
0.5
 49
0.25
 74
     0
 49
-0.05
 74
     0
 49
0.05
 74
     0
 49
-0.05
 74
     0
 49
0.05
 74
     0
 49
-0.05
 74
     0
  0
LTYPE
  5
70
330
5
100
AcDbSymbolTableRecord
100
AcDbLinetypeTableRecord
  2
CENTER
 70
     0
  3
Center ____ _ ____ _ ____ _ ____ _ ____ _ ____
 72
    65
 73
     4
 40
0.4
 49
0.25
 74
     0
 49
-0.05
 74
     0
 49
0.05
 74
     0
 49
-0.05
 74
     0
  0
LTYPE
  5
71
330
5
100
AcDbSymbolTableRecord
100
AcDbLinetypeTableRecord
  2
CENTERX2
 70
     0
  3
Center (2x) ________  __  ________  __  _____
 72
    65
 73
     4
 40
0.8
 49
0.5
 74
     0
 49
-0.1
 74
     0
 49
0.1
 74
     0
 49
-0.1
 74
     0
  0
LTYPE
  5
72
330
5
100
AcDbSymbolTableRecord
100
AcDbLinetypeTableRecord
  2
DOT2
 70
     0
  3
Dot (.5x) ........................................
 72
    65
 73
     2
 40
0.025
 49
0.0
 74
     0
 49
-0.025
 74
     0
  0
ENDTAB
  0
TABLE
  2
LAYER
  5
2
330
0
100
AcDbSymbolTable
 70
     1
  0
LAYER
  5
10
330
2
100
AcDbSymbolTableRecord
100
AcDbLayerTableRecord
  2
0
 70
     0
 62
     7
  6
Continuous
370
    -3
390
F
  0
ENDTAB
  0
TABLE
  2
STYLE
  5
3
330
0
100
AcDbSymbolTable
 70
     2
  0
STYLE
  5
11
330
3
100
AcDbSymbolTableRecord
100
AcDbTextStyleTableRecord
  2
Standard
 70
     0
 40
0.0
 41
1.0
 50
0.0
 71
     0
 42
0.25
  3
txt
  4

  0
STYLE
  5
81
330
3
100
AcDbSymbolTableRecord
100
AcDbTextStyleTableRecord
  2
SLDTEXTSTYLE0
 70
     0
 40
0.0
 41
0.7
 50
0.0
 71
     0
 42
0.25
  3
TXT
  4

  0
ENDTAB
  0
TABLE
  2
VIEW
  5
6
330
0
100
AcDbSymbolTable
 70
     0
  0
ENDTAB
  0
TABLE
  2
UCS
  5
7
330
0
100
AcDbSymbolTable
 70
     0
  0
ENDTAB
  0
TABLE
  2
APPID
  5
9
330
0
100
AcDbSymbolTable
 70
     1
  0
APPID
  5
12
330
9
100
AcDbSymbolTableRecord
100
AcDbRegAppTableRecord
  2
ACAD
 70
     0
  0
ENDTAB
  0
TABLE
  2
DIMSTYLE
  5
A
330
0
100
AcDbSymbolTable
 70
     1
100
AcDbDimStyleTable
  0
DIMSTYLE
105
27
330
A
100
AcDbSymbolTableRecord
100
AcDbDimStyleTableRecord
  2
Standard
 70
     0
178
     0
340
11
  0
ENDTAB
  0
TABLE
  2
BLOCK_RECORD
  5
1
330
0
100
AcDbSymbolTable
 70
     1
  0
BLOCK_RECORD
  5
1F
330
1
100
AcDbSymbolTableRecord
100
AcDbBlockTableRecord
  2
*Model_Space
340
22
  0
BLOCK_RECORD
  5
1B
330
1
100
AcDbSymbolTableRecord
100
AcDbBlockTableRecord
  2
*Paper_Space
340
1E
  0
BLOCK_RECORD
  5
23
330
1
100
AcDbSymbolTableRecord
100
AcDbBlockTableRecord
  2
*Paper_Space0
340
26
  0
ENDTAB
  0
ENDSEC
  0
SECTION
  2
BLOCKS
  0
BLOCK
  5
20
330
1F
100
AcDbEntity
  8
0
100
AcDbBlockBegin
  2
*Model_Space
 70
     0
 10
0.0
 20
0.0
 30
0.0
  3
*Model_Space
  1

  0
ENDBLK
  5
21
330
1F
100
AcDbEntity
  8
0
100
AcDbBlockEnd
  0
BLOCK
  5
1C
330
1B
100
AcDbEntity
 67
     1
  8
0
100
AcDbBlockBegin
  2
*Paper_Space
 70
     0
 10
0.0
 20
0.0
 30
0.0
  3
*Paper_Space
  1

  0
ENDBLK
  5
1D
330
1B
100
AcDbEntity
 67
     1
  8
0
100
AcDbBlockEnd
  0
BLOCK
  5
24
330
23
100
AcDbEntity
  8
0
100
AcDbBlockBegin
  2
*Paper_Space0
 70
     0
 10
0.0
 20
0.0
 30
0.0
  3
*Paper_Space0
  1

  0
ENDBLK
  5
25
330
23
100
AcDbEntity
  8
0
100
AcDbBlockEnd
  0
ENDSEC
  0
SECTION
  2
ENTITIES
  0
CIRCLE
  5
73
330
1F
100
AcDbEntity
  8
0
  6
Continuous
 62
     7
100
AcDbCircle
 10
0.0
 20
0.0
 30
0.0
 40
0.25
  0
CIRCLE
  5
74
330
1F
100
AcDbEntity
  8
0
  6
Continuous
 62
     7
100
AcDbCircle
 10
0.7559055118
 20
0.0
 30
0.0
 40
0.0984251968503936
  0
CIRCLE
  5
75
330
1F
100
AcDbEntity
  8
0
  6
Continuous
 62
     7
100
AcDbCircle
 10
-0.3779527559
 20
0.6546333761
 30
0.0
 40
0.0984251968503937
  0
CIRCLE
  5
76
330
1F
100
AcDbEntity
  8
0
  6
Continuous
 62
     7
100
AcDbCircle
 10
-0.3779527559
 20
-0.6546333761
 30
0.0
 40
0.0984251968503938
  0
CIRCLE
  5
77
330
1F
100
AcDbEntity
  8
0
  6
Continuous
 62
     7
100
AcDbCircle
 10
4.2010428141
 20
-0.6546333761
 30
0.0
 40
0.0984251968503934
  0
CIRCLE
  5
78
330
1F
100
AcDbEntity
  8
0
  6
Continuous
 62
     7
100
AcDbCircle
 10
4.2010428141
 20
0.6546333761
 30
0.0
 40
0.0984251968503942
  0
CIRCLE
  5
79
330
1F
100
AcDbEntity
  8
0
  6
Continuous
 62
     7
100
AcDbCircle
 10
3.0671845464
 20
0.0
 30
0.0
 40
0.0984251968503934
  0
CIRCLE
  5
7A
330
1F
100
AcDbEntity
  8
0
  6
Continuous
 62
     7
100
AcDbCircle
 10
3.8230900582
 20
0.0
 30
0.0
 40
0.2500000000000009
  0
LWPOLYLINE
  5
7F
330
1F
100
AcDbEntity
  8
0
  6
Continuous
 62
     7
100
AcDbPolyline
 90
      219
 70
   128
 43
0.0
 10
0.0
 20
1.2179054054
 10
-0.0099339481
 20
1.2126296604
 10
-0.0210263009
 20
1.2117248732
 10
-0.0403189524
 20
1.1996088038
 10
-0.0784853203
 20
1.1753223802
 10
-0.0878557919
 20
1.168976073
 10
-0.0988536607
 20
1.1673110268
 10
-0.117165391
 20
1.1538435275
 10
-0.1270969243
 20
1.1456596378
 10
-0.1367836398
 20
1.1439970229
 10
-0.1469465871
 20
1.136573392
 10
-0.1547253598
 20
1.1303295581
 10
-0.1744330025
 20
1.1209322297
 10
-0.1837213038
 20
1.1118730909
 10
-0.1933976809
 20
1.1099117104
 10
-0.2026265185
 20
1.1009501196
 10
-0.2111205198
 20
1.0964740702
 10
-0.2205703881
 20
1.0910650674
 10
-0.2308944955
 20
1.0872871702
 10
-0.2399331393
 20
1.0783169016
 10
-0.2480007883
 20
1.0730826495
 10
-0.2573674775
 20
1.0675764348
 10
-0.2674771228
 20
1.0633005952
 10
-0.2756282604
 20
1.0556791144
 10
-0.2855470704
 20
1.0511125681
 10
-0.2949012075
 20
1.0455115442
 10
-0.3029999998
 20
1.0379778289
 10
-0.3133140051
 20
1.033931995
 10
-0.3200380903
 20
1.0243451463
 10
-0.330777359
 20
1.0185019936
 10
-0.3398998337
 20
1.014910462
 10
-0.34794739
 20
1.0074325012
 10
-0.35635438
 20
1.000559013
 10
-0.3661138289
 20
0.995490797
 10
-0.3733131341
 20
0.986975726
 10
-0.3845146109
 20
0.983759579
 10
-0.388544167
 20
0.9790543839
 10
-0.3914844043
 20
0.9750567926
 10
-0.3974479234
 20
0.9727872259
 10
-0.4009643994
 20
0.9695579568
 10
-0.4087736107
 20
0.9619419747
 10
-0.4191892456
 20
0.9575068749
 10
-0.4260138687
 20
0.9487811243
 10
-0.4368916943
 20
0.9447647388
 10
-0.4432411201
 20
0.9355890471
 10
-0.4539436675
 20
0.9312434265
 10
-0.4605364017
 20
0.9224268198
 10
-0.4714184203
 20
0.9162557534
 10
-0.4805118802
 20
0.9119198023
 10
-0.4864712236
 20
0.902546661
 10
-0.496800227
 20
0.8975157149
 10
-0.5030735347
 20
0.8885283126
 10
-0.5123777854
 20
0.8824130715
 10
-0.5231608259
 20
0.8758598856
 10
-0.5312058818
 20
0.8702910084
 10
-0.5370839145
 20
0.8610180833
 10
-0.5469705637
 20
0.8552641641
 10
-0.5567700223
 20
0.8493671953
 10
-0.5624790216
 20
0.8400580924
 10
-0.5804675406
 20
0.8267130789
 10
-0.5961500347
 20
0.811500104
 10
-0.6126505132
 20
0.7967244614
 10
-0.6303528543
 20
0.78268625
 10
-0.6391187059
 20
0.7755391477
 10
-0.6431197477
 20
0.7652206228
 10
-0.6555411254
 20
0.7551207529
 10
-0.6649429986
 20
0.7468923181
 10
-0.6814311684
 20
0.7318822362
 10
-0.7100243668
 20
0.7041771075
 10
-0.7411483637
 20
0.6713420541
 10
-0.7719417032
 20
0.6389305509
 10
-0.801804197
 20
0.6061469635
 10
-0.8083299966
 20
0.5967600798
 10
-0.8185295429
 20
0.5923211858
 10
-0.8257225238
 20
0.5817854052
 10
-0.8314524005
 20
0.5736678277
 10
-0.8375340252
 20
0.5639710595
 10
-0.8472377005
 20
0.5587135804
 10
-0.8542790558
 20
0.5482564635
 10
-0.8597542574
 20
0.5400159721
 10
-0.8665733625
 20
0.531362231
 10
-0.8752786772
 20
0.5248696633
 10
-0.8861685938
 20
0.5047744936
 10
-0.8954058338
 20
0.4987414807
 10
-0.9008443207
 20
0.4888272345
 10
-0.9092082251
 20
0.481847814
 10
-0.9154760564
 20
0.4728360753
 10
-0.9203429399
 20
0.4625111486
 10
-0.9290767224
 20
0.45582078
 10
-0.934676706
 20
0.444507043
 10
-0.941810208
 20
0.4380729392
 10
-0.9539911776
 20
0.4199323616
 10
-0.961787389
 20
0.4106324205
 10
-0.9659226607
 20
0.4016741277
 10
-0.9739961784
 20
0.3942592077
 10
-0.9810654296
 20
0.3859859588
 10
-0.9922201588
 20
0.3671858243
 10
-0.9982903322
 20
0.358198601
 10
-1.0024895926
 20
0.353708368
 10
-1.0064818435
 20
0.350699559
 10
-1.0084258796
 20
0.3446337094
 10
-1.0114556448
 20
0.3409008857
 10
-1.0165348338
 20
0.3370279389
 10
-1.0179885984
 20
0.3322407852
 10
-1.0255619243
 20
0.3242155319
 10
-1.0299948133
 20
0.3141174384
 10
-1.0369852544
 20
0.3057160137
 10
-1.0436099447
 20
0.2970071914
 10
-1.0477875817
 20
0.2868210193
 10
-1.0552271269
 20
0.2786166675
 10
-1.0605802984
 20
0.2691131877
 10
-1.0650498415
 20
0.2591576394
 10
-1.0725384727
 20
0.2508737832
 10
-1.0760152739
 20
0.2403595136
 10
-1.0888545271
 20
0.2225525759
 10
-1.1027636573
 20
0.2051580542
 10
-1.1068655839
 20
0.1950161679
 10
-1.1113213375
 20
0.1850898944
 10
-1.1247200333
 20
0.1672040084
 10
-1.1310433355
 20
0.158068617
 10
-1.1341482506
 20
0.1475201375
 10
-1.1488922925
 20
0.1299596344
 10
-1.150935751
 20
0.1190440932
 10
-1.1575858286
 20
0.1098904277
 10
-1.1688549262
 20
0.0907577276
 10
-1.1789221307
 20
0.0710775666
 10
-1.225315013
 20
-0.006566918
 10
-1.3479639887
 20
-0.3457059608
 10
-1.3722874969
 20
-0.7058100106
 10
-1.3067148882
 20
-1.0609227794
 10
-1.0993030485
 20
-1.4948700924
 10
-0.7821574092
 20
-1.8568450536
 10
-0.3850181057
 20
-2.1290315595
 10
-0.1785768304
 20
-2.2232316134
 10
-0.010068394
 20
-2.2815508656
 10
0.0868446773
 20
-2.3034373297
 10
0.1295584427
 20
-2.3137937951
 10
0.1632351083
 20
-2.3216630644
 10
0.2066204461
 20
-2.3254794555
 10
0.2405623838
 20
-2.3319474427
 10
0.3015345722
 20
-2.3368498057
 10
0.3720744297
 20
-2.3422740313
 10
0.4275721846
 20
-2.3434051441
 10
0.4830896837
 20
-2.3432409391
 10
0.5265376306
 20
-2.3402500657
 10
0.5574388008
 20
-2.3371700634
 10
0.581469667
 20
-2.3325663502
 10
0.6251322981
 20
-2.3313322009
 10
0.6681537917
 20
-2.3246014909
 10
0.702031877
 20
-2.3199183021
 10
0.7561509452
 20
-2.3077901268
 10
0.7989491168
 20
-2.2998089224
 10
0.8417685914
 20
-2.2918417375
 10
0.8745596736
 20
-2.2818422595
 10
0.9423526022
 20
-2.2666385961
 10
1.0080366207
 20
-2.2435869553
 10
1.0457453184
 20
-2.231708851
 10
1.0738342051
 20
-2.2176538122
 10
1.1255101098
 20
-2.1975510578
 10
1.176964603
 20
-2.1769142063
 10
1.2173168213
 20
-2.1604293905
 10
1.2657567601
 20
-2.1324603297
 10
1.3052717126
 20
-2.1141563285
 10
1.3738581827
 20
-2.077072155
 10
1.4200240879
 20
-2.0453814389
 10
1.4579913513
 20
-2.0239189231
 10
1.5211986859
 20
-1.977530854
 10
1.5855502751
 20
-1.9334511339
 10
1.6325094942
 20
-1.8933744992
 10
1.7974906516
 20
-1.7375348703
 10
1.8654623893
 20
-1.6643446291
 10
1.9122156743
 20
-1.6020412368
 10
1.9479303706
 20
-1.5589380073
 10
1.9751149433
 20
-1.5243953352
 10
2.0172531067
 20
-1.4588665944
 10
2.0430165272
 20
-1.4232035608
 10
2.062866078
 20
-1.3948822487
 10
2.0918376875
 20
-1.3409514537
 10
2.1247333733
 20
-1.2783949492
 10
2.1486796585
 20
-1.228361206
 10
2.1757636516
 20
-1.1794282575
 10
2.1914396417
 20
-1.1387603444
 10
2.2112686521
 20
-1.0869915379
 10
2.2277813548
 20
-1.0465889368
 10
2.2443511275
 20
-1.0060868721
 10
2.2534794909
 20
-0.9730813764
 10
2.2703580008
 20
-0.92017985
 10
2.2814440791
 20
-0.8780295009
 10
2.2898033424
 20
-0.84005573
 10
2.2980758226
 20
-0.8020669685
 10
2.3129643035
 20
-0.7257399375
 10
2.3178816329
 20
-0.6918712294
 10
2.3204781089
 20
-0.6650991773
 10
2.3258073961
 20
-0.6259769307
 10
2.3294196708
 20
-0.5951807633
 10
2.3370906914
 20
-0.5402559397
 10
2.3388576518
 20
-0.4847833928
 10
2.3371345826
 20
-0.441065048
 10
2.3374842805
 20
-0.4100436692
 10
2.3401001818
 20
-0.385746712
 10
2.3336949395
 20
-0.3421144171
 10
2.3323310332
 20
-0.2986224649
 10
2.3325544898
 20
-0.2644064511
 10
2.3218437998
 20
-0.2093999264
 10
2.3185344401
 20
-0.1660072105
 10
2.3003592751
 20
-0.0896004378
 10
2.2618119019
 20
0.0451239374
 10
2.0638290566
 20
0.4841175125
 10
1.7683182193
 20
0.8641507333
 10
1.3861418157
 20
1.156512234
 10
1.0546370418
 20
1.3000435954
 10
0.6993388773
 20
1.3645434667
 10
0.3393701572
 20
1.3385114653
 10
0.1655408032
 20
1.2886986994
 10
0.0818747323
 20
1.2542769848
 10
0.0410972148
 20
1.2346829509
 10
0.0209700303
 20
1.2244280422
 10
0.0111750819
 20
1.2184101827
 10
0.0
 20
1.2179054054
  0
LWPOLYLINE
  5
80
330
1F
100
AcDbEntity
  8
0
  6
Continuous
 62
     7
100
AcDbPolyline
 90
      220
 70
   128
 43
0.0
 10
2.605182918
 20
0.0
 10
2.5990415791
 20
0.0109276283
 10
2.5945619391
 20
0.0196290224
 10
2.586433665
 20
0.0351821335
 10
2.5725756085
 20
0.0632726428
 10
2.5497178459
 20
0.1143206948
 10
2.5149416696
 20
0.2079290977
 10
2.4719176202
 20
0.3808830895
 10
2.4538352599
 20
0.6981796486
 10
2.5178050642
 20
1.0535633966
 10
2.6606701266
 20
1.3853436436
 10
2.9520820217
 20
1.7682272449
 10
3.3312503011
 20
2.0648223275
 10
3.7695899613
 20
2.2642097637
 10
3.8915736744
 20
2.2999539209
 10
3.9458651381
 20
2.3133395852
 10
3.9891491197
 20
2.3176570558
 10
4.0439188022
 20
2.3297080602
 10
4.0873872516
 20
2.3319571819
 10
4.1650049456
 20
2.3392144119
 10
4.2144846707
 20
2.3399826651
 10
4.263956695
 20
2.3397443862
 10
4.3074799724
 20
2.3389337009
 10
4.3415910019
 20
2.3366678668
 10
4.3853283586
 20
2.3370717244
 10
4.4194173984
 20
2.3340154175
 10
4.4534308639
 20
2.3301603024
 10
4.4799411561
 20
2.3254550731
 10
4.5419928693
 20
2.3148356015
 10
4.6042921832
 20
2.3055454027
 10
4.6579220364
 20
2.2912468239
 10
4.7002864373
 20
2.2812061387
 10
4.7533863249
 20
2.2651993184
 10
4.7954618778
 20
2.2540082317
 10
4.8367603867
 20
2.2401700603
 10
4.8699482205
 20
2.2316649062
 10
4.9608055402
 20
2.1912486416
 10
5.0015926152
 20
2.1760070075
 10
5.0317484096
 20
2.1591191402
 10
5.0718938649
 20
2.1422559176
 10
5.1017417688
 20
2.1249784487
 10
5.1561758225
 20
2.0970903436
 10
5.3272229079
 20
1.9904231868
 10
5.4866167455
 20
1.8661965042
 10
5.7102609084
 20
1.6396975802
 10
5.7868646533
 20
1.5389331031
 10
5.8207506155
 20
1.4944558686
 10
5.8422572577
 20
1.4565903758
 10
5.8745921486
 20
1.4109279347
 10
5.8974515349
 20
1.3736608329
 10
5.9373769576
 20
1.3063835563
 10
5.961060406
 20
1.2562022133
 10
5.9786134527
 20
1.2163451773
 10
5.9997537368
 20
1.1778218485
 10
6.0106999688
 20
1.1453940629
 10
6.0288283279
 20
1.1056271481
 10
6.0418472688
 20
1.0738751337
 10
6.0633191245
 20
1.0165327454
 10
6.0840781595
 20
0.9490799258
 10
6.0968199752
 20
0.8951214232
 10
6.1123756784
 20
0.8418588001
 10
6.1223804966
 20
0.7994607595
 10
6.1353563484
 20
0.745476134
 10
6.142144824
 20
0.702451327
 10
6.1495300989
 20
0.6249498276
 10
6.1561126601
 20
0.5759100651
 10
6.1587966872
 20
0.5264636375
 10
6.1609355627
 20
0.482955906
 10
6.1634231342
 20
0.4488214164
 10
6.1616370665
 20
0.4051494303
 10
6.1590013576
 20
0.3708928659
 10
6.1563584951
 20
0.309844421
 10
6.1552484956
 20
0.2703614321
 10
6.1495459716
 20
0.2395079318
 10
6.1435967212
 20
0.1843185354
 10
6.1319075347
 20
0.1296656253
 10
6.1214923096
 20
0.0869636173
 10
6.0756533363
 20
-0.084622032
 10
5.9506987066
 20
-0.377285027
 10
5.6796680985
 20
-0.7751872006
 10
5.318502867
 20
-1.0932192183
 10
4.8849947192
 20
-1.3014887623
 10
4.5299947342
 20
-1.3675700079
 10
4.1698911819
 20
-1.3435375075
 10
3.830781036
 20
-1.2208770005
 10
3.7532759848
 20
-1.1741352962
 10
3.7327808653
 20
-1.1665166403
 10
3.7143862371
 20
-1.153156331
 10
3.7053690594
 20
-1.1461609667
 10
3.6943627668
 20
-1.1443412653
 10
3.6847252556
 20
-1.1355620166
 10
3.6756354846
 20
-1.1323970771
 10
3.6571688714
 20
-1.1201746584
 10
3.6484303489
 20
-1.1130176046
 10
3.6376667402
 20
-1.1103473567
 10
3.6193371536
 20
-1.0980732807
 10
3.6106053247
 20
-1.0911870613
 10
3.5998912235
 20
-1.0882317982
 10
3.591333135
 20
-1.0782800031
 10
3.582230577
 20
-1.0749632268
 10
3.5737142351
 20
-1.067883634
 10
3.563303255
 20
-1.0642131831
 10
3.5545237606
 20
-1.0576083674
 10
3.5456165189
 20
-1.0513478695
 10
3.5401470713
 20
-1.0485912734
 10
3.5353947284
 20
-1.0472219446
 10
3.5313101994
 20
-1.0422465537
 10
3.5272800486
 20
-1.0396384777
 10
3.5211706987
 20
-1.0379390714
 10
3.5179877534
 20
-1.0340438129
 10
3.5082352538
 20
-1.0290735543
 10
3.5005105012
 20
-1.0210466184
 10
3.4909458854
 20
-1.0158377264
 10
3.4817808495
 20
-1.0099484879
 10
3.4772971494
 20
-1.0057801161
 10
3.4742346782
 20
-1.00182019
 10
3.4681675393
 20
-0.9998382735
 10
3.4644843427
 20
-0.9967991806
 10
3.456339489
 20
-0.9895256538
 10
3.4456754518
 20
-0.9856537157
 10
3.438229464
 20
-0.9775140628
 10
3.4298017755
 20
-0.9707110691
 10
3.4204426757
 20
-0.9650185809
 10
3.4113468725
 20
-0.9590182739
 10
3.4032840715
 20
-0.9517378259
 10
3.3931636259
 20
-0.9468901505
 10
3.3862912511
 20
-0.9382705955
 10
3.3755577742
 20
-0.9340077097
 10
3.3693131368
 20
-0.9247745867
 10
3.3578002849
 20
-0.9193188378
 10
3.349126306
 20
-0.9145892005
 10
3.3429564578
 20
-0.9053903294
 10
3.3323826702
 20
-0.9006490432
 10
3.3266787872
 20
-0.8910739978
 10
3.3165528735
 20
-0.8857820259
 10
3.2989795315
 20
-0.8725744114
 10
3.2818666138
 20
-0.8587741163
 10
3.2719990441
 20
-0.8529701056
 10
3.2670244342
 20
-0.8430164493
 10
3.2562707201
 20
-0.8361617757
 10
3.2481054484
 20
-0.8304984777
 10
3.2384757188
 20
-0.8242868331
 10
3.2336075401
 20
-0.8143984769
 10
3.2235525949
 20
-0.8067841654
 10
3.2156721122
 20
-0.8007471483
 10
3.1978442213
 20
-0.7868471499
 10
3.1903749475
 20
-0.7788582403
 10
3.1848479568
 20
-0.7695265456
 10
3.1177030995
 20
-0.7088224311
 10
3.0863655199
 20
-0.676193586
 10
3.0712693296
 20
-0.6593388078
 10
3.0640262117
 20
-0.6505350518
 10
3.0543250392
 20
-0.6455994729
 10
3.0376033573
 20
-0.6270318228
 10
3.0252699112
 20
-0.6114449167
 10
3.0181320805
 20
-0.6028469082
 10
3.0083810025
 20
-0.5978535828
 10
2.995390905
 20
-0.5792041243
 10
2.989069254
 20
-0.5697639248
 10
2.9790928334
 20
-0.5648871491
 10
2.9723892393
 20
-0.5539753868
 10
2.96711769
 20
-0.5454723263
 10
2.9588008321
 20
-0.5385141867
 10
2.9515296618
 20
-0.530411427
 10
2.9449181214
 20
-0.5196483057
 10
2.9400521124
 20
-0.5108859878
 10
2.9304187105
 20
-0.5053076083
 10
2.9255607714
 20
-0.4947542932
 10
2.9161044023
 20
-0.4888983338
 10
2.9107668846
 20
-0.4789334217
 10
2.9056905571
 20
-0.4687754319
 10
2.8963392706
 20
-0.462702856
 10
2.8920090498
 20
-0.4519398071
 10
2.8830388376
 20
-0.4454282706
 10
2.8778487148
 20
-0.4338107412
 10
2.8705318246
 20
-0.4275108908
 10
2.8585149953
 20
-0.4092589263
 10
2.8519697544
 20
-0.4006218688
 10
2.8434479691
 20
-0.3935226388
 10
2.8392485602
 20
-0.3813952237
 10
2.831903879
 20
-0.3749632403
 10
2.8268719092
 20
-0.365179779
 10
2.8188380044
 20
-0.3576161169
 10
2.812386047
 20
-0.3488423312
 10
2.8087481304
 20
-0.34398618
 10
2.8073229216
 20
-0.3391482554
 10
2.80234448
 20
-0.3351699632
 10
2.799224545
 20
-0.3315267461
 10
2.7974861948
 20
-0.3253582233
 10
2.7937327668
 20
-0.3220948397
 10
2.7883939534
 20
-0.3126269467
 10
2.7841677036
 20
-0.3080838748
 10
2.7805167898
 20
-0.3047477161
 10
2.778970077
 20
-0.2985349136
 10
2.7760119081
 20
-0.2947206131
 10
2.7712249507
 20
-0.2905231271
 10
2.7700449566
 20
-0.2856507203
 10
2.7629337273
 20
-0.2772013618
 10
2.7591255107
 20
-0.2668260059
 10
2.7522132521
 20
-0.2582566771
 10
2.7472871558
 20
-0.2485259527
 10
2.7384117312
 20
-0.2409537562
 10
2.7352454722
 20
-0.2303044881
 10
2.7284853396
 20
-0.2215519181
 10
2.7243300195
 20
-0.2114313389
 10
2.7156480459
 20
-0.2035597449
 10
2.7129478712
 20
-0.1927688973
 10
2.7041130519
 20
-0.1834148481
 10
2.6997529047
 20
-0.1748637174
 10
2.6881623076
 20
-0.1561026415
 10
2.6808201412
 20
-0.1473468772
 10
2.6787976739
 20
-0.1363796988
 10
2.6706449985
 20
-0.1264699934
 10
2.6650952736
 20
-0.118312981
 10
2.655094674
 20
-0.0987504219
 10
2.6433730176
 20
-0.0796843228
 10
2.6192157752
 20
-0.0414784703
 10
2.6106714237
 20
-0.0211893795
 10
2.6060590747
 20
-0.0110853594
 10
2.6051846528
 20
0.0
  0
MTEXT
  5
82
330
1F
100
AcDbEntity
  8
0
  6
Continuous
 62
     7
100
AcDbMText
 10
-1.3722874969
 20
-2.3835455533
 30
0.0
 40
0.1903
 41
0.0
 71
     1
 72
     1
  1
SOLIDWORKS Educational Product.
  7
SLDTEXTSTYLE0
 73
     1
 44
1.0
  0
MTEXT
  5
83
330
1F
100
AcDbEntity
  8
0
  6
Continuous
 62
     7
100
AcDbMText
 10
-1.3722874969
 20
-2.6689955533
 30
0.0
 40
0.1903
 41
0.0
 71
     1
 72
     1
  1
For Instructional Use Only.
  7
SLDTEXTSTYLE0
 73
     1
 44
1.0
  0
ENDSEC
  0
SECTION
  2
OBJECTS
  0
DICTIONARY
  5
C
330
0
100
AcDbDictionary
281
     1
  3
ACAD_GROUP
350
D
  3
ACAD_LAYOUT
350
1A
  3
ACAD_MLINESTYLE
350
17
  3
ACAD_PLOTSETTINGS
350
19
  3
ACAD_PLOTSTYLENAME
350
E
  3
ACAD_SCALELIST
350
47
  0
DICTIONARY
  5
D
102
{ACAD_REACTORS
330
C
102
}
330
C
100
AcDbDictionary
281
     1
  0
DICTIONARY
  5
1A
102
{ACAD_REACTORS
330
C
102
}
330
C
100
AcDbDictionary
281
     1
  3
Layout1
350
1E
  3
Layout2
350
26
  3
Model
350
22
  0
DICTIONARY
  5
17
102
{ACAD_REACTORS
330
C
102
}
330
C
100
AcDbDictionary
281
     1
  3
Standard
350
18
  0
DICTIONARY
  5
19
102
{ACAD_REACTORS
330
C
102
}
330
C
100
AcDbDictionary
281
     1
  0
ACDBDICTIONARYWDFLT
  5
E
102
{ACAD_REACTORS
330
C
102
}
330
C
100
AcDbDictionary
281
     1
  3
Normal
350
F
100
AcDbDictionaryWithDefault
340
F
  0
DICTIONARY
  5
47
102
{ACAD_REACTORS
330
C
102
}
330
C
100
AcDbDictionary
281
     1
  3
A0
350
48
  3
A1
350
49
  3
A2
350
4A
  3
A3
350
4B
  3
A4
350
4C
  3
A5
350
4D
  3
A6
350
4E
  3
A7
350
4F
  3
A8
350
50
  3
A9
350
51
  3
B0
350
52
  3
B1
350
53
  3
B2
350
54
  3
B3
350
55
  3
B4
350
56
  3
B5
350
57
  3
B6
350
58
  3
B7
350
59
  3
B8
350
5A
  3
B9
350
5B
  3
C0
350
5C
  3
C1
350
5D
  3
C2
350
5E
  3
C3
350
5F
  3
C4
350
60
  3
C5
350
61
  3
C6
350
62
  3
C7
350
63
  3
C8
350
64
  3
C9
350
65
  3
D0
350
66
  3
D1
350
67
  3
D2
350
68
  0
LAYOUT
  5
1E
102
{ACAD_REACTORS
330
1A
102
}
330
1A
100
AcDbPlotSettings
  1

  2
none_device
  4

  6

 40
0.0
 41
0.0
 42
0.0
 43
0.0
 44
0.0
 45
0.0
 46
0.0
 47
0.0
 48
0.0
 49
0.0
140
0.0
141
0.0
142
1.0
143
1.0
 70
   688
 72
     0
 73
     0
 74
     5
  7

 75
    16
147
1.0
148
0.0
149
0.0
100
AcDbLayout
  1
Layout1
 70
     1
 71
     1
 10
0.0
 20
0.0
 11
12.0
 21
9.0
 12
0.0
 22
0.0
 32
0.0
 14
1.0000000000E+20
 24
1.0000000000E+20
 34
1.0000000000E+20
 15
-1.0000000000E+20
 25
-1.0000000000E+20
 35
-1.0000000000E+20
146
0.0
 13
0.0
 23
0.0
 33
0.0
 16
1.0
 26
0.0
 36
0.0
 17
0.0
 27
1.0
 37
0.0
 76
     0
330
1B
  0
LAYOUT
  5
26
102
{ACAD_REACTORS
330
1A
102
}
330
1A
100
AcDbPlotSettings
  1

  2
none_device
  4

  6

 40
0.0
 41
0.0
 42
0.0
 43
0.0
 44
0.0
 45
0.0
 46
0.0
 47
0.0
 48
0.0
 49
0.0
140
0.0
141
0.0
142
1.0
143
1.0
 70
   688
 72
     0
 73
     0
 74
     5
  7

 75
    16
147
1.0
148
0.0
149
0.0
100
AcDbLayout
  1
Layout2
 70
     1
 71
     2
 10
0.0
 20
0.0
 11
0.0
 21
0.0
 12
0.0
 22
0.0
 32
0.0
 14
0.0
 24
0.0
 34
0.0
 15
0.0
 25
0.0
 35
0.0
146
0.0
 13
0.0
 23
0.0
 33
0.0
 16
1.0
 26
0.0
 36
0.0
 17
0.0
 27
1.0
 37
0.0
 76
     0
330
23
  0
LAYOUT
  5
22
102
{ACAD_REACTORS
330
1A
102
}
330
1A
100
AcDbPlotSettings
  1

  2
none_device
  4
ANSI_A_(11.00_x_8.50_Inches)
  6

 40
6.35
 41
19.05
 42
6.35000508
 43
19.05000254
 44
279.4
 45
215.9
 46
45.4182197574
 47
88.9628115337
 48
0.0
 49
0.0
140
0.0
141
0.0
142
1.4451191843
143
1.0
 70
  1696
 72
     0
 73
     0
 74
     0
  7

 75
     0
147
0.5913241897
148
-39.4088153714
149
0.0
100
AcDbLayout
  1
Model
 70
     1
 71
     0
 10
0.0
 20
0.0
 11
12.0
 21
9.0
 12
0.0
 22
0.0
 32
0.0
 14
-1.3722874969
 24
-2.3434051441
 34
0.0
 15
6.1634231342
 25
2.3399826651
 35
0.0
146
0.0
 13
0.0
 23
0.0
 33
0.0
 16
1.0
 26
0.0
 36
0.0
 17
0.0
 27
1.0
 37
0.0
 76
     0
330
1F
331
29
  0
MLINESTYLE
  5
18
102
{ACAD_REACTORS
330
17
102
}
330
17
100
AcDbMlineStyle
  2
Standard
 70
     0
  3

 62
   256
 51
90.0
 52
90.0
 71
     2
 49
0.5
 62
   256
  6
BYLAYER
 49
-0.5
 62
   256
  6
BYLAYER
  0
ACDBPLACEHOLDER
  5
F
102
{ACAD_REACTORS
330
E
102
}
330
E
  0
SCALE
  5
48
102
{ACAD_REACTORS
330
47
102
}
330
47
100
AcDbScale
 70
     0
300
1:1
140
1.0
141
1.0
290
     1
  0
SCALE
  5
49
102
{ACAD_REACTORS
330
47
102
}
330
47
100
AcDbScale
 70
     0
300
1:2
140
1.0
141
2.0
290
     0
  0
SCALE
  5
4A
102
{ACAD_REACTORS
330
47
102
}
330
47
100
AcDbScale
 70
     0
300
1:4
140
1.0
141
4.0
290
     0
  0
SCALE
  5
4B
102
{ACAD_REACTORS
330
47
102
}
330
47
100
AcDbScale
 70
     0
300
1:5
140
1.0
141
5.0
290
     0
  0
SCALE
  5
4C
102
{ACAD_REACTORS
330
47
102
}
330
47
100
AcDbScale
 70
     0
300
1:8
140
1.0
141
8.0
290
     0
  0
SCALE
  5
4D
102
{ACAD_REACTORS
330
47
102
}
330
47
100
AcDbScale
 70
     0
300
1:10
140
1.0
141
10.0
290
     0
  0
SCALE
  5
4E
102
{ACAD_REACTORS
330
47
102
}
330
47
100
AcDbScale
 70
     0
300
1:16
140
1.0
141
16.0
290
     0
  0
SCALE
  5
4F
102
{ACAD_REACTORS
330
47
102
}
330
47
100
AcDbScale
 70
     0
300
1:20
140
1.0
141
20.0
290
     0
  0
SCALE
  5
50
102
{ACAD_REACTORS
330
47
102
}
330
47
100
AcDbScale
 70
     0
300
1:30
140
1.0
141
30.0
290
     0
  0
SCALE
  5
51
102
{ACAD_REACTORS
330
47
102
}
330
47
100
AcDbScale
 70
     0
300
1:40
140
1.0
141
40.0
290
     0
  0
SCALE
  5
52
102
{ACAD_REACTORS
330
47
102
}
330
47
100
AcDbScale
 70
     0
300
1:50
140
1.0
141
50.0
290
     0
  0
SCALE
  5
53
102
{ACAD_REACTORS
330
47
102
}
330
47
100
AcDbScale
 70
     0
300
1:100
140
1.0
141
100.0
290
     0
  0
SCALE
  5
54
102
{ACAD_REACTORS
330
47
102
}
330
47
100
AcDbScale
 70
     0
300
2:1
140
2.0
141
1.0
290
     0
  0
SCALE
  5
55
102
{ACAD_REACTORS
330
47
102
}
330
47
100
AcDbScale
 70
     0
300
4:1
140
4.0
141
1.0
290
     0
  0
SCALE
  5
56
102
{ACAD_REACTORS
330
47
102
}
330
47
100
AcDbScale
 70
     0
300
8:1
140
8.0
141
1.0
290
     0
  0
SCALE
  5
57
102
{ACAD_REACTORS
330
47
102
}
330
47
100
AcDbScale
 70
     0
300
10:1
140
10.0
141
1.0
290
     0
  0
SCALE
  5
58
102
{ACAD_REACTORS
330
47
102
}
330
47
100
AcDbScale
 70
     0
300
100:1
140
100.0
141
1.0
290
     0
  0
SCALE
  5
59
102
{ACAD_REACTORS
330
47
102
}
330
47
100
AcDbScale
 70
     0
300
1/128" = 1'-0"
140
0.0078125
141
12.0
290
     0
  0
SCALE
  5
5A
102
{ACAD_REACTORS
330
47
102
}
330
47
100
AcDbScale
 70
     0
300
1/64" = 1'-0"
140
0.015625
141
12.0
290
     0
  0
SCALE
  5
5B
102
{ACAD_REACTORS
330
47
102
}
330
47
100
AcDbScale
 70
     0
300
1/32" = 1'-0"
140
0.03125
141
12.0
290
     0
  0
SCALE
  5
5C
102
{ACAD_REACTORS
330
47
102
}
330
47
100
AcDbScale
 70
     0
300
1/16" = 1'-0"
140
0.0625
141
12.0
290
     0
  0
SCALE
  5
5D
102
{ACAD_REACTORS
330
47
102
}
330
47
100
AcDbScale
 70
     0
300
3/32" = 1'-0"
140
0.09375
141
12.0
290
     0
  0
SCALE
  5
5E
102
{ACAD_REACTORS
330
47
102
}
330
47
100
AcDbScale
 70
     0
300
1/8" = 1'-0"
140
0.125
141
12.0
290
     0
  0
SCALE
  5
5F
102
{ACAD_REACTORS
330
47
102
}
330
47
100
AcDbScale
 70
     0
300
3/16" = 1'-0"
140
0.1875
141
12.0
290
     0
  0
SCALE
  5
60
102
{ACAD_REACTORS
330
47
102
}
330
47
100
AcDbScale
 70
     0
300
1/4" = 1'-0"
140
0.25
141
12.0
290
     0
  0
SCALE
  5
61
102
{ACAD_REACTORS
330
47
102
}
330
47
100
AcDbScale
 70
     0
300
3/8" = 1'-0"
140
0.375
141
12.0
290
     0
  0
SCALE
  5
62
102
{ACAD_REACTORS
330
47
102
}
330
47
100
AcDbScale
 70
     0
300
1/2" = 1'-0"
140
0.5
141
12.0
290
     0
  0
SCALE
  5
63
102
{ACAD_REACTORS
330
47
102
}
330
47
100
AcDbScale
 70
     0
300
3/4" = 1'-0"
140
0.75
141
12.0
290
     0
  0
SCALE
  5
64
102
{ACAD_REACTORS
330
47
102
}
330
47
100
AcDbScale
 70
     0
300
1" = 1'-0"
140
1.0
141
12.0
290
     0
  0
SCALE
  5
65
102
{ACAD_REACTORS
330
47
102
}
330
47
100
AcDbScale
 70
     0
300
1-1/2" = 1'-0"
140
1.5
141
12.0
290
     0
  0
SCALE
  5
66
102
{ACAD_REACTORS
330
47
102
}
330
47
100
AcDbScale
 70
     0
300
3" = 1'-0"
140
3.0
141
12.0
290
     0
  0
SCALE
  5
67
102
{ACAD_REACTORS
330
47
102
}
330
47
100
AcDbScale
 70
     0
300
6" = 1'-0"
140
6.0
141
12.0
290
     0
  0
SCALE
  5
68
102
{ACAD_REACTORS
330
47
102
}
330
47
100
AcDbScale
 70
     0
300
1'-0" = 1'-0"
140
12.0
141
12.0
290
     0
  0
ENDSEC
  0
EOF
