  0
SECTION
  2
HEADER
  9
$ACADVER
  1
AC1015
  9
$ACADMAINTVER
 70
     6
  9
$DWGCODEPAGE
  3
ANSI_1252
  9
$INSBASE
 10
0.0
 20
0.0
 30
0.0
  9
$EXTMIN
 10
-1.8571857254
 20
-3.702613316
 30
0.0
  9
$EXTMAX
 10
9.0096298893
 20
3.7004599039
 30
0.0
  9
$LIMMIN
 10
0.0
 20
0.0
  9
$LIMMAX
 10
12.0
 20
9.0
  9
$ORTHOMODE
 70
     0
  9
$REGENMODE
 70
     1
  9
$FILLMODE
 70
     1
  9
$QTEXTMODE
 70
     0
  9
$MIRRTEXT
 70
     1
  9
$LTSCALE
 40
1.0
  9
$ATTMODE
 70
     1
  9
$TEXTSIZE
 40
0.25
  9
$TRACEWID
 40
0.05
  9
$TEXTSTYLE
  7
Standard
  9
$CLAYER
  8
0
  9
$CELTYPE
  6
ByLayer
  9
$CECOLOR
 62
   256
  9
$CELTSCALE
 40
1.0
  9
$DISPSILH
 70
     0
  9
$DIMSCALE
 40
1.0
  9
$DIMASZ
 40
0.236
  9
$DIMEXO
 40
0.039
  9
$DIMDLI
 40
0.38
  9
$DIMRND
 40
0.0
  9
$DIMDLE
 40
0.0
  9
$DIMEXE
 40
0.039
  9
$DIMTP
 40
0.0
  9
$DIMTM
 40
0.0
  9
$DIMTXT
 40
0.25
  9
$DIMCEN
 40
0.09
  9
$DIMTSZ
 40
0.0
  9
$DIMTOL
 70
     0
  9
$DIMLIM
 70
     0
  9
$DIMTIH
 70
     1
  9
$DIMTOH
 70
     1
  9
$DIMSE1
 70
     0
  9
$DIMSE2
 70
     0
  9
$DIMTAD
 70
     1
  9
$DIMZIN
 70
     0
  9
$DIMBLK
  1

  9
$DIMASO
 70
     1
  9
$DIMSHO
 70
     1
  9
$DIMPOST
  1

  9
$DIMAPOST
  1

  9
$DIMALT
 70
     0
  9
$DIMALTD
 70
     2
  9
$DIMALTF
 40
25.4
  9
$DIMLFAC
 40
1.0
  9
$DIMTOFL
 70
     0
  9
$DIMTVP
 40
0.0
  9
$DIMTIX
 70
     0
  9
$DIMSOXD
 70
     0
  9
$DIMSAH
 70
     0
  9
$DIMBLK1
  1

  9
$DIMBLK2
  1

  9
$DIMSTYLE
  2
Standard
  9
$DIMCLRD
 70
     0
  9
$DIMCLRE
 70
     0
  9
$DIMCLRT
 70
     0
  9
$DIMTFAC
 40
1.0
  9
$DIMGAP
 40
0.06
  9
$DIMJUST
 70
     0
  9
$DIMSD1
 70
     0
  9
$DIMSD2
 70
     0
  9
$DIMTOLJ
 70
     1
  9
$DIMTZIN
 70
     0
  9
$DIMALTZ
 70
     0
  9
$DIMALTTZ
 70
     0
  9
$DIMUPT
 70
     0
  9
$DIMDEC
 70
     2
  9
$DIMTDEC
 70
     2
  9
$DIMALTU
 70
     2
  9
$DIMALTTD
 70
     2
  9
$DIMTXSTY
  7
Standard
  9
$DIMAUNIT
 70
     0
  9
$DIMADEC
 70
     2
  9
$DIMALTRND
 40
0.0
  9
$DIMAZIN
 70
     0
  9
$DIMDSEP
 70
    46
  9
$DIMATFIT
 70
     3
  9
$DIMFRAC
 70
     0
  9
$DIMLDRBLK
  1

  9
$DIMLUNIT
 70
     2
  9
$DIMLWD
 70
    -2
  9
$DIMLWE
 70
    -2
  9
$DIMTMOVE
 70
     0
  9
$LUNITS
 70
     2
  9
$LUPREC
 70
     2
  9
$SKETCHINC
 40
0.1
  9
$FILLETRAD
 40
0.5
  9
$AUNITS
 70
     0
  9
$AUPREC
 70
     2
  9
$MENU
  1
.
  9
$ELEVATION
 40
0.0
  9
$PELEVATION
 40
0.0
  9
$THICKNESS
 40
0.0
  9
$LIMCHECK
 70
     0
  9
$CHAMFERA
 40
0.0
  9
$CHAMFERB
 40
0.0
  9
$CHAMFERC
 40
0.0
  9
$CHAMFERD
 40
0.0
  9
$SKPOLY
 70
     0
  9
$TDCREATE
 40
2458234.652432824
  9
$TDUCREATE
 40
2458234.860766158
  9
$TDUPDATE
 40
2458234.652801076
  9
$TDUUPDATE
 40
2458234.86113441
  9
$TDINDWG
 40
0.0000000116
  9
$TDUSRTIMER
 40
0.0000000116
  9
$USRTIMER
 70
     1
  9
$ANGBASE
 50
0.0
  9
$ANGDIR
 70
     0
  9
$PDMODE
 70
     0
  9
$PDSIZE
 40
-1.0
  9
$PLINEWID
 40
0.0
  9
$SPLFRAME
 70
     0
  9
$SPLINETYPE
 70
     6
  9
$SPLINESEGS
 70
     8
  9
$HANDSEED
  5
86
  9
$SURFTAB1
 70
     6
  9
$SURFTAB2
 70
     6
  9
$SURFTYPE
 70
     6
  9
$SURFU
 70
     6
  9
$SURFV
 70
     6
  9
$UCSBASE
  2

  9
$UCSNAME
  2

  9
$UCSORG
 10
0.0
 20
0.0
 30
0.0
  9
$UCSXDIR
 10
1.0
 20
0.0
 30
0.0
  9
$UCSYDIR
 10
0.0
 20
1.0
 30
0.0
  9
$UCSORTHOREF
  2

  9
$UCSORTHOVIEW
 70
     0
  9
$UCSORGTOP
 10
0.0
 20
0.0
 30
0.0
  9
$UCSORGBOTTOM
 10
0.0
 20
0.0
 30
0.0
  9
$UCSORGLEFT
 10
0.0
 20
0.0
 30
0.0
  9
$UCSORGRIGHT
 10
0.0
 20
0.0
 30
0.0
  9
$UCSORGFRONT
 10
0.0
 20
0.0
 30
0.0
  9
$UCSORGBACK
 10
0.0
 20
0.0
 30
0.0
  9
$PUCSBASE
  2

  9
$PUCSNAME
  2

  9
$PUCSORG
 10
0.0
 20
0.0
 30
0.0
  9
$PUCSXDIR
 10
1.0
 20
0.0
 30
0.0
  9
$PUCSYDIR
 10
0.0
 20
1.0
 30
0.0
  9
$PUCSORTHOREF
  2

  9
$PUCSORTHOVIEW
 70
     0
  9
$PUCSORGTOP
 10
0.0
 20
0.0
 30
0.0
  9
$PUCSORGBOTTOM
 10
0.0
 20
0.0
 30
0.0
  9
$PUCSORGLEFT
 10
0.0
 20
0.0
 30
0.0
  9
$PUCSORGRIGHT
 10
0.0
 20
0.0
 30
0.0
  9
$PUCSORGFRONT
 10
0.0
 20
0.0
 30
0.0
  9
$PUCSORGBACK
 10
0.0
 20
0.0
 30
0.0
  9
$USERI1
 70
     0
  9
$USERI2
 70
     0
  9
$USERI3
 70
     0
  9
$USERI4
 70
     0
  9
$USERI5
 70
     0
  9
$USERR1
 40
0.0
  9
$USERR2
 40
0.0
  9
$USERR3
 40
0.0
  9
$USERR4
 40
0.0
  9
$USERR5
 40
0.0
  9
$WORLDVIEW
 70
     1
  9
$SHADEDGE
 70
     3
  9
$SHADEDIF
 70
    70
  9
$TILEMODE
 70
     1
  9
$MAXACTVP
 70
    64
  9
$PINSBASE
 10
0.0
 20
0.0
 30
0.0
  9
$PLIMCHECK
 70
     0
  9
$PEXTMIN
 10
1.0000000000E+20
 20
1.0000000000E+20
 30
1.0000000000E+20
  9
$PEXTMAX
 10
-1.0000000000E+20
 20
-1.0000000000E+20
 30
-1.0000000000E+20
  9
$PLIMMIN
 10
0.0
 20
0.0
  9
$PLIMMAX
 10
12.0
 20
9.0
  9
$UNITMODE
 70
     0
  9
$VISRETAIN
 70
     1
  9
$PLINEGEN
 70
     0
  9
$PSLTSCALE
 70
     1
  9
$TREEDEPTH
 70
  3020
  9
$CMLSTYLE
  2
Standard
  9
$CMLJUST
 70
     0
  9
$CMLSCALE
 40
1.0
  9
$PROXYGRAPHICS
 70
     1
  9
$MEASUREMENT
 70
     0
  9
$CELWEIGHT
370
    -1
  9
$ENDCAPS
280
     0
  9
$JOINSTYLE
280
     0
  9
$LWDISPLAY
290
     1
  9
$INSUNITS
 70
     1
  9
$HYPERLINKBASE
  1

  9
$STYLESHEET
  1

  9
$XEDIT
290
     1
  9
$CEPSNTYPE
380
     0
  9
$PSTYLEMODE
290
     1
  9
$FINGERPRINTGUID
  2
{61AB9B3A-E42C-428E-8154-A246987ACF74}
  9
$VERSIONGUID
  2
{FAEB1C32-E019-11D5-929B-00C0DF256EC4}
  9
$EXTNAMES
290
     1
  9
$PSVPSCALE
 40
0.0
  9
$OLESTARTUP
290
     0
  0
ENDSEC
  0
SECTION
  2
CLASSES
  0
CLASS
  1
ACDBDICTIONARYWDFLT
  2
AcDbDictionaryWithDefault
  3
ObjectDBX Classes
 90
        0
280
     0
281
     0
  0
CLASS
  1
VISUALSTYLE
  2
AcDbVisualStyle
  3
ObjectDBX Classes
 90
     4095
280
     0
281
     0
  0
CLASS
  1
MATERIAL
  2
AcDbMaterial
  3
ObjectDBX Classes
 90
     1153
280
     0
281
     0
  0
CLASS
  1
SCALE
  2
AcDbScale
  3
ObjectDBX Classes
 90
     1153
280
     0
281
     0
  0
CLASS
  1
TABLESTYLE
  2
AcDbTableStyle
  3
ObjectDBX Classes
 90
     4095
280
     0
281
     0
  0
CLASS
  1
MLEADERSTYLE
  2
AcDbMLeaderStyle
  3
ACDB_MLEADERSTYLE_CLASS
 90
     4095
280
     0
281
     0
  0
CLASS
  1
SUN
  2
AcDbSun
  3
SCENEOE
 90
     1153
280
     0
281
     0
  0
CLASS
  1
ACDBPLACEHOLDER
  2
AcDbPlaceHolder
  3
ObjectDBX Classes
 90
        0
280
     0
281
     0
  0
CLASS
  1
LAYOUT
  2
AcDbLayout
  3
ObjectDBX Classes
 90
        0
280
     0
281
     0
  0
ENDSEC
  0
SECTION
  2
TABLES
  0
TABLE
  2
VPORT
  5
8
330
0
100
AcDbSymbolTable
 70
     1
  0
VPORT
  5
29
330
8
100
AcDbSymbolTableRecord
100
AcDbViewportTableRecord
  2
*Active
 70
     0
 10
0.0
 20
0.0
 11
1.0
 21
1.0
 12
3.576222082
 22
-0.0010767061
 13
0.0
 23
0.0
 14
0.5
 24
0.5
 15
0.5
 25
0.5
 16
0.0
 26
0.0
 36
1.0
 17
0.0
 27
0.0
 37
0.0
 40
7.5511346843
 41
1.4678789865
 42
50.0
 43
0.0
 44
0.0
 50
0.0
 51
0.0
 71
     0
 72
   100
 73
     1
 74
     3
 75
     0
 76
     0
 77
     0
 78
     0
281
     0
 65
     1
110
0.0
120
0.0
130
0.0
111
1.0
121
0.0
131
0.0
112
0.0
122
1.0
132
0.0
 79
     0
146
0.0
  0
ENDTAB
  0
TABLE
  2
LTYPE
  5
5
330
0
100
AcDbSymbolTable
 70
     6
  0
LTYPE
  5
14
330
5
100
AcDbSymbolTableRecord
100
AcDbLinetypeTableRecord
  2
ByBlock
 70
     0
  3

 72
    65
 73
     0
 40
0.0
  0
LTYPE
  5
15
330
5
100
AcDbSymbolTableRecord
100
AcDbLinetypeTableRecord
  2
ByLayer
 70
     0
  3

 72
    65
 73
     0
 40
0.0
  0
LTYPE
  5
16
330
5
100
AcDbSymbolTableRecord
100
AcDbLinetypeTableRecord
  2
Continuous
 70
     0
  3
Solid line
 72
    65
 73
     0
 40
0.0
  0
LTYPE
  5
6E
330
5
100
AcDbSymbolTableRecord
100
AcDbLinetypeTableRecord
  2
HIDDEN
 70
     0
  3
Hidden __ __ __ __ __ __ __ __ __ __ __ __ __ __
 72
    65
 73
     2
 40
0.075
 49
0.05
 74
     0
 49
-0.025
 74
     0
  0
LTYPE
  5
6F
330
5
100
AcDbSymbolTableRecord
100
AcDbLinetypeTableRecord
  2
PHANTOM
 70
     0
  3
Phantom ______  __  __  ______  __  __  ______
 72
    65
 73
     6
 40
0.5
 49
0.25
 74
     0
 49
-0.05
 74
     0
 49
0.05
 74
     0
 49
-0.05
 74
     0
 49
0.05
 74
     0
 49
-0.05
 74
     0
  0
LTYPE
  5
70
330
5
100
AcDbSymbolTableRecord
100
AcDbLinetypeTableRecord
  2
CENTER
 70
     0
  3
Center ____ _ ____ _ ____ _ ____ _ ____ _ ____
 72
    65
 73
     4
 40
0.4
 49
0.25
 74
     0
 49
-0.05
 74
     0
 49
0.05
 74
     0
 49
-0.05
 74
     0
  0
LTYPE
  5
71
330
5
100
AcDbSymbolTableRecord
100
AcDbLinetypeTableRecord
  2
CENTERX2
 70
     0
  3
Center (2x) ________  __  ________  __  _____
 72
    65
 73
     4
 40
0.8
 49
0.5
 74
     0
 49
-0.1
 74
     0
 49
0.1
 74
     0
 49
-0.1
 74
     0
  0
LTYPE
  5
72
330
5
100
AcDbSymbolTableRecord
100
AcDbLinetypeTableRecord
  2
DOT2
 70
     0
  3
Dot (.5x) ........................................
 72
    65
 73
     2
 40
0.025
 49
0.0
 74
     0
 49
-0.025
 74
     0
  0
ENDTAB
  0
TABLE
  2
LAYER
  5
2
330
0
100
AcDbSymbolTable
 70
     1
  0
LAYER
  5
10
330
2
100
AcDbSymbolTableRecord
100
AcDbLayerTableRecord
  2
0
 70
     0
 62
     7
  6
Continuous
370
    -3
390
F
  0
ENDTAB
  0
TABLE
  2
STYLE
  5
3
330
0
100
AcDbSymbolTable
 70
     2
  0
STYLE
  5
11
330
3
100
AcDbSymbolTableRecord
100
AcDbTextStyleTableRecord
  2
Standard
 70
     0
 40
0.0
 41
1.0
 50
0.0
 71
     0
 42
0.25
  3
txt
  4

  0
STYLE
  5
83
330
3
100
AcDbSymbolTableRecord
100
AcDbTextStyleTableRecord
  2
SLDTEXTSTYLE0
 70
     0
 40
0.0
 41
0.7
 50
0.0
 71
     0
 42
0.25
  3
TXT
  4

  0
ENDTAB
  0
TABLE
  2
VIEW
  5
6
330
0
100
AcDbSymbolTable
 70
     0
  0
ENDTAB
  0
TABLE
  2
UCS
  5
7
330
0
100
AcDbSymbolTable
 70
     0
  0
ENDTAB
  0
TABLE
  2
APPID
  5
9
330
0
100
AcDbSymbolTable
 70
     1
  0
APPID
  5
12
330
9
100
AcDbSymbolTableRecord
100
AcDbRegAppTableRecord
  2
ACAD
 70
     0
  0
ENDTAB
  0
TABLE
  2
DIMSTYLE
  5
A
330
0
100
AcDbSymbolTable
 70
     1
100
AcDbDimStyleTable
  0
DIMSTYLE
105
27
330
A
100
AcDbSymbolTableRecord
100
AcDbDimStyleTableRecord
  2
Standard
 70
     0
178
     0
340
11
  0
ENDTAB
  0
TABLE
  2
BLOCK_RECORD
  5
1
330
0
100
AcDbSymbolTable
 70
     1
  0
BLOCK_RECORD
  5
1F
330
1
100
AcDbSymbolTableRecord
100
AcDbBlockTableRecord
  2
*Model_Space
340
22
  0
BLOCK_RECORD
  5
1B
330
1
100
AcDbSymbolTableRecord
100
AcDbBlockTableRecord
  2
*Paper_Space
340
1E
  0
BLOCK_RECORD
  5
23
330
1
100
AcDbSymbolTableRecord
100
AcDbBlockTableRecord
  2
*Paper_Space0
340
26
  0
ENDTAB
  0
ENDSEC
  0
SECTION
  2
BLOCKS
  0
BLOCK
  5
20
330
1F
100
AcDbEntity
  8
0
100
AcDbBlockBegin
  2
*Model_Space
 70
     0
 10
0.0
 20
0.0
 30
0.0
  3
*Model_Space
  1

  0
ENDBLK
  5
21
330
1F
100
AcDbEntity
  8
0
100
AcDbBlockEnd
  0
BLOCK
  5
1C
330
1B
100
AcDbEntity
 67
     1
  8
0
100
AcDbBlockBegin
  2
*Paper_Space
 70
     0
 10
0.0
 20
0.0
 30
0.0
  3
*Paper_Space
  1

  0
ENDBLK
  5
1D
330
1B
100
AcDbEntity
 67
     1
  8
0
100
AcDbBlockEnd
  0
BLOCK
  5
24
330
23
100
AcDbEntity
  8
0
100
AcDbBlockBegin
  2
*Paper_Space0
 70
     0
 10
0.0
 20
0.0
 30
0.0
  3
*Paper_Space0
  1

  0
ENDBLK
  5
25
330
23
100
AcDbEntity
  8
0
100
AcDbBlockEnd
  0
ENDSEC
  0
SECTION
  2
ENTITIES
  0
CIRCLE
  5
73
330
1F
100
AcDbEntity
  8
0
  6
Continuous
 62
     7
100
AcDbCircle
 10
0.0
 20
0.0
 30
0.0
 40
0.25
  0
CIRCLE
  5
74
330
1F
100
AcDbEntity
  8
0
  6
Continuous
 62
     7
100
AcDbCircle
 10
0.76
 20
0.0
 30
0.0
 40
0.1000000000000001
  0
CIRCLE
  5
75
330
1F
100
AcDbEntity
  8
0
  6
Continuous
 62
     7
100
AcDbCircle
 10
-0.38
 20
0.6581793069
 30
0.0
 40
0.1
  0
CIRCLE
  5
76
330
1F
100
AcDbEntity
  8
0
  6
Continuous
 62
     7
100
AcDbCircle
 10
-0.38
 20
-0.6581793069
 30
0.0
 40
0.1
  0
CIRCLE
  5
77
330
1F
100
AcDbEntity
  8
0
  6
Continuous
 62
     7
100
AcDbCircle
 10
0.51
 20
0.0
 30
0.0
 40
0.05
  0
CIRCLE
  5
78
330
1F
100
AcDbEntity
  8
0
  6
Continuous
 62
     7
100
AcDbCircle
 10
5.6906981128
 20
-0.6581793069
 30
0.0
 40
0.1000000000000001
  0
CIRCLE
  5
79
330
1F
100
AcDbEntity
  8
0
  6
Continuous
 62
     7
100
AcDbCircle
 10
5.6906981128
 20
0.6581793069
 30
0.0
 40
0.0999999999999991
  0
CIRCLE
  5
7A
330
1F
100
AcDbEntity
  8
0
  6
Continuous
 62
     7
100
AcDbCircle
 10
4.5506981128
 20
0.0
 30
0.0
 40
0.0999999999999991
  0
CIRCLE
  5
7B
330
1F
100
AcDbEntity
  8
0
  6
Continuous
 62
     7
100
AcDbCircle
 10
4.8006981128
 20
0.0
 30
0.0
 40
0.05
  0
CIRCLE
  5
7C
330
1F
100
AcDbEntity
  8
0
  6
Continuous
 62
     7
100
AcDbCircle
 10
5.3106981128
 20
0.0
 30
0.0
 40
0.250000000000001
  0
LINE
  5
80
330
1F
100
AcDbEntity
  8
0
  6
CENTERX2
 62
     7
100
AcDbLine
 10
2.6553490564
 20
2.6333309485
 30
0.0
 11
2.6553490564
 21
-3.1359580773
 31
0.0
  0
LWPOLYLINE
  5
81
330
1F
100
AcDbEntity
  8
0
  6
Continuous
 62
     7
100
AcDbPolyline
 90
      316
 70
   128
 43
0.0
 10
0.0
 20
1.4358108108
 10
-0.006724594
 20
1.4289096349
 10
-0.0127426202
 20
1.4252365884
 10
-0.0222880655
 20
1.4252634283
 10
-0.0278496177
 20
1.4206207903
 10
-0.0512101054
 20
1.3953858394
 10
-0.0770531068
 20
1.3674770007
 10
-0.0962545108
 20
1.344002817
 10
-0.1042899625
 20
1.3404168935
 10
-0.111627946
 20
1.3396410082
 10
-0.1177784632
 20
1.3324735211
 10
-0.1220296347
 20
1.3257581286
 10
-0.1343328729
 20
1.31167785
 10
-0.14265639
 20
1.2983746249
 10
-0.1578737238
 20
1.2935391144
 10
-0.1632232962
 20
1.285345772
 10
-0.1674682077
 20
1.2789973486
 10
-0.1767537542
 20
1.2642433202
 10
-0.1844539818
 20
1.2600814733
 10
-0.1916012286
 20
1.2586203007
 10
-0.1968719372
 20
1.2506217488
 10
-0.199950914
 20
1.2427269241
 10
-0.2136178544
 20
1.2351908449
 10
-0.2229170898
 20
1.2211623362
 10
-0.2276027401
 20
1.2126163712
 10
-0.2346999873
 20
1.2108521493
 10
-0.2415078791
 20
1.2054813356
 10
-0.2449760636
 20
1.1985518846
 10
-0.2540869796
 20
1.1963419217
 10
-0.2590222284
 20
1.1915412069
 10
-0.2621693362
 20
1.1811872671
 10
-0.2654405435
 20
1.1742020437
 10
-0.2790938034
 20
1.1666301313
 10
-0.2835573633
 20
1.1582236463
 10
-0.2910273522
 20
1.1567098764
 10
-0.2953525906
 20
1.1483064116
 10
-0.3002145921
 20
1.143452524
 10
-0.3106413605
 20
1.1319111503
 10
-0.3232239726
 20
1.1229214473
 10
-0.3275641233
 20
1.1146915881
 10
-0.3349135535
 20
1.1127986234
 10
-0.3392536718
 20
1.1046931864
 10
-0.3408504201
 20
1.0963248764
 10
-0.3522937653
 20
1.0860183172
 10
-0.3580045733
 20
1.0850548449
 10
-0.3614222983
 20
1.0831615425
 10
-0.3637574842
 20
1.0758242752
 10
-0.3756293976
 20
1.065971694
 10
-0.3767640278
 20
1.0602713918
 10
-0.3782044766
 20
1.0563278992
 10
-0.3851022229
 20
1.0536486835
 10
-0.3892832069
 20
1.0457434916
 10
-0.3923397682
 20
1.039273083
 10
-0.4022126676
 20
1.0368371481
 10
-0.4074749219
 20
1.0325395022
 10
-0.4084110683
 20
1.0268509232
 10
-0.4096923137
 20
1.022876569
 10
-0.4163741938
 20
1.0198402975
 10
-0.4203387689
 20
1.0118983665
 10
-0.4230338012
 20
1.0052462989
 10
-0.4327512991
 20
1.0023852617
 10
-0.4378491154
 20
0.9979030957
 10
-0.4397011488
 20
0.9882136675
 10
-0.445759218
 20
0.9845201071
 10
-0.4514355676
 20
0.983006981
 10
-0.4547913492
 20
0.980893615
 10
-0.4565118087
 20
0.9736296808
 10
-0.46855939
 20
0.9636620608
 10
-0.4735488859
 20
0.9567336765
 10
-0.4746523688
 20
0.9490946975
 10
-0.4828552699
 20
0.9445973679
 10
-0.4894744393
 20
0.9411628636
 10
-0.4969609713
 20
0.9360769913
 10
-0.4975018993
 20
0.9281911866
 10
-0.5033001162
 20
0.9218289444
 10
-0.5107667464
 20
0.9188771378
 10
-0.5130748416
 20
0.9101282779
 10
-0.5152395486
 20
0.9034795511
 10
-0.5240580735
 20
0.8991365667
 10
-0.5301886174
 20
0.8951548001
 10
-0.5417105807
 20
0.8845069393
 10
-0.5430062086
 20
0.875250815
 10
-0.5498017061
 20
0.8715860353
 10
-0.5643411057
 20
0.8625677793
 10
-0.5683341938
 20
0.8593849622
 10
-0.5688425737
 20
0.8553656938
 10
-0.5687004889
 20
0.8475701075
 10
-0.572901482
 20
0.8438123472
 10
-0.5772291665
 20
0.8414392886
 10
-0.5839717913
 20
0.8366048139
 10
-0.596502693
 20
0.8281547005
 10
-0.6003887684
 20
0.8248185172
 10
-0.6007165317
 20
0.8207902197
 10
-0.6001802956
 20
0.8130055692
 10
-0.607484191
 20
0.8071683912
 10
-0.6133189721
 20
0.8026006009
 10
-0.6283638425
 20
0.79095077
 10
-0.6404858119
 20
0.7817989708
 10
-0.641784297
 20
0.7731195067
 10
-0.6421943654
 20
0.7660114969
 10
-0.6499971544
 20
0.7601150192
 10
-0.6554768642
 20
0.7551668613
 10
-0.7052072677
 20
0.7090012059
 10
-0.7516595639
 20
0.6595664819
 10
-0.7627778235
 20
0.6468099514
 10
-0.7659356146
 20
0.6421260407
 10
-0.769023458
 20
0.6398462422
 10
-0.7767611988
 20
0.6408711789
 10
-0.7888295715
 20
0.6308211237
 10
-0.7993559674
 20
0.6175831683
 10
-0.8095335837
 20
0.6039183267
 10
-0.8162906313
 20
0.5984304883
 10
-0.8242282537
 20
0.5992582803
 10
-0.8304227852
 20
0.5927944844
 10
-0.8347176253
 20
0.5866659877
 10
-0.8442692689
 20
0.5725590679
 10
-0.8507832804
 20
0.5667797834
 10
-0.858747769
 20
0.5672095894
 10
-0.8646702186
 20
0.5605087007
 10
-0.8686627634
 20
0.5541554107
 10
-0.8736590228
 20
0.546004714
 10
-0.8779584139
 20
0.5402412227
 10
-0.8878547313
 20
0.5399569453
 10
-0.8927679848
 20
0.535237504
 10
-0.9012127537
 20
0.5203618484
 10
-0.9034665494
 20
0.5151742531
 10
-0.9059705111
 20
0.51217913
 10
-0.9135786819
 20
0.5114091171
 10
-0.9236735969
 20
0.4993452866
 10
-0.9315662255
 20
0.4956694787
 10
-0.9388079193
 20
0.4942369906
 10
-0.9413492593
 20
0.4896293561
 10
-0.9430625525
 20
0.4856244146
 10
-0.9463797778
 20
0.4788877834
 10
-0.9599474476
 20
0.471441278
 10
-0.9652505365
 20
0.4643728771
 10
-0.9679930873
 20
0.4570534196
 10
-0.9769463348
 20
0.454484193
 10
-0.9830573526
 20
0.4513468888
 10
-0.9860623861
 20
0.4415979669
 10
-0.9911213327
 20
0.4371476893
 10
-0.9967985591
 20
0.436395192
 10
-1.0006380532
 20
0.4350837189
 10
-1.0037945396
 20
0.4284617502
 10
-1.0075038619
 20
0.4197252424
 10
-1.015174701
 20
0.418154272
 10
-1.0256256832
 20
0.4069000413
 10
-1.0313436929
 20
0.4059813998
 10
-1.0352187543
 20
0.4046052699
 10
-1.0380745592
 20
0.3978145993
 10
-1.0413933245
 20
0.3888823826
 10
-1.048949641
 20
0.3869266519
 10
-1.0589856637
 20
0.3752619783
 10
-1.0647552407
 20
0.3741756826
 10
-1.0684917191
 20
0.3725605432
 10
-1.0708694629
 20
0.3654662448
 10
-1.0792420854
 20
0.3615093018
 10
-1.084750803
 20
0.3574527703
 10
-1.0889845793
 20
0.3495800176
 10
-1.096829454
 20
0.3475913985
 10
-1.1063852103
 20
0.3354435722
 10
-1.1142991554
 20
0.330968142
 10
-1.1163763391
 20
0.323767005
 10
-1.12127101
 20
0.3215732241
 10
-1.1256905077
 20
0.3203618674
 10
-1.1293292088
 20
0.3145920182
 10
-1.1309488906
 20
0.3096106679
 10
-1.1346284955
 20
0.3077020364
 10
-1.1419780082
 20
0.3049825595
 10
-1.1437228053
 20
0.3001801434
 10
-1.1446636371
 20
0.296028468
 10
-1.1511994056
 20
0.2925235585
 10
-1.1577866439
 20
0.2867549033
 10
-1.1599803829
 20
0.2798063215
 10
-1.169224215
 20
0.2759976071
 10
-1.1722399934
 20
0.2697632691
 10
-1.1841428301
 20
0.2593028695
 10
-1.1973415718
 20
0.2497655248
 10
-1.206778917
 20
0.2374245797
 10
-1.2169820849
 20
0.233924931
 10
-1.2219669761
 20
0.2290642845
 10
-1.2226430158
 20
0.2236461472
 10
-1.2237558027
 20
0.2197695667
 10
-1.2303029681
 20
0.2159003321
 10
-1.23608512
 20
0.2093281631
 10
-1.2374178813
 20
0.2020163598
 10
-1.2455142657
 20
0.1968642434
 10
-1.2522308835
 20
0.193040358
 10
-1.2671020214
 20
0.183913376
 10
-1.2717360269
 20
0.1765435315
 10
-1.2728947442
 20
0.1692271523
 10
-1.2816402861
 20
0.1630400766
 10
-1.2886932887
 20
0.1582766707
 10
-1.3015531173
 20
0.1497761178
 10
-1.306625817
 20
0.1426140763
 10
-1.3072292294
 20
0.1350824534
 10
-1.3139715486
 20
0.128782584
 10
-1.3206118444
 20
0.124568678
 10
-1.3344132622
 20
0.1141363388
 10
-1.3406957012
 20
0.0997941339
 10
-1.3525636628
 20
0.0881977965
 10
-1.3650531619
 20
0.0768248118
 10
-1.3900074607
 20
0.0538010893
 10
-1.4379489302
 20
0.0057923699
 10
-1.6507969624
 20
-0.285700365
 10
-1.7899756525
 20
-0.6189527391
 10
-1.8571857254
 20
-0.9739399816
 10
-1.8331702008
 20
-1.5146633352
 10
-1.6772365566
 20
-2.0333180392
 10
-1.3012013373
 20
-2.6490099361
 10
-0.778022484
 20
-3.1464265843
 10
-0.1523682775
 20
-3.5071900117
 10
-0.0644634366
 20
-3.5440675025
 10
0.0051305238
 20
-3.5723473126
 10
0.0772879603
 20
-3.5877625849
 10
0.1330015129
 20
-3.6065838951
 10
0.2043118325
 20
-3.6294743604
 10
0.2606968866
 20
-3.6461938959
 10
0.3182834945
 20
-3.6529503733
 10
0.3630091758
 20
-3.6643188768
 10
0.5114804339
 20
-3.6905414071
 10
0.6611402812
 20
-3.6997072382
 10
0.7269924654
 20
-3.6988920723
 10
0.792954297
 20
-3.702613316
 10
0.8447536041
 20
-3.7022436648
 10
0.8965750858
 20
-3.7010019824
 10
0.9905278541
 20
-3.6970472202
 10
1.0319574037
 20
-3.6955509581
 10
1.0637506209
 20
-3.687481554
 10
1.1051943334
 20
-3.6861585923
 10
1.1373415768
 20
-3.681115953
 10
1.1939392836
 20
-3.6673529614
 10
1.2354530881
 20
-3.6651576127
 10
1.2667535276
 20
-3.6552230838
 10
1.3239134117
 20
-3.6454929895
 10
1.3809654526
 20
-3.6351081354
 10
1.4253007248
 20
-3.624161743
 10
1.4706338566
 20
-3.6115345744
 10
1.5169550235
 20
-3.603374344
 10
1.5882356796
 20
-3.583676811
 10
1.6582297876
 20
-3.5592036629
 10
1.7117502622
 20
-3.5353431338
 10
1.7819533717
 20
-3.5124491185
 10
1.8377658792
 20
-3.4963142557
 10
1.8894156351
 20
-3.4678377374
 10
1.9322596643
 20
-3.4520783339
 10
1.9798189732
 20
-3.4288873225
 10
2.0265192676
 20
-3.4035595743
 10
2.1012678918
 20
-3.3678279443
 10
2.1663994155
 20
-3.3320682939
 10
2.2309708247
 20
-3.2955905376
 10
2.3454562626
 20
-3.2289235266
 10
2.4518534612
 20
-3.1475536214
 10
2.640928309
 20
-3.0042494104
 10
2.8154984115
 20
-2.8412970087
 10
2.9476780466
 20
-2.7039238581
 10
3.0037543414
 20
-2.641527643
 10
3.0460235934
 20
-2.5911685653
 10
3.0917841231
 20
-2.5219763077
 10
3.1329667134
 20
-2.4705259353
 10
3.1732098684
 20
-2.4183632246
 10
3.2043246826
 20
-2.3769664429
 10
3.2447013489
 20
-2.3045495051
 10
3.2823276368
 20
-2.2504500114
 10
3.3091665897
 20
-2.1912581171
 10
3.3381958369
 20
-2.1482170936
 10
3.3725718758
 20
-2.0921547795
 10
3.390522837
 20
-2.0442683821
 10
3.4151075892
 20
-2.0048928427
 10
3.4289607049
 20
-1.9614030359
 10
3.4679975954
 20
-1.8914582842
 10
3.4864332848
 20
-1.8321712648
 10
3.5137122682
 20
-1.7827404349
 10
3.5268889441
 20
-1.7288396673
 10
3.54986492
 20
-1.6778547493
 10
3.5667147088
 20
-1.6249852889
 10
3.5778198711
 20
-1.577536321
 10
3.5913083013
 20
-1.5414149417
 10
3.6069765361
 20
-1.4813090313
 10
3.615921774
 20
-1.4333937369
 10
3.6318647153
 20
-1.3922338388
 10
3.6373855797
 20
-1.3490002565
 10
3.6485187681
 20
-1.3068162831
 10
3.6563880383
 20
-1.2639630745
 10
3.6669445667
 20
-1.1963931667
 10
3.6737555207
 20
-1.1261845659
 10
3.6809080147
 20
-1.0712742578
 10
3.6871846098
 20
-1.0162484403
 10
3.6919400739
 20
-0.9729514306
 10
3.6956093095
 20
-0.9176762706
 10
3.694708724
 20
-0.8740298997
 10
3.6926033252
 20
-0.7962415619
 10
3.6917335719
 20
-0.7258102115
 10
3.6940552028
 20
-0.6704969726
 10
3.694558741
 20
-0.6151282842
 10
3.6854261181
 20
-0.5717597443
 10
3.6773677184
 20
-0.48374975
 10
3.6659674939
 20
-0.3960388495
 10
3.554074764
 20
-0.00672513
 10
3.3870045868
 20
0.3642470465
 10
3.1745591559
 20
0.7112037144
 10
2.9181048521
 20
1.0269854982
 10
2.5121702977
 20
1.3860778601
 10
2.042425886
 20
1.6560703319
 10
1.5249013249
 20
1.8156913026
 10
1.11986507
 20
1.8498343432
 10
0.7165040914
 20
1.8008461116
 10
0.3350427765
 20
1.6615220972
 10
0.1607528989
 20
1.5566616044
 10
0.0794819607
 20
1.4954277814
 10
0.0405894192
 20
1.4625827444
 10
0.0215796716
 20
1.4456927068
 10
0.0161851492
 20
1.4390513578
 10
0.0111633303
 20
1.4358534626
 10
0.0048141451
 20
1.4360568708
 10
0.0
 20
1.4358108108
  0
LWPOLYLINE
  5
82
330
1F
100
AcDbEntity
  8
0
  6
Continuous
 62
     7
100
AcDbPolyline
 90
      330
 70
   128
 43
0.0
 10
3.8748862237
 20
0.0
 10
3.8654074098
 20
0.0103278338
 10
3.8576189819
 20
0.0183450504
 10
3.8446763176
 20
0.0331334261
 10
3.8217151114
 20
0.0598532989
 10
3.7824236865
 20
0.1089809597
 10
3.7177712578
 20
0.2008242382
 10
3.6200844618
 20
0.3758874639
 10
3.5020390334
 20
0.7134124046
 10
3.4523191358
 20
1.1166671147
 10
3.4854937891
 20
1.5217657532
 10
3.643608237
 20
2.0397285612
 10
3.912013989
 20
2.5103530545
 10
4.2695841023
 20
2.9175949848
 10
4.5843332194
 20
3.1752834106
 10
4.930389944
 20
3.3891525036
 10
5.1129072255
 20
3.4791825113
 10
5.3006213109
 20
3.5578080528
 10
5.4927590212
 20
3.6247297699
 10
5.6898961645
 20
3.6662092364
 10
5.7596999384
 20
3.6784278541
 10
5.8148863137
 20
3.6816821628
 10
5.8698823542
 20
3.6934979898
 10
5.9134285643
 20
3.6899518043
 10
5.9627668769
 20
3.6998557743
 10
6.0121850068
 20
3.6979480844
 10
6.0898965462
 20
3.7004599039
 10
6.1603607879
 20
3.6994944396
 10
6.2156601258
 20
3.697708373
 10
6.2708947783
 20
3.6944195572
 10
6.3145553009
 20
3.6941764827
 10
6.3697316926
 20
3.6891280068
 10
6.412809753
 20
3.6825424117
 10
6.4555791127
 20
3.6742390599
 10
6.4900198864
 20
3.6739161033
 10
6.5338004939
 20
3.6674412636
 10
6.5674695658
 20
3.6581727522
 10
6.6285258944
 20
3.6474585477
 10
6.6895599544
 20
3.6362371338
 10
6.7373157946
 20
3.6262798404
 10
6.7959734416
 20
3.6042545671
 10
6.8439185143
 20
3.5953594791
 10
6.8869862053
 20
3.5880967662
 10
6.926931813
 20
3.5687562126
 10
6.9812186705
 20
3.5572727205
 10
7.0314887115
 20
3.5316210647
 10
7.1133530358
 20
3.5017398764
 10
7.1865943895
 20
3.4756548993
 10
7.2571538765
 20
3.4418332065
 10
7.4964654235
 20
3.319711182
 10
7.7245522645
 20
3.1765316636
 10
7.9401673826
 20
3.0139629845
 10
8.1385935871
 20
2.8289586767
 10
8.2701631972
 20
2.691015461
 10
8.3259977236
 20
2.6283983216
 10
8.3690119182
 20
2.5784300782
 10
8.4135426447
 20
2.5085096241
 10
8.4544230985
 20
2.4568381181
 10
8.4945147971
 20
2.4045423839
 10
8.526099337
 20
2.3633399043
 10
8.5654906401
 20
2.2904303526
 10
8.6026256007
 20
2.2360529769
 10
8.6300993257
 20
2.1771614964
 10
8.6583294478
 20
2.1337221548
 10
8.6933818067
 20
2.0778816748
 10
8.7097578896
 20
2.0293838588
 10
8.7496823984
 20
1.9470593293
 10
8.7820374634
 20
1.8836789069
 10
8.8045000651
 20
1.8168605501
 10
8.8279379544
 20
1.7662079436
 10
8.8469296856
 20
1.7140223699
 10
8.8622708885
 20
1.6538970542
 10
8.8839861854
 20
1.6092702237
 10
8.8930202119
 20
1.5612437977
 10
8.909675948
 20
1.5258876083
 10
8.9232545017
 20
1.4653160739
 10
8.9307732477
 20
1.417052174
 10
8.9532952393
 20
1.3328036781
 10
8.9573238051
 20
1.2893359407
 10
8.9661289357
 20
1.2467335528
 10
8.9839449049
 20
1.1802439568
 10
8.9913618013
 20
1.1101248281
 10
8.9990011501
 20
1.0552375937
 10
8.9938346259
 20
1.0050048795
 10
8.9994718847
 20
0.9559271138
 10
9.0041627711
 20
0.9007815765
 10
9.0096298893
 20
0.8575163003
 10
9.0070101649
 20
0.7795822625
 10
9.0092787489
 20
0.7091633616
 10
8.999656692
 20
0.6537180085
 10
8.9956370688
 20
0.5549844525
 10
8.9884138315
 20
0.4998935119
 10
8.9784918745
 20
0.4568531484
 10
8.979283212
 20
0.4132983232
 10
8.9695715265
 20
0.3797269181
 10
8.8657264081
 20
-0.0105556897
 10
8.6969619096
 20
-0.3807208383
 10
8.4829001857
 20
-0.7266578235
 10
8.2249963099
 20
-1.041229605
 10
7.8174474694
 20
-1.398446946
 10
7.3465276212
 20
-1.6663288048
 10
6.8283434241
 20
-1.8237030907
 10
6.4231885473
 20
-1.856154802
 10
6.020046587
 20
-1.8055552931
 10
5.6391327577
 20
-1.6647967187
 10
5.3078208636
 20
-1.4305521077
 10
5.2598408821
 20
-1.3825930717
 10
5.2366556514
 20
-1.3579869365
 10
5.2261128893
 20
-1.3438553403
 10
5.2186021256
 20
-1.3413398705
 10
5.2105310583
 20
-1.3399906555
 10
5.2040106931
 20
-1.3311589914
 10
5.1989296055
 20
-1.3242016698
 10
5.1890784345
 20
-1.3133975888
 10
5.1792719751
 20
-1.2987443017
 10
5.1638841119
 20
-1.2942824171
 10
5.1551553446
 20
-1.278152161
 10
5.1488937592
 20
-1.2734114744
 10
5.1404306927
 20
-1.2724099713
 10
5.1340165954
 20
-1.264135278
 10
5.1294928705
 20
-1.2567879794
 10
5.1215575648
 20
-1.2436834766
 10
5.1159397034
 20
-1.23800371
 10
5.1074770655
 20
-1.236799862
 10
5.1015901648
 20
-1.2298945512
 10
5.0987427657
 20
-1.2218080102
 10
5.0942679163
 20
-1.2145498794
 10
5.0860318557
 20
-1.2128489317
 10
5.0803799095
 20
-1.2074279129
 10
5.0759981789
 20
-1.2001159154
 10
5.0675838942
 20
-1.1985977628
 10
5.0622966253
 20
-1.1926734851
 10
5.0591706328
 20
-1.182206417
 10
5.0553971642
 20
-1.1758481737
 10
5.0471995113
 20
-1.1738832055
 10
5.0420899579
 20
-1.1678652973
 10
5.0377731933
 20
-1.1607342704
 10
5.0329080473
 20
-1.1599396535
 10
5.0295050279
 20
-1.1588001591
 10
5.0272137753
 20
-1.1547392783
 10
5.0260195076
 20
-1.1507594266
 10
5.0198660561
 20
-1.1460254812
 10
5.0130709296
 20
-1.1422101374
 10
5.0100165019
 20
-1.1337308378
 10
5.0020708056
 20
-1.1312028794
 10
4.9977239086
 20
-1.1244415411
 10
4.9932765124
 20
-1.1177123505
 10
4.985492828
 20
-1.1149722879
 10
4.9828104839
 20
-1.1063437011
 10
4.975927876
 20
-1.1024511306
 10
4.9705683749
 20
-1.0969593147
 10
4.9693814312
 20
-1.0918428131
 10
4.9673861992
 20
-1.0889784662
 10
4.9627063002
 20
-1.0876899694
 10
4.9593050578
 20
-1.0864054139
 10
4.957344133
 20
-1.0822235971
 10
4.9565526749
 20
-1.0781188349
 10
4.9508008138
 20
-1.0729581221
 10
4.9463347044
 20
-1.071425264
 10
4.9446831639
 20
-1.0682929165
 10
4.9437293751
 20
-1.0630981379
 10
4.9422976097
 20
-1.0597036417
 10
4.9380863348
 20
-1.0578346008
 10
4.9344112602
 20
-1.056761296
 10
4.9311897986
 20
-1.049156492
 10
4.9270884506
 20
-1.0423946048
 10
4.9180337147
 20
-1.0405139985
 10
4.9125986893
 20
-1.0351262257
 10
4.9105094496
 20
-1.0265423292
 10
4.9028225451
 20
-1.0232281986
 10
4.8998289689
 20
-1.0156038624
 10
4.8961073038
 20
-1.0086133779
 10
4.8871803038
 20
-1.0063419599
 10
4.8819176445
 20
-1.0007976529
 10
4.8801950565
 20
-0.9921516296
 10
4.8728908957
 20
-0.9883452497
 10
4.8650157099
 20
-0.9849933988
 10
4.8631898577
 20
-0.9765860588
 10
4.8588688801
 20
-0.9702362987
 10
4.850036645
 20
-0.9675596653
 10
4.8461127684
 20
-0.9609492752
 10
4.8443245089
 20
-0.952635974
 10
4.8396596983
 20
-0.9501990462
 10
4.835640372
 20
-0.9485597135
 10
4.8288808018
 20
-0.9452594356
 10
4.8224771736
 20
-0.940541792
 10
4.8217333178
 20
-0.9316191957
 10
4.8158818739
 20
-0.9264442297
 10
4.8077192045
 20
-0.9229157811
 10
4.8061659941
 20
-0.9147170498
 10
4.8029742126
 20
-0.907645971
 10
4.7879142855
 20
-0.8994772008
 10
4.7799247954
 20
-0.8956199167
 10
4.7773474841
 20
-0.8882522113
 10
4.7758021827
 20
-0.8801974283
 10
4.7680265561
 20
-0.8761119623
 10
4.7533444604
 20
-0.8672529288
 10
4.7498980429
 20
-0.860486892
 10
4.7503102653
 20
-0.855311452
 10
4.7494888248
 20
-0.85191205
 10
4.7452046464
 20
-0.8488854958
 10
4.7413445234
 20
-0.8467888056
 10
4.7353028735
 20
-0.8425200888
 10
4.720886087
 20
-0.8330966272
 10
4.7177097202
 20
-0.8262148436
 10
4.7183863519
 20
-0.82105968
 10
4.7177313206
 20
-0.8176271007
 10
4.7129648239
 20
-0.8140907971
 10
4.7088958526
 20
-0.8114705629
 10
4.7023662808
 20
-0.8063773119
 10
4.6904530994
 20
-0.7973308079
 10
4.6831382422
 20
-0.7913942223
 10
4.6767218153
 20
-0.7869972598
 10
4.6762152711
 20
-0.778932227
 10
4.6749150969
 20
-0.771198207
 10
4.66615311
 20
-0.7646506009
 10
4.6598575402
 20
-0.7592038348
 10
4.6485904652
 20
-0.7494079157
 10
4.5993057161
 20
-0.7027950321
 10
4.5731226184
 20
-0.6752646146
 10
4.5532940314
 20
-0.6529505577
 10
4.5475741739
 20
-0.646991764
 10
4.5387678731
 20
-0.6483017826
 10
4.532278777
 20
-0.6442591298
 10
4.5270592924
 20
-0.6373287415
 10
4.5062410081
 20
-0.6103830588
 10
4.4999069333
 20
-0.6060518513
 10
4.4910500864
 20
-0.606776159
 10
4.4852364237
 20
-0.5995055282
 10
4.4808280738
 20
-0.5935403175
 10
4.4712635759
 20
-0.5793283464
 10
4.4651222343
 20
-0.5747183899
 10
4.4562395441
 20
-0.5750071725
 10
4.450747403
 20
-0.5675000717
 10
4.4465967175
 20
-0.5613641662
 10
4.4421299478
 20
-0.5540307439
 10
4.436789318
 20
-0.5481683492
 10
4.4278118881
 20
-0.5482263018
 10
4.4224802098
 20
-0.5424333639
 10
4.4138747736
 20
-0.5276977097
 10
4.4094595467
 20
-0.520583985
 10
4.4007190238
 20
-0.5199216988
 10
4.3945161282
 20
-0.5155245606
 10
4.3911711634
 20
-0.5069913461
 10
4.3836736221
 20
-0.50436848
 10
4.375845516
 20
-0.5022377824
 10
4.371672714
 20
-0.4934427127
 10
4.3684215303
 20
-0.4865758166
 10
4.3630134253
 20
-0.4810505013
 10
4.3541524592
 20
-0.4800969334
 10
4.3495027781
 20
-0.4721466937
 10
4.3462949263
 20
-0.4653628863
 10
4.3379179567
 20
-0.4635969916
 10
4.3313997086
 20
-0.4595274185
 10
4.3287670718
 20
-0.4506930534
 10
4.3225383133
 20
-0.4462057686
 10
4.3140883064
 20
-0.4443681197
 10
4.3106859759
 20
-0.4365846796
 10
4.3070723458
 20
-0.4290824189
 10
4.2982913691
 20
-0.4274361044
 10
4.2932846544
 20
-0.4215907786
 10
4.2877695919
 20
-0.4162245723
 10
4.279227525
 20
-0.4142133439
 10
4.2761773881
 20
-0.4062450594
 10
4.272901491
 20
-0.3985538191
 10
4.2642301611
 20
-0.3964814967
 10
4.2593314816
 20
-0.3905573152
 10
4.254111293
 20
-0.3848651459
 10
4.2488963705
 20
-0.3840029733
 10
4.2456670594
 20
-0.3824734498
 10
4.2439925087
 20
-0.378100761
 10
4.2428078802
 20
-0.3745098611
 10
4.2388759397
 20
-0.3723000858
 10
4.2347627032
 20
-0.3715730602
 10
4.2304691542
 20
-0.3697587592
 10
4.2290616828
 20
-0.366443279
 10
4.2249240985
 20
-0.3597199459
 10
4.2162129694
 20
-0.3573402324
 10
4.2132624932
 20
-0.3496149781
 10
4.206253978
 20
-0.3455296831
 10
4.1995139818
 20
-0.3412778352
 10
4.1965940111
 20
-0.3335391904
 10
4.1879510645
 20
-0.3308437394
 10
4.1841863986
 20
-0.3239489356
 10
4.1788837781
 20
-0.3182767289
 10
4.1738261454
 20
-0.3168918958
 10
4.1709495195
 20
-0.3148943429
 10
4.1697589952
 20
-0.3102779829
 10
4.1688064791
 20
-0.3066421264
 10
4.165069289
 20
-0.3040844954
 10
4.1610753551
 20
-0.3029523824
 10
4.1556290795
 20
-0.2974684195
 10
4.1524929925
 20
-0.2900467691
 10
4.1440185209
 20
-0.2868778131
 10
4.1408896732
 20
-0.2795386064
 10
4.1367231049
 20
-0.2729656034
 10
4.1277582383
 20
-0.2700529213
 10
4.1191337983
 20
-0.2668104193
 10
4.1157597123
 20
-0.2596877598
 10
4.1122463349
 20
-0.2526303723
 10
4.1040311231
 20
-0.2489863096
 10
4.1014289846
 20
-0.2413434154
 10
4.0974422489
 20
-0.2346465211
 10
4.0803251913
 20
-0.2275562728
 10
4.0767894658
 20
-0.2205779647
 10
4.0745820815
 20
-0.2127069722
 10
4.0660727983
 20
-0.2078745592
 10
4.0582369829
 20
-0.2047758728
 10
4.0526474799
 20
-0.1991111954
 10
4.0515163952
 20
-0.190626262
 10
4.0436795806
 20
-0.1839772201
 10
4.0361974732
 20
-0.1795714514
 10
4.023415009
 20
-0.1712027422
 10
4.0172769122
 20
-0.1657720077
 10
4.016341911
 20
-0.1572943663
 10
4.0115627459
 20
-0.1510213612
 10
4.0035660856
 20
-0.1465864258
 10
3.9761086713
 20
-0.1259180622
 10
3.9712776863
 20
-0.1196277214
 10
3.9707799389
 20
-0.1110564176
 10
3.9646356644
 20
-0.1043401409
 10
3.9578924441
 20
-0.1000403985
 10
3.9078987324
 20
-0.0542604703
 10
3.8958053354
 20
-0.0424066334
 10
3.8885036633
 20
-0.0369720262
 10
3.8852191062
 20
-0.0298297049
 10
3.8851628763
 20
-0.0213022085
 10
3.8790244211
 20
-0.0152932306
 10
3.8745276257
 20
-0.0086442168
 10
3.874887302
 20
0.0
  0
MTEXT
  5
84
330
1F
100
AcDbEntity
  8
0
  6
Continuous
 62
     7
100
AcDbMText
 10
-1.8571857254
 20
-3.7427537251
 30
0.0
 40
0.1903
 41
0.0
 71
     1
 72
     1
  1
SOLIDWORKS Educational Product.
  7
SLDTEXTSTYLE0
 73
     1
 44
1.0
  0
MTEXT
  5
85
330
1F
100
AcDbEntity
  8
0
  6
Continuous
 62
     7
100
AcDbMText
 10
-1.8571857254
 20
-4.0282037251
 30
0.0
 40
0.1903
 41
0.0
 71
     1
 72
     1
  1
For Instructional Use Only.
  7
SLDTEXTSTYLE0
 73
     1
 44
1.0
  0
ENDSEC
  0
SECTION
  2
OBJECTS
  0
DICTIONARY
  5
C
330
0
100
AcDbDictionary
281
     1
  3
ACAD_GROUP
350
D
  3
ACAD_LAYOUT
350
1A
  3
ACAD_MLINESTYLE
350
17
  3
ACAD_PLOTSETTINGS
350
19
  3
ACAD_PLOTSTYLENAME
350
E
  3
ACAD_SCALELIST
350
47
  0
DICTIONARY
  5
D
102
{ACAD_REACTORS
330
C
102
}
330
C
100
AcDbDictionary
281
     1
  0
DICTIONARY
  5
1A
102
{ACAD_REACTORS
330
C
102
}
330
C
100
AcDbDictionary
281
     1
  3
Layout1
350
1E
  3
Layout2
350
26
  3
Model
350
22
  0
DICTIONARY
  5
17
102
{ACAD_REACTORS
330
C
102
}
330
C
100
AcDbDictionary
281
     1
  3
Standard
350
18
  0
DICTIONARY
  5
19
102
{ACAD_REACTORS
330
C
102
}
330
C
100
AcDbDictionary
281
     1
  0
ACDBDICTIONARYWDFLT
  5
E
102
{ACAD_REACTORS
330
C
102
}
330
C
100
AcDbDictionary
281
     1
  3
Normal
350
F
100
AcDbDictionaryWithDefault
340
F
  0
DICTIONARY
  5
47
102
{ACAD_REACTORS
330
C
102
}
330
C
100
AcDbDictionary
281
     1
  3
A0
350
48
  3
A1
350
49
  3
A2
350
4A
  3
A3
350
4B
  3
A4
350
4C
  3
A5
350
4D
  3
A6
350
4E
  3
A7
350
4F
  3
A8
350
50
  3
A9
350
51
  3
B0
350
52
  3
B1
350
53
  3
B2
350
54
  3
B3
350
55
  3
B4
350
56
  3
B5
350
57
  3
B6
350
58
  3
B7
350
59
  3
B8
350
5A
  3
B9
350
5B
  3
C0
350
5C
  3
C1
350
5D
  3
C2
350
5E
  3
C3
350
5F
  3
C4
350
60
  3
C5
350
61
  3
C6
350
62
  3
C7
350
63
  3
C8
350
64
  3
C9
350
65
  3
D0
350
66
  3
D1
350
67
  3
D2
350
68
  0
LAYOUT
  5
1E
102
{ACAD_REACTORS
330
1A
102
}
330
1A
100
AcDbPlotSettings
  1

  2
none_device
  4

  6

 40
0.0
 41
0.0
 42
0.0
 43
0.0
 44
0.0
 45
0.0
 46
0.0
 47
0.0
 48
0.0
 49
0.0
140
0.0
141
0.0
142
1.0
143
1.0
 70
   688
 72
     0
 73
     0
 74
     5
  7

 75
    16
147
1.0
148
0.0
149
0.0
100
AcDbLayout
  1
Layout1
 70
     1
 71
     1
 10
0.0
 20
0.0
 11
12.0
 21
9.0
 12
0.0
 22
0.0
 32
0.0
 14
1.0000000000E+20
 24
1.0000000000E+20
 34
1.0000000000E+20
 15
-1.0000000000E+20
 25
-1.0000000000E+20
 35
-1.0000000000E+20
146
0.0
 13
0.0
 23
0.0
 33
0.0
 16
1.0
 26
0.0
 36
0.0
 17
0.0
 27
1.0
 37
0.0
 76
     0
330
1B
  0
LAYOUT
  5
26
102
{ACAD_REACTORS
330
1A
102
}
330
1A
100
AcDbPlotSettings
  1

  2
none_device
  4

  6

 40
0.0
 41
0.0
 42
0.0
 43
0.0
 44
0.0
 45
0.0
 46
0.0
 47
0.0
 48
0.0
 49
0.0
140
0.0
141
0.0
142
1.0
143
1.0
 70
   688
 72
     0
 73
     0
 74
     5
  7

 75
    16
147
1.0
148
0.0
149
0.0
100
AcDbLayout
  1
Layout2
 70
     1
 71
     2
 10
0.0
 20
0.0
 11
0.0
 21
0.0
 12
0.0
 22
0.0
 32
0.0
 14
0.0
 24
0.0
 34
0.0
 15
0.0
 25
0.0
 35
0.0
146
0.0
 13
0.0
 23
0.0
 33
0.0
 16
1.0
 26
0.0
 36
0.0
 17
0.0
 27
1.0
 37
0.0
 76
     0
330
23
  0
LAYOUT
  5
22
102
{ACAD_REACTORS
330
1A
102
}
330
1A
100
AcDbPlotSettings
  1

  2
none_device
  4
ANSI_A_(11.00_x_8.50_Inches)
  6

 40
6.35
 41
19.05
 42
6.35000508
 43
19.05000254
 44
279.4
 45
215.9
 46
42.3201575986
 47
88.9274054117
 48
0.0
 49
0.0
140
0.0
141
0.0
142
1.0021335031
143
1.0
 70
  1696
 72
     0
 73
     0
 74
     0
  7

 75
     0
147
0.5913241897
148
-39.4088153714
149
0.0
100
AcDbLayout
  1
Model
 70
     1
 71
     0
 10
0.0
 20
0.0
 11
12.0
 21
9.0
 12
0.0
 22
0.0
 32
0.0
 14
-1.8571857254
 24
-3.702613316
 34
0.0
 15
9.0096298893
 25
3.7004599039
 35
0.0
146
0.0
 13
0.0
 23
0.0
 33
0.0
 16
1.0
 26
0.0
 36
0.0
 17
0.0
 27
1.0
 37
0.0
 76
     0
330
1F
331
29
  0
MLINESTYLE
  5
18
102
{ACAD_REACTORS
330
17
102
}
330
17
100
AcDbMlineStyle
  2
Standard
 70
     0
  3

 62
   256
 51
90.0
 52
90.0
 71
     2
 49
0.5
 62
   256
  6
BYLAYER
 49
-0.5
 62
   256
  6
BYLAYER
  0
ACDBPLACEHOLDER
  5
F
102
{ACAD_REACTORS
330
E
102
}
330
E
  0
SCALE
  5
48
102
{ACAD_REACTORS
330
47
102
}
330
47
100
AcDbScale
 70
     0
300
1:1
140
1.0
141
1.0
290
     1
  0
SCALE
  5
49
102
{ACAD_REACTORS
330
47
102
}
330
47
100
AcDbScale
 70
     0
300
1:2
140
1.0
141
2.0
290
     0
  0
SCALE
  5
4A
102
{ACAD_REACTORS
330
47
102
}
330
47
100
AcDbScale
 70
     0
300
1:4
140
1.0
141
4.0
290
     0
  0
SCALE
  5
4B
102
{ACAD_REACTORS
330
47
102
}
330
47
100
AcDbScale
 70
     0
300
1:5
140
1.0
141
5.0
290
     0
  0
SCALE
  5
4C
102
{ACAD_REACTORS
330
47
102
}
330
47
100
AcDbScale
 70
     0
300
1:8
140
1.0
141
8.0
290
     0
  0
SCALE
  5
4D
102
{ACAD_REACTORS
330
47
102
}
330
47
100
AcDbScale
 70
     0
300
1:10
140
1.0
141
10.0
290
     0
  0
SCALE
  5
4E
102
{ACAD_REACTORS
330
47
102
}
330
47
100
AcDbScale
 70
     0
300
1:16
140
1.0
141
16.0
290
     0
  0
SCALE
  5
4F
102
{ACAD_REACTORS
330
47
102
}
330
47
100
AcDbScale
 70
     0
300
1:20
140
1.0
141
20.0
290
     0
  0
SCALE
  5
50
102
{ACAD_REACTORS
330
47
102
}
330
47
100
AcDbScale
 70
     0
300
1:30
140
1.0
141
30.0
290
     0
  0
SCALE
  5
51
102
{ACAD_REACTORS
330
47
102
}
330
47
100
AcDbScale
 70
     0
300
1:40
140
1.0
141
40.0
290
     0
  0
SCALE
  5
52
102
{ACAD_REACTORS
330
47
102
}
330
47
100
AcDbScale
 70
     0
300
1:50
140
1.0
141
50.0
290
     0
  0
SCALE
  5
53
102
{ACAD_REACTORS
330
47
102
}
330
47
100
AcDbScale
 70
     0
300
1:100
140
1.0
141
100.0
290
     0
  0
SCALE
  5
54
102
{ACAD_REACTORS
330
47
102
}
330
47
100
AcDbScale
 70
     0
300
2:1
140
2.0
141
1.0
290
     0
  0
SCALE
  5
55
102
{ACAD_REACTORS
330
47
102
}
330
47
100
AcDbScale
 70
     0
300
4:1
140
4.0
141
1.0
290
     0
  0
SCALE
  5
56
102
{ACAD_REACTORS
330
47
102
}
330
47
100
AcDbScale
 70
     0
300
8:1
140
8.0
141
1.0
290
     0
  0
SCALE
  5
57
102
{ACAD_REACTORS
330
47
102
}
330
47
100
AcDbScale
 70
     0
300
10:1
140
10.0
141
1.0
290
     0
  0
SCALE
  5
58
102
{ACAD_REACTORS
330
47
102
}
330
47
100
AcDbScale
 70
     0
300
100:1
140
100.0
141
1.0
290
     0
  0
SCALE
  5
59
102
{ACAD_REACTORS
330
47
102
}
330
47
100
AcDbScale
 70
     0
300
1/128" = 1'-0"
140
0.0078125
141
12.0
290
     0
  0
SCALE
  5
5A
102
{ACAD_REACTORS
330
47
102
}
330
47
100
AcDbScale
 70
     0
300
1/64" = 1'-0"
140
0.015625
141
12.0
290
     0
  0
SCALE
  5
5B
102
{ACAD_REACTORS
330
47
102
}
330
47
100
AcDbScale
 70
     0
300
1/32" = 1'-0"
140
0.03125
141
12.0
290
     0
  0
SCALE
  5
5C
102
{ACAD_REACTORS
330
47
102
}
330
47
100
AcDbScale
 70
     0
300
1/16" = 1'-0"
140
0.0625
141
12.0
290
     0
  0
SCALE
  5
5D
102
{ACAD_REACTORS
330
47
102
}
330
47
100
AcDbScale
 70
     0
300
3/32" = 1'-0"
140
0.09375
141
12.0
290
     0
  0
SCALE
  5
5E
102
{ACAD_REACTORS
330
47
102
}
330
47
100
AcDbScale
 70
     0
300
1/8" = 1'-0"
140
0.125
141
12.0
290
     0
  0
SCALE
  5
5F
102
{ACAD_REACTORS
330
47
102
}
330
47
100
AcDbScale
 70
     0
300
3/16" = 1'-0"
140
0.1875
141
12.0
290
     0
  0
SCALE
  5
60
102
{ACAD_REACTORS
330
47
102
}
330
47
100
AcDbScale
 70
     0
300
1/4" = 1'-0"
140
0.25
141
12.0
290
     0
  0
SCALE
  5
61
102
{ACAD_REACTORS
330
47
102
}
330
47
100
AcDbScale
 70
     0
300
3/8" = 1'-0"
140
0.375
141
12.0
290
     0
  0
SCALE
  5
62
102
{ACAD_REACTORS
330
47
102
}
330
47
100
AcDbScale
 70
     0
300
1/2" = 1'-0"
140
0.5
141
12.0
290
     0
  0
SCALE
  5
63
102
{ACAD_REACTORS
330
47
102
}
330
47
100
AcDbScale
 70
     0
300
3/4" = 1'-0"
140
0.75
141
12.0
290
     0
  0
SCALE
  5
64
102
{ACAD_REACTORS
330
47
102
}
330
47
100
AcDbScale
 70
     0
300
1" = 1'-0"
140
1.0
141
12.0
290
     0
  0
SCALE
  5
65
102
{ACAD_REACTORS
330
47
102
}
330
47
100
AcDbScale
 70
     0
300
1-1/2" = 1'-0"
140
1.5
141
12.0
290
     0
  0
SCALE
  5
66
102
{ACAD_REACTORS
330
47
102
}
330
47
100
AcDbScale
 70
     0
300
3" = 1'-0"
140
3.0
141
12.0
290
     0
  0
SCALE
  5
67
102
{ACAD_REACTORS
330
47
102
}
330
47
100
AcDbScale
 70
     0
300
6" = 1'-0"
140
6.0
141
12.0
290
     0
  0
SCALE
  5
68
102
{ACAD_REACTORS
330
47
102
}
330
47
100
AcDbScale
 70
     0
300
1'-0" = 1'-0"
140
12.0
141
12.0
290
     0
  0
ENDSEC
  0
EOF
